<?xml version="1.0" encoding="utf-8"?>
<!-- Generator: Adobe Illustrator 16.0.0, SVG Export Plug-In . SVG Version: 6.00 Build 0)  -->
<!DOCTYPE svg PUBLIC "-//W3C//DTD SVG 1.1//EN" "http://www.w3.org/Graphics/SVG/1.1/DTD/svg11.dtd">
<svg version="1.1" id="Layer_1" xmlns="http://www.w3.org/2000/svg" xmlns:xlink="http://www.w3.org/1999/xlink" x="0px" y="0px"
	 width="300px" height="300px" viewBox="0 0 300 300" enable-background="new 0 0 300 300" xml:space="preserve">
<path fill="none" d="M240.528,131.033l-6.343,6.252c-3.677-9.629-8.837-18.925-15.661-27.701l-4.555,4.566
	c6.741,8.83,11.743,18.253,15.231,28.047l-14.255,14.05c-4.895-8.322-10.871-16.692-18.017-25.01l-4.539,4.551
	c7.087,8.347,12.963,16.788,17.759,25.188l-21.591,21.278l-21.13-21.437l-3.881,3.892l21.097,21.405l-21.271,20.962
	c-8.164-4.818-16.352-10.677-24.435-17.692l-4.536,4.548c8.025,7.043,16.113,12.975,24.174,17.873l-14.259,14.054
	c-9.394-3.5-18.424-8.406-26.886-14.91l-4.552,4.564c8.379,6.557,17.253,11.589,26.457,15.255l-6.34,6.251
	c-10.15-2.693-19.704-7.011-28.409-13.191l-4.334,4.346c15.514,11.275,34.603,17.932,55.249,17.932
	c51.958,0,94.078-42.121,94.078-94.079c0-20.737-6.714-39.903-18.08-55.453l-4.618,4.63
	C233.408,110.329,237.861,120.369,240.528,131.033z M140.811,238.964l5.54-5.459c9.159,2.55,19.578,4.651,29.08,4.493
	C164.061,240.608,151.438,240.068,140.811,238.964z M151.504,228.425l13.16-12.971c12.629,6.854,24.755,10.815,35.011,11.273
	C185.347,232.763,168.285,233.117,151.504,228.425z M169.531,210.656l19.934-19.647l0.002-0.002l24.729,25.091
	C204.793,222.221,187.634,219.832,169.531,210.656z M218.109,212.239l-24.729-25.089l20.255-19.963
	C222.548,185.42,225.348,201.962,218.109,212.239z M229.27,197.556c-0.312-10.261-4.095-22.444-10.767-35.166l13.161-12.972
	C236.111,166.264,235.508,183.321,229.27,197.556z M240.893,173.487c0.292-9.5-1.658-19.949-4.075-29.146l5.545-5.464
	C243.305,149.522,243.662,162.153,240.893,173.487z"/>
<path opacity="0.4" fill="#FFFFFF" stroke="#000000" stroke-miterlimit="10" d="M61.424,152.026"/>
<path opacity="0.4" fill="#FFFFFF" stroke="#000000" stroke-miterlimit="10" d="M61.482,155.313"/>
<path fill="#242333" stroke="#242333" stroke-width="0.5" stroke-miterlimit="10" d="M240.528,131.033
	c-2.667-10.664-7.12-20.704-13.646-29.83l-8.358,8.381c6.824,8.776,11.984,18.072,15.661,27.701L240.528,131.033z"/>
<path fill="#3F3D56" stroke="#3F3D56" stroke-width="0.5" stroke-miterlimit="10" d="M151.504,228.425
	c16.781,4.692,33.843,4.338,48.171-1.697c-10.256-0.458-22.382-4.42-35.011-11.273L151.504,228.425z"/>
<path fill="#3F3D56" stroke="#3F3D56" stroke-width="0.5" stroke-miterlimit="10" d="M139.337,230.769
	c-9.204-3.666-18.078-8.698-26.457-15.255l-8.292,8.314c8.705,6.181,18.258,10.498,28.409,13.191L139.337,230.769z"/>
<path fill="#3F3D56" stroke="#3F3D56" stroke-width="0.5" stroke-miterlimit="10" d="M158.577,211.806
	c-8.061-4.898-16.148-10.83-24.174-17.873l-16.971,17.017c8.462,6.504,17.492,11.41,26.886,14.91L158.577,211.806z"/>
<path fill="#242333" stroke="#242333" stroke-width="0.5" stroke-miterlimit="10" d="M218.503,162.39
	c6.672,12.722,10.455,24.905,10.767,35.166c6.238-14.234,6.842-31.292,2.395-48.138L218.503,162.39z"/>
<path fill="#242333" stroke="#242333" stroke-width="0.5" stroke-miterlimit="10" d="M229.201,142.198
	c-3.488-9.794-8.49-19.218-15.231-28.047l-17.04,17.087c7.146,8.318,13.122,16.688,18.017,25.01L229.201,142.198z"/>
<path fill="#3F3D56" stroke="#3F3D56" stroke-width="0.5" stroke-miterlimit="10" d="M140.811,238.964
	c10.627,1.104,23.25,1.645,34.62-0.966c-9.502,0.158-19.921-1.943-29.08-4.493L140.811,238.964z"/>
<path fill="#242333" stroke="#242333" stroke-width="0.5" stroke-miterlimit="10" d="M240.893,173.487
	c2.77-11.334,2.412-23.965,1.47-34.611l-5.545,5.464C239.234,153.538,241.185,163.987,240.893,173.487z"/>
<path fill="#242333" stroke="#242333" stroke-width="0.5" stroke-miterlimit="10" d="M210.149,160.977
	c-4.796-8.399-10.672-16.841-17.759-25.188l-24.962,25.029l21.13,21.437L210.149,160.977z"/>
<path fill="#3F3D56" stroke="#3F3D56" stroke-width="0.5" stroke-miterlimit="10" d="M189.465,191.009l-19.934,19.647
	c18.103,9.176,35.262,11.564,44.664,5.441l-24.729-25.091L189.465,191.009z"/>
<path d="M85.814,88.511c-1.923,1.924-3.552,3.981-4.886,6.165c2.198-2.854,4.556-5.579,7.062-8.16
	C87.247,87.143,86.521,87.804,85.814,88.511z"/>
<path stroke="#000000" stroke-miterlimit="10" d="M172.008,72.313"/>
<path fill="#BD171B" d="M87.274,27.868C43.02,52.048,13,99.017,13,153c0,34.57,11.708,66.055,32.579,90.863l34.934-35.027
	c-11.361-14.974-18.338-33.453-19.026-53.53c1.493-2.627,2.52-3.696,4.49-5.583c2.065-1.975,4.592-3.563,7.511-4.718
	c2.909-1.152,6.134-1.736,9.586-1.736c1.355,0,2.667,0.556,5.194,2.203c1.581,1.031,3.405,2.206,5.418,3.492
	c1.737,1.109,4.093,2.147,6.999,3.085c2.842,0.919,5.724,1.384,8.569,1.384s5.727-0.465,8.566-1.384
	c2.824-0.913,5.122-1.917,6.845-2.989L87.274,27.868z"/>
<path fill="#3F3D56" stroke="#3F3D56" stroke-miterlimit="10" d="M238.132,197.043c-16.034,28.973-47.171,49.063-82.629,49.063
	c-20.646,0-39.735-6.656-55.249-17.932l-34.341,34.434c20.127,11.279,21.123-19.519,48.753-7.936
	c31,12.995,1.998,41.928,40.833,40.828c41.167-1.166,7.552-27.823,41.167-41.828c32.813-13.671,33.043,30.594,60.173-0.49
	c25.889-29.662-9.6-25.447,0.175-58.229C250.846,195.874,244.524,196.903,238.132,197.043z"/>
<path fill="#3F3D56" stroke="#3F3D56" stroke-width="0.5" stroke-miterlimit="10" d="M138.939,189.385
	c8.083,7.016,16.271,12.874,24.435,17.692l20.3-19.994c-9.979-3.726-19.453-8.486-28.285-14.161L138.939,189.385z"/>
<path fill="#3F3D56" stroke="#3F3D56" stroke-width="0.5" stroke-miterlimit="10" d="M218.109,212.239
	c2.92-4.146,4.558-9.763,4.081-16.329c-7.745-0.635-15.963-1.42-23.326-3.196L218.109,212.239z"/>
<path fill="#FFFFFF" d="M89.961,84.462c-0.762,0.541-1.508,1.119-2.237,1.734c-2.538,2.615-4.926,5.375-7.153,8.266
	c-3.016,4.935-4.54,10.51-4.54,16.654c0,8.9,3.193,16.605,9.491,22.901c6.296,6.296,14.002,9.489,22.898,9.489
	c3.529,0,6.869-0.511,10.008-1.509L89.961,84.462z"/>
<rect x="106.426" y="146.156" fill="none" width="0" height="73.393"/>
<path fill="#FFFFFF" d="M124.666,149.06c-1.723,1.072-4.021,2.076-6.845,2.989c-2.839,0.919-5.721,1.384-8.566,1.384
	s-5.727-0.465-8.569-1.384c-2.906-0.938-5.262-1.977-6.999-3.085c-2.014-1.287-3.837-2.461-5.418-3.492
	c-2.527-1.647-3.839-2.203-5.194-2.203c-3.452,0-6.677,0.584-9.586,1.736c-2.919,1.156-5.446,2.744-7.511,4.718
	c-1.97,1.887-2.997,2.956-4.49,5.583c0.688,20.077,7.665,38.557,19.026,53.53l51.827-51.967
	C129.688,154.359,127.127,151.756,124.666,149.06z"/>
<path fill="#84080B" d="M118.363,141.632c2.042,2.555,4.162,5.045,6.366,7.458c0.052-0.032,0.108-0.064,0.16-0.097l6.987,3.35
	c3.206,0,12.575-7.524,12.575-7.524L246.051,42.946c0,0-3.784-16.337-13.113-21.915c-18.222-10.894-51.811-15.333-74.531-15.333
	c-24.717,0-50.807,11.13-71.069,22.201c-0.964,6.841-1.474,13.829-1.474,20.936c0,12.415,1.53,24.472,4.396,36L118.363,141.632z"/>
<path fill="#242333" stroke="#242333" stroke-miterlimit="10" d="M257.667,193.005C270.129,158.012,297.586,196.888,298,153
	c0.405-42.981-24.114-9.839-39.333-42.995c-13.771-30.002,17.987-27.723,6.381-47.069l-33.547,33.638
	c11.366,15.55,18.08,34.716,18.08,55.453c0,16.5-4.253,32.005-11.715,45.487c6.393-0.14,12.685-0.682,18.854-1.604
	C256.999,194.972,257.311,194.007,257.667,193.005z"/>
<path fill="#242333" stroke="#242333" stroke-width="0.5" stroke-miterlimit="10" d="M163.548,164.71l-9.301,9.326
	c8.832,5.675,18.307,10.436,28.285,14.161l2.112-2.082L163.548,164.71z"/>
<path fill="#242333" stroke="#242333" stroke-width="0.5" stroke-miterlimit="10" d="M193.381,187.15l6.16,6.25
	c7.363,1.776,14.938,3.008,22.684,3.643c-0.132-8.702-3.271-18.978-8.589-29.855L193.381,187.15z"/>
<path fill="#E5E5E5" d="M140.81,111.116c0-8.896-3.191-16.602-9.49-22.9c-6.296-6.295-14.001-9.487-22.9-9.487
	c-6.907,0-13.092,1.928-18.459,5.733c5.304,21.34,15.155,40.879,28.467,57.535c4.779-1.52,9.094-4.18,12.894-7.98
	C137.618,127.72,140.81,120.017,140.81,111.116z"/>
<path fill="#E5E5E5" d="M135.437,143.269c-1.355,0-2.667,0.556-5.197,2.204c-1.558,1.015-3.38,2.19-5.414,3.49
	c-0.051,0.033-0.108,0.064-0.16,0.097c2.461,2.696,5.022,5.3,7.674,7.81l4.035-4.046l8.013-8.035
	C141.642,143.794,138.642,143.269,135.437,143.269z"/>
<path fill="#E3595C" stroke="#E3595C" stroke-miterlimit="10" d="M77.402,2.875C64.113,2.878,45.24,2.883,41.763,2.889
	C25.926,2.916,6.267,15.835,3.001,37.587S14.78,72.313,14.78,72.313h58.15c-8.721-10.41-13.313-21.196-13.313-32.249
	C59.617,27.252,65.781,14.799,77.402,2.875z"/>
<path fill="#D14043" stroke="#D14043" stroke-miterlimit="10" d="M165.592,43.356c0-22.364,18.131-40.494,40.494-40.494
	c0,0-82.442,0-129.684,0.013C64.781,14.799,58.617,27.252,58.617,40.064c0,11.053,4.593,21.839,13.313,32.249h105.849
	C170.26,64.96,165.592,54.703,165.592,43.356z"/>
<path fill="#6E0406" d="M180.288,12.851c0,0,34.629,5.649,65.651,30.064c0,0,2.41-24.791-19.627-35.915
	C200.313-6.125,180.288,12.851,180.288,12.851z"/>
</svg>
