<svg xmlns="http://www.w3.org/2000/svg" width="843.243" height="842.138" viewBox="0 0 843.243 842.138">
  <g id="Group_96" data-name="Group 96" transform="translate(8524.243 -1461.862)">
    <path id="Path_335" data-name="Path 335" d="M519.085-25.01S669.344-47.346,683.23,106.812C764.882,181.537,816,288.8,816,408c0,225.332-182.668,408-408,408S0,633.332,0,408c0,0,3.989-95.872,32.783-160.922C-65.7,156.72-39.227,11.737,84.554-25.01Z" transform="translate(-8497 1488)" fill="#fff"/>
    <g id="svms_logo" transform="translate(-8491.537 1497.626)">
      <path id="Path_305" data-name="Path 305" d="M468.272,186.979l-16.641,16.4a281.752,281.752,0,0,0-41.087-72.675l-11.95,11.979a269.976,269.976,0,0,1,39.959,73.582l-37.4,36.861a454.773,454.773,0,0,0-47.268-65.615l-11.908,11.94a437.009,437.009,0,0,1,46.591,66.082l-56.645,55.824-55.435-56.241-10.182,10.211,55.349,56.157L265.85,386.481a436.1,436.1,0,0,1-64.106-46.416L189.843,352a453.078,453.078,0,0,0,63.421,46.891l-37.409,36.871a269.894,269.894,0,0,1-70.537-39.117l-11.942,11.974a281,281,0,0,0,69.411,40.022l-16.633,16.4a229.353,229.353,0,0,1-74.532-34.607l-11.37,11.4A245.7,245.7,0,0,0,245.2,488.877c136.314,0,246.818-110.506,246.818-246.82A245.683,245.683,0,0,0,444.584,96.574l-12.116,12.147A228.76,228.76,0,0,1,468.272,186.979ZM206.66,470.14l14.534-14.322c24.029,6.69,51.364,12.2,76.293,11.788C267.658,474.453,234.541,473.036,206.66,470.14Zm28.054-27.65,34.526-34.03c33.133,17.982,64.946,28.374,91.853,29.575C323.5,453.871,278.739,454.8,234.714,442.491Zm47.295-46.618,52.3-51.545.005-.005,64.878,65.827C374.52,426.214,329.5,419.947,282.008,395.873Zm127.446,4.153L344.577,334.2l53.14-52.374C421.1,329.665,428.447,373.064,409.455,400.026ZM438.736,361.5c-.819-26.92-10.743-58.883-28.248-92.259l34.528-34.033C456.684,279.409,455.1,324.158,438.736,361.5Zm30.493-63.146c.766-24.924-4.35-52.337-10.691-76.466l14.547-14.335C475.557,235.485,476.494,268.623,469.23,298.358Z" transform="translate(158.644 152.937)" fill="none"/>
      <path id="Path_306" data-name="Path 306" d="M61.424,152.026" transform="translate(95.606 242.966)" fill="#fff" stroke="#000" stroke-miterlimit="10" stroke-width="1" opacity="0.4"/>
      <path id="Path_307" data-name="Path 307" d="M61.482,155.313" transform="translate(95.7 248.302)" fill="#fff" stroke="#000" stroke-miterlimit="10" stroke-width="1" opacity="0.4"/>
      <path id="Path_308" data-name="Path 308" d="M276.252,179.463a228.838,228.838,0,0,0-35.8-78.26l-21.928,21.988a281.75,281.75,0,0,1,41.087,72.675Z" transform="translate(350.664 160.452)" fill="#242333" stroke="#242333" stroke-miterlimit="10" stroke-width="0.5"/>
      <path id="Path_309" data-name="Path 309" d="M151.5,249.482c44.026,12.31,88.789,11.381,126.379-4.452-26.907-1.2-58.72-11.6-91.853-29.575Z" transform="translate(241.854 345.945)" fill="#3f3d56" stroke="#3f3d56" stroke-miterlimit="10" stroke-width="0.5"/>
      <path id="Path_310" data-name="Path 310" d="M195.753,255.536a281,281,0,0,1-69.411-40.022l-21.754,21.812a229.272,229.272,0,0,0,74.532,34.607Z" transform="translate(165.684 346.041)" fill="#3f3d56" stroke="#3f3d56" stroke-miterlimit="10" stroke-width="0.5"/>
      <path id="Path_311" data-name="Path 311" d="M225.378,240.824a453.224,453.224,0,0,1-63.421-46.891l-44.524,44.645a269.9,269.9,0,0,0,70.537,39.117Z" transform="translate(186.537 311.003)" fill="#3f3d56" stroke="#3f3d56" stroke-miterlimit="10" stroke-width="0.5"/>
      <path id="Path_312" data-name="Path 312" d="M218.5,183.451c17.5,33.377,27.429,65.339,28.248,92.259,16.366-37.343,17.95-82.1,6.283-126.292Z" transform="translate(350.63 238.731)" fill="#242333" stroke="#242333" stroke-miterlimit="10" stroke-width="0.5"/>
      <path id="Path_313" data-name="Path 313" d="M281.594,187.733a269.937,269.937,0,0,0-39.959-73.582L196.93,158.979A454.779,454.779,0,0,1,244.2,224.594Z" transform="translate(315.605 181.474)" fill="#242333" stroke="#242333" stroke-miterlimit="10" stroke-width="0.5"/>
      <path id="Path_314" data-name="Path 314" d="M140.811,247.827c27.88,2.9,61,4.316,90.827-2.534-24.929.415-52.264-5.1-76.293-11.788Z" transform="translate(224.494 375.25)" fill="#3f3d56" stroke="#3f3d56" stroke-miterlimit="10" stroke-width="0.5"/>
      <path id="Path_315" data-name="Path 315" d="M247.509,229.679c7.267-29.735,6.328-62.873,3.857-90.8l-14.547,14.335C243.156,177.342,248.275,204.756,247.509,229.679Z" transform="translate(380.365 221.616)" fill="#242333" stroke="#242333" stroke-miterlimit="10" stroke-width="0.5"/>
      <path id="Path_316" data-name="Path 316" d="M279.508,201.871a437.147,437.147,0,0,0-46.592-66.082l-65.489,65.665,55.435,56.241Z" transform="translate(267.707 216.604)" fill="#242333" stroke="#242333" stroke-miterlimit="10" stroke-width="0.5"/>
      <path id="Path_317" data-name="Path 317" d="M221.829,191.014l-52.3,51.545c47.494,24.074,92.511,30.339,117.178,14.275l-64.878-65.827Z" transform="translate(271.122 306.251)" fill="#3f3d56" stroke="#3f3d56" stroke-miterlimit="10" stroke-width="0.5"/>
      <path id="Path_318" data-name="Path 318" d="M93.747,91.75a87.135,87.135,0,0,0-12.819,16.174A247.672,247.672,0,0,1,99.455,86.516C97.506,88.161,95.6,89.9,93.747,91.75Z" transform="translate(127.271 136.608)"/>
      <path id="Path_319" data-name="Path 319" d="M172.008,72.313" transform="translate(275.143 113.548)" stroke="#000" stroke-miterlimit="10" stroke-width="1"/>
      <path id="Path_320" data-name="Path 320" d="M207.861,27.868C91.759,91.305,13,214.53,13,356.157c0,90.7,30.716,173.3,85.472,238.383l91.651-91.895a245.616,245.616,0,0,1-49.915-140.438c3.917-6.892,6.611-9.7,11.78-14.647a60.43,60.43,0,0,1,19.705-12.378,68.022,68.022,0,0,1,25.149-4.554c3.555,0,7,1.459,13.627,5.78,4.148,2.7,8.933,5.787,14.214,9.161a81,81,0,0,0,18.362,8.094,71.386,71.386,0,0,0,44.954,0,82.754,82.754,0,0,0,17.958-7.842Z" transform="translate(16.987 41.39)" fill="#bd171b"/>
      <path id="Path_321" data-name="Path 321" d="M517.737,200.436c-42.066,76.012-123.755,128.719-216.781,128.719A245.683,245.683,0,0,1,156.008,282.11l-90.1,90.339c52.8,29.591,55.417-51.209,127.905-20.82,81.33,34.093,5.242,110,107.127,107.114,108-3.059,19.813-72.995,108-109.738,86.086-35.866,86.69,80.265,157.866-1.286,67.921-77.82-25.186-66.761.459-152.766C551.092,197.369,534.506,200.069,517.737,200.436Z" transform="translate(102.894 312.659)" fill="#3f3d56" stroke="#3f3d56" stroke-miterlimit="10" stroke-width="1"/>
      <path id="Path_322" data-name="Path 322" d="M138.939,216.113a435.916,435.916,0,0,0,64.106,46.416L256.3,210.074A388.924,388.924,0,0,1,182.1,172.922Z" transform="translate(221.454 276.891)" fill="#3f3d56" stroke="#3f3d56" stroke-miterlimit="10" stroke-width="0.5"/>
      <path id="Path_323" data-name="Path 323" d="M249.354,243.939c7.661-10.877,11.958-25.614,10.707-42.84-20.319-1.666-41.88-3.725-61.2-8.385Z" transform="translate(318.745 309.024)" fill="#3f3d56" stroke="#3f3d56" stroke-miterlimit="10" stroke-width="0.5"/>
      <path id="Path_324" data-name="Path 324" d="M112.577,84.462q-3,2.129-5.869,4.549A251.535,251.535,0,0,0,87.942,110.7c-7.913,12.947-11.911,27.573-11.911,43.692,0,23.35,8.377,43.564,24.9,60.082S137.666,239.366,161,239.366a86.214,86.214,0,0,0,26.256-3.959Z" transform="translate(119.321 133.273)" fill="#fff"/>
      <rect id="Rectangle_60" data-name="Rectangle 60" height="192.55" transform="translate(275.094 379.592)" fill="none"/>
      <path id="Path_325" data-name="Path 325" d="M227.238,158.462A82.753,82.753,0,0,1,209.28,166.3a71.386,71.386,0,0,1-44.954,0,81.12,81.12,0,0,1-18.362-8.094c-5.284-3.377-10.067-6.457-14.214-9.161-6.63-4.321-10.072-5.78-13.627-5.78a68.022,68.022,0,0,0-25.149,4.554A60.517,60.517,0,0,0,73.268,160.2c-5.168,4.951-7.863,7.755-11.78,14.647A245.609,245.609,0,0,0,111.4,315.287l135.97-136.338Q236.933,169.072,227.238,158.462Z" transform="translate(95.709 228.748)" fill="#fff"/>
      <path id="Path_326" data-name="Path 326" d="M171.126,362.327q8.036,10.055,16.7,19.566c.136-.084.283-.168.42-.254l18.331,8.789c8.411,0,32.991-19.74,32.991-19.74L506.121,103.42s-9.927-42.861-34.4-57.495C423.913,17.344,335.79,5.7,276.184,5.7c-64.846,0-133.294,29.2-186.452,58.245A392.316,392.316,0,0,0,97.4,213.317Z" transform="translate(135.285 5.396)" fill="#84080b"/>
      <path id="Path_327" data-name="Path 327" d="M300.149,404.177c32.695-91.806,104.729,10.187,105.815-104.955,1.063-112.762-63.264-25.813-103.192-112.8-36.129-78.711,47.19-72.732,16.741-123.487L231.5,151.187a246.922,246.922,0,0,1,16.7,264.82,392.674,392.674,0,0,0,49.464-4.208C298.4,409.338,299.215,406.806,300.149,404.177Z" transform="translate(371.733 98.324)" fill="#242333" stroke="#242333" stroke-miterlimit="10" stroke-width="1"/>
      <path id="Path_328" data-name="Path 328" d="M178.649,164.71l-24.4,24.467a388.843,388.843,0,0,0,74.207,37.152l5.541-5.462Z" transform="translate(246.308 263.559)" fill="#242333" stroke="#242333" stroke-miterlimit="10" stroke-width="0.5"/>
      <path id="Path_329" data-name="Path 329" d="M193.381,219.559l16.161,16.4a389.348,389.348,0,0,0,59.512,9.558c-.346-22.83-8.582-49.79-22.534-78.326Z" transform="translate(309.843 267.582)" fill="#242333" stroke="#242333" stroke-miterlimit="10" stroke-width="0.5"/>
      <path id="Path_330" data-name="Path 330" d="M223.365,163.7c0-23.339-8.372-43.556-24.9-60.079s-36.732-24.89-60.079-24.89c-18.121,0-34.347,5.058-48.428,15.041a393.908,393.908,0,0,0,74.684,150.945,83.124,83.124,0,0,0,33.828-20.936C214.991,207.259,223.365,187.05,223.365,163.7Z" transform="translate(141.937 123.965)" fill="#e5e5e5"/>
      <path id="Path_331" data-name="Path 331" d="M152.924,143.269c-3.555,0-7,1.459-13.635,5.782-4.087,2.663-8.868,5.746-14.2,9.156-.134.087-.283.168-.42.254q9.685,10.61,20.133,20.49l10.586-10.615,21.022-21.08A68.631,68.631,0,0,0,152.924,143.269Z" transform="translate(198.282 228.748)" fill="#e5e5e5"/>
      <path id="Path_332" data-name="Path 332" d="M198.948,2.875c-34.864.008-84.378.021-93.5.037C63.9,2.983,12.323,36.876,3.754,93.943s30.9,91.105,30.9,91.105H187.216c-22.88-27.311-34.927-55.609-34.927-84.607C152.289,66.829,168.46,34.158,198.948,2.875Z" transform="translate(0 0.813)" fill="#e3595c" stroke="#e3595c" stroke-miterlimit="10" stroke-width="1"/>
      <path id="Path_333" data-name="Path 333" d="M339.27,109.1A106.24,106.24,0,0,1,445.508,2.862s-216.29,0-340.231.034c-30.488,31.283-46.66,63.954-46.66,97.567,0,29,12.05,57.3,34.927,84.607h277.7A105.934,105.934,0,0,1,339.27,109.1Z" transform="translate(91.048 0.792)" fill="#d14043" stroke="#d14043" stroke-miterlimit="10" stroke-width="1"/>
      <path id="Path_334" data-name="Path 334" d="M180.288,29.86s90.851,14.82,172.238,78.874c0,0,6.323-65.04-51.492-94.224C232.824-19.924,180.288,29.86,180.288,29.86Z" transform="translate(288.586 0)" fill="#6e0406"/>
    </g>
  </g>
</svg>
