<svg xmlns="http://www.w3.org/2000/svg" width="1666.87" height="544" viewBox="0 0 1666.87 544">
  <g id="Group_95" data-name="Group 95" transform="translate(-138.13 -111)">
    <path id="Path_264" data-name="Path 264" d="M-9717.357-687.081h213.4l63.188,57.469-175.187,154.754-34.553-56.911-5.04-33.883-97.378-68.5Z" transform="translate(9931 857)" fill="#84080b"/>
    <text id="SVMS" transform="translate(1210 539)" fill="#84080b" font-size="500" font-family="TwCenMT-Bold, Tw Cen MT" font-weight="700"><tspan x="-594.727" y="0">SVMS</tspan></text>
    <g id="svms_logo" transform="translate(136.111 167.626)">
      <path id="Path_275" data-name="Path 275" d="M303.616,146.531l-9.2,9.064a155.693,155.693,0,0,0-22.7-40.159l-6.6,6.62a149.186,149.186,0,0,1,22.081,40.661l-20.666,20.369a251.306,251.306,0,0,0-26.12-36.258l-6.58,6.6a241.491,241.491,0,0,1,25.746,36.516l-31.3,30.848L197.638,189.71l-5.626,5.642L222.6,226.384,191.76,256.773a240.988,240.988,0,0,1-35.424-25.649l-6.576,6.593a250.362,250.362,0,0,0,35.046,25.911L164.133,284a149.14,149.14,0,0,1-38.978-21.616l-6.6,6.617a155.28,155.28,0,0,0,38.356,22.116l-9.191,9.062a126.738,126.738,0,0,1-41.186-19.124l-6.283,6.3A136.39,136.39,0,0,0,290.526,96.574l-6.695,6.712A126.41,126.41,0,0,1,303.616,146.531ZM159.052,303l8.032-7.914c13.278,3.7,28.383,6.743,42.158,6.514C192.758,305.386,174.458,304.6,159.052,303Zm15.5-15.279,19.079-18.8c18.309,9.936,35.888,15.679,50.757,16.343C223.618,294.013,198.882,294.526,174.554,287.724Zm26.134-25.76,28.9-28.483,0,0,35.851,36.375C251.809,278.729,226.933,275.266,200.688,261.963Zm70.425,2.295-35.851-36.372,29.364-28.941C277.549,225.378,281.609,249.359,271.114,264.258Zm16.181-21.286c-.452-14.876-5.937-32.538-15.609-50.982l19.08-18.806C297.212,197.606,296.338,222.335,287.294,242.972Zm16.85-34.894c.423-13.773-2.4-28.921-5.908-42.254l8.039-7.921C307.642,173.335,308.159,191.646,304.145,208.078Z" transform="translate(43.946 42.365)" fill="none"/>
      <path id="Path_276" data-name="Path 276" d="M61.424,152.026" transform="translate(26.484 67.304)" fill="#fff" stroke="#000" stroke-miterlimit="10" stroke-width="1" opacity="0.4"/>
      <path id="Path_277" data-name="Path 277" d="M61.482,155.313" transform="translate(26.51 68.783)" fill="#fff" stroke="#000" stroke-miterlimit="10" stroke-width="1" opacity="0.4"/>
      <path id="Path_278" data-name="Path 278" d="M250.424,144.449A126.453,126.453,0,0,0,230.641,101.2l-12.117,12.15a155.692,155.692,0,0,1,22.7,40.159Z" transform="translate(97.138 44.447)" fill="#242333" stroke="#242333" stroke-miterlimit="10" stroke-width="0.5"/>
      <path id="Path_279" data-name="Path 279" d="M151.5,234.258c24.328,6.8,49.064,6.289,69.835-2.46-14.868-.664-32.448-6.408-50.757-16.343Z" transform="translate(66.996 95.831)" fill="#3f3d56" stroke="#3f3d56" stroke-miterlimit="10" stroke-width="0.5"/>
      <path id="Path_280" data-name="Path 280" d="M154.965,237.63a155.28,155.28,0,0,1-38.356-22.116l-12.021,12.053a126.694,126.694,0,0,0,41.186,19.124Z" transform="translate(45.896 95.857)" fill="#3f3d56" stroke="#3f3d56" stroke-miterlimit="10" stroke-width="0.5"/>
      <path id="Path_281" data-name="Path 281" d="M177.081,219.844a250.449,250.449,0,0,1-35.046-25.911l-24.6,24.67a149.141,149.141,0,0,0,38.978,21.616Z" transform="translate(51.673 86.151)" fill="#3f3d56" stroke="#3f3d56" stroke-miterlimit="10" stroke-width="0.5"/>
      <path id="Path_282" data-name="Path 282" d="M218.5,168.224c9.673,18.444,15.157,36.106,15.609,50.982,9.043-20.636,9.919-45.365,3.472-69.788Z" transform="translate(97.128 66.131)" fill="#242333" stroke="#242333" stroke-miterlimit="10" stroke-width="0.5"/>
      <path id="Path_283" data-name="Path 283" d="M243.715,154.812a149.164,149.164,0,0,0-22.081-40.661l-24.7,24.772a251.309,251.309,0,0,1,26.12,36.258Z" transform="translate(87.426 50.27)" fill="#242333" stroke="#242333" stroke-miterlimit="10" stroke-width="0.5"/>
      <path id="Path_284" data-name="Path 284" d="M140.811,241.419c15.406,1.6,33.706,2.385,50.19-1.4-13.775.229-28.88-2.817-42.158-6.514Z" transform="translate(62.187 103.949)" fill="#3f3d56" stroke="#3f3d56" stroke-miterlimit="10" stroke-width="0.5"/>
      <path id="Path_285" data-name="Path 285" d="M242.726,189.053c4.016-16.431,3.5-34.743,2.131-50.177l-8.039,7.921C240.321,160.132,243.149,175.28,242.726,189.053Z" transform="translate(105.365 61.39)" fill="#242333" stroke="#242333" stroke-miterlimit="10" stroke-width="0.5"/>
      <path id="Path_286" data-name="Path 286" d="M229.362,172.305a241.561,241.561,0,0,0-25.746-36.516l-36.188,36.286,30.633,31.078Z" transform="translate(74.158 60.002)" fill="#242333" stroke="#242333" stroke-miterlimit="10" stroke-width="0.5"/>
      <path id="Path_287" data-name="Path 287" d="M198.43,191.01l-28.9,28.483c26.245,13.3,51.121,16.765,64.751,7.888l-35.851-36.375Z" transform="translate(75.104 84.835)" fill="#3f3d56" stroke="#3f3d56" stroke-miterlimit="10" stroke-width="0.5"/>
      <path id="Path_288" data-name="Path 288" d="M88.011,89.408a48.15,48.15,0,0,0-7.083,8.938,136.856,136.856,0,0,1,10.238-11.83C90.089,87.425,89.036,88.383,88.011,89.408Z" transform="translate(35.256 37.842)"/>
      <path id="Path_289" data-name="Path 289" d="M172.008,72.313" transform="translate(76.218 31.454)" stroke="#000" stroke-miterlimit="10" stroke-width="1"/>
      <path id="Path_290" data-name="Path 290" d="M120.678,27.868A206.538,206.538,0,0,0,13,209.277C13,259.394,29.974,305.039,60.231,341l50.645-50.78a135.724,135.724,0,0,1-27.583-77.6,29.893,29.893,0,0,1,6.509-8.094,33.393,33.393,0,0,1,10.889-6.84,37.588,37.588,0,0,1,13.9-2.517c1.964,0,3.866.806,7.53,3.194,2.292,1.495,4.936,3.2,7.855,5.062A44.762,44.762,0,0,0,140.12,207.9a39.448,39.448,0,0,0,24.841,0,45.73,45.73,0,0,0,9.923-4.333Z" transform="translate(4.706 11.466)" fill="#bd171b"/>
      <path id="Path_291" data-name="Path 291" d="M315.586,197.983c-23.245,42-68.386,71.129-119.791,71.129a135.761,135.761,0,0,1-80.1-26l-49.785,49.92c29.179,16.352,30.623-28.3,70.679-11.505,44.942,18.839,2.9,60.785,59.2,59.19,59.681-1.69,10.948-40.336,59.681-60.64,47.57-19.819,47.9,44.353,87.235-.71,37.532-43-13.918-36.892.254-84.417C334.018,196.288,324.852,197.78,315.586,197.983Z" transform="translate(28.503 86.61)" fill="#3f3d56" stroke="#3f3d56" stroke-miterlimit="10" stroke-width="1"/>
      <path id="Path_292" data-name="Path 292" d="M138.939,196.789a240.883,240.883,0,0,0,35.424,25.649l29.43-28.986a214.914,214.914,0,0,1-41.006-20.53Z" transform="translate(61.345 76.702)" fill="#3f3d56" stroke="#3f3d56" stroke-miterlimit="10" stroke-width="0.5"/>
      <path id="Path_293" data-name="Path 293" d="M226.764,221.02c4.233-6.011,6.608-14.154,5.916-23.673-11.228-.921-23.142-2.059-33.817-4.633Z" transform="translate(88.296 85.603)" fill="#3f3d56" stroke="#3f3d56" stroke-miterlimit="10" stroke-width="0.5"/>
      <path id="Path_294" data-name="Path 294" d="M96.226,84.462q-1.657,1.176-3.243,2.514a138.993,138.993,0,0,0-10.37,11.984A47.189,47.189,0,0,0,89.79,156.3a45.436,45.436,0,0,0,33.2,13.757,47.641,47.641,0,0,0,14.509-2.188Z" transform="translate(33.053 36.918)" fill="#fff"/>
      <rect id="Rectangle_59" data-name="Rectangle 59" height="106.401" transform="translate(153.149 210.82)" fill="none"/>
      <path id="Path_295" data-name="Path 295" d="M153.08,151.664A45.729,45.729,0,0,1,143.156,156a39.447,39.447,0,0,1-24.841,0,44.826,44.826,0,0,1-10.147-4.472c-2.92-1.866-5.563-3.568-7.855-5.062-3.663-2.388-5.566-3.194-7.53-3.194a37.588,37.588,0,0,0-13.9,2.517A33.442,33.442,0,0,0,68,152.626a29.892,29.892,0,0,0-6.509,8.094,135.721,135.721,0,0,0,27.583,77.6l75.136-75.339Q158.437,157.527,153.08,151.664Z" transform="translate(26.513 63.366)" fill="#fff"/>
      <path id="Path_296" data-name="Path 296" d="M132.979,202.767q4.441,5.556,9.229,10.812c.075-.046.157-.093.232-.141l10.129,4.857c4.648,0,18.23-10.908,18.23-10.908L318.093,59.7s-5.486-23.684-19.01-31.771C272.666,12.133,223.97,5.7,191.032,5.7,155.2,5.7,117.376,21.834,88,37.884a216.79,216.79,0,0,0,4.236,82.542Z" transform="translate(37.475 1.495)" fill="#84080b"/>
      <path id="Path_297" data-name="Path 297" d="M269.435,251.5c18.067-50.731,57.872,5.629,58.472-58,.587-62.311-34.959-14.264-57.023-62.332-19.964-43.5,26.076-40.191,9.251-68.238L231.5,111.7a136.446,136.446,0,0,1,9.228,146.337,216.99,216.99,0,0,0,27.333-2.325C268.466,254.354,268.919,252.955,269.435,251.5Z" transform="translate(102.974 27.237)" fill="#242333" stroke="#242333" stroke-miterlimit="10" stroke-width="1"/>
      <path id="Path_298" data-name="Path 298" d="M167.731,164.71l-13.484,13.52a214.868,214.868,0,0,0,41.006,20.53l3.062-3.018Z" transform="translate(68.23 73.009)" fill="#242333" stroke="#242333" stroke-miterlimit="10" stroke-width="0.5"/>
      <path id="Path_299" data-name="Path 299" d="M193.381,196.128l8.93,9.061A215.152,215.152,0,0,0,235.2,210.47c-.191-12.616-4.742-27.513-12.452-43.282Z" transform="translate(85.83 74.123)" fill="#242333" stroke="#242333" stroke-miterlimit="10" stroke-width="0.5"/>
      <path id="Path_300" data-name="Path 300" d="M163.679,125.682a46.965,46.965,0,0,0-46.957-46.953A45.241,45.241,0,0,0,89.961,87.04a217.669,217.669,0,0,0,41.27,83.411,45.933,45.933,0,0,0,18.693-11.569A45.435,45.435,0,0,0,163.679,125.682Z" transform="translate(39.318 34.34)" fill="#e5e5e5"/>
      <path id="Path_301" data-name="Path 301" d="M140.281,143.269c-1.964,0-3.866.806-7.534,3.2-2.259,1.471-4.9,3.175-7.849,5.06-.074.048-.157.093-.232.141q5.352,5.863,11.125,11.322l5.85-5.866,11.617-11.649A37.925,37.925,0,0,0,140.281,143.269Z" transform="translate(54.926 63.366)" fill="#e5e5e5"/>
      <path id="Path_302" data-name="Path 302" d="M111.072,2.875c-19.266,0-46.627.012-51.667.02C36.445,2.934,7.945,21.664,3.21,53.2a57.88,57.88,0,0,0,17.076,50.344h84.3c-12.643-15.092-19.3-30.729-19.3-46.753C85.288,38.215,94.224,20.162,111.072,2.875Z" transform="translate(0 0.225)" fill="#e3595c" stroke="#e3595c" stroke-miterlimit="10" stroke-width="1"/>
      <path id="Path_303" data-name="Path 303" d="M213.7,61.568A58.707,58.707,0,0,1,272.409,2.862s-119.519,0-188.008.019C67.553,20.168,58.617,38.221,58.617,56.8c0,16.024,6.659,31.661,19.3,46.753H231.371A58.538,58.538,0,0,1,213.7,61.568Z" transform="translate(25.221 0.219)" fill="#d14043" stroke="#d14043" stroke-miterlimit="10" stroke-width="1"/>
      <path id="Path_304" data-name="Path 304" d="M180.288,17.563s50.2,8.19,95.177,43.585c0,0,3.494-35.94-28.454-52.067C209.319-9.947,180.288,17.563,180.288,17.563Z" transform="translate(79.942 0)" fill="#6e0406"/>
    </g>
  </g>
</svg>
