<svg xmlns="http://www.w3.org/2000/svg" xmlns:xlink="http://www.w3.org/1999/xlink" width="3767.918" height="1612.478" viewBox="0 0 3767.918 1612.478">
  <defs>
    <linearGradient id="linear-gradient" x1="0.5" y1="1" x2="0.5" gradientUnits="objectBoundingBox">
      <stop offset="0" stop-color="gray" stop-opacity="0.251"/>
      <stop offset="0.54" stop-color="gray" stop-opacity="0.122"/>
      <stop offset="1" stop-color="gray" stop-opacity="0.102"/>
    </linearGradient>
  </defs>
  <g id="Group_182" data-name="Group 182" transform="translate(-5170 -1539.522)">
    <path id="Path_656" data-name="Path 656" d="M3570.181-3564.845s586.7-1514.368,2179.348-370.195" transform="translate(3162 6090)" fill="none" stroke="#2f2e41" stroke-width="10" stroke-dasharray="30"/>
    <path id="Path_449" data-name="Path 449" d="M454.089-4633.141V-3998H-3182.829s326.134-607.883,1079.8-378.137,731.135,31.152,1230.447-303.732S182.194-4990.272,454.089-4633.141Z" transform="translate(8483.828 7150)" fill="#e9e8ea"/>
    <g id="Group_111" data-name="Group 111" transform="translate(8435.638 4782)">
      <g id="Group_109" data-name="Group 109" transform="translate(-1762.26 -3133.97)" opacity="0.5">
        <path id="Path_542" data-name="Path 542" d="M889.713,214.291H852.44V177.03H831.014v37.261H793.74v21.438h37.273v37.261H852.44V235.729h37.273Z" transform="translate(-793.74 -177.03)" fill="url(#linear-gradient)"/>
      </g>
      <rect id="Rectangle_124" data-name="Rectangle 124" width="18.211" height="81.577" transform="translate(-1723.379 -3126.784)" fill="#2f2e41"/>
      <rect id="Rectangle_125" data-name="Rectangle 125" width="18.211" height="81.577" transform="translate(-1673.485 -3095.089) rotate(90)" fill="#2f2e41"/>
    </g>
    <g id="Group_181" data-name="Group 181" transform="translate(7325.083 5149.025)">
      <g id="Group_109-2" data-name="Group 109" transform="translate(-1762.26 -3133.97)" opacity="0.5">
        <path id="Path_542-2" data-name="Path 542" d="M891.7,215.062H853.653V177.03H831.784v38.032H793.74v21.881h38.044v38.032h21.869V236.943H891.7Z" transform="translate(-793.74 -177.03)" fill="url(#linear-gradient)"/>
      </g>
      <rect id="Rectangle_124-2" data-name="Rectangle 124" width="18.587" height="83.263" transform="translate(-1722.575 -3126.636)" fill="#6bd098"/>
      <rect id="Rectangle_125-2" data-name="Rectangle 125" width="18.587" height="83.263" transform="translate(-1671.65 -3094.285) rotate(90)" fill="#6bd098"/>
    </g>
    <g id="Group_179" data-name="Group 179" transform="translate(6932.26 5783)">
      <g id="Group_109-3" data-name="Group 109" transform="translate(-1762.26 -3133.97)" opacity="0.5">
        <path id="Path_542-3" data-name="Path 542" d="M857.387,201.741H832.668V177.03H818.459v24.711H793.74v14.217h24.719v24.711h14.209V215.958h24.719Z" transform="translate(-793.74 -177.03)" fill="url(#linear-gradient)"/>
      </g>
      <rect id="Rectangle_124-3" data-name="Rectangle 124" width="12.077" height="54.1" transform="translate(-1736.475 -3129.205)" fill="#2f2e41"/>
      <rect id="Rectangle_125-3" data-name="Rectangle 125" width="12.077" height="54.1" transform="translate(-1703.387 -3108.185) rotate(90)" fill="#2f2e41"/>
    </g>
    <g id="Group_146" data-name="Group 146" transform="translate(9207.26 5134.473)">
      <g id="Group_109-4" data-name="Group 109" transform="translate(-1762.26 -3133.97)" opacity="0.5">
        <path id="Path_542-4" data-name="Path 542" d="M975.4,247.559H904.847V177.03H864.292v70.529H793.74v40.578h70.552v70.529h40.555V288.137H975.4Z" transform="translate(-793.74 -177.03)" fill="url(#linear-gradient)"/>
      </g>
      <rect id="Rectangle_124-4" data-name="Rectangle 124" width="34.47" height="154.409" transform="translate(-1688.666 -3120.367)" fill="#2f2e41"/>
      <rect id="Rectangle_125-4" data-name="Rectangle 125" width="34.47" height="154.409" transform="translate(-1594.226 -3060.377) rotate(90)" fill="#2f2e41"/>
    </g>
    <g id="Group_180" data-name="Group 180" transform="translate(8979.26 5638.473)">
      <g id="Group_109-5" data-name="Group 109" transform="translate(-1762.26 -3133.97)" opacity="0.5">
        <path id="Path_542-5" data-name="Path 542" d="M857.1,201.629H832.492v-24.6H818.347v24.6H793.74v14.153h24.607v24.6h14.145v-24.6H857.1Z" transform="translate(-793.74 -177.03)" fill="url(#linear-gradient)"/>
      </g>
      <rect id="Rectangle_124-5" data-name="Rectangle 124" width="12.022" height="53.855" transform="translate(-1736.592 -3129.225)" fill="#6bd098"/>
      <rect id="Rectangle_125-5" data-name="Rectangle 125" width="12.022" height="53.855" transform="translate(-1703.653 -3108.302) rotate(90)" fill="#6bd098"/>
    </g>
    <g id="Group_176" data-name="Group 176" transform="translate(1176 -5.961)">
      <path id="Path_625" data-name="Path 625" d="M884.481,688.182a419.624,419.624,0,0,1-174.92,340.889,413.2,413.2,0,0,1-46.31,28.967,420.762,420.762,0,0,1-287.335,40.332,410.7,410.7,0,0,1-60.98-18.123C116.833,1004.523,6.353,792.908,57.461,587.077S305.2,245.887,515.716,271.622,884.464,476.1,884.481,688.182Z" transform="translate(6694.972 1499.5)" fill="#3f3d56"/>
      <circle id="Ellipse_71" data-name="Ellipse 71" cx="96.516" cy="96.516" r="96.516" transform="translate(7036.811 1967.281)" fill="#ffb8b8"/>
      <path id="Path_626" data-name="Path 626" d="M140.786,390.08s12.065,57.306,12.065,63.339S210.157,486.6,210.157,486.6l51.274-9.048,18.1-54.291s-30.161-45.242-30.161-63.339Z" transform="translate(6954.839 1747.614)" fill="#ffb8b8"/>
      <path id="Path_627" data-name="Path 627" d="M290.9,825.2A419.89,419.89,0,0,1,202,815.731c-1.449-29.525-2.414-62.057-2.414-62.057L170.17,668.331,109.115,491.3l125.711-95.964s31.122,50.693,76.355,35.615A62.408,62.408,0,0,0,355.45,372.64l148.774,52.29-25.7,208.529-1.448,11.661L489.332,775.4A417.589,417.589,0,0,1,290.9,825.2Z" transform="translate(6868.891 1782.138)" fill="#d0cde1"/>
      <path id="Path_628" data-name="Path 628" d="M144.988,366.2s30.644-66.394,89.377-51.073,91.931,38.3,94.485,61.287-1.277,57.457-1.277,57.457-6.384-47.242-47.242-37.028-104.7,2.554-104.7,2.554L165.417,491.33s-11.491-16.6-24.259-6.384S104.129,386.631,144.988,366.2Z" transform="translate(6904.642 1619.837)" fill="#2f2e41"/>
      <path id="Path_629" data-name="Path 629" d="M94.135,664.889l19.423-163.778c-3.008-63.357,36.209-96.521,36.209-96.521H195l33.164,111.6-17.343,65.437L188.985,663.96l-6.053,9.062s6.053,9.025,3.008,12.07c-3.008,3.008-6.016,15.078-6.016,15.078s.631,4.308,1.745,10.733a415.864,415.864,0,0,1-87.534-46.013Z" transform="translate(6828.237 1868.843)" fill="#d0cde1"/>
      <path id="Path_630" data-name="Path 630" d="M362.961,646.733A419.078,419.078,0,0,1,288.8,714.844a140.1,140.1,0,0,1-10.324-22.914L231.679,601.87l-31.6-60.757,6.016-156.833,51.287,9.062S287.534,423.5,299.6,459.707l24.14,108.554,39.18,78.435Z" transform="translate(7115.736 1813.726)" fill="#d0cde1"/>
    </g>
    <g id="Group_178" data-name="Group 178" transform="translate(1171 1818)">
      <path id="Path_631" data-name="Path 631" d="M925.4,367.669a164.043,164.043,0,0,1-78.842,140.266c-2.906,1.772-5.869,3.443-8.891,5.041-4.5,2.383-9.138,4.562-13.874,6.494v.015c-1.511.625-3.022,1.22-4.547,1.787-.712.276-1.438.552-2.165.814a165.249,165.249,0,0,1-92.992,5.535,162.33,162.33,0,0,1-18.668-5.521h-.015a163.474,163.474,0,0,1-22.518-10.14q-2.833-1.525-5.579-3.182c-1.279-.755-2.528-1.525-3.777-2.31A164.173,164.173,0,1,1,925.4,367.669Z" transform="translate(5587.972 559.5)" fill="#3f3d56"/>
      <path id="Path_632" data-name="Path 632" d="M698.758,300s.972,25.266-4.859,31.1,29.153,26.238,29.153,26.238L743.46,325.27s-7.774-13.6-5.831-25.266Z" transform="translate(5631.531 603.2)" fill="#a0616a"/>
      <circle id="Ellipse_72" data-name="Ellipse 72" cx="34.984" cy="34.984" r="34.984" transform="translate(6312.311 847.326)" fill="#a0616a"/>
      <path id="Path_633" data-name="Path 633" d="M789.993,464.436q.327,4.053.639,8.106c-.712.276-1.438.552-2.165.814a165.246,165.246,0,0,1-92.992,5.535,162.311,162.311,0,0,1-18.668-5.521l-.015.131a.2.2,0,0,1,0-.131,39.6,39.6,0,0,1,1.656-8.731v-.015c.814-2.993,1.918-6.45,3.182-10.271,1.366-4.082,1.453-13,1.162-21.385-.029-.639-.044-1.293-.073-1.918-.116-2.717-.262-5.317-.407-7.627-.334-5.215-.683-8.92-.683-8.92l-21.385-57.341,51.646-37.714c3.051,9.893,9.588,9.545,9.588,9.545,27.719,1.9,32.818-17.245,32.978-17.869v-.015l49.613,32.455-20.4,49.554s.828,8.4,2,21.211c.174,1.889.349,3.879.552,5.956C787.363,432.868,788.743,448.543,789.993,464.436Z" transform="translate(5616.59 608.228)" fill="#d0cde1"/>
      <path id="Path_634" data-name="Path 634" d="M687.656,390.142l-1.017,7.38-.247,1.86-4.315,31.525-.029.131v.015l-1.642,8.731-.015.131a.2.2,0,0,1,0-.131,163.485,163.485,0,0,1-22.518-10.14q-2.833-1.525-5.579-3.182a101.026,101.026,0,0,1,4.271-11.041l2.964-23.07.915-7.06,25.467,4.547Z" transform="translate(5612.99 641.815)" fill="#a0616a"/>
      <path id="Path_635" data-name="Path 635" d="M676.486,341.811l-14.091,1.458s-9.232,68.51-6.317,68.51,35.956,7.774,36.928,5.831S676.486,341.811,676.486,341.811Z" transform="translate(5614.446 622.129)" fill="#d0cde1"/>
      <path id="Path_636" data-name="Path 636" d="M693.974,267.28l-6.307-2.293s13.186-13.186,31.532-12.04l-5.16-5.16s12.613-4.586,24.079,7.453c6.028,6.329,13,13.768,17.349,22.149h6.754l-2.819,5.638,9.866,5.638-10.126-1.013a28.447,28.447,0,0,1-.958,14.6l-2.293,6.306s-9.173-18.346-9.173-20.639v5.733s-6.307-5.16-6.307-8.6l-3.44,4.013-1.72-6.307-21.213,6.307,3.44-5.16-13.186,1.72,5.16-6.307s-14.906,7.453-15.479,13.76-8.026,14.333-8.026,14.333l-3.44-5.733S677.349,275.879,693.974,267.28Z" transform="translate(5626.328 579.169)" fill="#2f2e41"/>
      <path id="Path_637" data-name="Path 637" d="M779.933,428.952c-2.906,1.772-5.869,3.443-8.891,5.041-4.5,2.383-9.138,4.562-13.874,6.494v.015c-1.511.625-3.022,1.22-4.547,1.787-.712.276-1.438.552-2.165.814l1.525-8.92-6.915-43.947-.872-5.506,3.472-.654,32.484-6.145v39.85S780.239,422.095,779.933,428.952Z" transform="translate(5654.601 638.483)" fill="#a0616a"/>
      <path id="Path_638" data-name="Path 638" d="M748.627,331.777l18.95,2.429s22.837,69.482,17.006,72.4-43.73,4.859-43.73,4.859Z" transform="translate(5653.087 617.586)" fill="#d0cde1"/>
    </g>
    <rect id="Rectangle_282" data-name="Rectangle 282" width="839" height="104" transform="translate(7916 2661)" fill="#6bd098"/>
    <rect id="Rectangle_284" data-name="Rectangle 284" width="328" height="42" transform="translate(7356 2946)" fill="#6bd098"/>
    <rect id="Rectangle_286" data-name="Rectangle 286" width="510" height="63" transform="translate(6669 2671)" fill="#d0cde1"/>
    <rect id="Rectangle_283" data-name="Rectangle 283" width="562" height="67" transform="translate(7916 2805)" fill="#d0cde1"/>
    <rect id="Rectangle_285" data-name="Rectangle 285" width="227" height="26" transform="translate(7356 3004)" fill="#d0cde1"/>
    <rect id="Rectangle_287" data-name="Rectangle 287" width="358" height="39" transform="translate(6669 2758)" fill="#6bd098"/>
    <path id="Path_657" data-name="Path 657" d="M3387-3767.5s126.65-472.793,799.061-377.137" transform="translate(2135.204 6909.534)" fill="none" stroke="#2f2e41" stroke-width="10" stroke-dasharray="30"/>
    <g id="Group_175" data-name="Group 175" transform="translate(-1367.096 752.573)">
      <rect id="Rectangle_281" data-name="Rectangle 281" width="107.608" height="138.353" transform="translate(7594.653 1315.614) rotate(-177.779)" fill="#bd171d"/>
      <path id="Path_641" data-name="Path 641" d="M244.75,342.21s148.907-71.146,146.525-9.7-150.1,101.868-150.1,101.868Z" transform="translate(7732.792 1315.163)" fill="#ffb9b9"/>
      <path id="Path_642" data-name="Path 642" d="M715.212,487.372s45.8,114.554,77.091,222.167H99.408c-6.481-120.632-1.293-215.332,30.9-214.084C214.79,498.731,545.709,296.19,715.212,487.372Z" transform="translate(7180.631 1689.888)" fill="#2f2e41"/>
      <path id="Path_645" data-name="Path 645" d="M223.294,187.821s-81.868,127.59-113.781,157.121,57.87,94.548,57.87,94.548l160.695,21.616s-2.022-146.227,6.255-161.29S223.294,187.821,223.294,187.821Z" transform="translate(7201.143 855.817)" fill="#ffb9b9"/>
      <path id="Path_646" data-name="Path 646" d="M404.667,250.213s-33.1,60.253-63.827,59.061-189.63-68.89-196.417-92.229S91.789,384.229,91.789,384.229l388.835,684.288,94.846-65.551L529.513,601.2,491.77,384.357Z" transform="translate(7159.446 960.373)" fill="#e6e6e6"/>
      <path id="Path_647" data-name="Path 647" d="M226.434,899.292c15.511,32.447,25.2,66.283,23.855,100.921-.06,1.536-.119,3.072-.256,4.605-3.68,71.086-29.867,153.3-39.262,213.086-6.817,42.888-4.877,74.193,20.221,81.551,60.848,17.744-8.872,30.424,226.543,108.781s276.5,10.722,277.093-4.639-33.339-132.058-25.361-139.44,111.633,96.634,142.951,82.464,3.574-92.166,3.574-92.166-70.55-164.268-69.061-202.671S679.863,832.263,679.863,832.263L606.163,352.5s-28.339-62.635-66.444-71.805S470,293.371,470,293.371L533.763,434.3l67.274,248.754-11.254,91.868s-78.231-164.566-129.612-228.1S299.242,332.9,299.242,332.9s-25.576-86.3-6.269-112.085c19.31-25.865-80.536-29.737-123.108,76.3-22.563,56.2-59.2,140.007-82.145,218.038-20.449,69.127-30.109,133.75-9.85,170.689C108.834,742.271,186.725,816.447,226.434,899.292Z" transform="translate(7063.094 923.703)" fill="#3f3d56"/>
      <path id="Path_648" data-name="Path 648" d="M77.87,455.345c30.964,56.43,108.855,130.6,148.564,213.446,10.372-37.366,23.024-76.028,23.024-76.028s48.529-259.647-95.018-326.75A96.07,96.07,0,0,0,87.72,284.656C67.271,353.782,57.611,418.407,77.87,455.345Z" transform="translate(7063.094 1154.204)" opacity="0.1"/>
      <path id="Path_649" data-name="Path 649" d="M196.221,301.411l121.7,35.487,168.971,6.552,17.383,146.823-277.692,20S157.222,315.286,196.221,301.411Z" transform="translate(7514.589 1291.771)" fill="#3f3d56"/>
      <path id="Path_650" data-name="Path 650" d="M189.981,403.451s162.805,27.011,125.647,76-181.385-2.515-181.385-2.515Z" transform="translate(7322.386 1683.398)" fill="#ffb9b9"/>
      <path id="Path_651" data-name="Path 651" d="M135.727,370.725c-3.68,71.086-29.867,153.3-39.262,213.085,51.864,49.086,101.183,92.382,119.77,93.1,38.4,1.489,100.144-3.809,122.888,4.766s36.083-137.057,36.083-137.057-13.574-46.679-74.124-72.1C260.213,455.317,181.872,408.664,135.727,370.725Z" transform="translate(7177.398 1557.796)" opacity="0.1"/>
      <path id="Path_652" data-name="Path 652" d="M182.947,256.545S52.975,236.121,60,451.77,46.3,805.072,98.57,845.56s222.075,223.989,260.478,225.478,100.144-3.808,122.888,4.765,36.083-137.057,36.083-137.057-13.574-46.68-74.126-72.1-203.2-115.568-202.012-146.29,36.083-137.057,36.083-137.057S326.494,323.647,182.947,256.545Z" transform="translate(7036.375 1117.589)" fill="#3f3d56"/>
      <circle id="Ellipse_95" data-name="Ellipse 95" cx="169.098" cy="169.098" r="169.098" transform="translate(7369.95 894.368)" fill="#ffb9b9"/>
      <path id="Path_653" data-name="Path 653" d="M418.352,168.916a32.652,32.652,0,0,0,14.218,7.135,10.146,10.146,0,0,0,11.758-8.145c3.869,8.023,8.234,16.575,16.133,20.691s20.113.665,21.252-8.17a37.281,37.281,0,0,0,8.581,18.113c4.9,4.673,13.788,5.852,18.067.6-3.459,18.9-1.324,38.345-2.41,57.532s-6.2,39.529-20.7,52.146c-21.141,18.4-52.933,13.859-80.742,10.373a24.51,24.51,0,0,0-12.653.692c-10.413,4.436-9.94,18.931-10.081,30.249a84.049,84.049,0,0,1-73.6,79.814,42.132,42.132,0,0,1-31.314-7.642c-7.9-6.693-11.929-17.6-20.977-22.628-14.717-8.178-32.567,3.749-43.327,16.7s-21.365,28.879-38.035,31.25c-22.046,3.135-38.838-19.333-47.076-40.021a233.3,233.3,0,0,1,4.637-181.278C178.118,125.983,335.367,110.115,418.352,168.916Z" transform="translate(7234.557 652.185)" fill="#2f2e41"/>
    </g>
    <g id="Group_177" data-name="Group 177" transform="translate(751 1142.007)">
      <path id="Path_611" data-name="Path 611" d="M839.544,666.227A254.762,254.762,0,0,1,695.39,895.766c.025-.023.025-.023,0,0a248.073,248.073,0,0,1-23.759,9.986c-1.285.5-2.592.947-3.922,1.375-2.7.969-5.455,1.848-8.228,2.682q-8.555,2.637-17.357,4.666H642.1l-.158.045-.361.068c-.766.18-1.555.361-2.344.518q-6.56,1.454-13.254,2.5a252.757,252.757,0,0,1-41.161,3.336c-7.394,0-14.742-.316-21.978-.947a10.193,10.193,0,0,1-1.172-.113,255.708,255.708,0,0,1-58.292-12.24c-2.8-.947-5.59-1.938-8.34-3a254.738,254.738,0,1,1,344.5-238.42Z" transform="translate(5587.972 559.5)" fill="#3f3d56"/>
      <path id="Path_612" data-name="Path 612" d="M429.639,531.97s59.743-26.033,87.8,1.467S442.312,551.883,429.639,531.97Z" transform="translate(5712.896 696.615)" fill="#3f3d56"/>
      <path id="Path_613" data-name="Path 613" d="M561.6,490.822c-20.077-33.924-59.8-35.505-59.8-35.505s-38.706-4.95-63.536,46.717c-23.143,48.158-55.084,94.655-5.142,105.929l9.021-28.077,5.587,30.167a195.388,195.388,0,0,0,21.368.365c53.483-1.727,104.418.505,102.778-18.687C569.7,566.219,580.917,523.464,561.6,490.822Z" transform="translate(5684.096 614.302)" fill="#2f2e41"/>
      <path id="Path_614" data-name="Path 614" d="M555.008,636.387c1.33-.428,2.637-.879,3.922-1.375l-.293-.406-3.629-.2-23.488-1.262H531.5l-3.945-.2-18.687-1.014-40.687-2.209-21.8-1.172-1.1-.068h-.271l-15.351-.834-5-.271L419.9,644.817a246.9,246.9,0,0,0,29.078,4.328,10.255,10.255,0,0,0,1.172.113c7.236.631,14.584.947,21.978.947a252.73,252.73,0,0,0,41.161-3.336q6.695-1.048,13.254-2.5c.789-.158,1.578-.338,2.344-.518l.361-.068.158-.045h.023q8.791-2.029,17.357-4.666Z" transform="translate(5700.675 830.24)" fill="#2f2e41"/>
      <path id="Path_615" data-name="Path 615" d="M441.148,511.291s9.052,59.743-9.052,66.985S468.3,616.3,468.3,616.3h30.777L519,574.656s-18.1-32.587-7.242-63.364S441.148,511.291,441.148,511.291Z" transform="translate(5711.343 667.507)" fill="#ffb8b8"/>
      <path id="Path_616" data-name="Path 616" d="M554.368,763.305v-211.8s-2.3-21.753-20.535-16.095a34.352,34.352,0,0,0-5.41,2.254,62.514,62.514,0,0,0-8.611,5.613c-1.037.789-2.1,1.646-3.2,2.57-.09.068-.18.158-.271.225-34.4,28.966-50.673,9.062-54.3,5.432-1.33-1.307-4.8-5.027-8.7-9.219v-.023c-1.691-1.8-3.449-3.7-5.117-5.545-5.162-5.568-9.715-10.549-9.715-10.549l-18.1,14.472,4.418,109.731,1.037,25.877v.023l.338,8.047v.045l2.818,70.194.428,10.594a192.357,192.357,0,0,0,18.642,4.914c1.848.383,3.809.766,5.816,1.127,15.689,2.84,35.435,4.305,47.968-2.434a44.535,44.535,0,0,1,7.934-3.314,55.114,55.114,0,0,1,16.816-2.322c1.217.023,2.412.068,3.607.135h.022a81.308,81.308,0,0,1,15.892,2.728Z" transform="translate(5701.315 703.321)" fill="#3f3d56"/>
      <path id="Path_617" data-name="Path 617" d="M501.894,758.443A110.253,110.253,0,0,1,488.256,773c-1.533,1.4-3.066,2.75-4.621,4.08-.316.27-.631.518-.947.789a255.7,255.7,0,0,1-58.292-12.24c-2.8-.947-5.59-1.938-8.34-3a84.159,84.159,0,0,0,4.08-13.593c12.465-58.427-23.781-147.1-26.937-161.328-1.15-5.117,3.088-12.217,9.873-19.769,14.81-16.433,41.747-35.007,51.687-39.966a37.311,37.311,0,0,1,24.007-2.209h.023a43.3,43.3,0,0,1,7.371,2.209V528c.023.338.271,2.908.7,7.3.225,2.412.5,5.342.834,8.769v.023c.609,6.4,1.375,14.381,2.277,23.488v.023c5.432,56.105,15.26,153.755,19.093,170.368C510.482,744.13,507.326,751.253,501.894,758.443Z" transform="translate(5666.96 701.511)" fill="#d0cde1"/>
      <path id="Path_618" data-name="Path 618" d="M506.246,763.305c1.33-.428,2.637-.879,3.922-1.375a247.978,247.978,0,0,0,23.759-9.986c-11.586-33.857,22.654-141.492,32.459-174.808v-.045c1.15-3.9,1.961-6.785,2.322-8.385,3.629-16.3-51.6-31.671-53.4-35.3-1.4-2.75-23.826-5.523-34.4-6.672-3.269-.361-5.41-.564-5.41-.564-2.8,2.164-4.937,8.385-6.6,17.424-.158.721-.293,1.488-.406,2.254-1.195,6.988-2.119,15.441-2.863,24.931-4.1,51.755-2.705,133.535-6.447,167.212a68.574,68.574,0,0,0,.924,20.851,65.469,65.469,0,0,0,1.578,6.6,77.306,77.306,0,0,0,2.84,8.34q6.695-1.048,13.254-2.5c.789-.158,1.578-.338,2.344-.518l.361-.068.158-.045h.022q8.791-2.029,17.357-4.666Z" transform="translate(5749.438 703.321)" fill="#d0cde1"/>
      <ellipse id="Ellipse_68" data-name="Ellipse 68" cx="3.621" cy="7.242" rx="3.621" ry="7.242" transform="translate(6238.485 1147.117)" fill="#ffb8b8"/>
      <ellipse id="Ellipse_69" data-name="Ellipse 69" cx="3.621" cy="7.242" rx="3.621" ry="7.242" transform="translate(6131.672 1147.117)" fill="#ffb8b8"/>
      <path id="Path_619" data-name="Path 619" d="M494.082,750.212c1.33-.428,2.637-.879,3.922-1.375a247.978,247.978,0,0,0,23.759-9.986.083.083,0,0,0,.022.068.136.136,0,0,1,.023-.09c13.525-71.411,27.861-147.8,32.414-174.786V564c.789-4.689,1.285-7.867,1.42-9.287,1.8-18.1-43.46-18.1-43.46-18.1l-7.213,36.449-10.887,55.069L490.34,647.04l-19.769,99.926-.631,3.2-1.465,7.394h.023q8.791-2.029,17.357-4.666Z" transform="translate(5761.602 716.415)" fill="#d0cde1"/>
      <path id="Path_620" data-name="Path 620" d="M486.61,759.948a255.708,255.708,0,0,1-58.292-12.24c-1.42-5.477-2.84-11.023-4.26-16.59-17.6-69.089-34.173-142.191-34.173-155.9,0-11.338,7.912-19.521,17.109-25.2a97.121,97.121,0,0,1,28.154-11s5.771,24.007,14.066,58.63c4.441,18.484,9.58,39.988,14.922,62.484v.023c6.221,26.1,12.736,53.513,18.777,79.12q1.454,6.222,2.885,12.263v.09a.227.227,0,0,1,.023.09l.541,2.232c.406,1.758.811,3.494,1.195,5.207.09.293.158.586.225.9a10.2,10.2,0,0,1-1.172-.113Z" transform="translate(5663.039 719.437)" fill="#d0cde1"/>
      <path id="Path_621" data-name="Path 621" d="M414.379,562.713l40.734,159.3S436.1,582.626,414.379,562.713Z" transform="translate(5693.757 749.151)" opacity="0.2"/>
      <path id="Path_622" data-name="Path 622" d="M461.325,637.45l13.254-2.57v.068Q468.02,636.4,461.325,637.45Z" transform="translate(5752.634 839.659)" opacity="0.2"/>
      <path id="Path_623" data-name="Path 623" d="M506.562,552.78l-10.887,55.069-3.742,18.912-19.746,99.926h-.023l-.609,3.2h-.023l-1.443,7.394h-.023l-.158.045-.361.068-2.344.451c.2-2.525.451-5.23.721-8.093.09-1.059.18-2.141.293-3.268,4.238-46.052,13.277-125.6,27.455-158.917C499.011,559.723,502.64,554.448,506.562,552.78Z" transform="translate(5760.009 736.694)" opacity="0.2"/>
      <circle id="Ellipse_70" data-name="Ellipse 70" cx="52.502" cy="52.502" r="52.502" transform="translate(6136.198 1102.761)" fill="#ffb8b8"/>
      <path id="Path_624" data-name="Path 624" d="M484.623,356.482l-39.242-20.555-54.192,8.408-11.212,49.521,27.911-1.073,7.8-18.193v17.893l12.878-.5,7.475-28.966,4.673,30.834,45.781-.933Z" transform="translate(5752.195 745.371)" fill="#2f2e41"/>
    </g>
    <ellipse id="Ellipse_96" data-name="Ellipse 96" cx="16.5" cy="45.5" rx="16.5" ry="45.5" transform="matrix(-0.719, -0.695, 0.695, -0.719, 6654.12, 2422.652)" fill="#ffb9b9"/>
  </g>
</svg>
