<svg xmlns="http://www.w3.org/2000/svg" xmlns:xlink="http://www.w3.org/1999/xlink" width="3639.778" height="1428.008" viewBox="0 0 3639.778 1428.008">
  <defs>
    <linearGradient id="linear-gradient" x1="0.5" y1="1" x2="0.5" gradientUnits="objectBoundingBox">
      <stop offset="0" stop-color="gray" stop-opacity="0.251"/>
      <stop offset="0.54" stop-color="gray" stop-opacity="0.122"/>
      <stop offset="1" stop-color="gray" stop-opacity="0.102"/>
    </linearGradient>
    <linearGradient id="linear-gradient-2" x1="-25.357" y1="1.001" x2="-25.357" y2="0" xlink:href="#linear-gradient"/>
    <linearGradient id="linear-gradient-3" x1="0.5" y1="1" x2="0.5" y2="0" xlink:href="#linear-gradient"/>
    <linearGradient id="linear-gradient-7" x1="0.5" y1="1" x2="0.5" y2="0" xlink:href="#linear-gradient"/>
    <linearGradient id="linear-gradient-9" x1="0.5" y1="0.999" x2="0.5" y2="-0.001" xlink:href="#linear-gradient"/>
    <linearGradient id="linear-gradient-13" x1="0" y1="0.5" x2="1" y2="0.5" xlink:href="#linear-gradient"/>
    <linearGradient id="linear-gradient-14" x1="0.5" y1="1" x2="0.5" gradientUnits="objectBoundingBox">
      <stop offset="0" stop-color="#b3b3b3" stop-opacity="0.251"/>
      <stop offset="0.54" stop-color="#b3b3b3" stop-opacity="0.102"/>
      <stop offset="1" stop-color="#b3b3b3" stop-opacity="0.051"/>
    </linearGradient>
    <linearGradient id="linear-gradient-15" x1="0.5" y1="1.001" x2="0.5" gradientUnits="objectBoundingBox">
      <stop offset="0" stop-opacity="0.122"/>
      <stop offset="0.55" stop-opacity="0.09"/>
      <stop offset="1" stop-opacity="0.02"/>
    </linearGradient>
    <linearGradient id="linear-gradient-16" x1="0.5" y1="0.999" x2="0.5" y2="0" xlink:href="#linear-gradient-15"/>
  </defs>
  <g id="Group_152" data-name="Group 152" transform="translate(-229 -1726.381)">
    <g id="Group_151" data-name="Group 151">
      <g id="Group_148" data-name="Group 148">
        <g id="Group_147" data-name="Group 147" transform="translate(-558.082)">
          <path id="Path_449" data-name="Path 449" d="M454.089-4633.141V-3998H-3182.829s326.134-607.883,1079.8-378.137,731.135,31.152,1230.447-303.732S182.194-4990.272,454.089-4633.141Z" transform="translate(3969.911 7150)" fill="#f8e7e7"/>
          <path id="Path_524" data-name="Path 524" d="M-3296.395-3914.571s214.591-394.517,742.434-416.592,590.785,282.184,590.785,282.184" transform="translate(5121.702 7066.571)" fill="none" stroke="#bd171b" stroke-width="10" stroke-dasharray="30" opacity="0.4"/>
          <g id="Group_103" data-name="Group 103" transform="translate(990.72 1372)">
            <path id="Path_526" data-name="Path 526" d="M741.622,600.875a227,227,0,0,1-54.9,148.414c-1.744,2.046-3.556,4.058-5.4,6.037q-1.375,1.543-2.817,3.018a223.776,223.776,0,0,1-24.35,22.1l-.6.436a222.889,222.889,0,0,1-43.266,26.564h0A224.771,224.771,0,0,1,586,817.174l-3.052.973c-1.878.637-3.824,1.207-5.735,1.744l-.771.235a229.18,229.18,0,0,1-125.942,0h-.335c-3.354-.973-6.708-1.979-9.794-3.086l-2.851-1.006a221.131,221.131,0,0,1-31.527-13.953l-.637-.336a228.951,228.951,0,0,1-44.675-31.628l-1.107-1.04a213.147,213.147,0,0,1-19.487-20.124c-.8-.906-1.576-1.845-2.348-2.784-1.476-1.744-2.884-3.555-4.293-5.366a228.071,228.071,0,1,1,408.18-139.928Z" transform="translate(-126.2 666.654)" fill="#f8f8f8"/>
            <path id="Path_385" data-name="Path 385" d="M741.622,600.875a227,227,0,0,1-54.9,148.414c-1.744,2.046-3.556,4.058-5.4,6.037q-1.375,1.543-2.817,3.018a223.776,223.776,0,0,1-24.35,22.1l-.6.436a222.889,222.889,0,0,1-43.266,26.564h0A224.771,224.771,0,0,1,586,817.174l-3.052.973c-1.878.637-3.824,1.207-5.735,1.744l-.771.235a229.18,229.18,0,0,1-125.942,0h-.335c-3.354-.973-6.708-1.979-9.794-3.086l-2.851-1.006a221.131,221.131,0,0,1-31.527-13.953l-.637-.336a228.951,228.951,0,0,1-44.675-31.628l-1.107-1.04a213.147,213.147,0,0,1-19.487-20.124c-.8-.906-1.576-1.845-2.348-2.784-1.476-1.744-2.884-3.555-4.293-5.366a228.071,228.071,0,1,1,408.18-139.928Z" transform="translate(-110.303 653.202)" fill="#de8b8d"/>
            <path id="Path_386" data-name="Path 386" d="M645.543,642.553l-17.307-7.781a68.6,68.6,0,0,0,.336-7.915,62.217,62.217,0,0,0,0-6.708c-1.711-17.642-12.946-33-20.9-49.136a139.556,139.556,0,0,1-13.651-46.956c-2.113-20.124,0-40.986-7.379-59.9-6-15.261-17.877-28.006-30.588-39.275a155.258,155.258,0,0,0-49.136-31.159c-18.581-6.708-39.946-8.418-58.527-1.576-16.77,6.171-29.683,18.48-42.16,30.454a141.718,141.718,0,0,0-23.813,27.1c-7.613,12.477-10.867,26.832-13.416,40.986a627,627,0,0,0-8.251,68.488c-1.308,19.151-3.354,40.885-19.721,52.624-7.983,5.735-19.218,8.955-22.874,17.642a18.043,18.043,0,0,0-1.208,8.217,30.173,30.173,0,0,0,.5,6.943c.235,1.342.5,2.649.838,3.991a294.266,294.266,0,0,0-11.806,35.821c-2.449,9.055-4.7,17.944-6.708,26.563H308.1l31.259.738h.436l33.54.771h.168l31.259.738h.771l9.022.637H417.5l125,2.885h.671l8.318.2h2.918l25.021.57h0l36.894.839h.268l27.771.671h8.653l-1.476-29.113C657.65,645.337,645.543,642.553,645.543,642.553ZM505.111,639c0,24.685-26.43,54.9-26.43,54.9l-26.6-36.223.973-1.409,25.625,34.882s26.429-30.186,26.429-54.9a29.034,29.034,0,0,1,2.113-3.622l.6,1.878A35.593,35.593,0,0,0,505.111,639Zm40.65,96.863a20.209,20.209,0,0,0-.235-3.756c-.235-1.241-.2-2.348-.369-3.555s-.3-2.381-.47-3.589-.4-2.382-.637-3.589-.47-2.381-.738-3.589a5.617,5.617,0,0,0-.268-1.208q-.553-2.364-1.207-4.729c-.436-1.576-.7-2.549-1.107-3.79a5.156,5.156,0,0,0-.537-1.677c-.2-.537-.57-1.811-.872-2.717l-.6-1.744c-.268-.771-.537-1.576-.839-2.348-.5-1.409-1.04-2.784-1.576-4.193s-1.107-2.784-1.677-4.159c-1.14-2.817-2.381-5.6-3.622-8.419-4.863-10.867-10.33-21.566-15.361-32.165a171.023,171.023,0,0,1-7.177-17.038l-.637.838a35.626,35.626,0,0,0-2.717,4.528c0,24.685-26.429,54.9-26.429,54.9l-26.6-36.223-23.277,33.54c-3.354,1.677-6.708,7.379-9.324,15.5-.738,2.18-1.442,4.595-2.113,7.111-.47,1.711-.906,3.354-1.308,5.266-.235.906-.436,1.811-.637,2.75l-.6,2.851v.436c-.4,1.945-.8,3.958-1.174,6s-.8,4.394-1.174,6.708q-.4,2.18-.7,4.327c-.47,2.784-.872,5.6-1.275,8.418-.235,1.643-.469,3.354-.671,4.864l-.805,6.238c1.711,5.132,3.622,10.062,5.6,15.227a23.949,23.949,0,0,1,2.18,8.62,244.442,244.442,0,0,0,125.942,0,1.122,1.122,0,0,1,0-.3,35.007,35.007,0,0,1-.8-8.552h0a220.993,220.993,0,0,1,3.354-24.014,82.088,82.088,0,0,0,.637-11.806v-1.409c-.1-1.275-.134-2.415-.168-3.522Zm0,0a20.209,20.209,0,0,0-.235-3.756c-.235-1.241-.2-2.348-.369-3.555s-.3-2.381-.47-3.589-.4-2.382-.637-3.589-.47-2.381-.738-3.589a5.617,5.617,0,0,0-.268-1.208q-.553-2.364-1.207-4.729c-.436-1.576-.7-2.549-1.107-3.79a5.156,5.156,0,0,0-.537-1.677c-.2-.537-.57-1.811-.872-2.717l-.6-1.744c-.268-.771-.537-1.576-.839-2.348-.5-1.409-1.04-2.784-1.576-4.193s-1.107-2.784-1.677-4.159c-1.14-2.817-2.381-5.6-3.622-8.419-4.863-10.867-10.33-21.566-15.361-32.165a171.023,171.023,0,0,1-7.177-17.038l-.637.838a35.626,35.626,0,0,0-2.717,4.528c0,24.685-26.429,54.9-26.429,54.9l-26.6-36.223-23.277,33.54c-3.354,1.677-6.708,7.379-9.324,15.5-.738,2.18-1.442,4.595-2.113,7.111-.47,1.711-.906,3.354-1.308,5.266-.235.906-.436,1.811-.637,2.75l-.6,2.851v.436c-.4,1.945-.8,3.958-1.174,6s-.8,4.394-1.174,6.708q-.4,2.18-.7,4.327c-.47,2.784-.872,5.6-1.275,8.418-.235,1.643-.469,3.354-.671,4.864l-.805,6.238c1.711,5.132,3.622,10.062,5.6,15.227a23.949,23.949,0,0,1,2.18,8.62,244.442,244.442,0,0,0,125.942,0,1.122,1.122,0,0,1,0-.3,35.007,35.007,0,0,1-.8-8.552h0a220.993,220.993,0,0,1,3.354-24.014,82.088,82.088,0,0,0,.637-11.806v-1.409c-.1-1.275-.134-2.415-.168-3.522Zm0,0a20.209,20.209,0,0,0-.235-3.756c-.235-1.241-.2-2.348-.369-3.555s-.3-2.381-.47-3.589-.4-2.382-.637-3.589-.47-2.381-.738-3.589a5.617,5.617,0,0,0-.268-1.208q-.553-2.364-1.207-4.729c-.436-1.576-.7-2.549-1.107-3.79a5.156,5.156,0,0,0-.537-1.677c-.2-.537-.57-1.811-.872-2.717l-.6-1.744c-.268-.771-.537-1.576-.839-2.348-.5-1.409-1.04-2.784-1.576-4.193s-1.107-2.784-1.677-4.159c-1.14-2.817-2.381-5.6-3.622-8.419-4.863-10.867-10.33-21.566-15.361-32.165a171.023,171.023,0,0,1-7.177-17.038l-.637.838a35.626,35.626,0,0,0-2.717,4.528c0,24.685-26.429,54.9-26.429,54.9l-26.6-36.223-23.277,33.54c-3.354,1.677-6.708,7.379-9.324,15.5-.738,2.18-1.442,4.595-2.113,7.111-.47,1.711-.906,3.354-1.308,5.266-.235.906-.436,1.811-.637,2.75l-.6,2.851v.436c-.4,1.945-.8,3.958-1.174,6s-.8,4.394-1.174,6.708q-.4,2.18-.7,4.327c-.47,2.784-.872,5.6-1.275,8.418-.235,1.643-.469,3.354-.671,4.864l-.805,6.238c1.711,5.132,3.622,10.062,5.6,15.227a23.949,23.949,0,0,1,2.18,8.62,244.442,244.442,0,0,0,125.942,0,1.122,1.122,0,0,1,0-.3,35.007,35.007,0,0,1-.8-8.552h0a220.993,220.993,0,0,1,3.354-24.014,82.088,82.088,0,0,0,.637-11.806v-1.409c-.1-1.275-.134-2.415-.168-3.522Zm0,0a20.209,20.209,0,0,0-.235-3.756c-.235-1.241-.2-2.348-.369-3.555s-.3-2.381-.47-3.589-.4-2.382-.637-3.589-.47-2.381-.738-3.589a5.617,5.617,0,0,0-.268-1.208q-.553-2.364-1.207-4.729c-.436-1.576-.7-2.549-1.107-3.79a5.156,5.156,0,0,0-.537-1.677c-.2-.537-.57-1.811-.872-2.717l-.6-1.744c-.268-.771-.537-1.576-.839-2.348-.5-1.409-1.04-2.784-1.576-4.193s-1.107-2.784-1.677-4.159c-1.14-2.817-2.381-5.6-3.622-8.419-4.863-10.867-10.33-21.566-15.361-32.165a171.023,171.023,0,0,1-7.177-17.038l-.637.838a35.626,35.626,0,0,0-2.717,4.528c0,24.685-26.429,54.9-26.429,54.9l-26.6-36.223-23.277,33.54c-3.354,1.677-6.708,7.379-9.324,15.5-.738,2.18-1.442,4.595-2.113,7.111-.47,1.711-.906,3.354-1.308,5.266-.235.906-.436,1.811-.637,2.75l-.6,2.851v.436c-.4,1.945-.8,3.958-1.174,6s-.8,4.394-1.174,6.708q-.4,2.18-.7,4.327c-.47,2.784-.872,5.6-1.275,8.418-.235,1.643-.469,3.354-.671,4.864l-.805,6.238c1.711,5.132,3.622,10.062,5.6,15.227a23.949,23.949,0,0,1,2.18,8.62,244.442,244.442,0,0,0,125.942,0,1.122,1.122,0,0,1,0-.3,35.007,35.007,0,0,1-.8-8.552h0a220.993,220.993,0,0,1,3.354-24.014,82.088,82.088,0,0,0,.637-11.806v-1.409c-.1-1.275-.134-2.415-.168-3.522Z" transform="translate(-76.641 688.465)" fill="url(#linear-gradient)"/>
            <rect id="Rectangle_113" data-name="Rectangle 113" width="154.283" height="103.974" transform="translate(316.045 1190.385)" fill="#2f2e41"/>
            <path id="Path_387" data-name="Path 387" d="M508.554,523.936,443.99,614.9l-67.482-5.87s-88.042,5.836-29.347-61.613c28.207-32.433,37.431-59.466,39.409-78.752,2.147-20.862-4.193-32.735-4.193-32.735l73.352-8.787a54.737,54.737,0,0,0-1.207,30.622C463.712,495.863,508.554,523.936,508.554,523.936Z" transform="translate(-12.602 781.122)" fill="#fdc2cc"/>
            <path id="Path_388" data-name="Path 388" d="M415.634,457.708a73.318,73.318,0,0,1-67.952,10.934c2.147-20.862-4.192-32.735-4.192-32.735l73.352-8.787a54.736,54.736,0,0,0-1.208,30.588Z" transform="translate(26.252 781.075)" opacity="0.1"/>
            <circle id="Ellipse_30" data-name="Ellipse 30" cx="73.352" cy="73.352" r="73.352" transform="translate(324.296 1104.021)" fill="#fdc2cc"/>
            <path id="Path_389" data-name="Path 389" d="M519.44,476.9l-1.711-6.708-1.476-5.9-2.18-8.72-.4-1.61-.336-1.342s1.744-5.266-9.76-3.555l-2.147.369c-1.811.369-3.924.872-6.339,1.543l-2.18.671-2.884.905h0a62.887,62.887,0,0,0-24.35,14.69,54.818,54.818,0,0,0-8.15,9.861c-.235.335-.4.637-.6.906a31.658,31.658,0,0,0-2.113,3.891c0,26.429-26.429,58.695-26.429,58.695l-25.792-37.263-.5-.738-6.138-8.922-2.18-2.884-.738-1.006-13.416-18.011-3.354-4.494-1.107-1.509-1.643-2.18-3.857-5.132-15.093,8.821-20.124,11.739-11.739,76.3v2.113l.369,6.306,2.449,41.455v.57l-4.293,17.173.637.335a221.187,221.187,0,0,0,31.527,13.953l2.851,1.006c3.354,1.106,6.507,2.113,9.794,3.086a11.915,11.915,0,0,1,.268,1.509c0-.47,0-.973,0-1.442a229.181,229.181,0,0,0,125.942,0l.771-.235c1.912-.536,3.857-1.107,5.735-1.744l3.052-.973a224.674,224.674,0,0,0,24.283-9.727l2.817-60.037,2.012-43.3v-2.482Z" transform="translate(-26.171 831.917)" opacity="0.1"/>
            <path id="Path_390" data-name="Path 390" d="M494.774,586.332a23.169,23.169,0,0,0-.235-4.025c-.235-1.342-.2-2.516-.369-3.79s-.3-2.549-.47-3.823-.4-2.549-.637-3.824-.469-2.549-.738-3.824a5.758,5.758,0,0,0-.268-1.275c-.369-1.677-.771-3.354-1.207-5.064s-.7-2.717-1.107-4.059a5.724,5.724,0,0,0-.537-1.778c-.2-.57-.57-1.945-.872-2.918l-.6-1.878c-.268-.839-.537-1.677-.838-2.516-.5-1.509-1.04-2.985-1.577-4.494s-1.107-2.985-1.677-4.461c-1.14-3.019-2.381-6-3.622-8.989-4.863-11.6-10.33-23.042-15.361-34.378a190.076,190.076,0,0,1-7.177-18.212l-.637.905a38.761,38.761,0,0,0-2.717,4.83c0,26.4-26.43,58.695-26.43,58.695l-26.6-38.739L377.821,538.5c-3.354,1.778-6.708,7.882-9.324,16.569-.738,2.348-1.442,4.9-2.113,7.613-.47,1.811-.906,3.723-1.308,5.635-.235.972-.436,1.945-.637,2.951l-.6,3.052v.47c-.4,2.079-.8,4.226-1.174,6.406s-.8,4.7-1.174,7.077q-.4,2.314-.7,4.629c-.47,2.985-.872,6-1.275,8.988-.235,1.744-.47,3.354-.671,5.2l-.805,6.708c1.711,5.5,3.622,10.934,5.6,16.267a27.031,27.031,0,0,1,2.18,9.224,229.179,229.179,0,0,0,125.942,0,1.271,1.271,0,0,1,0-.336,39.939,39.939,0,0,1-.8-9.156h0a251.624,251.624,0,0,1,3.354-25.658,93.891,93.891,0,0,0,.637-12.611v-1.51C494.841,588.746,494.807,587.539,494.774,586.332Zm0,0a23.169,23.169,0,0,0-.235-4.025c-.235-1.342-.2-2.516-.369-3.79s-.3-2.549-.47-3.823-.4-2.549-.637-3.824-.469-2.549-.738-3.824a5.758,5.758,0,0,0-.268-1.275c-.369-1.677-.771-3.354-1.207-5.064s-.7-2.717-1.107-4.059a5.724,5.724,0,0,0-.537-1.778c-.2-.57-.57-1.945-.872-2.918l-.6-1.878c-.268-.839-.537-1.677-.838-2.516-.5-1.509-1.04-2.985-1.577-4.494s-1.107-2.985-1.677-4.461c-1.14-3.019-2.381-6-3.622-8.989-4.863-11.6-10.33-23.042-15.361-34.378a190.076,190.076,0,0,1-7.177-18.212l-.637.905a38.761,38.761,0,0,0-2.717,4.83c0,26.4-26.43,58.695-26.43,58.695l-26.6-38.739L377.821,538.5c-3.354,1.778-6.708,7.882-9.324,16.569-.738,2.348-1.442,4.9-2.113,7.613-.47,1.811-.906,3.723-1.308,5.635-.235.972-.436,1.945-.637,2.951l-.6,3.052v.47c-.4,2.079-.8,4.226-1.174,6.406s-.8,4.7-1.174,7.077q-.4,2.314-.7,4.629c-.47,2.985-.872,6-1.275,8.988-.235,1.744-.47,3.354-.671,5.2l-.805,6.708c1.711,5.5,3.622,10.934,5.6,16.267a27.031,27.031,0,0,1,2.18,9.224,229.179,229.179,0,0,0,125.942,0,1.271,1.271,0,0,1,0-.336,39.939,39.939,0,0,1-.8-9.156h0a251.624,251.624,0,0,1,3.354-25.658,93.891,93.891,0,0,0,.637-12.611v-1.51C494.841,588.746,494.807,587.539,494.774,586.332Zm0,0a23.169,23.169,0,0,0-.235-4.025c-.235-1.342-.2-2.516-.369-3.79s-.3-2.549-.47-3.823-.4-2.549-.637-3.824-.469-2.549-.738-3.824a5.758,5.758,0,0,0-.268-1.275c-.369-1.677-.771-3.354-1.207-5.064s-.7-2.717-1.107-4.059a5.724,5.724,0,0,0-.537-1.778c-.2-.57-.57-1.945-.872-2.918l-.6-1.878c-.268-.839-.537-1.677-.838-2.516-.5-1.509-1.04-2.985-1.577-4.494s-1.107-2.985-1.677-4.461c-1.14-3.019-2.381-6-3.622-8.989-4.863-11.6-10.33-23.042-15.361-34.378a190.076,190.076,0,0,1-7.177-18.212l-.637.905a38.761,38.761,0,0,0-2.717,4.83c0,26.4-26.43,58.695-26.43,58.695l-26.6-38.739L377.821,538.5c-3.354,1.778-6.708,7.882-9.324,16.569-.738,2.348-1.442,4.9-2.113,7.613-.47,1.811-.906,3.723-1.308,5.635-.235.972-.436,1.945-.637,2.951l-.6,3.052v.47c-.4,2.079-.8,4.226-1.174,6.406s-.8,4.7-1.174,7.077q-.4,2.314-.7,4.629c-.47,2.985-.872,6-1.275,8.988-.235,1.744-.47,3.354-.671,5.2l-.805,6.708c1.711,5.5,3.622,10.934,5.6,16.267a27.031,27.031,0,0,1,2.18,9.224,229.179,229.179,0,0,0,125.942,0,1.271,1.271,0,0,1,0-.336,39.939,39.939,0,0,1-.8-9.156h0a251.624,251.624,0,0,1,3.354-25.658,93.891,93.891,0,0,0,.637-12.611v-1.51C494.841,588.746,494.807,587.539,494.774,586.332Zm35.552-62.954-11.974-47.794-2.046-8.184-.57-2.247h0l-2.918-11.672a2.195,2.195,0,0,0,0-.3h0a2.682,2.682,0,0,0-.235-1.509c-.436-.872-1.543-1.778-4.125-2.012a20.857,20.857,0,0,0-2.952,0h0a51.084,51.084,0,0,0-8.62,1.61c-1.375.369-2.851.772-4.427,1.275l-2.884.906h-.268a63.992,63.992,0,0,0-21.13,11.739,57.017,57.017,0,0,0-10.733,11.873l-.637.906a38.757,38.757,0,0,0-2.717,4.83c0,26.4-26.429,58.695-26.429,58.695l-26.6-38.738-1.509-2.18-.268-.369-3.857-5.668-2.918-3.891-.771-1.006L377.988,471.29h0l-4.36-5.937v-.2l-1.509-2.046-2.884-3.824-10.062,5.87-25.155,14.657-11.6,75.5v.8l.335,5.5,2.482,42.025v2.381l-3.79,15.127A221.2,221.2,0,0,0,352.968,635.1l2.851,1.006c3.354,1.107,6.507,2.113,9.794,3.086a11.85,11.85,0,0,1,.268,1.509v-1.442a229.183,229.183,0,0,0,125.942,0l.771-.235c1.912-.536,3.857-1.107,5.735-1.744l3.052-.972a224.7,224.7,0,0,0,24.283-9.727h0l2.784-59.969,2.012-42.83ZM365.377,639.19a11.849,11.849,0,0,1,.268,1.509c0-.469,0-.972,0-1.442Zm129.4-52.859a23.169,23.169,0,0,0-.235-4.025c-.235-1.342-.2-2.516-.369-3.79s-.3-2.549-.47-3.823-.4-2.549-.637-3.824-.469-2.549-.738-3.824a5.758,5.758,0,0,0-.268-1.275c-.369-1.677-.771-3.354-1.207-5.064s-.7-2.717-1.107-4.059a5.724,5.724,0,0,0-.537-1.778c-.2-.57-.57-1.945-.872-2.918l-.6-1.878c-.268-.839-.537-1.677-.838-2.516-.5-1.509-1.04-2.985-1.577-4.494s-1.107-2.985-1.677-4.461c-1.14-3.019-2.381-6-3.622-8.989-4.863-11.6-10.33-23.042-15.361-34.378a190.076,190.076,0,0,1-7.177-18.212l-.637.905a38.761,38.761,0,0,0-2.717,4.83c0,26.4-26.43,58.695-26.43,58.695l-26.6-38.739L377.821,538.5c-3.354,1.778-6.708,7.882-9.324,16.569-.738,2.348-1.442,4.9-2.113,7.613-.47,1.811-.906,3.723-1.308,5.635-.235.972-.436,1.945-.637,2.951l-.6,3.052v.47c-.4,2.079-.8,4.226-1.174,6.406s-.8,4.7-1.174,7.077q-.4,2.314-.7,4.629c-.47,2.985-.872,6-1.275,8.988-.235,1.744-.47,3.354-.671,5.2l-.805,6.708c1.711,5.5,3.622,10.934,5.6,16.267a27.031,27.031,0,0,1,2.18,9.224,229.179,229.179,0,0,0,125.942,0,1.271,1.271,0,0,1,0-.336,39.939,39.939,0,0,1-.8-9.156h0a251.624,251.624,0,0,1,3.354-25.658,93.891,93.891,0,0,0,.637-12.611v-1.51C494.841,588.746,494.807,587.539,494.774,586.332Zm0,0a23.169,23.169,0,0,0-.235-4.025c-.235-1.342-.2-2.516-.369-3.79s-.3-2.549-.47-3.823-.4-2.549-.637-3.824-.469-2.549-.738-3.824a5.758,5.758,0,0,0-.268-1.275c-.369-1.677-.771-3.354-1.207-5.064s-.7-2.717-1.107-4.059a5.724,5.724,0,0,0-.537-1.778c-.2-.57-.57-1.945-.872-2.918l-.6-1.878c-.268-.839-.537-1.677-.838-2.516-.5-1.509-1.04-2.985-1.577-4.494s-1.107-2.985-1.677-4.461c-1.14-3.019-2.381-6-3.622-8.989-4.863-11.6-10.33-23.042-15.361-34.378a190.076,190.076,0,0,1-7.177-18.212l-.637.905a38.761,38.761,0,0,0-2.717,4.83c0,26.4-26.43,58.695-26.43,58.695l-26.6-38.739L377.821,538.5c-3.354,1.778-6.708,7.882-9.324,16.569-.738,2.348-1.442,4.9-2.113,7.613-.47,1.811-.906,3.723-1.308,5.635-.235.972-.436,1.945-.637,2.951l-.6,3.052v.47c-.4,2.079-.8,4.226-1.174,6.406s-.8,4.7-1.174,7.077q-.4,2.314-.7,4.629c-.47,2.985-.872,6-1.275,8.988-.235,1.744-.47,3.354-.671,5.2l-.805,6.708c1.711,5.5,3.622,10.934,5.6,16.267a27.031,27.031,0,0,1,2.18,9.224,229.179,229.179,0,0,0,125.942,0,1.271,1.271,0,0,1,0-.336,39.939,39.939,0,0,1-.8-9.156h0a251.624,251.624,0,0,1,3.354-25.658,93.891,93.891,0,0,0,.637-12.611v-1.51C494.841,588.746,494.807,587.539,494.774,586.332Zm0,0a23.169,23.169,0,0,0-.235-4.025c-.235-1.342-.2-2.516-.369-3.79s-.3-2.549-.47-3.823-.4-2.549-.637-3.824-.469-2.549-.738-3.824a5.758,5.758,0,0,0-.268-1.275c-.369-1.677-.771-3.354-1.207-5.064s-.7-2.717-1.107-4.059a5.724,5.724,0,0,0-.537-1.778c-.2-.57-.57-1.945-.872-2.918l-.6-1.878c-.268-.839-.537-1.677-.838-2.516-.5-1.509-1.04-2.985-1.577-4.494s-1.107-2.985-1.677-4.461c-1.14-3.019-2.381-6-3.622-8.989-4.863-11.6-10.33-23.042-15.361-34.378a190.076,190.076,0,0,1-7.177-18.212l-.637.905a38.761,38.761,0,0,0-2.717,4.83c0,26.4-26.43,58.695-26.43,58.695l-26.6-38.739L377.821,538.5c-3.354,1.778-6.708,7.882-9.324,16.569-.738,2.348-1.442,4.9-2.113,7.613-.47,1.811-.906,3.723-1.308,5.635-.235.972-.436,1.945-.637,2.951l-.6,3.052v.47c-.4,2.079-.8,4.226-1.174,6.406s-.8,4.7-1.174,7.077q-.4,2.314-.7,4.629c-.47,2.985-.872,6-1.275,8.988-.235,1.744-.47,3.354-.671,5.2l-.805,6.708c1.711,5.5,3.622,10.934,5.6,16.267a27.031,27.031,0,0,1,2.18,9.224,229.179,229.179,0,0,0,125.942,0,1.271,1.271,0,0,1,0-.336,39.939,39.939,0,0,1-.8-9.156h0a251.624,251.624,0,0,1,3.354-25.658,93.891,93.891,0,0,0,.637-12.611v-1.51C494.841,588.746,494.807,587.539,494.774,586.332Zm0,0a23.169,23.169,0,0,0-.235-4.025c-.235-1.342-.2-2.516-.369-3.79s-.3-2.549-.47-3.823-.4-2.549-.637-3.824-.469-2.549-.738-3.824a5.758,5.758,0,0,0-.268-1.275c-.369-1.677-.771-3.354-1.207-5.064s-.7-2.717-1.107-4.059a5.724,5.724,0,0,0-.537-1.778c-.2-.57-.57-1.945-.872-2.918l-.6-1.878c-.268-.839-.537-1.677-.838-2.516-.5-1.509-1.04-2.985-1.577-4.494s-1.107-2.985-1.677-4.461c-1.14-3.019-2.381-6-3.622-8.989-4.863-11.6-10.33-23.042-15.361-34.378a190.076,190.076,0,0,1-7.177-18.212l-.637.905a38.761,38.761,0,0,0-2.717,4.83c0,26.4-26.43,58.695-26.43,58.695l-26.6-38.739L377.821,538.5c-3.354,1.778-6.708,7.882-9.324,16.569-.738,2.348-1.442,4.9-2.113,7.613-.47,1.811-.906,3.723-1.308,5.635-.235.972-.436,1.945-.637,2.951l-.6,3.052v.47c-.4,2.079-.8,4.226-1.174,6.406s-.8,4.7-1.174,7.077q-.4,2.314-.7,4.629c-.47,2.985-.872,6-1.275,8.988-.235,1.744-.47,3.354-.671,5.2l-.805,6.708c1.711,5.5,3.622,10.934,5.6,16.267a27.031,27.031,0,0,1,2.18,9.224,229.179,229.179,0,0,0,125.942,0,1.271,1.271,0,0,1,0-.336,39.939,39.939,0,0,1-.8-9.156h0a251.624,251.624,0,0,1,3.354-25.658,93.891,93.891,0,0,0,.637-12.611v-1.51C494.841,588.746,494.807,587.539,494.774,586.332Zm0,0a23.169,23.169,0,0,0-.235-4.025c-.235-1.342-.2-2.516-.369-3.79s-.3-2.549-.47-3.823-.4-2.549-.637-3.824-.469-2.549-.738-3.824a5.758,5.758,0,0,0-.268-1.275c-.369-1.677-.771-3.354-1.207-5.064s-.7-2.717-1.107-4.059a5.724,5.724,0,0,0-.537-1.778c-.2-.57-.57-1.945-.872-2.918l-.6-1.878c-.268-.839-.537-1.677-.838-2.516-.5-1.509-1.04-2.985-1.577-4.494s-1.107-2.985-1.677-4.461c-1.14-3.019-2.381-6-3.622-8.989-4.863-11.6-10.33-23.042-15.361-34.378a190.076,190.076,0,0,1-7.177-18.212l-.637.905a38.761,38.761,0,0,0-2.717,4.83c0,26.4-26.43,58.695-26.43,58.695l-26.6-38.739L377.821,538.5c-3.354,1.778-6.708,7.882-9.324,16.569-.738,2.348-1.442,4.9-2.113,7.613-.47,1.811-.906,3.723-1.308,5.635-.235.972-.436,1.945-.637,2.951l-.6,3.052v.47c-.4,2.079-.8,4.226-1.174,6.406s-.8,4.7-1.174,7.077q-.4,2.314-.7,4.629c-.47,2.985-.872,6-1.275,8.988-.235,1.744-.47,3.354-.671,5.2l-.805,6.708c1.711,5.5,3.622,10.934,5.6,16.267a27.031,27.031,0,0,1,2.18,9.224,229.179,229.179,0,0,0,125.942,0,1.271,1.271,0,0,1,0-.336,39.939,39.939,0,0,1-.8-9.156h0a251.624,251.624,0,0,1,3.354-25.658,93.891,93.891,0,0,0,.637-12.611v-1.51C494.841,588.746,494.807,587.539,494.774,586.332Zm0,0a23.169,23.169,0,0,0-.235-4.025c-.235-1.342-.2-2.516-.369-3.79s-.3-2.549-.47-3.823-.4-2.549-.637-3.824-.469-2.549-.738-3.824a5.758,5.758,0,0,0-.268-1.275c-.369-1.677-.771-3.354-1.207-5.064s-.7-2.717-1.107-4.059a5.724,5.724,0,0,0-.537-1.778c-.2-.57-.57-1.945-.872-2.918l-.6-1.878c-.268-.839-.537-1.677-.838-2.516-.5-1.509-1.04-2.985-1.577-4.494s-1.107-2.985-1.677-4.461c-1.14-3.019-2.381-6-3.622-8.989-4.863-11.6-10.33-23.042-15.361-34.378a190.076,190.076,0,0,1-7.177-18.212l-.637.905a38.761,38.761,0,0,0-2.717,4.83c0,26.4-26.43,58.695-26.43,58.695l-26.6-38.739L377.821,538.5c-3.354,1.778-6.708,7.882-9.324,16.569-.738,2.348-1.442,4.9-2.113,7.613-.47,1.811-.906,3.723-1.308,5.635-.235.972-.436,1.945-.637,2.951l-.6,3.052v.47c-.4,2.079-.8,4.226-1.174,6.406s-.8,4.7-1.174,7.077q-.4,2.314-.7,4.629c-.47,2.985-.872,6-1.275,8.988-.235,1.744-.47,3.354-.671,5.2l-.805,6.708c1.711,5.5,3.622,10.934,5.6,16.267a27.031,27.031,0,0,1,2.18,9.224,229.179,229.179,0,0,0,125.942,0,1.271,1.271,0,0,1,0-.336,39.939,39.939,0,0,1-.8-9.156h0a251.624,251.624,0,0,1,3.354-25.658,93.891,93.891,0,0,0,.637-12.611v-1.51C494.841,588.746,494.807,587.539,494.774,586.332Zm0,0a23.169,23.169,0,0,0-.235-4.025c-.235-1.342-.2-2.516-.369-3.79s-.3-2.549-.47-3.823-.4-2.549-.637-3.824-.469-2.549-.738-3.824a5.758,5.758,0,0,0-.268-1.275c-.369-1.677-.771-3.354-1.207-5.064s-.7-2.717-1.107-4.059a5.724,5.724,0,0,0-.537-1.778c-.2-.57-.57-1.945-.872-2.918l-.6-1.878c-.268-.839-.537-1.677-.838-2.516-.5-1.509-1.04-2.985-1.577-4.494s-1.107-2.985-1.677-4.461c-1.14-3.019-2.381-6-3.622-8.989-4.863-11.6-10.33-23.042-15.361-34.378a190.076,190.076,0,0,1-7.177-18.212l-.637.905a38.761,38.761,0,0,0-2.717,4.83c0,26.4-26.43,58.695-26.43,58.695l-26.6-38.739L377.821,538.5c-3.354,1.778-6.708,7.882-9.324,16.569-.738,2.348-1.442,4.9-2.113,7.613-.47,1.811-.906,3.723-1.308,5.635-.235.972-.436,1.945-.637,2.951l-.6,3.052v.47c-.4,2.079-.8,4.226-1.174,6.406s-.8,4.7-1.174,7.077q-.4,2.314-.7,4.629c-.47,2.985-.872,6-1.275,8.988-.235,1.744-.47,3.354-.671,5.2l-.805,6.708c1.711,5.5,3.622,10.934,5.6,16.267a27.031,27.031,0,0,1,2.18,9.224,229.179,229.179,0,0,0,125.942,0,1.271,1.271,0,0,1,0-.336,39.939,39.939,0,0,1-.8-9.156h0a251.624,251.624,0,0,1,3.354-25.658,93.891,93.891,0,0,0,.637-12.611v-1.51C494.841,588.746,494.807,587.539,494.774,586.332Zm0,0a23.169,23.169,0,0,0-.235-4.025c-.235-1.342-.2-2.516-.369-3.79s-.3-2.549-.47-3.823-.4-2.549-.637-3.824-.469-2.549-.738-3.824a5.758,5.758,0,0,0-.268-1.275c-.369-1.677-.771-3.354-1.207-5.064s-.7-2.717-1.107-4.059a5.724,5.724,0,0,0-.537-1.778c-.2-.57-.57-1.945-.872-2.918l-.6-1.878c-.268-.839-.537-1.677-.838-2.516-.5-1.509-1.04-2.985-1.577-4.494s-1.107-2.985-1.677-4.461c-1.14-3.019-2.381-6-3.622-8.989-4.863-11.6-10.33-23.042-15.361-34.378a190.076,190.076,0,0,1-7.177-18.212l-.637.905a38.761,38.761,0,0,0-2.717,4.83c0,26.4-26.43,58.695-26.43,58.695l-26.6-38.739L377.821,538.5c-3.354,1.778-6.708,7.882-9.324,16.569-.738,2.348-1.442,4.9-2.113,7.613-.47,1.811-.906,3.723-1.308,5.635-.235.972-.436,1.945-.637,2.951l-.6,3.052v.47c-.4,2.079-.8,4.226-1.174,6.406s-.8,4.7-1.174,7.077q-.4,2.314-.7,4.629c-.47,2.985-.872,6-1.275,8.988-.235,1.744-.47,3.354-.671,5.2l-.805,6.708c1.711,5.5,3.622,10.934,5.6,16.267a27.031,27.031,0,0,1,2.18,9.224,229.179,229.179,0,0,0,125.942,0,1.271,1.271,0,0,1,0-.336,39.939,39.939,0,0,1-.8-9.156h0a251.624,251.624,0,0,1,3.354-25.658,93.891,93.891,0,0,0,.637-12.611v-1.51C494.841,588.746,494.807,587.539,494.774,586.332Z" transform="translate(-25.653 834.003)" fill="#fff"/>
            <path id="Path_391" data-name="Path 391" d="M447.987,499.868l-2.247-.3a81.774,81.774,0,0,1-10.062-2.012l-1.241-.335c-8.184-2.314-17.139-6.473-19.151-13.785a13.048,13.048,0,0,1,.2-7.144,61.264,61.264,0,0,1,4.561-11.538v-.2a16.018,16.018,0,0,1,.839-1.51A33.542,33.542,0,0,1,433,449.86l-4.025.637-34.077,5.534-52.825,8.519s-9.391-1.878-22.17,33.339a5.444,5.444,0,0,1-.436,1.308c-3.086,8.62-6.339,19.386-9.693,32.836-2.314,9.324-4.427,18.481-6.373,27.369-.57,2.683-1.14,5.333-1.677,7.949a213.134,213.134,0,0,0,19.487,20.124l1.107,1.04a228.957,228.957,0,0,0,44.675,31.628l.637.336a221.177,221.177,0,0,0,31.527,13.952L402,635.436c.6-6.2,1.274-13.081,2.079-20.124a5.731,5.731,0,0,1,.268-2.113l.8-6.708c.2-1.71.436-3.354.671-5.2.4-2.985.8-6,1.275-8.989q.3-2.314.7-4.629c.369-2.381.771-4.763,1.174-7.077s.771-4.327,1.174-6.406v-.469l.6-3.052c.2-1.006.4-1.979.637-2.952.4-1.912.839-3.824,1.308-5.635.671-2.716,1.375-5.266,2.113-7.613,2.683-8.687,5.8-14.791,9.324-16.569l23.277-35.787.973-1.509.436-.671Z" transform="translate(-72.074 834.605)" opacity="0.1"/>
            <path id="Path_392" data-name="Path 392" d="M447.656,499.888l-24.719,37.967c-3.354,1.711-6.507,7.647-9.156,16.066-.771,2.482-1.543,5.2-2.281,8.049a401.018,401.018,0,0,0-7.58,43.9,5.209,5.209,0,0,1-.268,2.012c-1.14,9.324-2.079,18.48-2.851,26.564A221.157,221.157,0,0,1,369.273,620.5l-.637-.335a228.956,228.956,0,0,1-44.675-31.628l-1.107-1.039a213.113,213.113,0,0,1-19.487-20.124c-.8-.906-1.576-1.845-2.348-2.784.369-1.744.738-3.354,1.14-5.232,1.912-8.888,4.025-18.011,6.339-27.3a330.507,330.507,0,0,1,11.4-37.565,10.28,10.28,0,0,1,.436-1.073c11.873-30.555,20.426-28.844,20.426-28.844l55.777-8.989,35.217-5.7-1.107.637a35.716,35.716,0,0,0-9.693,10.33l-.973,1.643c-.4.637-.772,1.342-1.174,2.046a59.418,59.418,0,0,0-4.628,11.739,12.343,12.343,0,0,0,.8,9.592c3.354,6.507,12.879,10.062,20.694,12.007l1.308.335A84.114,84.114,0,0,0,447.656,499.888Z" transform="translate(-73.722 834.652)" fill="#bd171b"/>
            <path id="Path_393" data-name="Path 393" d="M475.551,573.675l-1.375-29.783c5.869-46.956-5.87-49.874-5.87-49.874l-13.953-6.708h-.369l-56.112-27.2-2.18-1.073-.671-.3h0l-7.312-3.555h0l-4.629-2.247-8.653-4.192-2.918-1.409v11.638c0,3.354.3,7.278.57,11.84.6,11.471,1.711,26.832,3.689,44.943,1.107,10.5,2.516,21.969,4.26,34.278,1.04,7.278,1.778,14.523,2.247,21.6a380.1,380.1,0,0,1-2.214,71.44l3.052-.973a224.731,224.731,0,0,0,24.283-9.727h0a222.873,222.873,0,0,0,43.267-26.564l.6-.436a223.769,223.769,0,0,0,24.35-22.1Z" transform="translate(92.211 828.649)" opacity="0.1"/>
            <path id="Path_394" data-name="Path 394" d="M476.478,573.792l-1.375-29.85c5.869-46.956-5.869-49.874-5.869-49.874l-16.77-8.117h-.335l-56.28-27.3-2.583-1.241-.5-.235-4.125-2.012-5.467-2.65-10.8-5.232v4.763h0v5.9c0,3.354.3,7.748.6,12.745.57,10.7,1.576,24.719,3.354,41.388,1.207,11.437,2.717,24.149,4.7,37.833q1.543,10.968,2.214,21.7a379.592,379.592,0,0,1-2.08,70.434,224.672,224.672,0,0,0,24.283-9.727h0a222.884,222.884,0,0,0,43.266-26.563l.6-.436a223.791,223.791,0,0,0,24.35-22.1q1.476-1.476,2.817-3.018Z" transform="translate(94.235 828.532)" fill="#bd171b"/>
            <path id="Path_395" data-name="Path 395" d="M372.178,402.183c-3.354,4.629-3.086,11-4.595,16.77-3.589,13.114-17.81,21.331-21.063,34.546-1.912,7.714.3,15.9-1.006,23.746-2.381,14.456-15.6,24.249-22.975,36.894a49.773,49.773,0,0,0-3.052,43.266,69.357,69.357,0,0,1,4.259,10.934,39.945,39.945,0,0,1-1.04,16.77c-2.516,11.94-5.1,25.088.671,35.854,4.863,9.089,14.959,14.422,25.121,16.1a97.623,97.623,0,0,0,30.756-1.409c11.1-1.71,22.472-3.689,32.131-9.391l-36.324-87.673c-3.656-8.854-7.412-18.011-7.379-27.6a60.674,60.674,0,0,1,4.528-20.594A178.43,178.43,0,0,1,402.4,438.238c5.266,6.1,4.863,15.4,9.257,22.17a34.981,34.981,0,0,0,14.959,11.169,495.585,495.585,0,0,0,52.96,22.136,6.943,6.943,0,0,1,5.165,10.33l-13.684,56.481c-3.019,12.443-5.668,26.832,2.079,36.894s25.222,14.825,25.323,27.8a44.471,44.471,0,0,0,0,6.171c.906,6.071,8.117,8.989,14.254,9.291A42.5,42.5,0,0,0,555.34,605.9c3.354-22.2-11.336-42.663-17.474-64.3-10.33-36.391,3.354-79.087-16.938-111.05-16.434-25.926-46.385-32.97-74.827-36.19C426.144,392.02,386.232,383.635,372.178,402.183Z" transform="translate(-38.626 694.727)" opacity="0.1"/>
            <path id="Path_396" data-name="Path 396" d="M372.178,401.183c-3.354,4.628-3.086,11-4.595,16.77-3.589,13.114-17.81,21.331-21.063,34.546-1.912,7.714.3,15.9-1.006,23.746-2.381,14.456-15.6,24.249-22.975,36.894a49.773,49.773,0,0,0-3.052,43.266,69.346,69.346,0,0,1,4.259,10.934,39.948,39.948,0,0,1-1.04,16.77c-2.516,11.94-5.1,25.088.671,35.854,4.863,9.089,14.959,14.422,25.121,16.1a97.633,97.633,0,0,0,30.756-1.409c11.1-1.71,22.472-3.689,32.131-9.391l-36.323-87.673c-3.656-8.855-7.412-18.011-7.379-27.6a60.674,60.674,0,0,1,4.528-20.594A178.43,178.43,0,0,1,402.4,437.238c5.266,6.1,4.863,15.395,9.257,22.17a34.982,34.982,0,0,0,14.959,11.169,495.528,495.528,0,0,0,52.96,22.136,6.943,6.943,0,0,1,5.165,10.33l-13.684,56.481c-3.019,12.443-5.668,26.832,2.079,36.894s25.222,14.824,25.323,27.8a44.494,44.494,0,0,0,0,6.171c.906,6.071,8.117,8.989,14.254,9.291A42.5,42.5,0,0,0,555.34,604.9c3.354-22.2-11.337-42.663-17.474-64.3-10.331-36.391,3.354-79.087-16.938-111.05-16.434-25.926-46.385-32.97-74.827-36.19C426.144,391.02,386.232,382.635,372.178,401.183Z" transform="translate(-38.626 692.373)" fill="#2f2e41"/>
          </g>
          <g id="Group_102" data-name="Group 102" transform="translate(-281.502 2026.071)">
            <path id="Path_528" data-name="Path 528" d="M280.78,445.172a311.947,311.947,0,0,0,62.592,187.961c4.1,5.485,8.389,10.785,12.86,15.994,2.4,2.812,4.886,5.577,7.421,8.3q1.89,2.12,3.872,4.148a307.523,307.523,0,0,0,33.462,30.374l.83.6a312.081,312.081,0,0,0,92.828,49.871l4.194,1.337c2.581.876,5.255,1.659,7.882,2.4l1.06.323c1.337.369,2.673.784,4.056,1.106A312.085,312.085,0,0,0,594.018,758.5c4.609,0,9.448,0,14.15-.323a309.915,309.915,0,0,0,72.686-11.891h.461c4.379-1.291,8.711-2.627,13-4.1h.461l3.918-1.383a303.874,303.874,0,0,0,43.326-19.174l.876-.461c1.521-.83,3.042-1.659,4.609-2.535A312.636,312.636,0,0,0,804.378,677.7l1.521-1.429a292.874,292.874,0,0,0,26.779-27.655l.968-1.152c.784-.876,1.521-1.751,2.258-2.673,2.028-2.4,3.964-4.886,5.9-7.375A313.421,313.421,0,1,0,280.78,445.172Z" transform="translate(2452.8 324.599)" fill="#e3e3e3" opacity="0.4"/>
            <path id="Path_439" data-name="Path 439" d="M280.78,445.172a311.947,311.947,0,0,0,62.592,187.961c4.1,5.485,8.389,10.785,12.86,15.994,2.4,2.812,4.886,5.577,7.421,8.3q1.89,2.12,3.872,4.148a307.523,307.523,0,0,0,33.462,30.374l.83.6a312.081,312.081,0,0,0,92.828,49.871l4.194,1.337c2.581.876,5.255,1.659,7.882,2.4l1.06.323c1.337.369,2.673.784,4.056,1.106A312.085,312.085,0,0,0,594.018,758.5c4.609,0,9.448,0,14.15-.323a309.915,309.915,0,0,0,72.686-11.891h.461c4.379-1.291,8.711-2.627,13-4.1h.461l3.918-1.383a303.874,303.874,0,0,0,43.326-19.174l.876-.461c1.521-.83,3.042-1.659,4.609-2.535A312.636,312.636,0,0,0,804.378,677.7l1.521-1.429a292.874,292.874,0,0,0,26.779-27.655l.968-1.152c.784-.876,1.521-1.751,2.258-2.673,2.028-2.4,3.964-4.886,5.9-7.375A313.421,313.421,0,1,0,280.78,445.172Z" transform="translate(2478.878 310.146)" fill="#de8b8d"/>
            <path id="Path_440" data-name="Path 440" d="M340,491.2s67.985-5.761,99.143-49c30.374-42.081,51.023-42.588,52.037-42.588h0c.784-5.623,1.337-10.97,1.705-15.948v-.691a9.221,9.221,0,0,1-4.286,1.89c-6.084.922-11.431-4.84-14.473-10.97a85.589,85.589,0,0,0-9.218-18.16c-7.513-8.665-19.819-8.711-28.761-15.3a39.547,39.547,0,0,1-13.827-26.364,72.565,72.565,0,0,1-.553-11.523,127.572,127.572,0,0,1,1.936-24.567c2.4-15.256,5.946-30.881,14.473-42.911s25.212-14.611,33.509-26c38.855-53.282,66.556-36.366,99.972-54.25a53.556,53.556,0,0,1,21.387-7.79c13.413-.783,25.4,8.8,36.182,17.93A103.338,103.338,0,0,1,647.665,183.4c9.633,13.5,15.026,36.136,14.565,55.955a83.8,83.8,0,0,1-2.12,21.894c-2.673,10.6-9.91,9.91-17.837,7.513a95.778,95.778,0,0,1-32.541,120.206v4.84a8.369,8.369,0,0,0,0,1.06,218.23,218.23,0,0,0,.738,22.032c.784.415,75.313,42.681,83.748,62.73S733.9,514.2,733.9,514.2s34.338,18.437,50.7,76.327l-.968,1.152a295.638,295.638,0,0,1-26.779,28.208l-1.521,1.475a312.825,312.825,0,0,1-56.877,41.482c-1.475.876-3,1.752-4.609,2.581l-.876.461a301.339,301.339,0,0,1-43.326,19.5l-3.918,1.429h-.461c-4.286,1.521-8.619,2.858-13,4.148h-.461a305.213,305.213,0,0,1-72.686,12.076c-4.609.231-9.218.323-14.15.323a307.2,307.2,0,0,1-81.951-10.647c-1.383-.323-2.72-.737-4.056-1.106l-1.06-.323c-2.627-.737-5.3-1.567-7.882-2.443L445.83,687.5a310.756,310.756,0,0,1-92.966-50.747l-.83-.6a309.408,309.408,0,0,1-33.462-30.881q-1.982-2.028-3.872-4.24c-2.535-2.766-5.024-5.577-7.421-8.435-4.609-5.3-8.757-10.693-12.859-16.27C319.079,481.705,340,491.2,340,491.2Z" transform="translate(2528.108 364.92)" fill="url(#linear-gradient-2)"/>
            <path id="Path_441" data-name="Path 441" d="M446.364,448.876l99.143-76.466s-66.418,14.242-64.528-91.906a8.17,8.17,0,0,1,0-1.06,271.581,271.581,0,0,1,2.3-31.665c17.008-141.639-118.962-17.008-118.962-17.008a202.787,202.787,0,0,1,0,37.7v1.014a263.364,263.364,0,0,1-28.3,100.064C299.1,440.349,446.364,448.876,446.364,448.876Z" transform="translate(2656.814 484.401)" fill="#fdc2cc"/>
            <path id="Path_442" data-name="Path 442" d="M350.257,248.793c16.823,16.362,27.1,46.091,52.406,46.091a92.876,92.876,0,0,0,51.484-15.441,271.594,271.594,0,0,1,2.3-31.665C473.46,106.141,337.49,230.772,337.49,230.772S352.055,225.748,350.257,248.793Z" transform="translate(2683.553 484.401)" opacity="0.1"/>
            <circle id="Ellipse_34" data-name="Ellipse 34" cx="93.473" cy="93.473" r="93.473" transform="translate(2992.743 587.73)" fill="#fdc2cc"/>
            <path id="Path_443" data-name="Path 443" d="M548,185.725a102.555,102.555,0,0,0-18.437-18.068c-10.785-8.988-22.769-18.437-36.182-17.607A54.155,54.155,0,0,0,472,157.7c-33.416,17.607-61.117.968-99.972,53.328-8.3,11.2-24.935,13.827-33.508,25.581s-12.03,27.194-14.473,42.22a103.525,103.525,0,0,0-1.429,30.881,38.672,38.672,0,0,0,13.827,25.9c8.941,6.5,21.248,6.545,28.761,15.072a83.65,83.65,0,0,1,9.218,17.837c3.042,5.992,8.388,11.661,14.473,10.785s9.725-7.467,10.6-13.827a85.005,85.005,0,0,0-1.152-19.681c-1.152-11.661.323-24.382,7.19-33.186,4.609-6.038,11.523-9.633,16.086-15.763,10.97-14.8,5.992-39.639,18.022-53.374a28.531,28.531,0,0,1,27.655-7.7,117.859,117.859,0,0,1,27.655,11.891,205.18,205.18,0,0,0,37.841,14.611c10.97,3,23.691,10.186,27.424-4.609C566.07,235.918,560.585,203.1,548,185.725Z" transform="translate(2627.862 375.779)" opacity="0.1"/>
            <path id="Path_444" data-name="Path 444" d="M548,184.725a102.56,102.56,0,0,0-18.437-18.068c-10.785-8.988-22.769-18.437-36.182-17.607A54.157,54.157,0,0,0,472,156.7c-33.416,17.607-61.117.968-99.972,53.328-8.3,11.2-24.935,13.827-33.508,25.581s-12.03,27.194-14.473,42.22a103.525,103.525,0,0,0-1.429,30.881,38.671,38.671,0,0,0,13.827,25.9c8.941,6.5,21.248,6.545,28.761,15.072a83.653,83.653,0,0,1,9.218,17.837c3.042,5.992,8.388,11.661,14.473,10.785s9.725-7.467,10.6-13.827a85,85,0,0,0-1.152-19.681c-1.152-11.661.323-24.382,7.19-33.186,4.609-6.038,11.523-9.633,16.086-15.763,10.97-14.8,5.992-39.639,18.022-53.374a28.531,28.531,0,0,1,27.655-7.7,117.856,117.856,0,0,1,27.655,11.892,205.2,205.2,0,0,0,37.841,14.611c10.97,3,23.691,10.186,27.424-4.609C566.07,234.918,560.585,202.1,548,184.725Z" transform="translate(2627.862 372.17)" fill="#2f2e41"/>
            <path id="Path_445" data-name="Path 445" d="M351.2,390.991l-1.844,70.75a312.082,312.082,0,0,0,82.181,10.924c4.609,0,9.449,0,14.15-.323a309.919,309.919,0,0,0,72.686-11.892h.461c4.379-1.29,8.712-2.627,13-4.1h.461l3.918-1.383a303.825,303.825,0,0,0,43.326-19.174l.876-.461c1.521-.83,3.042-1.659,4.609-2.535l-7.144-95.363,11.384-65.4-62.315-42.45a109.738,109.738,0,0,1-11.707,14.2,78.354,78.354,0,0,1-21.294,15.763c-44.709,22.032-95.594-13-120.9-34.661l-5.762-5.116c-6.545-5.946-10.278-10-10.278-10L325.85,257.879Z" transform="translate(2641.543 591.465)" opacity="0.1"/>
            <path id="Path_446" data-name="Path 446" d="M351.2,391.991l-1.844,70.75a312.075,312.075,0,0,0,82.181,10.924c4.609,0,9.449,0,14.15-.323a309.919,309.919,0,0,0,72.686-11.892h.461c4.379-1.29,8.712-2.627,13-4.1h.461l3.918-1.383a303.838,303.838,0,0,0,43.326-19.174l.876-.461c1.521-.83,3.042-1.659,4.609-2.535l-7.144-95.363,11.384-65.4-62.315-42.45a109.748,109.748,0,0,1-11.707,14.2,78.352,78.352,0,0,1-21.294,15.763c-44.709,22.032-95.594-13-120.9-34.661l-5.762-5.116c-6.545-5.946-10.278-10-10.278-10L325.85,258.879Z" transform="translate(2641.543 595.074)" fill="#fff"/>
            <path id="Path_447" data-name="Path 447" d="M294.36,376.681c4.1,5.485,8.389,10.785,12.86,15.994,2.4,2.812,4.886,5.577,7.421,8.3q1.89,2.12,3.872,4.148a307.527,307.527,0,0,0,33.462,30.374l.83.6a312.081,312.081,0,0,0,92.828,49.871l4.194,1.337c2.581.876,5.254,1.659,7.882,2.4l1.06.323c1.337.369,2.673.784,4.056,1.106a312.085,312.085,0,0,0,82.181,10.924c4.609,0,9.449,0,14.15-.323,3.6-58.813,4.609-106.01-1.014-118.132a190.162,190.162,0,0,0-11.385-20.372c-22.769-36.6-64.528-91.63-62.27-98.589a72.163,72.163,0,0,0,1.89-10.371c2.443-18.16,4.886-51.392,4.886-51.392h0c-1.014,0-21.663.507-52.037,41.9-31.158,42.5-99.143,48.166-99.143,48.166S319.3,283.714,294.36,376.681Z" transform="translate(2527.891 566.598)" fill="#bd171b"/>
            <path id="Path_448" data-name="Path 448" d="M397.92,412.566s3.411,27.148,7.882,59.6h.461l3.918-1.383a303.85,303.85,0,0,0,43.326-19.174l.876-.461c1.521-.83,3.042-1.659,4.609-2.535a312.63,312.63,0,0,0,56.877-40.929l1.521-1.429A292.861,292.861,0,0,0,544.168,378.6l.968-1.152c-16.455-57.107-50.7-75.083-50.7-75.083s-31.158-14.2-39.685-34.015-83.794-61.716-83.794-61.716v.323c0,3.549-1.2,36.044-3,68.722-1.152,21.248-2.581,42.589-4.241,56.139a65.585,65.585,0,0,1-2.4,13C355.47,358.778,397.92,412.566,397.92,412.566Z" transform="translate(2767.573 580.168)" fill="#bd171b"/>
          </g>
          <g id="Group_111" data-name="Group 111" transform="translate(4367.72 5364)">
            <g id="Group_109" data-name="Group 109" transform="translate(-1762.26 -3133.97)" opacity="0.5">
              <path id="Path_542" data-name="Path 542" d="M857.387,201.741H832.668V177.03H818.459v24.711H793.74v14.217h24.719v24.711h14.209V215.958h24.719Z" transform="translate(-793.74 -177.03)" fill="url(#linear-gradient-3)"/>
            </g>
            <rect id="Rectangle_124" data-name="Rectangle 124" width="12.077" height="54.1" transform="translate(-1736.475 -3129.205)" fill="#2f2e41"/>
            <rect id="Rectangle_125" data-name="Rectangle 125" width="12.077" height="54.1" transform="translate(-1703.387 -3108.185) rotate(90)" fill="#2f2e41"/>
          </g>
          <g id="Group_112" data-name="Group 112" transform="translate(2598.342 5364)">
            <g id="Group_109-2" data-name="Group 109" transform="translate(-1762.26 -3133.97)" opacity="0.5">
              <path id="Path_542-2" data-name="Path 542" d="M864.235,204.4H836.857V177.03H821.119V204.4H793.74v15.747h27.379v27.37h15.738v-27.37h27.379Z" transform="translate(-793.74 -177.03)" fill="url(#linear-gradient-3)"/>
            </g>
            <rect id="Rectangle_124-2" data-name="Rectangle 124" width="13.376" height="59.921" transform="translate(-1733.701 -3128.692)" fill="#2f2e41"/>
            <rect id="Rectangle_125-2" data-name="Rectangle 125" width="13.376" height="59.921" transform="translate(-1697.052 -3105.411) rotate(90)" fill="#2f2e41"/>
          </g>
          <g id="Group_146" data-name="Group 146" transform="translate(4945.342 4925.473)">
            <g id="Group_109-3" data-name="Group 109" transform="translate(-1762.26 -3133.97)" opacity="0.5">
              <path id="Path_542-3" data-name="Path 542" d="M863.276,204.027H836.27v-27H820.746v27H793.74V219.56h27.006v27H836.27v-27h27.006Z" transform="translate(-793.74 -177.03)" fill="url(#linear-gradient-3)"/>
            </g>
            <rect id="Rectangle_124-3" data-name="Rectangle 124" width="13.194" height="59.106" transform="translate(-1734.089 -3128.763)" fill="#2f2e41"/>
            <rect id="Rectangle_125-3" data-name="Rectangle 125" width="13.194" height="59.106" transform="translate(-1697.939 -3105.8) rotate(90)" fill="#2f2e41"/>
          </g>
          <g id="Group_145" data-name="Group 145" transform="translate(3587.547 5572.831)">
            <g id="Group_109-4" data-name="Group 109" transform="translate(-1762.26 -3133.97)" opacity="0.5">
              <path id="Path_542-4" data-name="Path 542" d="M960.084,241.613h-64.6V177.03H858.344v64.583h-64.6V278.77h64.6v64.583H895.48V278.77h64.6Z" transform="translate(-793.74 -177.03)" fill="url(#linear-gradient-3)"/>
            </g>
            <rect id="Rectangle_124-4" data-name="Rectangle 124" width="31.564" height="141.392" transform="translate(-1694.871 -3121.515)" fill="#2f2e41"/>
            <rect id="Rectangle_125-4" data-name="Rectangle 125" width="31.564" height="141.392" transform="translate(-1608.392 -3066.581) rotate(90)" fill="#2f2e41"/>
          </g>
          <g id="Group_139" data-name="Group 139" transform="translate(2781.49 1912.272)">
            <rect id="Rectangle_223" data-name="Rectangle 223" width="692.074" height="956.223" transform="translate(0 248.017) rotate(-21)" fill="#464555"/>
            <g id="Group_135" data-name="Group 135" transform="translate(16.72 258.918) rotate(-21)" opacity="0.5">
              <rect id="Rectangle_193" data-name="Rectangle 193" width="668.684" height="923.901" transform="translate(0 0)" fill="url(#linear-gradient-7)"/>
            </g>
            <rect id="Rectangle_224" data-name="Rectangle 224" width="651.66" height="903.488" transform="translate(27.099 262.228) rotate(-21)" fill="#fff"/>
            <rect id="Rectangle_225" data-name="Rectangle 225" width="323.281" height="78.31" transform="translate(167.142 166.504) rotate(-21)" fill="url(#linear-gradient-7)"/>
            <path id="Path_594" data-name="Path 594" d="M45.2,0C20.239,0,0,20.714,0,46.273S20.239,92.547,45.2,92.547s45.2-20.714,45.2-46.273S70.154,0,45.2,0Zm0,72.973a26.7,26.7,0,1,1,26.066-26.7A26.383,26.383,0,0,1,45.2,72.847Z" transform="translate(248.457 53.411) rotate(-21)" fill="url(#linear-gradient-9)"/>
            <rect id="Rectangle_226" data-name="Rectangle 226" width="316.471" height="74.858" transform="translate(169.118 162.15) rotate(-21)" fill="#bd171b"/>
            <path id="Path_595" data-name="Path 595" d="M44.231,0A44.231,44.231,0,1,0,88.461,44.231,44.231,44.231,0,0,0,44.231,0Zm0,69.759a25.578,25.578,0,1,0,0-.079Z" transform="translate(249.359 53.064) rotate(-21)" fill="#bd171b"/>
            <g id="Group_136" data-name="Group 136" transform="translate(118.712 344.675) rotate(-21)">
              <g id="Group_117" data-name="Group 117" transform="translate(0 0)">
                <path id="Path_543" data-name="Path 543" d="M180.073,90.036a89.731,89.731,0,0,1-7.251,35.455l-.3.687a90.185,90.185,0,0,1-98.111,52.543q-.811-.144-1.62-.3a89.238,89.238,0,0,1-16.287-4.8q-1.283-.515-2.547-1.068c-.575-.25-1.151-.509-1.721-.775A90.045,90.045,0,1,1,180.073,90.036Z" transform="translate(0)" fill="#f8e7e7"/>
                <path id="Union_1" data-name="Union 1" d="M44.759,148.9q-.812-.144-1.62-.3a89.253,89.253,0,0,1-16.287-4.8q-1.283-.516-2.546-1.068c-.575-.25-1.151-.509-1.721-.775a89.942,89.942,0,0,1-14.718-8.6s-4.144-3-7.847-6.365L0,127s11.763-24.372,31.379-25.065,28.1-17.88,13.793-26.309S24.738,67.449,24.738,38.841,39.553.27,53.6.015,84.254,2.569,87.064,32.2,71.993,59.786,84.509,79.71c7.159,11.4,17.662,11.176,26.87,10.955,6.89-.165,13.055-.33,16.554,4.371l8.052,14.1h-.006c-13.032,20.961-41.681,41.1-75.969,41.1A88.358,88.358,0,0,1,44.759,148.9Z" transform="translate(29.655 29.82)" fill="#eec3c4"/>
              </g>
              <rect id="Rectangle_220" data-name="Rectangle 220" width="152.028" height="25.338" transform="translate(226.458 35.226)" fill="#e0e0e0"/>
              <rect id="Rectangle_221" data-name="Rectangle 221" width="318.308" height="36.423" transform="translate(226.458 77.984)" fill="#e0e0e0"/>
              <rect id="Rectangle_222" data-name="Rectangle 222" width="318.308" height="14.253" transform="translate(226.458 131.827)" fill="#eec3c4"/>
            </g>
            <g id="Group_137" data-name="Group 137" transform="translate(208.38 578.268) rotate(-21)">
              <g id="Group_117-2" data-name="Group 117" transform="translate(0 0)">
                <path id="Path_543-2" data-name="Path 543" d="M180.073,90.036a89.731,89.731,0,0,1-7.251,35.455l-.3.687a90.185,90.185,0,0,1-98.111,52.543q-.811-.144-1.62-.3a89.238,89.238,0,0,1-16.287-4.8q-1.283-.515-2.547-1.068c-.575-.25-1.151-.509-1.721-.775A90.045,90.045,0,1,1,180.073,90.036Z" transform="translate(0)" fill="#f8e7e7"/>
                <path id="Union_1-2" data-name="Union 1" d="M44.759,148.9q-.812-.144-1.62-.3a89.253,89.253,0,0,1-16.287-4.8q-1.283-.516-2.546-1.068c-.575-.25-1.151-.509-1.721-.775a89.942,89.942,0,0,1-14.718-8.6s-4.144-3-7.847-6.365L0,127s11.763-24.372,31.379-25.065,28.1-17.88,13.793-26.309S24.738,67.449,24.738,38.841,39.553.27,53.6.015,84.254,2.569,87.064,32.2,71.993,59.786,84.509,79.71c7.159,11.4,17.662,11.176,26.87,10.955,6.89-.165,13.055-.33,16.554,4.371l8.052,14.1h-.006c-13.032,20.961-41.681,41.1-75.969,41.1A88.358,88.358,0,0,1,44.759,148.9Z" transform="translate(29.655 29.82)" fill="#eec5c6"/>
              </g>
              <rect id="Rectangle_220-2" data-name="Rectangle 220" width="152.028" height="25.338" transform="translate(226.458 35.226)" fill="#e0e0e0"/>
              <rect id="Rectangle_221-2" data-name="Rectangle 221" width="318.308" height="36.423" transform="translate(226.458 77.984)" fill="#e0e0e0"/>
              <rect id="Rectangle_222-2" data-name="Rectangle 222" width="318.308" height="14.253" transform="translate(226.458 131.827)" fill="#eec3c4"/>
            </g>
            <g id="Group_138" data-name="Group 138" transform="translate(298.048 811.862) rotate(-21)">
              <g id="Group_117-3" data-name="Group 117" transform="translate(0 0)">
                <path id="Path_543-3" data-name="Path 543" d="M180.073,90.036a89.731,89.731,0,0,1-7.251,35.455l-.3.687a90.185,90.185,0,0,1-98.111,52.543q-.811-.144-1.62-.3a89.238,89.238,0,0,1-16.287-4.8q-1.283-.515-2.547-1.068c-.575-.25-1.151-.509-1.721-.775A90.045,90.045,0,1,1,180.073,90.036Z" transform="translate(0)" fill="#f8e7e7"/>
                <path id="Union_1-3" data-name="Union 1" d="M44.759,148.9q-.812-.144-1.62-.3a89.253,89.253,0,0,1-16.287-4.8q-1.283-.516-2.546-1.068c-.575-.25-1.151-.509-1.721-.775a89.942,89.942,0,0,1-14.718-8.6s-4.144-3-7.847-6.365L0,127s11.763-24.372,31.379-25.065,28.1-17.88,13.793-26.309S24.738,67.449,24.738,38.841,39.553.27,53.6.015,84.254,2.569,87.064,32.2,71.993,59.786,84.509,79.71c7.159,11.4,17.662,11.176,26.87,10.955,6.89-.165,13.055-.33,16.554,4.371l8.052,14.1h-.006c-13.032,20.961-41.681,41.1-75.969,41.1A88.358,88.358,0,0,1,44.759,148.9Z" transform="translate(29.655 29.82)" fill="#eec3c4"/>
              </g>
              <rect id="Rectangle_220-3" data-name="Rectangle 220" width="152.028" height="25.338" transform="translate(226.458 35.226)" fill="#e0e0e0"/>
              <rect id="Rectangle_221-3" data-name="Rectangle 221" width="318.308" height="36.423" transform="translate(226.458 77.984)" fill="#e0e0e0"/>
              <rect id="Rectangle_222-3" data-name="Rectangle 222" width="318.308" height="14.253" transform="translate(226.458 131.827)" fill="#e0e0e0"/>
            </g>
          </g>
          <path id="Path_596" data-name="Path 596" d="M-1692.741-5025.245S-1929.776-4685.3-1564.635-4395.6" transform="translate(-601.245 3985.164) rotate(90)" fill="none" stroke="#bd171b" stroke-width="10" stroke-dasharray="30" opacity="0.4"/>
          <g id="Group_140" data-name="Group 140" transform="matrix(0.996, 0.087, -0.087, 0.996, 3576.173, 1696.36)">
            <rect id="Rectangle_192" data-name="Rectangle 192" width="790.153" height="1091.736" transform="translate(0 105.771)" fill="#464555"/>
            <g id="Group_129" data-name="Group 129" transform="translate(13.361 124.231)">
              <rect id="Rectangle_193-2" data-name="Rectangle 193" width="763.448" height="1054.833" transform="translate(0 0)" fill="url(#linear-gradient-7)"/>
            </g>
            <rect id="Rectangle_194" data-name="Rectangle 194" width="744.012" height="1031.527" transform="translate(23.071 132.006)" fill="#fff"/>
            <rect id="Rectangle_195" data-name="Rectangle 195" width="369.095" height="89.408" transform="translate(211.506 87.274)" fill="url(#linear-gradient-7)"/>
            <path id="Path_570" data-name="Path 570" d="M51.6,0C23.107,0,0,23.649,0,52.831s23.107,52.831,51.6,52.831,51.6-23.649,51.6-52.831S80.1,0,51.6,0Zm0,83.315a30.484,30.484,0,1,1,29.76-30.484A30.122,30.122,0,0,1,51.6,83.17Z" transform="translate(344.451 0)" fill="url(#linear-gradient-9)"/>
            <rect id="Rectangle_196" data-name="Rectangle 196" width="361.32" height="85.466" transform="translate(215.393 83.442)" fill="#bd171b"/>
            <path id="Path_571" data-name="Path 571" d="M50.5,0A50.5,50.5,0,1,0,101,50.5,50.5,50.5,0,0,0,50.5,0Zm0,79.645a29.2,29.2,0,1,0,0-.09Z" transform="translate(345.554 0)" fill="#bd171b"/>
            <g id="Group_132" data-name="Group 132" transform="translate(86.985 257.369)">
              <g id="Group_117-4" data-name="Group 117" transform="translate(0 0)">
                <path id="Path_543-4" data-name="Path 543" d="M205.593,102.8a102.448,102.448,0,0,1-8.278,40.48l-.341.785A102.966,102.966,0,0,1,84.959,204.05q-.926-.164-1.849-.341a101.884,101.884,0,0,1-18.595-5.483q-1.464-.588-2.908-1.22c-.657-.286-1.314-.581-1.965-.885A102.806,102.806,0,1,1,205.593,102.8Z" transform="translate(0 0)" fill="#f8e7e7"/>
                <path id="Union_1-4" data-name="Union 1" d="M51.1,170q-.927-.164-1.849-.341a101.9,101.9,0,0,1-18.595-5.483q-1.464-.589-2.907-1.22c-.657-.286-1.314-.581-1.965-.885a102.687,102.687,0,0,1-16.8-9.817s-4.731-3.427-8.959-7.267l-.024,0s13.43-27.826,35.826-28.617S67.906,95.964,51.574,86.34s-23.33-9.332-23.33-42S45.158.308,61.2.017s35,2.917,38.2,36.746S82.2,68.259,96.486,91.007c8.174,13.011,20.165,12.759,30.678,12.507,7.866-.189,14.905-.377,18.9,4.99l9.193,16.093h-.007c-14.879,23.932-47.588,46.926-86.735,46.926A100.88,100.88,0,0,1,51.1,170Z" transform="translate(33.857 34.046)" fill="#bd171b"/>
              </g>
              <rect id="Rectangle_220-4" data-name="Rectangle 220" width="173.573" height="28.929" transform="translate(258.551 40.218)" fill="#e0e0e0"/>
              <rect id="Rectangle_221-4" data-name="Rectangle 221" width="363.418" height="41.585" transform="translate(258.551 89.035)" fill="#e0e0e0"/>
              <rect id="Rectangle_222-4" data-name="Rectangle 222" width="363.418" height="16.272" transform="translate(258.551 150.509)" fill="#e0e0e0"/>
            </g>
            <g id="Group_133" data-name="Group 133" transform="translate(86.985 543.04)">
              <g id="Group_117-5" data-name="Group 117" transform="translate(0 0)">
                <path id="Path_543-5" data-name="Path 543" d="M205.593,102.8a102.448,102.448,0,0,1-8.278,40.48l-.341.785A102.966,102.966,0,0,1,84.959,204.05q-.926-.164-1.849-.341a101.884,101.884,0,0,1-18.595-5.483q-1.464-.588-2.908-1.22c-.657-.286-1.314-.581-1.965-.885A102.806,102.806,0,1,1,205.593,102.8Z" transform="translate(0 0)" fill="#f8e7e7"/>
                <path id="Union_1-5" data-name="Union 1" d="M51.1,170q-.927-.164-1.849-.341a101.9,101.9,0,0,1-18.595-5.483q-1.464-.589-2.907-1.22c-.657-.286-1.314-.581-1.965-.885a102.687,102.687,0,0,1-16.8-9.817s-4.731-3.427-8.959-7.267l-.024,0s13.43-27.826,35.826-28.617S67.906,95.964,51.574,86.34s-23.33-9.332-23.33-42S45.158.308,61.2.017s35,2.917,38.2,36.746S82.2,68.259,96.486,91.007c8.174,13.011,20.165,12.759,30.678,12.507,7.866-.189,14.905-.377,18.9,4.99l9.193,16.093h-.007c-14.879,23.932-47.588,46.926-86.735,46.926A100.88,100.88,0,0,1,51.1,170Z" transform="translate(33.857 34.046)" fill="#bd171b"/>
              </g>
              <rect id="Rectangle_220-5" data-name="Rectangle 220" width="173.573" height="28.929" transform="translate(258.551 40.218)" fill="#e0e0e0"/>
              <rect id="Rectangle_221-5" data-name="Rectangle 221" width="363.418" height="41.585" transform="translate(258.551 89.035)" fill="#e0e0e0"/>
              <rect id="Rectangle_222-5" data-name="Rectangle 222" width="363.418" height="16.272" transform="translate(258.551 150.509)" fill="#bd171b"/>
            </g>
            <g id="Group_134" data-name="Group 134" transform="translate(86.985 828.712)">
              <g id="Group_117-6" data-name="Group 117" transform="translate(0 0)">
                <path id="Path_543-6" data-name="Path 543" d="M205.593,102.8a102.448,102.448,0,0,1-8.278,40.48l-.341.785A102.966,102.966,0,0,1,84.959,204.05q-.926-.164-1.849-.341a101.884,101.884,0,0,1-18.595-5.483q-1.464-.588-2.908-1.22c-.657-.286-1.314-.581-1.965-.885A102.806,102.806,0,1,1,205.593,102.8Z" transform="translate(0 0)" fill="#f8e7e7"/>
                <path id="Union_1-6" data-name="Union 1" d="M51.1,170q-.927-.164-1.849-.341a101.9,101.9,0,0,1-18.595-5.483q-1.464-.589-2.907-1.22c-.657-.286-1.314-.581-1.965-.885a102.687,102.687,0,0,1-16.8-9.817s-4.731-3.427-8.959-7.267l-.024,0s13.43-27.826,35.826-28.617S67.906,95.964,51.574,86.34s-23.33-9.332-23.33-42S45.158.308,61.2.017s35,2.917,38.2,36.746S82.2,68.259,96.486,91.007c8.174,13.011,20.165,12.759,30.678,12.507,7.866-.189,14.905-.377,18.9,4.99l9.193,16.093h-.007c-14.879,23.932-47.588,46.926-86.735,46.926A100.88,100.88,0,0,1,51.1,170Z" transform="translate(33.857 34.046)" fill="#bd171b"/>
              </g>
              <rect id="Rectangle_220-6" data-name="Rectangle 220" width="173.573" height="28.929" transform="translate(258.551 40.218)" fill="#e0e0e0"/>
              <rect id="Rectangle_221-6" data-name="Rectangle 221" width="363.418" height="41.585" transform="translate(258.551 89.035)" fill="#e0e0e0"/>
              <rect id="Rectangle_222-6" data-name="Rectangle 222" width="363.418" height="16.272" transform="translate(258.551 150.509)" fill="#e0e0e0"/>
            </g>
          </g>
          <g id="Group_142" data-name="Group 142" transform="translate(1868.067 1583.062)">
            <path id="Path_527" data-name="Path 527" d="M547.411,744.767a130.348,130.348,0,0,1-31.528,85.224c-1,1.175-2.042,2.331-3.1,3.467q-.79.886-1.618,1.734a128.509,128.509,0,0,1-13.982,12.692l-.347.25a127.991,127.991,0,0,1-24.845,15.254h0a129,129,0,0,1-13.944,5.585l-1.753.559c-1.078.366-2.2.693-3.293,1l-.443.135a131.6,131.6,0,0,1-72.32,0h-.192c-1.926-.559-3.852-1.136-5.624-1.772l-1.637-.578a126.989,126.989,0,0,1-18.1-8.012l-.366-.193a131.463,131.463,0,0,1-25.654-18.162l-.636-.6a122.334,122.334,0,0,1-11.19-11.556c-.462-.52-.905-1.059-1.348-1.6-.847-1-1.656-2.041-2.465-3.081a130.965,130.965,0,1,1,234.389-80.351Z" transform="translate(-52.2 -20.265)" fill="#e4d4d4"/>
            <path id="Path_397" data-name="Path 397" d="M547.411,744.767a130.348,130.348,0,0,1-31.528,85.224c-1,1.175-2.042,2.331-3.1,3.467q-.79.886-1.618,1.734a128.509,128.509,0,0,1-13.982,12.692l-.347.25a127.991,127.991,0,0,1-24.845,15.254h0a129,129,0,0,1-13.944,5.585l-1.753.559c-1.078.366-2.2.693-3.293,1l-.443.135a131.6,131.6,0,0,1-72.32,0h-.192c-1.926-.559-3.852-1.136-5.624-1.772l-1.637-.578a126.989,126.989,0,0,1-18.1-8.012l-.366-.193a131.463,131.463,0,0,1-25.654-18.162l-.636-.6a122.334,122.334,0,0,1-11.19-11.556c-.462-.52-.905-1.059-1.348-1.6-.847-1-1.656-2.041-2.465-3.081a130.965,130.965,0,1,1,234.389-80.351Z" transform="translate(-41.416 -23.86)" fill="#de8b8d"/>
            <path id="Path_398" data-name="Path 398" d="M498.238,817.1l-.79-17.333c3.37-27.406-3.37-29.12-3.37-29.12l-9.63-4.738-.193-.1L451.938,749.88l-1.483-.732-.193-.789s.635-1.926-2.562-2.253a11.729,11.729,0,0,1-.809-4.911c.327-3.7,3.12-6.606,5.3-9.63a39.56,39.56,0,0,0,6.336-28.061,66,66,0,0,0-10.747-27.118l-.616-.905a32.635,32.635,0,0,0,1.136-8.513c0-22.168-22.418-40.137-50.075-40.137-25.037,0-45.9,14.811-49.516,34.128a17.532,17.532,0,0,0-1.522,2.388c-5.085,9.514,2.773,16.621,3.024,26.116.173,6.548-4.218,12.153-7.7,17.7s-6.067,12.923-2.484,18.393c1.175,1.81,2.947,3.178,4.006,5.065,3.717,6.568-2.465,14.1-4.719,21.3a20.376,20.376,0,0,0-.616,2.561l-14.868,2.427s-4.911-1-11.729,16.833a6.042,6.042,0,0,0-.25.635,195.269,195.269,0,0,0-6.548,21.937q-1.993,8.147-3.64,15.928c-.231,1.021-.443,2.042-.655,3.062.443.539.886,1.1,1.348,1.618a123.481,123.481,0,0,0,11.19,11.787l.635.616a131.509,131.509,0,0,0,25.654,18.47l.366.192a125.947,125.947,0,0,0,18.1,8.147l1.637.578c1.926.655,3.736,1.233,5.624,1.81a7.028,7.028,0,0,1,.154.886v-.847a129.547,129.547,0,0,0,72.32,0l.443-.135c1.1-.308,2.215-.655,3.293-1.021l1.753-.558a129.883,129.883,0,0,0,38.789-21.186l.347-.25a129.283,129.283,0,0,0,13.982-12.9q.848-.848,1.618-1.753Z" transform="translate(-27.045 -11.793)" fill="url(#linear-gradient-13)"/>
            <path id="Path_399" data-name="Path 399" d="M332.277,676.6c.173,6.452-4.218,11.96-7.7,17.334s-6.067,12.711-2.485,18.085c1.175,1.772,2.947,3.139,4.006,4.988,3.717,6.452-2.465,13.867-4.719,20.954-2.6,8.185.424,17.334,5.893,23.978s13.019,11.132,20.646,15.08A184.253,184.253,0,0,0,398.992,795.2c9.322,1.714,19.259,2.484,28-1.252a29.775,29.775,0,0,0,16.814-32.741c-2.215-10.131-9.63-18.277-13.482-27.849a13.038,13.038,0,0,1-1.271-6.028c.327-3.64,3.12-6.49,5.3-9.437a38.519,38.519,0,0,0,6.24-27.406,64.33,64.33,0,0,0-10.747-26.694,29.241,29.241,0,0,0-7.7-8.474c-4.2-2.831-9.4-3.64-14.406-4.353-20.916-2.927-42.583-6.125-63.672-7.2-6.664-.347-11.556.963-14.849,7.2C324.188,660.27,332.026,667.261,332.277,676.6Z" transform="translate(-9.113 3.84)" fill="#444176"/>
            <path id="Path_400" data-name="Path 400" d="M429.442,719.5l-39.694,56.45L351,772.584s-1.271,13.482-16.852-35.38c-8.705-27.33,8.994-17.834,12.48-25.4s9.63-14.252,10.15-19.838c1.233-11.979-2.408-18.8-2.408-18.8l42.121-5.046A31.433,31.433,0,0,0,395.8,685.7C401.072,707.621,429.442,719.5,429.442,719.5Z" transform="translate(1.441 26.44)" fill="#fdc2cc"/>
            <ellipse id="Ellipse_31" data-name="Ellipse 31" cx="50.075" cy="39.482" rx="50.075" ry="39.482" transform="translate(321.103 618.85)" fill="#444176"/>
            <path id="Path_401" data-name="Path 401" d="M384.917,685.685a42.1,42.1,0,0,1-39.02,6.278c1.233-11.979-2.407-18.8-2.407-18.8l42.121-5.046a31.432,31.432,0,0,0-.693,17.565Z" transform="translate(12.299 26.44)" opacity="0.1"/>
            <circle id="Ellipse_32" data-name="Ellipse 32" cx="42.121" cy="42.121" r="42.121" transform="translate(329.693 634.74)" fill="#fdc2cc"/>
            <path id="Path_402" data-name="Path 402" d="M435.044,705.9l-.982-3.852-.847-3.39-1.252-5.008-.231-.924-.193-.77s1-3.024-5.6-2.042l-1.233.212c-1.04.212-2.253.5-3.64.886l-1.252.385-1.656.52h0a36.116,36.116,0,0,0-13.983,8.436,31.48,31.48,0,0,0-4.68,5.662c-.135.193-.231.366-.347.52a18.167,18.167,0,0,0-1.213,2.234c0,15.177-15.177,33.7-15.177,33.7l-14.811-21.4-.289-.424-3.524-5.123-1.252-1.656-.424-.578-7.7-10.343-1.926-2.581-.635-.866-.944-1.252-2.215-2.947-8.667,5.065-11.556,6.741-6.741,43.816v1.214l.212,3.621,1.406,23.8v.327l-2.465,9.861.366.192a127.022,127.022,0,0,0,18.1,8.012l1.637.578c1.926.636,3.736,1.214,5.624,1.772a6.783,6.783,0,0,1,.154.867v-.828a131.6,131.6,0,0,0,72.32,0l.443-.135c1.1-.308,2.215-.636,3.293-1l1.753-.559a129,129,0,0,0,13.944-5.586l1.618-34.474,1.156-24.864V732.3Z" transform="translate(-8.322 46.439)" opacity="0.1"/>
            <path id="Path_403" data-name="Path 403" d="M420.974,769.117a13.3,13.3,0,0,0-.135-2.311c-.135-.77-.116-1.444-.212-2.176s-.173-1.463-.27-2.2-.231-1.464-.366-2.2-.27-1.464-.424-2.2a3.3,3.3,0,0,0-.154-.732c-.212-.963-.443-1.926-.693-2.908s-.4-1.56-.635-2.33a3.287,3.287,0,0,0-.308-1.021c-.116-.327-.327-1.117-.5-1.675l-.347-1.079c-.154-.481-.308-.963-.481-1.445-.289-.867-.6-1.714-.905-2.581s-.635-1.714-.963-2.562c-.655-1.734-1.367-3.448-2.08-5.161-2.793-6.664-5.932-13.232-8.821-19.741a109.138,109.138,0,0,1-4.122-10.458l-.366.52a22.241,22.241,0,0,0-1.56,2.773c0,15.157-15.177,33.7-15.177,33.7L367.182,721.1l-13.366,20.55c-1.926,1.021-3.852,4.526-5.354,9.514-.424,1.348-.828,2.812-1.213,4.372-.27,1.04-.52,2.138-.751,3.236-.135.559-.25,1.117-.366,1.695l-.347,1.752v.27c-.231,1.194-.462,2.427-.674,3.678s-.462,2.7-.674,4.064q-.231,1.329-.4,2.658c-.27,1.714-.5,3.447-.732,5.162-.135,1-.269,1.926-.385,2.985l-.462,3.852c.982,3.158,2.08,6.278,3.216,9.341a15.529,15.529,0,0,1,1.252,5.3,131.6,131.6,0,0,0,72.32,0,.735.735,0,0,1,0-.193,22.938,22.938,0,0,1-.462-5.258h0a144.482,144.482,0,0,1,1.926-14.734,53.939,53.939,0,0,0,.366-7.242v-.867C421.012,770.5,420.993,769.811,420.974,769.117Zm0,0a13.3,13.3,0,0,0-.135-2.311c-.135-.77-.116-1.444-.212-2.176s-.173-1.463-.27-2.2-.231-1.464-.366-2.2-.27-1.464-.424-2.2a3.3,3.3,0,0,0-.154-.732c-.212-.963-.443-1.926-.693-2.908s-.4-1.56-.635-2.33a3.287,3.287,0,0,0-.308-1.021c-.116-.327-.327-1.117-.5-1.675l-.347-1.079c-.154-.481-.308-.963-.481-1.445-.289-.867-.6-1.714-.905-2.581s-.635-1.714-.963-2.562c-.655-1.734-1.367-3.448-2.08-5.161-2.793-6.664-5.932-13.232-8.821-19.741a109.138,109.138,0,0,1-4.122-10.458l-.366.52a22.241,22.241,0,0,0-1.56,2.773c0,15.157-15.177,33.7-15.177,33.7L367.182,721.1l-13.366,20.55c-1.926,1.021-3.852,4.526-5.354,9.514-.424,1.348-.828,2.812-1.213,4.372-.27,1.04-.52,2.138-.751,3.236-.135.559-.25,1.117-.366,1.695l-.347,1.752v.27c-.231,1.194-.462,2.427-.674,3.678s-.462,2.7-.674,4.064q-.231,1.329-.4,2.658c-.27,1.714-.5,3.447-.732,5.162-.135,1-.269,1.926-.385,2.985l-.462,3.852c.982,3.158,2.08,6.278,3.216,9.341a15.529,15.529,0,0,1,1.252,5.3,131.6,131.6,0,0,0,72.32,0,.735.735,0,0,1,0-.193,22.938,22.938,0,0,1-.462-5.258h0a144.482,144.482,0,0,1,1.926-14.734,53.939,53.939,0,0,0,.366-7.242v-.867C421.012,770.5,420.993,769.811,420.974,769.117Zm0,0a13.3,13.3,0,0,0-.135-2.311c-.135-.77-.116-1.444-.212-2.176s-.173-1.463-.27-2.2-.231-1.464-.366-2.2-.27-1.464-.424-2.2a3.3,3.3,0,0,0-.154-.732c-.212-.963-.443-1.926-.693-2.908s-.4-1.56-.635-2.33a3.287,3.287,0,0,0-.308-1.021c-.116-.327-.327-1.117-.5-1.675l-.347-1.079c-.154-.481-.308-.963-.481-1.445-.289-.867-.6-1.714-.905-2.581s-.635-1.714-.963-2.562c-.655-1.734-1.367-3.448-2.08-5.161-2.793-6.664-5.932-13.232-8.821-19.741a109.138,109.138,0,0,1-4.122-10.458l-.366.52a22.241,22.241,0,0,0-1.56,2.773c0,15.157-15.177,33.7-15.177,33.7L367.182,721.1l-13.366,20.55c-1.926,1.021-3.852,4.526-5.354,9.514-.424,1.348-.828,2.812-1.213,4.372-.27,1.04-.52,2.138-.751,3.236-.135.559-.25,1.117-.366,1.695l-.347,1.752v.27c-.231,1.194-.462,2.427-.674,3.678s-.462,2.7-.674,4.064q-.231,1.329-.4,2.658c-.27,1.714-.5,3.447-.732,5.162-.135,1-.269,1.926-.385,2.985l-.462,3.852c.982,3.158,2.08,6.278,3.216,9.341a15.529,15.529,0,0,1,1.252,5.3,131.6,131.6,0,0,0,72.32,0,.735.735,0,0,1,0-.193,22.938,22.938,0,0,1-.462-5.258h0a144.482,144.482,0,0,1,1.926-14.734,53.939,53.939,0,0,0,.366-7.242v-.867C421.012,770.5,420.993,769.811,420.974,769.117Zm20.415-36.151-6.876-27.445-1.175-4.7-.327-1.29h0l-1.676-6.7a1.274,1.274,0,0,0,0-.173h0a1.542,1.542,0,0,0-.135-.867c-.25-.5-.886-1.021-2.369-1.156a12.028,12.028,0,0,0-1.695,0h0a29.33,29.33,0,0,0-4.95.924c-.79.212-1.637.443-2.542.732l-1.656.52h-.154a36.751,36.751,0,0,0-12.134,6.741,32.739,32.739,0,0,0-6.163,6.818l-.366.52a22.208,22.208,0,0,0-1.56,2.773c0,15.157-15.177,33.7-15.177,33.7l-15.273-22.245-.867-1.252-.154-.212-2.215-3.255-1.676-2.234-.443-.578-7.9-10.535h0l-2.5-3.409v-.115l-.867-1.175-1.656-2.2-5.778,3.371-14.445,8.416L322,751.3v.462l.193,3.159,1.425,24.132v1.367l-2.176,8.686a127.032,127.032,0,0,0,18.1,8.012l1.637.578c1.926.635,3.736,1.213,5.624,1.772a6.844,6.844,0,0,1,.154.867v-.828a131.607,131.607,0,0,0,72.32,0l.443-.135c1.1-.308,2.215-.636,3.293-1l1.753-.558a129.1,129.1,0,0,0,13.944-5.586h0l1.6-34.436,1.156-24.595Zm-94.719,66.5a6.833,6.833,0,0,1,.154.867v-.828Zm74.3-30.353a13.3,13.3,0,0,0-.135-2.311c-.135-.77-.116-1.444-.212-2.176s-.173-1.463-.27-2.2-.231-1.464-.366-2.2-.27-1.464-.424-2.2a3.3,3.3,0,0,0-.154-.732c-.212-.963-.443-1.926-.693-2.908s-.4-1.56-.635-2.33a3.287,3.287,0,0,0-.308-1.021c-.116-.327-.327-1.117-.5-1.675l-.347-1.079c-.154-.481-.308-.963-.481-1.445-.289-.867-.6-1.714-.905-2.581s-.635-1.714-.963-2.562c-.655-1.734-1.367-3.448-2.08-5.161-2.793-6.664-5.932-13.232-8.821-19.741a109.138,109.138,0,0,1-4.122-10.458l-.366.52a22.241,22.241,0,0,0-1.56,2.773c0,15.157-15.177,33.7-15.177,33.7L367.182,721.1l-13.366,20.55c-1.926,1.021-3.852,4.526-5.354,9.514-.424,1.348-.828,2.812-1.213,4.372-.27,1.04-.52,2.138-.751,3.236-.135.559-.25,1.117-.366,1.695l-.347,1.752v.27c-.231,1.194-.462,2.427-.674,3.678s-.462,2.7-.674,4.064q-.231,1.329-.4,2.658c-.27,1.714-.5,3.447-.732,5.162-.135,1-.269,1.926-.385,2.985l-.462,3.852c.982,3.158,2.08,6.278,3.216,9.341a15.529,15.529,0,0,1,1.252,5.3,131.6,131.6,0,0,0,72.32,0,.735.735,0,0,1,0-.193,22.938,22.938,0,0,1-.462-5.258h0a144.482,144.482,0,0,1,1.926-14.734,53.939,53.939,0,0,0,.366-7.242v-.867C421.012,770.5,420.993,769.811,420.974,769.117Zm0,0a13.3,13.3,0,0,0-.135-2.311c-.135-.77-.116-1.444-.212-2.176s-.173-1.463-.27-2.2-.231-1.464-.366-2.2-.27-1.464-.424-2.2a3.3,3.3,0,0,0-.154-.732c-.212-.963-.443-1.926-.693-2.908s-.4-1.56-.635-2.33a3.287,3.287,0,0,0-.308-1.021c-.116-.327-.327-1.117-.5-1.675l-.347-1.079c-.154-.481-.308-.963-.481-1.445-.289-.867-.6-1.714-.905-2.581s-.635-1.714-.963-2.562c-.655-1.734-1.367-3.448-2.08-5.161-2.793-6.664-5.932-13.232-8.821-19.741a109.138,109.138,0,0,1-4.122-10.458l-.366.52a22.241,22.241,0,0,0-1.56,2.773c0,15.157-15.177,33.7-15.177,33.7L367.182,721.1l-13.366,20.55c-1.926,1.021-3.852,4.526-5.354,9.514-.424,1.348-.828,2.812-1.213,4.372-.27,1.04-.52,2.138-.751,3.236-.135.559-.25,1.117-.366,1.695l-.347,1.752v.27c-.231,1.194-.462,2.427-.674,3.678s-.462,2.7-.674,4.064q-.231,1.329-.4,2.658c-.27,1.714-.5,3.447-.732,5.162-.135,1-.269,1.926-.385,2.985l-.462,3.852c.982,3.158,2.08,6.278,3.216,9.341a15.529,15.529,0,0,1,1.252,5.3,131.6,131.6,0,0,0,72.32,0,.735.735,0,0,1,0-.193,22.938,22.938,0,0,1-.462-5.258h0a144.482,144.482,0,0,1,1.926-14.734,53.939,53.939,0,0,0,.366-7.242v-.867C421.012,770.5,420.993,769.811,420.974,769.117Zm0,0a13.3,13.3,0,0,0-.135-2.311c-.135-.77-.116-1.444-.212-2.176s-.173-1.463-.27-2.2-.231-1.464-.366-2.2-.27-1.464-.424-2.2a3.3,3.3,0,0,0-.154-.732c-.212-.963-.443-1.926-.693-2.908s-.4-1.56-.635-2.33a3.287,3.287,0,0,0-.308-1.021c-.116-.327-.327-1.117-.5-1.675l-.347-1.079c-.154-.481-.308-.963-.481-1.445-.289-.867-.6-1.714-.905-2.581s-.635-1.714-.963-2.562c-.655-1.734-1.367-3.448-2.08-5.161-2.793-6.664-5.932-13.232-8.821-19.741a109.138,109.138,0,0,1-4.122-10.458l-.366.52a22.241,22.241,0,0,0-1.56,2.773c0,15.157-15.177,33.7-15.177,33.7L367.182,721.1l-13.366,20.55c-1.926,1.021-3.852,4.526-5.354,9.514-.424,1.348-.828,2.812-1.213,4.372-.27,1.04-.52,2.138-.751,3.236-.135.559-.25,1.117-.366,1.695l-.347,1.752v.27c-.231,1.194-.462,2.427-.674,3.678s-.462,2.7-.674,4.064q-.231,1.329-.4,2.658c-.27,1.714-.5,3.447-.732,5.162-.135,1-.269,1.926-.385,2.985l-.462,3.852c.982,3.158,2.08,6.278,3.216,9.341a15.529,15.529,0,0,1,1.252,5.3,131.6,131.6,0,0,0,72.32,0,.735.735,0,0,1,0-.193,22.938,22.938,0,0,1-.462-5.258h0a144.482,144.482,0,0,1,1.926-14.734,53.939,53.939,0,0,0,.366-7.242v-.867C421.012,770.5,420.993,769.811,420.974,769.117Zm0,0a13.3,13.3,0,0,0-.135-2.311c-.135-.77-.116-1.444-.212-2.176s-.173-1.463-.27-2.2-.231-1.464-.366-2.2-.27-1.464-.424-2.2a3.3,3.3,0,0,0-.154-.732c-.212-.963-.443-1.926-.693-2.908s-.4-1.56-.635-2.33a3.287,3.287,0,0,0-.308-1.021c-.116-.327-.327-1.117-.5-1.675l-.347-1.079c-.154-.481-.308-.963-.481-1.445-.289-.867-.6-1.714-.905-2.581s-.635-1.714-.963-2.562c-.655-1.734-1.367-3.448-2.08-5.161-2.793-6.664-5.932-13.232-8.821-19.741a109.138,109.138,0,0,1-4.122-10.458l-.366.52a22.241,22.241,0,0,0-1.56,2.773c0,15.157-15.177,33.7-15.177,33.7L367.182,721.1l-13.366,20.55c-1.926,1.021-3.852,4.526-5.354,9.514-.424,1.348-.828,2.812-1.213,4.372-.27,1.04-.52,2.138-.751,3.236-.135.559-.25,1.117-.366,1.695l-.347,1.752v.27c-.231,1.194-.462,2.427-.674,3.678s-.462,2.7-.674,4.064q-.231,1.329-.4,2.658c-.27,1.714-.5,3.447-.732,5.162-.135,1-.269,1.926-.385,2.985l-.462,3.852c.982,3.158,2.08,6.278,3.216,9.341a15.529,15.529,0,0,1,1.252,5.3,131.6,131.6,0,0,0,72.32,0,.735.735,0,0,1,0-.193,22.938,22.938,0,0,1-.462-5.258h0a144.482,144.482,0,0,1,1.926-14.734,53.939,53.939,0,0,0,.366-7.242v-.867C421.012,770.5,420.993,769.811,420.974,769.117Zm0,0a13.3,13.3,0,0,0-.135-2.311c-.135-.77-.116-1.444-.212-2.176s-.173-1.463-.27-2.2-.231-1.464-.366-2.2-.27-1.464-.424-2.2a3.3,3.3,0,0,0-.154-.732c-.212-.963-.443-1.926-.693-2.908s-.4-1.56-.635-2.33a3.287,3.287,0,0,0-.308-1.021c-.116-.327-.327-1.117-.5-1.675l-.347-1.079c-.154-.481-.308-.963-.481-1.445-.289-.867-.6-1.714-.905-2.581s-.635-1.714-.963-2.562c-.655-1.734-1.367-3.448-2.08-5.161-2.793-6.664-5.932-13.232-8.821-19.741a109.138,109.138,0,0,1-4.122-10.458l-.366.52a22.241,22.241,0,0,0-1.56,2.773c0,15.157-15.177,33.7-15.177,33.7L367.182,721.1l-13.366,20.55c-1.926,1.021-3.852,4.526-5.354,9.514-.424,1.348-.828,2.812-1.213,4.372-.27,1.04-.52,2.138-.751,3.236-.135.559-.25,1.117-.366,1.695l-.347,1.752v.27c-.231,1.194-.462,2.427-.674,3.678s-.462,2.7-.674,4.064q-.231,1.329-.4,2.658c-.27,1.714-.5,3.447-.732,5.162-.135,1-.269,1.926-.385,2.985l-.462,3.852c.982,3.158,2.08,6.278,3.216,9.341a15.529,15.529,0,0,1,1.252,5.3,131.6,131.6,0,0,0,72.32,0,.735.735,0,0,1,0-.193,22.938,22.938,0,0,1-.462-5.258h0a144.482,144.482,0,0,1,1.926-14.734,53.939,53.939,0,0,0,.366-7.242v-.867C421.012,770.5,420.993,769.811,420.974,769.117Zm0,0a13.3,13.3,0,0,0-.135-2.311c-.135-.77-.116-1.444-.212-2.176s-.173-1.463-.27-2.2-.231-1.464-.366-2.2-.27-1.464-.424-2.2a3.3,3.3,0,0,0-.154-.732c-.212-.963-.443-1.926-.693-2.908s-.4-1.56-.635-2.33a3.287,3.287,0,0,0-.308-1.021c-.116-.327-.327-1.117-.5-1.675l-.347-1.079c-.154-.481-.308-.963-.481-1.445-.289-.867-.6-1.714-.905-2.581s-.635-1.714-.963-2.562c-.655-1.734-1.367-3.448-2.08-5.161-2.793-6.664-5.932-13.232-8.821-19.741a109.138,109.138,0,0,1-4.122-10.458l-.366.52a22.241,22.241,0,0,0-1.56,2.773c0,15.157-15.177,33.7-15.177,33.7L367.182,721.1l-13.366,20.55c-1.926,1.021-3.852,4.526-5.354,9.514-.424,1.348-.828,2.812-1.213,4.372-.27,1.04-.52,2.138-.751,3.236-.135.559-.25,1.117-.366,1.695l-.347,1.752v.27c-.231,1.194-.462,2.427-.674,3.678s-.462,2.7-.674,4.064q-.231,1.329-.4,2.658c-.27,1.714-.5,3.447-.732,5.162-.135,1-.269,1.926-.385,2.985l-.462,3.852c.982,3.158,2.08,6.278,3.216,9.341a15.529,15.529,0,0,1,1.252,5.3,131.6,131.6,0,0,0,72.32,0,.735.735,0,0,1,0-.193,22.938,22.938,0,0,1-.462-5.258h0a144.482,144.482,0,0,1,1.926-14.734,53.939,53.939,0,0,0,.366-7.242v-.867C421.012,770.5,420.993,769.811,420.974,769.117Zm0,0a13.3,13.3,0,0,0-.135-2.311c-.135-.77-.116-1.444-.212-2.176s-.173-1.463-.27-2.2-.231-1.464-.366-2.2-.27-1.464-.424-2.2a3.3,3.3,0,0,0-.154-.732c-.212-.963-.443-1.926-.693-2.908s-.4-1.56-.635-2.33a3.287,3.287,0,0,0-.308-1.021c-.116-.327-.327-1.117-.5-1.675l-.347-1.079c-.154-.481-.308-.963-.481-1.445-.289-.867-.6-1.714-.905-2.581s-.635-1.714-.963-2.562c-.655-1.734-1.367-3.448-2.08-5.161-2.793-6.664-5.932-13.232-8.821-19.741a109.138,109.138,0,0,1-4.122-10.458l-.366.52a22.241,22.241,0,0,0-1.56,2.773c0,15.157-15.177,33.7-15.177,33.7L367.182,721.1l-13.366,20.55c-1.926,1.021-3.852,4.526-5.354,9.514-.424,1.348-.828,2.812-1.213,4.372-.27,1.04-.52,2.138-.751,3.236-.135.559-.25,1.117-.366,1.695l-.347,1.752v.27c-.231,1.194-.462,2.427-.674,3.678s-.462,2.7-.674,4.064q-.231,1.329-.4,2.658c-.27,1.714-.5,3.447-.732,5.162-.135,1-.269,1.926-.385,2.985l-.462,3.852c.982,3.158,2.08,6.278,3.216,9.341a15.529,15.529,0,0,1,1.252,5.3,131.6,131.6,0,0,0,72.32,0,.735.735,0,0,1,0-.193,22.938,22.938,0,0,1-.462-5.258h0a144.482,144.482,0,0,1,1.926-14.734,53.939,53.939,0,0,0,.366-7.242v-.867C421.012,770.5,420.993,769.811,420.974,769.117Zm0,0a13.3,13.3,0,0,0-.135-2.311c-.135-.77-.116-1.444-.212-2.176s-.173-1.463-.27-2.2-.231-1.464-.366-2.2-.27-1.464-.424-2.2a3.3,3.3,0,0,0-.154-.732c-.212-.963-.443-1.926-.693-2.908s-.4-1.56-.635-2.33a3.287,3.287,0,0,0-.308-1.021c-.116-.327-.327-1.117-.5-1.675l-.347-1.079c-.154-.481-.308-.963-.481-1.445-.289-.867-.6-1.714-.905-2.581s-.635-1.714-.963-2.562c-.655-1.734-1.367-3.448-2.08-5.161-2.793-6.664-5.932-13.232-8.821-19.741a109.138,109.138,0,0,1-4.122-10.458l-.366.52a22.241,22.241,0,0,0-1.56,2.773c0,15.157-15.177,33.7-15.177,33.7L367.182,721.1l-13.366,20.55c-1.926,1.021-3.852,4.526-5.354,9.514-.424,1.348-.828,2.812-1.213,4.372-.27,1.04-.52,2.138-.751,3.236-.135.559-.25,1.117-.366,1.695l-.347,1.752v.27c-.231,1.194-.462,2.427-.674,3.678s-.462,2.7-.674,4.064q-.231,1.329-.4,2.658c-.27,1.714-.5,3.447-.732,5.162-.135,1-.269,1.926-.385,2.985l-.462,3.852c.982,3.158,2.08,6.278,3.216,9.341a15.529,15.529,0,0,1,1.252,5.3,131.6,131.6,0,0,0,72.32,0,.735.735,0,0,1,0-.193,22.938,22.938,0,0,1-.462-5.258h0a144.482,144.482,0,0,1,1.926-14.734,53.939,53.939,0,0,0,.366-7.242v-.867C421.012,770.5,420.993,769.811,420.974,769.117Z" transform="translate(-8.118 47.26)" fill="#bd171b"/>
            <path id="Path_404" data-name="Path 404" d="M385.711,719.576l-1.29-.174a46.935,46.935,0,0,1-5.778-1.155l-.713-.193c-4.7-1.329-9.842-3.717-11-7.916a7.5,7.5,0,0,1,.116-4.1,35.178,35.178,0,0,1,2.619-6.625V699.3a9.156,9.156,0,0,1,.482-.867,19.259,19.259,0,0,1,6.953-7.569l-2.311.366L355.223,694.4,324.889,699.3s-5.393-1.079-12.731,19.144a3.117,3.117,0,0,1-.25.751c-1.772,4.95-3.64,11.132-5.566,18.855-1.329,5.354-2.542,10.612-3.659,15.716-.328,1.541-.655,3.062-.963,4.565a122.424,122.424,0,0,0,11.19,11.556l.636.6A131.459,131.459,0,0,0,339.2,788.641l.366.193a126.965,126.965,0,0,0,18.1,8.012l1.637.578c.347-3.563.732-7.511,1.194-11.556a3.292,3.292,0,0,1,.154-1.214l.462-3.852c.116-.982.251-1.926.385-2.985.231-1.714.462-3.448.732-5.161q.173-1.329.4-2.658c.212-1.367.443-2.735.674-4.064s.443-2.485.674-3.679v-.27l.347-1.752c.116-.578.231-1.136.366-1.7.231-1.1.481-2.2.751-3.236.385-1.56.79-3.023,1.213-4.372,1.541-4.989,3.332-8.494,5.354-9.514l13.366-20.55.559-.867.25-.385Z" transform="translate(-26.378 47.496)" opacity="0.1"/>
            <path id="Path_405" data-name="Path 405" d="M385.223,719.6l-14.194,21.8c-1.926.982-3.736,4.391-5.258,9.225-.443,1.425-.886,2.986-1.31,4.623a230.284,230.284,0,0,0-4.353,25.211,3,3,0,0,1-.154,1.156c-.655,5.354-1.194,10.612-1.637,15.253a127.009,127.009,0,0,1-18.1-8.012l-.366-.193A131.453,131.453,0,0,1,314.194,770.5l-.636-.6a122.38,122.38,0,0,1-11.19-11.556c-.462-.52-.905-1.059-1.348-1.6.212-1,.424-1.926.655-3,1.1-5.1,2.311-10.343,3.64-15.678a189.769,189.769,0,0,1,6.548-21.571,5.889,5.889,0,0,1,.25-.616c6.818-17.546,11.729-16.563,11.729-16.563l32.029-5.162,20.223-3.274-.636.366a20.517,20.517,0,0,0-5.566,5.932l-.559.944c-.231.366-.443.77-.674,1.174A34.128,34.128,0,0,0,366,706.037a7.087,7.087,0,0,0,.462,5.508c1.926,3.737,7.4,5.778,11.883,6.9l.751.192A48.339,48.339,0,0,0,385.223,719.6Z" transform="translate(-27.026 47.515)" fill="#fff"/>
            <path id="Path_406" data-name="Path 406" d="M431.253,760.881l-.79-17.1c3.371-26.964-3.37-28.639-3.37-28.639l-8.012-3.852h-.212l-32.221-15.62-1.252-.616-.385-.173h0l-4.2-2.042h0l-2.658-1.29-4.969-2.407-1.676-.809v6.683c0,1.926.173,4.179.328,6.8.347,6.587.982,15.408,2.118,25.808.636,6.028,1.445,12.615,2.446,19.683.6,4.179,1.021,8.34,1.29,12.4a218.278,218.278,0,0,1-1.271,41.023l1.753-.558a129.117,129.117,0,0,0,13.944-5.585h0a128.025,128.025,0,0,0,24.845-15.254l.347-.25a128.54,128.54,0,0,0,13.982-12.692Z" transform="translate(38.245 45.153)" opacity="0.1"/>
            <path id="Path_407" data-name="Path 407" d="M432.152,760.927l-.79-17.141c3.37-26.963-3.37-28.639-3.37-28.639l-9.63-4.661h-.193l-32.318-15.677-1.483-.713-.289-.135-2.369-1.156-3.139-1.522-6.2-3v2.735h0v3.39c0,1.926.173,4.449.347,7.319.328,6.144.905,14.194,1.926,23.766.693,6.568,1.56,13.867,2.7,21.725q.886,6.3,1.271,12.461a217.992,217.992,0,0,1-1.194,40.445A130.418,130.418,0,0,0,416.2,779.282l.347-.25a128.511,128.511,0,0,0,13.983-12.692q.847-.847,1.618-1.733Z" transform="translate(39.041 45.107)" fill="#fff"/>
            <path id="Path_408" data-name="Path 408" d="M363.089,669.4c6.009-1.021,12.057-3.216,18.027-1.926,5.008,1.04,9.187,4.372,13.771,6.683a35.651,35.651,0,0,0,14.214,3.756,8.358,8.358,0,0,0,5.219-1.021c2.388-1.656,2.735-5.046,2.33-7.935-1.156-8.2-6.279-15.253-11.556-21.648a42.38,42.38,0,0,0-7.242-7.338c-6.914-5.1-16.063-5.97-24.633-5.585-9.784.443-19.722,2.33-28.215,7.242-5.778,3.313-19.029,13.751-14.425,21.3C335.413,670.828,355.52,670.693,363.089,669.4Z" transform="translate(-0.539 -4.868)" opacity="0.1"/>
            <path id="Path_409" data-name="Path 409" d="M363.089,668.4c6.009-1.021,12.057-3.216,18.027-1.926,5.008,1.04,9.187,4.372,13.771,6.683a35.648,35.648,0,0,0,14.214,3.756,8.358,8.358,0,0,0,5.219-1.021c2.388-1.656,2.735-5.046,2.33-7.935-1.156-8.2-6.279-15.254-11.556-21.648a42.379,42.379,0,0,0-7.242-7.338c-6.914-5.1-16.063-5.97-24.633-5.585-9.784.443-19.722,2.33-28.215,7.241-5.778,3.313-19.029,13.752-14.425,21.3C335.413,669.828,355.52,669.693,363.089,668.4Z" transform="translate(-0.539 -5.794)" fill="#444176"/>
          </g>
          <g id="Group_144" data-name="Group 144" transform="translate(2177.071 2079.498) rotate(-2)">
            <path id="Path_353" data-name="Path 353" d="M1123.811,349.408A306.635,306.635,0,0,0,684.9,346.1c-116.06,117-118.024,307.5-4.509,426.883a306.635,306.635,0,0,0,393.254,43.47l221.659,230.477a14.911,14.911,0,0,0,21.1.421l55.214-53.09a14.91,14.91,0,0,0,.421-21.1L1150.386,742.681A306.634,306.634,0,0,0,1123.811,349.408Zm-69.043,370.607c-87.292,83.969-226.127,81.277-310.1-6.015s-81.278-226.126,6.012-310.1,226.125-81.28,310.1,6.01,81.282,226.13-6.012,310.1Z" transform="translate(570.71 62.397)" fill="url(#linear-gradient-14)"/>
            <path id="Path_354" data-name="Path 354" d="M677.568,377.85c-24.671,0-24.711,38.319,0,38.319S702.26,377.85,677.568,377.85Z" transform="translate(633.479 185.488)" fill="url(#linear-gradient-15)"/>
            <path id="Path_355" data-name="Path 355" d="M834.793,316.615c-66.378-1.5-126.8,31.806-158.909,82.17-10.481,16.394,19.28,30.884,29.7,14.57,26.595-41.626,77.14-68.141,131.752-66.678,57.279,1.443,109.407,34.211,137,79.685,10.482,17.256,37.9,1.563,27.5-15.592C968.349,355.515,903.375,318.158,834.793,316.615Z" transform="translate(648.17 123.949)" fill="url(#linear-gradient-16)"/>
            <path id="Path_356" data-name="Path 356" d="M1135.811,343.588A306.634,306.634,0,0,0,696.9,340.281c-116.06,117-118.024,307.5-4.51,426.883a306.635,306.635,0,0,0,393.254,43.47l212.274,220.719,9.384,9.758a14.91,14.91,0,0,0,21.1.421l24.658-23.91,30.576-29.2a14.91,14.91,0,0,0,.421-21.1L1162.406,736.841A306.635,306.635,0,0,0,1135.811,343.588Zm-69.043,370.606c-87.292,83.97-226.127,81.277-310.1-6.015s-81.278-226.126,6.012-310.1,226.126-81.28,310.1,6.01,81.281,226.13-6.012,310.1Z" transform="translate(582.76 56.553)" fill="#2f2e41"/>
            <path id="Path_357" data-name="Path 357" d="M689.568,372c-24.671,0-24.711,38.319,0,38.319S714.259,372,689.568,372Z" transform="translate(645.529 179.613)" fill="#2f2e41"/>
            <path id="Path_358" data-name="Path 358" d="M846.792,310.795c-66.377-1.5-126.8,31.806-158.909,82.17-10.481,16.394,19.28,30.884,29.7,14.57,26.6-41.626,77.14-68.141,131.753-66.678,57.278,1.443,109.406,34.211,137,79.685,10.482,17.256,37.9,1.563,27.5-15.592C980.349,349.735,915.374,312.358,846.792,310.795Z" transform="translate(660.22 118.105)" fill="#2f2e41"/>
          </g>
        </g>
      </g>
    </g>
  </g>
</svg>
