<svg xmlns="http://www.w3.org/2000/svg" xmlns:xlink="http://www.w3.org/1999/xlink" width="3777.778" height="1458.029" viewBox="0 0 3777.778 1458.029">
  <defs>
    <linearGradient id="linear-gradient" x1="0.5" y1="1" x2="0.5" gradientUnits="objectBoundingBox">
      <stop offset="0" stop-color="gray" stop-opacity="0.251"/>
      <stop offset="0.54" stop-color="gray" stop-opacity="0.122"/>
      <stop offset="1" stop-color="gray" stop-opacity="0.102"/>
    </linearGradient>
    <linearGradient id="linear-gradient-2" x1="-25.357" y1="1.001" x2="-25.357" y2="0" xlink:href="#linear-gradient"/>
    <linearGradient id="linear-gradient-3" x1="0.5" y1="1" x2="0.5" y2="0" xlink:href="#linear-gradient"/>
    <linearGradient id="linear-gradient-8" x1="0.5" y1="1" x2="0.5" y2="0" xlink:href="#linear-gradient"/>
    <linearGradient id="linear-gradient-10" x1="0.5" y1="0.999" x2="0.5" y2="-0.001" xlink:href="#linear-gradient"/>
    <linearGradient id="linear-gradient-14" x1="0" y1="0.5" x2="1" y2="0.5" xlink:href="#linear-gradient"/>
    <linearGradient id="linear-gradient-15" x1="0.5" y1="1" x2="0.5" gradientUnits="objectBoundingBox">
      <stop offset="0" stop-color="#b3b3b3" stop-opacity="0.251"/>
      <stop offset="0.54" stop-color="#b3b3b3" stop-opacity="0.102"/>
      <stop offset="1" stop-color="#b3b3b3" stop-opacity="0.051"/>
    </linearGradient>
    <linearGradient id="linear-gradient-16" x1="0.5" y1="1.001" x2="0.5" gradientUnits="objectBoundingBox">
      <stop offset="0" stop-opacity="0.122"/>
      <stop offset="0.55" stop-opacity="0.09"/>
      <stop offset="1" stop-opacity="0.02"/>
    </linearGradient>
    <linearGradient id="linear-gradient-17" x1="0.5" y1="0.999" x2="0.5" y2="0" xlink:href="#linear-gradient-16"/>
  </defs>
  <g id="Group_152" data-name="Group 152" transform="translate(-91 -1696.36)">
    <g id="Group_151" data-name="Group 151">
      <g id="Group_148" data-name="Group 148">
        <g id="Group_147" data-name="Group 147" transform="translate(-558.082)">
          <path id="Path_449" data-name="Path 449" d="M454.089-4633.141V-3998H-3182.829s326.134-607.883,1079.8-378.137,731.135,31.152,1230.447-303.732S182.194-4990.272,454.089-4633.141Z" transform="translate(3969.911 7150)" fill="#f8e7e7"/>
          <path id="Path_524" data-name="Path 524" d="M-3296.395-3914.571s214.591-394.517,742.434-416.592,590.785,282.184,590.785,282.184" transform="translate(5121.702 7066.571)" fill="none" stroke="#bd171b" stroke-width="10" stroke-dasharray="30"/>
          <g id="Group_103" data-name="Group 103" transform="translate(861.013 1417.7)">
            <path id="Path_526" data-name="Path 526" d="M740.942,600.536A226.66,226.66,0,0,1,686.12,748.729c-1.742,2.043-3.55,4.052-5.392,6.028q-1.373,1.54-2.813,3.014A223.422,223.422,0,0,1,653.6,779.84l-.6.435A222.561,222.561,0,0,1,609.8,806.8h0a224.439,224.439,0,0,1-24.247,9.712l-3.048.971c-1.875.636-3.818,1.205-5.727,1.741l-.77.235a228.838,228.838,0,0,1-125.755,0h-.335c-3.349-.971-6.7-1.976-9.779-3.081l-2.847-1a220.785,220.785,0,0,1-31.48-13.932l-.636-.335a228.614,228.614,0,0,1-44.609-31.581l-1.105-1.038A212.849,212.849,0,0,1,340,748.393c-.8-.9-1.574-1.842-2.344-2.78-1.474-1.741-2.88-3.55-4.287-5.358a227.731,227.731,0,1,1,407.572-139.72Z" transform="translate(-126.2 666.634)" fill="#f8f8f8"/>
            <path id="Path_385" data-name="Path 385" d="M740.942,600.536A226.66,226.66,0,0,1,686.12,748.729c-1.742,2.043-3.55,4.052-5.392,6.028q-1.373,1.54-2.813,3.014A223.422,223.422,0,0,1,653.6,779.84l-.6.435A222.561,222.561,0,0,1,609.8,806.8h0a224.439,224.439,0,0,1-24.247,9.712l-3.048.971c-1.875.636-3.818,1.205-5.727,1.741l-.77.235a228.838,228.838,0,0,1-125.755,0h-.335c-3.349-.971-6.7-1.976-9.779-3.081l-2.847-1a220.785,220.785,0,0,1-31.48-13.932l-.636-.335a228.614,228.614,0,0,1-44.609-31.581l-1.105-1.038A212.849,212.849,0,0,1,340,748.393c-.8-.9-1.574-1.842-2.344-2.78-1.474-1.741-2.88-3.55-4.287-5.358a227.731,227.731,0,1,1,407.572-139.72Z" transform="translate(-110.326 653.202)" fill="#de8b8d"/>
            <path id="Path_386" data-name="Path 386" d="M645.027,642.174l-17.281-7.77a68.5,68.5,0,0,0,.335-7.9,62.156,62.156,0,0,0,0-6.7c-1.708-17.615-12.927-32.954-20.864-49.062a139.347,139.347,0,0,1-13.63-46.886c-2.11-20.094,0-40.924-7.368-59.813-5.995-15.238-17.85-27.964-30.543-39.217a155.028,155.028,0,0,0-49.063-31.112c-18.553-6.7-39.887-8.406-58.44-1.574-16.745,6.162-29.638,18.453-42.1,30.409a141.51,141.51,0,0,0-23.778,27.06c-7.6,12.458-10.851,26.792-13.4,40.925a626.064,626.064,0,0,0-8.239,68.386c-1.306,19.123-3.349,40.824-19.692,52.546-7.971,5.727-19.19,8.942-22.84,17.616a18.016,18.016,0,0,0-1.206,8.205,30.13,30.13,0,0,0,.5,6.933c.234,1.34.5,2.646.837,3.985a293.826,293.826,0,0,0-11.788,35.767c-2.445,9.042-4.689,17.917-6.7,26.524h8.305l31.213.737h.435l33.49.77h.167l31.213.737h.77l9.009.636h2.947l124.817,2.88h.67l8.305.2h2.914l24.983.569h0l36.839.837h.268l27.729.67h8.64l-1.474-29.069C657.117,644.954,645.027,642.174,645.027,642.174Zm-140.222-3.55c0,24.649-26.39,54.823-26.39,54.823l-26.557-36.169.971-1.407,25.587,34.83s26.39-30.141,26.39-54.823a28.989,28.989,0,0,1,2.11-3.617l.6,1.875A35.527,35.527,0,0,0,504.805,638.624Zm40.589,96.719a20.18,20.18,0,0,0-.234-3.751c-.234-1.239-.2-2.344-.368-3.55s-.3-2.378-.469-3.583-.4-2.378-.636-3.584-.469-2.378-.737-3.583a5.613,5.613,0,0,0-.268-1.206q-.552-2.361-1.206-4.722c-.435-1.574-.7-2.545-1.105-3.784a5.147,5.147,0,0,0-.536-1.675c-.2-.536-.569-1.808-.871-2.713l-.6-1.741c-.268-.77-.536-1.574-.837-2.344-.5-1.406-1.038-2.779-1.574-4.186s-1.105-2.78-1.674-4.153c-1.139-2.813-2.378-5.593-3.617-8.406-4.856-10.851-10.315-21.534-15.338-32.117a170.768,170.768,0,0,1-7.167-17.013l-.636.837a35.545,35.545,0,0,0-2.713,4.521c0,24.649-26.39,54.823-26.39,54.823l-26.558-36.169-23.242,33.49c-3.349,1.674-6.7,7.368-9.31,15.472-.737,2.177-1.44,4.588-2.11,7.1-.469,1.708-.9,3.349-1.306,5.258-.234.9-.435,1.808-.636,2.746l-.6,2.847v.435c-.4,1.942-.8,3.952-1.172,5.995s-.8,4.387-1.172,6.7q-.4,2.176-.7,4.32c-.469,2.779-.871,5.593-1.273,8.406-.234,1.641-.469,3.349-.67,4.856l-.8,6.229c1.708,5.124,3.617,10.047,5.593,15.2a23.912,23.912,0,0,1,2.177,8.607,244.077,244.077,0,0,0,125.754,0,1.118,1.118,0,0,1,0-.3,34.96,34.96,0,0,1-.8-8.539h0a220.653,220.653,0,0,1,3.349-23.979,81.967,81.967,0,0,0,.636-11.789v-1.406c-.1-1.273-.134-2.412-.168-3.517Zm0,0a20.18,20.18,0,0,0-.234-3.751c-.234-1.239-.2-2.344-.368-3.55s-.3-2.378-.469-3.583-.4-2.378-.636-3.584-.469-2.378-.737-3.583a5.613,5.613,0,0,0-.268-1.206q-.552-2.361-1.206-4.722c-.435-1.574-.7-2.545-1.105-3.784a5.147,5.147,0,0,0-.536-1.675c-.2-.536-.569-1.808-.871-2.713l-.6-1.741c-.268-.77-.536-1.574-.837-2.344-.5-1.406-1.038-2.779-1.574-4.186s-1.105-2.78-1.674-4.153c-1.139-2.813-2.378-5.593-3.617-8.406-4.856-10.851-10.315-21.534-15.338-32.117a170.768,170.768,0,0,1-7.167-17.013l-.636.837a35.545,35.545,0,0,0-2.713,4.521c0,24.649-26.39,54.823-26.39,54.823l-26.558-36.169-23.242,33.49c-3.349,1.674-6.7,7.368-9.31,15.472-.737,2.177-1.44,4.588-2.11,7.1-.469,1.708-.9,3.349-1.306,5.258-.234.9-.435,1.808-.636,2.746l-.6,2.847v.435c-.4,1.942-.8,3.952-1.172,5.995s-.8,4.387-1.172,6.7q-.4,2.176-.7,4.32c-.469,2.779-.871,5.593-1.273,8.406-.234,1.641-.469,3.349-.67,4.856l-.8,6.229c1.708,5.124,3.617,10.047,5.593,15.2a23.912,23.912,0,0,1,2.177,8.607,244.077,244.077,0,0,0,125.754,0,1.118,1.118,0,0,1,0-.3,34.96,34.96,0,0,1-.8-8.539h0a220.653,220.653,0,0,1,3.349-23.979,81.967,81.967,0,0,0,.636-11.789v-1.406c-.1-1.273-.134-2.412-.168-3.517Zm0,0a20.18,20.18,0,0,0-.234-3.751c-.234-1.239-.2-2.344-.368-3.55s-.3-2.378-.469-3.583-.4-2.378-.636-3.584-.469-2.378-.737-3.583a5.613,5.613,0,0,0-.268-1.206q-.552-2.361-1.206-4.722c-.435-1.574-.7-2.545-1.105-3.784a5.147,5.147,0,0,0-.536-1.675c-.2-.536-.569-1.808-.871-2.713l-.6-1.741c-.268-.77-.536-1.574-.837-2.344-.5-1.406-1.038-2.779-1.574-4.186s-1.105-2.78-1.674-4.153c-1.139-2.813-2.378-5.593-3.617-8.406-4.856-10.851-10.315-21.534-15.338-32.117a170.768,170.768,0,0,1-7.167-17.013l-.636.837a35.545,35.545,0,0,0-2.713,4.521c0,24.649-26.39,54.823-26.39,54.823l-26.558-36.169-23.242,33.49c-3.349,1.674-6.7,7.368-9.31,15.472-.737,2.177-1.44,4.588-2.11,7.1-.469,1.708-.9,3.349-1.306,5.258-.234.9-.435,1.808-.636,2.746l-.6,2.847v.435c-.4,1.942-.8,3.952-1.172,5.995s-.8,4.387-1.172,6.7q-.4,2.176-.7,4.32c-.469,2.779-.871,5.593-1.273,8.406-.234,1.641-.469,3.349-.67,4.856l-.8,6.229c1.708,5.124,3.617,10.047,5.593,15.2a23.912,23.912,0,0,1,2.177,8.607,244.077,244.077,0,0,0,125.754,0,1.118,1.118,0,0,1,0-.3,34.96,34.96,0,0,1-.8-8.539h0a220.653,220.653,0,0,1,3.349-23.979,81.967,81.967,0,0,0,.636-11.789v-1.406c-.1-1.273-.134-2.412-.168-3.517Zm0,0a20.18,20.18,0,0,0-.234-3.751c-.234-1.239-.2-2.344-.368-3.55s-.3-2.378-.469-3.583-.4-2.378-.636-3.584-.469-2.378-.737-3.583a5.613,5.613,0,0,0-.268-1.206q-.552-2.361-1.206-4.722c-.435-1.574-.7-2.545-1.105-3.784a5.147,5.147,0,0,0-.536-1.675c-.2-.536-.569-1.808-.871-2.713l-.6-1.741c-.268-.77-.536-1.574-.837-2.344-.5-1.406-1.038-2.779-1.574-4.186s-1.105-2.78-1.674-4.153c-1.139-2.813-2.378-5.593-3.617-8.406-4.856-10.851-10.315-21.534-15.338-32.117a170.768,170.768,0,0,1-7.167-17.013l-.636.837a35.545,35.545,0,0,0-2.713,4.521c0,24.649-26.39,54.823-26.39,54.823l-26.558-36.169-23.242,33.49c-3.349,1.674-6.7,7.368-9.31,15.472-.737,2.177-1.44,4.588-2.11,7.1-.469,1.708-.9,3.349-1.306,5.258-.234.9-.435,1.808-.636,2.746l-.6,2.847v.435c-.4,1.942-.8,3.952-1.172,5.995s-.8,4.387-1.172,6.7q-.4,2.176-.7,4.32c-.469,2.779-.871,5.593-1.273,8.406-.234,1.641-.469,3.349-.67,4.856l-.8,6.229c1.708,5.124,3.617,10.047,5.593,15.2a23.912,23.912,0,0,1,2.177,8.607,244.077,244.077,0,0,0,125.754,0,1.118,1.118,0,0,1,0-.3,34.96,34.96,0,0,1-.8-8.539h0a220.653,220.653,0,0,1,3.349-23.979,81.967,81.967,0,0,0,.636-11.789v-1.406c-.1-1.273-.134-2.412-.168-3.517Z" transform="translate(-76.736 688.39)" fill="url(#linear-gradient)"/>
            <rect id="Rectangle_113" data-name="Rectangle 113" width="154.053" height="103.819" transform="translate(315.811 1190.141)" fill="#2f2e41"/>
            <path id="Path_387" data-name="Path 387" d="M508.284,523.792l-64.468,90.825-67.382-5.861s-87.911,5.827-29.3-61.521c28.165-32.385,37.375-59.378,39.351-78.634,2.143-20.831-4.186-32.686-4.186-32.686l73.242-8.774a54.655,54.655,0,0,0-1.205,30.576C463.508,495.761,508.284,523.792,508.284,523.792Z" transform="translate(-12.833 780.851)" fill="#fdc2cc"/>
            <path id="Path_388" data-name="Path 388" d="M415.527,457.663a73.209,73.209,0,0,1-67.851,10.918c2.143-20.831-4.186-32.686-4.186-32.686l73.242-8.774a54.655,54.655,0,0,0-1.206,30.543Z" transform="translate(25.939 780.804)" opacity="0.1"/>
            <circle id="Ellipse_30" data-name="Ellipse 30" cx="73.242" cy="73.242" r="73.242" transform="translate(324.05 1103.904)" fill="#fdc2cc"/>
            <path id="Path_389" data-name="Path 389" d="M519.145,476.856l-1.708-6.7-1.473-5.894-2.177-8.707-.4-1.608-.335-1.34s1.742-5.258-9.745-3.55l-2.143.369c-1.808.368-3.918.87-6.33,1.54l-2.177.67-2.88.9h0a62.794,62.794,0,0,0-24.314,14.669,54.734,54.734,0,0,0-8.138,9.846c-.235.335-.4.636-.6.9a31.614,31.614,0,0,0-2.11,3.885c0,26.39-26.39,58.608-26.39,58.608l-25.754-37.207-.5-.737-6.129-8.908-2.177-2.88-.737-1.005-13.4-17.984-3.349-4.488-1.105-1.507-1.641-2.177-3.851-5.124-15.07,8.808-20.094,11.722-11.721,76.189v2.11l.368,6.3,2.445,41.393v.569l-4.287,17.147.636.335a220.859,220.859,0,0,0,31.481,13.932l2.847,1c3.349,1.1,6.5,2.11,9.779,3.081a11.9,11.9,0,0,1,.268,1.507v-1.44a228.84,228.84,0,0,0,125.754,0l.77-.234c1.909-.536,3.851-1.105,5.727-1.741l3.048-.971a224.353,224.353,0,0,0,24.247-9.712l2.813-59.947,2.009-43.235v-2.478Z" transform="translate(-26.373 831.537)" opacity="0.1"/>
            <path id="Path_390" data-name="Path 390" d="M494.515,586.128a23.136,23.136,0,0,0-.234-4.019c-.234-1.34-.2-2.512-.368-3.785s-.3-2.545-.469-3.818-.4-2.545-.636-3.818-.469-2.545-.737-3.818a5.749,5.749,0,0,0-.268-1.273c-.368-1.675-.77-3.349-1.206-5.057s-.7-2.713-1.105-4.052a5.718,5.718,0,0,0-.536-1.775c-.2-.569-.569-1.942-.871-2.913l-.6-1.875c-.268-.837-.536-1.674-.837-2.512-.5-1.507-1.038-2.981-1.574-4.488s-1.105-2.981-1.674-4.454c-1.139-3.014-2.378-5.995-3.617-8.975-4.856-11.587-10.315-23.008-15.338-34.327a189.816,189.816,0,0,1-7.167-18.185l-.636.9a38.707,38.707,0,0,0-2.713,4.823c0,26.356-26.39,58.607-26.39,58.607l-26.557-38.681-23.242,35.734c-3.349,1.775-6.7,7.87-9.31,16.544-.737,2.344-1.44,4.89-2.11,7.6-.469,1.808-.9,3.717-1.306,5.626-.234.971-.436,1.942-.636,2.947l-.6,3.048v.469c-.4,2.076-.8,4.22-1.172,6.4s-.8,4.689-1.172,7.066q-.4,2.311-.7,4.622c-.469,2.98-.871,5.995-1.273,8.975-.234,1.742-.469,3.349-.67,5.191l-.8,6.7c1.708,5.492,3.617,10.917,5.593,16.242a26.99,26.99,0,0,1,2.177,9.21,228.838,228.838,0,0,0,125.754,0,1.266,1.266,0,0,1,0-.335,39.883,39.883,0,0,1-.8-9.143h0a251.289,251.289,0,0,1,3.349-25.62,93.734,93.734,0,0,0,.637-12.592v-1.507C494.583,588.539,494.549,587.334,494.515,586.128Zm0,0a23.136,23.136,0,0,0-.234-4.019c-.234-1.34-.2-2.512-.368-3.785s-.3-2.545-.469-3.818-.4-2.545-.636-3.818-.469-2.545-.737-3.818a5.749,5.749,0,0,0-.268-1.273c-.368-1.675-.77-3.349-1.206-5.057s-.7-2.713-1.105-4.052a5.718,5.718,0,0,0-.536-1.775c-.2-.569-.569-1.942-.871-2.913l-.6-1.875c-.268-.837-.536-1.674-.837-2.512-.5-1.507-1.038-2.981-1.574-4.488s-1.105-2.981-1.674-4.454c-1.139-3.014-2.378-5.995-3.617-8.975-4.856-11.587-10.315-23.008-15.338-34.327a189.816,189.816,0,0,1-7.167-18.185l-.636.9a38.707,38.707,0,0,0-2.713,4.823c0,26.356-26.39,58.607-26.39,58.607l-26.557-38.681-23.242,35.734c-3.349,1.775-6.7,7.87-9.31,16.544-.737,2.344-1.44,4.89-2.11,7.6-.469,1.808-.9,3.717-1.306,5.626-.234.971-.436,1.942-.636,2.947l-.6,3.048v.469c-.4,2.076-.8,4.22-1.172,6.4s-.8,4.689-1.172,7.066q-.4,2.311-.7,4.622c-.469,2.98-.871,5.995-1.273,8.975-.234,1.742-.469,3.349-.67,5.191l-.8,6.7c1.708,5.492,3.617,10.917,5.593,16.242a26.99,26.99,0,0,1,2.177,9.21,228.838,228.838,0,0,0,125.754,0,1.266,1.266,0,0,1,0-.335,39.883,39.883,0,0,1-.8-9.143h0a251.289,251.289,0,0,1,3.349-25.62,93.734,93.734,0,0,0,.637-12.592v-1.507C494.583,588.539,494.549,587.334,494.515,586.128Zm0,0a23.136,23.136,0,0,0-.234-4.019c-.234-1.34-.2-2.512-.368-3.785s-.3-2.545-.469-3.818-.4-2.545-.636-3.818-.469-2.545-.737-3.818a5.749,5.749,0,0,0-.268-1.273c-.368-1.675-.77-3.349-1.206-5.057s-.7-2.713-1.105-4.052a5.718,5.718,0,0,0-.536-1.775c-.2-.569-.569-1.942-.871-2.913l-.6-1.875c-.268-.837-.536-1.674-.837-2.512-.5-1.507-1.038-2.981-1.574-4.488s-1.105-2.981-1.674-4.454c-1.139-3.014-2.378-5.995-3.617-8.975-4.856-11.587-10.315-23.008-15.338-34.327a189.816,189.816,0,0,1-7.167-18.185l-.636.9a38.707,38.707,0,0,0-2.713,4.823c0,26.356-26.39,58.607-26.39,58.607l-26.557-38.681-23.242,35.734c-3.349,1.775-6.7,7.87-9.31,16.544-.737,2.344-1.44,4.89-2.11,7.6-.469,1.808-.9,3.717-1.306,5.626-.234.971-.436,1.942-.636,2.947l-.6,3.048v.469c-.4,2.076-.8,4.22-1.172,6.4s-.8,4.689-1.172,7.066q-.4,2.311-.7,4.622c-.469,2.98-.871,5.995-1.273,8.975-.234,1.742-.469,3.349-.67,5.191l-.8,6.7c1.708,5.492,3.617,10.917,5.593,16.242a26.99,26.99,0,0,1,2.177,9.21,228.838,228.838,0,0,0,125.754,0,1.266,1.266,0,0,1,0-.335,39.883,39.883,0,0,1-.8-9.143h0a251.289,251.289,0,0,1,3.349-25.62,93.734,93.734,0,0,0,.637-12.592v-1.507C494.583,588.539,494.549,587.334,494.515,586.128Zm35.5-62.86-11.956-47.723-2.043-8.172-.57-2.244h0l-2.914-11.655a2.187,2.187,0,0,0,0-.3h0a2.678,2.678,0,0,0-.235-1.507c-.435-.871-1.54-1.775-4.119-2.009a20.826,20.826,0,0,0-2.947,0h0a51.005,51.005,0,0,0-8.607,1.607c-1.373.369-2.847.771-4.421,1.273l-2.88.9h-.268a63.9,63.9,0,0,0-21.1,11.722,56.932,56.932,0,0,0-10.717,11.855l-.636.9a38.709,38.709,0,0,0-2.713,4.823c0,26.357-26.39,58.607-26.39,58.607l-26.557-38.681-1.507-2.177-.268-.368-3.851-5.66-2.914-3.885-.77-1L377.9,471.258h0l-4.354-5.928v-.2l-1.507-2.043-2.88-3.818-10.047,5.861L334,479.764,322.411,555.15v.8l.335,5.493,2.478,41.963v2.378l-3.784,15.1a220.872,220.872,0,0,0,31.481,13.931l2.846,1c3.349,1.105,6.5,2.11,9.779,3.081a11.827,11.827,0,0,1,.268,1.507v-1.44a228.84,228.84,0,0,0,125.754,0l.77-.234c1.909-.536,3.851-1.1,5.727-1.742l3.047-.971a224.375,224.375,0,0,0,24.247-9.712h0l2.78-59.88,2.009-42.767Zm-164.7,115.64a11.837,11.837,0,0,1,.268,1.507c0-.469,0-.971,0-1.44Zm129.2-52.78a23.136,23.136,0,0,0-.234-4.019c-.234-1.34-.2-2.512-.368-3.785s-.3-2.545-.469-3.818-.4-2.545-.636-3.818-.469-2.545-.737-3.818a5.749,5.749,0,0,0-.268-1.273c-.368-1.675-.77-3.349-1.206-5.057s-.7-2.713-1.105-4.052a5.718,5.718,0,0,0-.536-1.775c-.2-.569-.569-1.942-.871-2.913l-.6-1.875c-.268-.837-.536-1.674-.837-2.512-.5-1.507-1.038-2.981-1.574-4.488s-1.105-2.981-1.674-4.454c-1.139-3.014-2.378-5.995-3.617-8.975-4.856-11.587-10.315-23.008-15.338-34.327a189.816,189.816,0,0,1-7.167-18.185l-.636.9a38.707,38.707,0,0,0-2.713,4.823c0,26.356-26.39,58.607-26.39,58.607l-26.557-38.681-23.242,35.734c-3.349,1.775-6.7,7.87-9.31,16.544-.737,2.344-1.44,4.89-2.11,7.6-.469,1.808-.9,3.717-1.306,5.626-.234.971-.436,1.942-.636,2.947l-.6,3.048v.469c-.4,2.076-.8,4.22-1.172,6.4s-.8,4.689-1.172,7.066q-.4,2.311-.7,4.622c-.469,2.98-.871,5.995-1.273,8.975-.234,1.742-.469,3.349-.67,5.191l-.8,6.7c1.708,5.492,3.617,10.917,5.593,16.242a26.99,26.99,0,0,1,2.177,9.21,228.838,228.838,0,0,0,125.754,0,1.266,1.266,0,0,1,0-.335,39.883,39.883,0,0,1-.8-9.143h0a251.289,251.289,0,0,1,3.349-25.62,93.734,93.734,0,0,0,.637-12.592v-1.507C494.583,588.539,494.549,587.334,494.515,586.128Zm0,0a23.136,23.136,0,0,0-.234-4.019c-.234-1.34-.2-2.512-.368-3.785s-.3-2.545-.469-3.818-.4-2.545-.636-3.818-.469-2.545-.737-3.818a5.749,5.749,0,0,0-.268-1.273c-.368-1.675-.77-3.349-1.206-5.057s-.7-2.713-1.105-4.052a5.718,5.718,0,0,0-.536-1.775c-.2-.569-.569-1.942-.871-2.913l-.6-1.875c-.268-.837-.536-1.674-.837-2.512-.5-1.507-1.038-2.981-1.574-4.488s-1.105-2.981-1.674-4.454c-1.139-3.014-2.378-5.995-3.617-8.975-4.856-11.587-10.315-23.008-15.338-34.327a189.816,189.816,0,0,1-7.167-18.185l-.636.9a38.707,38.707,0,0,0-2.713,4.823c0,26.356-26.39,58.607-26.39,58.607l-26.557-38.681-23.242,35.734c-3.349,1.775-6.7,7.87-9.31,16.544-.737,2.344-1.44,4.89-2.11,7.6-.469,1.808-.9,3.717-1.306,5.626-.234.971-.436,1.942-.636,2.947l-.6,3.048v.469c-.4,2.076-.8,4.22-1.172,6.4s-.8,4.689-1.172,7.066q-.4,2.311-.7,4.622c-.469,2.98-.871,5.995-1.273,8.975-.234,1.742-.469,3.349-.67,5.191l-.8,6.7c1.708,5.492,3.617,10.917,5.593,16.242a26.99,26.99,0,0,1,2.177,9.21,228.838,228.838,0,0,0,125.754,0,1.266,1.266,0,0,1,0-.335,39.883,39.883,0,0,1-.8-9.143h0a251.289,251.289,0,0,1,3.349-25.62,93.734,93.734,0,0,0,.637-12.592v-1.507C494.583,588.539,494.549,587.334,494.515,586.128Zm0,0a23.136,23.136,0,0,0-.234-4.019c-.234-1.34-.2-2.512-.368-3.785s-.3-2.545-.469-3.818-.4-2.545-.636-3.818-.469-2.545-.737-3.818a5.749,5.749,0,0,0-.268-1.273c-.368-1.675-.77-3.349-1.206-5.057s-.7-2.713-1.105-4.052a5.718,5.718,0,0,0-.536-1.775c-.2-.569-.569-1.942-.871-2.913l-.6-1.875c-.268-.837-.536-1.674-.837-2.512-.5-1.507-1.038-2.981-1.574-4.488s-1.105-2.981-1.674-4.454c-1.139-3.014-2.378-5.995-3.617-8.975-4.856-11.587-10.315-23.008-15.338-34.327a189.816,189.816,0,0,1-7.167-18.185l-.636.9a38.707,38.707,0,0,0-2.713,4.823c0,26.356-26.39,58.607-26.39,58.607l-26.557-38.681-23.242,35.734c-3.349,1.775-6.7,7.87-9.31,16.544-.737,2.344-1.44,4.89-2.11,7.6-.469,1.808-.9,3.717-1.306,5.626-.234.971-.436,1.942-.636,2.947l-.6,3.048v.469c-.4,2.076-.8,4.22-1.172,6.4s-.8,4.689-1.172,7.066q-.4,2.311-.7,4.622c-.469,2.98-.871,5.995-1.273,8.975-.234,1.742-.469,3.349-.67,5.191l-.8,6.7c1.708,5.492,3.617,10.917,5.593,16.242a26.99,26.99,0,0,1,2.177,9.21,228.838,228.838,0,0,0,125.754,0,1.266,1.266,0,0,1,0-.335,39.883,39.883,0,0,1-.8-9.143h0a251.289,251.289,0,0,1,3.349-25.62,93.734,93.734,0,0,0,.637-12.592v-1.507C494.583,588.539,494.549,587.334,494.515,586.128Zm0,0a23.136,23.136,0,0,0-.234-4.019c-.234-1.34-.2-2.512-.368-3.785s-.3-2.545-.469-3.818-.4-2.545-.636-3.818-.469-2.545-.737-3.818a5.749,5.749,0,0,0-.268-1.273c-.368-1.675-.77-3.349-1.206-5.057s-.7-2.713-1.105-4.052a5.718,5.718,0,0,0-.536-1.775c-.2-.569-.569-1.942-.871-2.913l-.6-1.875c-.268-.837-.536-1.674-.837-2.512-.5-1.507-1.038-2.981-1.574-4.488s-1.105-2.981-1.674-4.454c-1.139-3.014-2.378-5.995-3.617-8.975-4.856-11.587-10.315-23.008-15.338-34.327a189.816,189.816,0,0,1-7.167-18.185l-.636.9a38.707,38.707,0,0,0-2.713,4.823c0,26.356-26.39,58.607-26.39,58.607l-26.557-38.681-23.242,35.734c-3.349,1.775-6.7,7.87-9.31,16.544-.737,2.344-1.44,4.89-2.11,7.6-.469,1.808-.9,3.717-1.306,5.626-.234.971-.436,1.942-.636,2.947l-.6,3.048v.469c-.4,2.076-.8,4.22-1.172,6.4s-.8,4.689-1.172,7.066q-.4,2.311-.7,4.622c-.469,2.98-.871,5.995-1.273,8.975-.234,1.742-.469,3.349-.67,5.191l-.8,6.7c1.708,5.492,3.617,10.917,5.593,16.242a26.99,26.99,0,0,1,2.177,9.21,228.838,228.838,0,0,0,125.754,0,1.266,1.266,0,0,1,0-.335,39.883,39.883,0,0,1-.8-9.143h0a251.289,251.289,0,0,1,3.349-25.62,93.734,93.734,0,0,0,.637-12.592v-1.507C494.583,588.539,494.549,587.334,494.515,586.128Zm0,0a23.136,23.136,0,0,0-.234-4.019c-.234-1.34-.2-2.512-.368-3.785s-.3-2.545-.469-3.818-.4-2.545-.636-3.818-.469-2.545-.737-3.818a5.749,5.749,0,0,0-.268-1.273c-.368-1.675-.77-3.349-1.206-5.057s-.7-2.713-1.105-4.052a5.718,5.718,0,0,0-.536-1.775c-.2-.569-.569-1.942-.871-2.913l-.6-1.875c-.268-.837-.536-1.674-.837-2.512-.5-1.507-1.038-2.981-1.574-4.488s-1.105-2.981-1.674-4.454c-1.139-3.014-2.378-5.995-3.617-8.975-4.856-11.587-10.315-23.008-15.338-34.327a189.816,189.816,0,0,1-7.167-18.185l-.636.9a38.707,38.707,0,0,0-2.713,4.823c0,26.356-26.39,58.607-26.39,58.607l-26.557-38.681-23.242,35.734c-3.349,1.775-6.7,7.87-9.31,16.544-.737,2.344-1.44,4.89-2.11,7.6-.469,1.808-.9,3.717-1.306,5.626-.234.971-.436,1.942-.636,2.947l-.6,3.048v.469c-.4,2.076-.8,4.22-1.172,6.4s-.8,4.689-1.172,7.066q-.4,2.311-.7,4.622c-.469,2.98-.871,5.995-1.273,8.975-.234,1.742-.469,3.349-.67,5.191l-.8,6.7c1.708,5.492,3.617,10.917,5.593,16.242a26.99,26.99,0,0,1,2.177,9.21,228.838,228.838,0,0,0,125.754,0,1.266,1.266,0,0,1,0-.335,39.883,39.883,0,0,1-.8-9.143h0a251.289,251.289,0,0,1,3.349-25.62,93.734,93.734,0,0,0,.637-12.592v-1.507C494.583,588.539,494.549,587.334,494.515,586.128Zm0,0a23.136,23.136,0,0,0-.234-4.019c-.234-1.34-.2-2.512-.368-3.785s-.3-2.545-.469-3.818-.4-2.545-.636-3.818-.469-2.545-.737-3.818a5.749,5.749,0,0,0-.268-1.273c-.368-1.675-.77-3.349-1.206-5.057s-.7-2.713-1.105-4.052a5.718,5.718,0,0,0-.536-1.775c-.2-.569-.569-1.942-.871-2.913l-.6-1.875c-.268-.837-.536-1.674-.837-2.512-.5-1.507-1.038-2.981-1.574-4.488s-1.105-2.981-1.674-4.454c-1.139-3.014-2.378-5.995-3.617-8.975-4.856-11.587-10.315-23.008-15.338-34.327a189.816,189.816,0,0,1-7.167-18.185l-.636.9a38.707,38.707,0,0,0-2.713,4.823c0,26.356-26.39,58.607-26.39,58.607l-26.557-38.681-23.242,35.734c-3.349,1.775-6.7,7.87-9.31,16.544-.737,2.344-1.44,4.89-2.11,7.6-.469,1.808-.9,3.717-1.306,5.626-.234.971-.436,1.942-.636,2.947l-.6,3.048v.469c-.4,2.076-.8,4.22-1.172,6.4s-.8,4.689-1.172,7.066q-.4,2.311-.7,4.622c-.469,2.98-.871,5.995-1.273,8.975-.234,1.742-.469,3.349-.67,5.191l-.8,6.7c1.708,5.492,3.617,10.917,5.593,16.242a26.99,26.99,0,0,1,2.177,9.21,228.838,228.838,0,0,0,125.754,0,1.266,1.266,0,0,1,0-.335,39.883,39.883,0,0,1-.8-9.143h0a251.289,251.289,0,0,1,3.349-25.62,93.734,93.734,0,0,0,.637-12.592v-1.507C494.583,588.539,494.549,587.334,494.515,586.128Zm0,0a23.136,23.136,0,0,0-.234-4.019c-.234-1.34-.2-2.512-.368-3.785s-.3-2.545-.469-3.818-.4-2.545-.636-3.818-.469-2.545-.737-3.818a5.749,5.749,0,0,0-.268-1.273c-.368-1.675-.77-3.349-1.206-5.057s-.7-2.713-1.105-4.052a5.718,5.718,0,0,0-.536-1.775c-.2-.569-.569-1.942-.871-2.913l-.6-1.875c-.268-.837-.536-1.674-.837-2.512-.5-1.507-1.038-2.981-1.574-4.488s-1.105-2.981-1.674-4.454c-1.139-3.014-2.378-5.995-3.617-8.975-4.856-11.587-10.315-23.008-15.338-34.327a189.816,189.816,0,0,1-7.167-18.185l-.636.9a38.707,38.707,0,0,0-2.713,4.823c0,26.356-26.39,58.607-26.39,58.607l-26.557-38.681-23.242,35.734c-3.349,1.775-6.7,7.87-9.31,16.544-.737,2.344-1.44,4.89-2.11,7.6-.469,1.808-.9,3.717-1.306,5.626-.234.971-.436,1.942-.636,2.947l-.6,3.048v.469c-.4,2.076-.8,4.22-1.172,6.4s-.8,4.689-1.172,7.066q-.4,2.311-.7,4.622c-.469,2.98-.871,5.995-1.273,8.975-.234,1.742-.469,3.349-.67,5.191l-.8,6.7c1.708,5.492,3.617,10.917,5.593,16.242a26.99,26.99,0,0,1,2.177,9.21,228.838,228.838,0,0,0,125.754,0,1.266,1.266,0,0,1,0-.335,39.883,39.883,0,0,1-.8-9.143h0a251.289,251.289,0,0,1,3.349-25.62,93.734,93.734,0,0,0,.637-12.592v-1.507C494.583,588.539,494.549,587.334,494.515,586.128Zm0,0a23.136,23.136,0,0,0-.234-4.019c-.234-1.34-.2-2.512-.368-3.785s-.3-2.545-.469-3.818-.4-2.545-.636-3.818-.469-2.545-.737-3.818a5.749,5.749,0,0,0-.268-1.273c-.368-1.675-.77-3.349-1.206-5.057s-.7-2.713-1.105-4.052a5.718,5.718,0,0,0-.536-1.775c-.2-.569-.569-1.942-.871-2.913l-.6-1.875c-.268-.837-.536-1.674-.837-2.512-.5-1.507-1.038-2.981-1.574-4.488s-1.105-2.981-1.674-4.454c-1.139-3.014-2.378-5.995-3.617-8.975-4.856-11.587-10.315-23.008-15.338-34.327a189.816,189.816,0,0,1-7.167-18.185l-.636.9a38.707,38.707,0,0,0-2.713,4.823c0,26.356-26.39,58.607-26.39,58.607l-26.557-38.681-23.242,35.734c-3.349,1.775-6.7,7.87-9.31,16.544-.737,2.344-1.44,4.89-2.11,7.6-.469,1.808-.9,3.717-1.306,5.626-.234.971-.436,1.942-.636,2.947l-.6,3.048v.469c-.4,2.076-.8,4.22-1.172,6.4s-.8,4.689-1.172,7.066q-.4,2.311-.7,4.622c-.469,2.98-.871,5.995-1.273,8.975-.234,1.742-.469,3.349-.67,5.191l-.8,6.7c1.708,5.492,3.617,10.917,5.593,16.242a26.99,26.99,0,0,1,2.177,9.21,228.838,228.838,0,0,0,125.754,0,1.266,1.266,0,0,1,0-.335,39.883,39.883,0,0,1-.8-9.143h0a251.289,251.289,0,0,1,3.349-25.62,93.734,93.734,0,0,0,.637-12.592v-1.507C494.583,588.539,494.549,587.334,494.515,586.128Z" transform="translate(-25.857 833.619)" fill="#fff"/>
            <path id="Path_391" data-name="Path 391" d="M447.769,499.793l-2.244-.3a81.663,81.663,0,0,1-10.047-2.01l-1.239-.335c-8.171-2.311-17.113-6.464-19.123-13.764a13.028,13.028,0,0,1,.2-7.133,61.179,61.179,0,0,1,4.555-11.521v-.2a16,16,0,0,1,.837-1.507A33.493,33.493,0,0,1,432.8,449.86l-4.019.636-34.026,5.526-52.746,8.507s-9.377-1.875-22.137,33.289a5.438,5.438,0,0,1-.435,1.306c-3.081,8.607-6.33,19.357-9.679,32.787-2.311,9.31-4.421,18.453-6.363,27.328-.569,2.679-1.139,5.325-1.674,7.937a212.808,212.808,0,0,0,19.458,20.094l1.105,1.038a228.612,228.612,0,0,0,44.608,31.581l.636.335a220.851,220.851,0,0,0,31.48,13.932l2.847,1c.6-6.2,1.273-13.061,2.076-20.094a5.724,5.724,0,0,1,.268-2.11l.8-6.7c.2-1.708.435-3.349.67-5.191.4-2.981.8-5.995,1.273-8.975q.3-2.311.7-4.622c.369-2.378.77-4.756,1.172-7.066s.77-4.321,1.172-6.4v-.469l.6-3.048c.2-1,.4-1.976.636-2.947.4-1.909.837-3.818,1.306-5.626.67-2.712,1.373-5.258,2.11-7.6,2.679-8.674,5.794-14.769,9.31-16.544L447.2,502.037l.971-1.507.435-.67Z" transform="translate(-72.179 834.22)" opacity="0.1"/>
            <path id="Path_392" data-name="Path 392" d="M447.438,499.813l-24.682,37.911c-3.349,1.708-6.5,7.635-9.143,16.042-.77,2.478-1.54,5.191-2.277,8.037a400.434,400.434,0,0,0-7.569,43.838,5.2,5.2,0,0,1-.268,2.009c-1.139,9.31-2.076,18.453-2.847,26.524a220.839,220.839,0,0,1-31.48-13.932l-.636-.335a228.615,228.615,0,0,1-44.608-31.581l-1.105-1.038A212.789,212.789,0,0,1,303.364,567.2c-.8-.9-1.574-1.842-2.344-2.78.368-1.741.737-3.349,1.139-5.225,1.909-8.875,4.019-17.984,6.329-27.261a330,330,0,0,1,11.386-37.509,10.256,10.256,0,0,1,.436-1.072c11.855-30.509,20.4-28.8,20.4-28.8l55.693-8.975,35.164-5.693-1.105.636a35.664,35.664,0,0,0-9.679,10.315l-.971,1.641c-.4.636-.77,1.34-1.172,2.043a59.328,59.328,0,0,0-4.621,11.721,12.324,12.324,0,0,0,.8,9.578c3.349,6.5,12.86,10.047,20.663,11.989l1.306.335A84,84,0,0,0,447.438,499.813Z" transform="translate(-73.823 834.267)" fill="#bd171b"/>
            <path id="Path_393" data-name="Path 393" d="M475.4,573.486l-1.373-29.739c5.861-46.886-5.861-49.8-5.861-49.8l-13.932-6.7h-.368l-56.029-27.16-2.177-1.072-.67-.3h0l-7.3-3.55h0l-4.622-2.244-8.64-4.186-2.914-1.407v11.621c0,3.349.3,7.267.569,11.822.6,11.454,1.708,26.792,3.684,44.876,1.105,10.482,2.512,21.936,4.253,34.227,1.038,7.267,1.775,14.5,2.244,21.568a379.535,379.535,0,0,1-2.21,71.333l3.048-.971a224.4,224.4,0,0,0,24.247-9.712h0a222.54,222.54,0,0,0,43.2-26.524l.6-.435a223.446,223.446,0,0,0,24.313-22.07Z" transform="translate(91.757 828.277)" opacity="0.1"/>
            <path id="Path_394" data-name="Path 394" d="M476.323,573.6,474.95,543.8c5.861-46.886-5.861-49.8-5.861-49.8l-16.745-8.1h-.335l-56.2-27.261-2.579-1.239-.5-.235-4.119-2.009-5.459-2.646L372.37,447.28v4.756h0v5.894c0,3.349.3,7.736.6,12.726.57,10.683,1.574,24.682,3.349,41.327,1.206,11.42,2.713,24.113,4.689,37.777q1.54,10.951,2.21,21.668a379.025,379.025,0,0,1-2.076,70.329,224.338,224.338,0,0,0,24.247-9.712h0a222.553,222.553,0,0,0,43.2-26.524l.6-.435a223.445,223.445,0,0,0,24.314-22.07q1.474-1.474,2.813-3.014Z" transform="translate(93.777 828.159)" fill="#bd171b"/>
            <path id="Path_395" data-name="Path 395" d="M372.094,402.165c-3.349,4.622-3.081,10.985-4.588,16.745-3.583,13.095-17.783,21.3-21.032,34.495-1.909,7.7.3,15.874-1,23.711-2.378,14.434-15.573,24.213-22.94,36.839a49.7,49.7,0,0,0-3.048,43.2,69.249,69.249,0,0,1,4.253,10.918,39.886,39.886,0,0,1-1.038,16.745c-2.512,11.922-5.091,25.05.67,35.8,4.856,9.076,14.936,14.4,25.084,16.075a97.475,97.475,0,0,0,30.71-1.407c11.085-1.708,22.438-3.684,32.083-9.377l-36.269-87.542c-3.651-8.841-7.4-17.984-7.368-27.562a60.585,60.585,0,0,1,4.521-20.563,178.163,178.163,0,0,1,30.141-52.077c5.258,6.1,4.856,15.372,9.243,22.137a34.928,34.928,0,0,0,14.936,11.152,494.846,494.846,0,0,0,52.88,22.1,6.932,6.932,0,0,1,5.158,10.315l-13.664,56.4c-3.014,12.425-5.66,26.792,2.076,36.839s25.184,14.8,25.285,27.763a44.415,44.415,0,0,0,0,6.162c.9,6.061,8.1,8.975,14.233,9.277a42.431,42.431,0,0,0,42.566-34.729c3.349-22.171-11.32-42.6-17.448-64.2-10.315-36.336,3.349-78.969-16.913-110.885-16.41-25.888-46.316-32.921-74.716-36.136C425.98,392.018,386.127,383.646,372.094,402.165Z" transform="translate(-38.802 694.639)" opacity="0.1"/>
            <path id="Path_396" data-name="Path 396" d="M372.094,401.165c-3.349,4.622-3.081,10.985-4.588,16.745-3.583,13.095-17.783,21.3-21.032,34.495-1.909,7.7.3,15.874-1,23.711-2.378,14.434-15.573,24.213-22.941,36.839a49.7,49.7,0,0,0-3.047,43.2,69.245,69.245,0,0,1,4.253,10.918,39.888,39.888,0,0,1-1.038,16.745c-2.512,11.922-5.091,25.05.67,35.8,4.856,9.076,14.936,14.4,25.084,16.075a97.489,97.489,0,0,0,30.71-1.407c11.085-1.708,22.438-3.684,32.083-9.377l-36.269-87.542c-3.651-8.841-7.4-17.984-7.368-27.562a60.587,60.587,0,0,1,4.521-20.563,178.164,178.164,0,0,1,30.141-52.077c5.258,6.1,4.856,15.372,9.243,22.137a34.93,34.93,0,0,0,14.937,11.152,494.791,494.791,0,0,0,52.881,22.1,6.933,6.933,0,0,1,5.158,10.315l-13.664,56.4c-3.014,12.425-5.66,26.792,2.076,36.839s25.184,14.8,25.285,27.763a44.438,44.438,0,0,0,0,6.162c.9,6.062,8.1,8.975,14.233,9.277a42.431,42.431,0,0,0,42.566-34.729c3.349-22.17-11.32-42.6-17.448-64.2-10.315-36.336,3.349-78.969-16.913-110.885-16.41-25.888-46.316-32.921-74.716-36.136C425.98,391.018,386.127,382.646,372.094,401.165Z" transform="translate(-38.802 692.29)" fill="#2f2e41"/>
          </g>
          <g id="Group_102" data-name="Group 102" transform="translate(-424.585 1885.57)">
            <path id="Path_528" data-name="Path 528" d="M280.78,513.842a380.307,380.307,0,0,0,76.309,229.151c5,6.687,10.227,13.149,15.678,19.5,2.922,3.428,5.956,6.8,9.047,10.115q2.3,2.585,4.72,5.057a374.918,374.918,0,0,0,40.8,37.031l1.012.731a380.472,380.472,0,0,0,113.17,60.8l5.113,1.63c3.147,1.068,6.406,2.023,9.609,2.922l1.292.393c1.63.449,3.259.955,4.945,1.349a380.473,380.473,0,0,0,100.19,13.318c5.619,0,11.519,0,17.251-.394a377.831,377.831,0,0,0,88.615-14.5h.562c5.338-1.573,10.62-3.2,15.846-5h.562l4.776-1.686a370.474,370.474,0,0,0,52.82-23.376l1.068-.562c1.854-1.011,3.709-2.023,5.619-3.091a381.147,381.147,0,0,0,69.341-49.9l1.854-1.742a357.05,357.05,0,0,0,32.647-33.715l1.18-1.4c.955-1.068,1.854-2.135,2.753-3.259,2.472-2.922,4.832-5.956,7.193-8.991A382.105,382.105,0,1,0,280.78,513.842Z" transform="translate(2452.8 327.766)" fill="#e3e3e3" opacity="0.4"/>
            <path id="Path_439" data-name="Path 439" d="M280.78,513.842a380.307,380.307,0,0,0,76.309,229.151c5,6.687,10.227,13.149,15.678,19.5,2.922,3.428,5.956,6.8,9.047,10.115q2.3,2.585,4.72,5.057a374.918,374.918,0,0,0,40.8,37.031l1.012.731a380.472,380.472,0,0,0,113.17,60.8l5.113,1.63c3.147,1.068,6.406,2.023,9.609,2.922l1.292.393c1.63.449,3.259.955,4.945,1.349a380.473,380.473,0,0,0,100.19,13.318c5.619,0,11.519,0,17.251-.394a377.831,377.831,0,0,0,88.615-14.5h.562c5.338-1.573,10.62-3.2,15.846-5h.562l4.776-1.686a370.474,370.474,0,0,0,52.82-23.376l1.068-.562c1.854-1.011,3.709-2.023,5.619-3.091a381.147,381.147,0,0,0,69.341-49.9l1.854-1.742a357.05,357.05,0,0,0,32.647-33.715l1.18-1.4c.955-1.068,1.854-2.135,2.753-3.259,2.472-2.922,4.832-5.956,7.193-8.991A382.105,382.105,0,1,0,280.78,513.842Z" transform="translate(2484.593 310.146)" fill="#de8b8d"/>
            <path id="Path_440" data-name="Path 440" d="M349.994,566.631s82.883-7.024,120.869-59.732c37.03-51.3,62.2-51.921,63.441-51.921h0c.955-6.855,1.63-13.374,2.079-19.443v-.843a11.242,11.242,0,0,1-5.226,2.3c-7.417,1.124-13.936-5.9-17.644-13.374a104.348,104.348,0,0,0-11.238-22.14c-9.159-10.564-24.163-10.62-35.064-18.656a48.214,48.214,0,0,1-16.857-32.142,88.465,88.465,0,0,1-.674-14.048,155.528,155.528,0,0,1,2.36-29.951c2.922-18.6,7.249-37.649,17.644-52.315s30.737-17.813,40.852-31.692c47.37-64.958,81.141-44.335,121.88-66.138a65.292,65.292,0,0,1,26.073-9.5c16.352-.955,30.962,10.733,44.111,21.859a125.985,125.985,0,0,1,22.477,22.477c11.744,16.464,18.319,44.054,17.757,68.217a102.16,102.16,0,0,1-2.585,26.691c-3.259,12.924-12.081,12.081-21.746,9.159A116.767,116.767,0,0,1,678.83,442v5.9a10.2,10.2,0,0,0,0,1.292,266.039,266.039,0,0,0,.9,26.86c.956.506,91.818,52.034,102.1,76.477s48.381,42.144,48.381,42.144,41.863,22.477,61.811,93.054l-1.18,1.4a360.42,360.42,0,0,1-32.647,34.389l-1.854,1.8A381.378,381.378,0,0,1,787,775.889c-1.8,1.068-3.653,2.135-5.619,3.147l-1.068.562a367.374,367.374,0,0,1-52.82,23.769l-4.776,1.742h-.562c-5.226,1.854-10.508,3.484-15.846,5.057h-.562a372.1,372.1,0,0,1-88.615,14.722c-5.619.281-11.238.394-17.251.394a374.518,374.518,0,0,1-99.91-12.98c-1.686-.393-3.315-.9-4.945-1.348l-1.292-.393c-3.2-.9-6.462-1.911-9.609-2.978l-5.113-1.63a378.856,378.856,0,0,1-113.339-61.867l-1.011-.731a377.2,377.2,0,0,1-40.8-37.648q-2.416-2.472-4.72-5.17c-3.091-3.372-6.125-6.8-9.047-10.283-5.619-6.462-10.676-13.037-15.677-19.836C324.483,555.055,349.994,566.631,349.994,566.631Z" transform="translate(2547.6 380.249)" fill="url(#linear-gradient-2)"/>
            <path id="Path_441" data-name="Path 441" d="M471.846,507.777l120.869-93.223s-80.973,17.363-78.669-112.047a9.969,9.969,0,0,1,0-1.292,331.1,331.1,0,0,1,2.81-38.6c20.735-172.678-145.032-20.735-145.032-20.735a247.224,247.224,0,0,1,0,45.965v1.236a321.077,321.077,0,0,1-34.5,121.993C292.313,497.382,471.846,507.777,471.846,507.777Z" transform="translate(2712.327 533.168)" fill="#fdc2cc"/>
            <path id="Path_442" data-name="Path 442" d="M353.055,263.848c20.51,19.948,33.041,56.192,63.89,56.192a113.229,113.229,0,0,0,62.767-18.824,331.1,331.1,0,0,1,2.81-38.6C503.256,89.934,337.49,241.877,337.49,241.877S355.247,235.752,353.055,263.848Z" transform="translate(2746.549 533.168)" opacity="0.1"/>
            <circle id="Ellipse_34" data-name="Ellipse 34" cx="113.957" cy="113.957" r="113.957" transform="translate(3049.536 619.674)" fill="#fdc2cc"/>
            <path id="Path_443" data-name="Path 443" d="M597.516,193.554a125.028,125.028,0,0,0-22.477-22.027c-13.149-10.957-27.759-22.477-44.111-21.465a66.023,66.023,0,0,0-26.073,9.328c-40.739,21.465-74.511,1.18-121.88,65.014-10.115,13.655-30.4,16.858-40.852,31.187s-14.666,33.153-17.644,51.472a126.212,126.212,0,0,0-1.742,37.649,47.146,47.146,0,0,0,16.858,31.58c10.9,7.923,25.9,7.979,35.063,18.375A101.981,101.981,0,0,1,385.9,416.411c3.709,7.3,10.227,14.217,17.644,13.149s11.856-9.1,12.924-16.858a103.635,103.635,0,0,0-1.4-23.994c-1.4-14.216.394-29.725,8.766-40.458,5.619-7.361,14.048-11.744,19.611-19.218,13.374-18.038,7.3-48.325,21.971-65.07a34.783,34.783,0,0,1,33.715-9.384,143.686,143.686,0,0,1,33.715,14.5,250.144,250.144,0,0,0,46.133,17.813c13.374,3.652,28.883,12.418,33.434-5.619C619.543,254.747,612.856,214.738,597.516,193.554Z" transform="translate(2675.271 394.147)" opacity="0.1"/>
            <path id="Path_444" data-name="Path 444" d="M597.516,192.554a125.034,125.034,0,0,0-22.477-22.027c-13.149-10.957-27.759-22.477-44.111-21.465a66.025,66.025,0,0,0-26.073,9.328c-40.739,21.465-74.511,1.18-121.88,65.014-10.115,13.655-30.4,16.858-40.852,31.187s-14.666,33.153-17.644,51.472a126.212,126.212,0,0,0-1.742,37.649,47.145,47.145,0,0,0,16.858,31.58c10.9,7.923,25.9,7.979,35.063,18.375A101.985,101.985,0,0,1,385.9,415.411c3.709,7.3,10.227,14.217,17.644,13.149s11.856-9.1,12.924-16.858a103.633,103.633,0,0,0-1.4-23.994c-1.4-14.217.394-29.725,8.766-40.458,5.619-7.361,14.048-11.744,19.611-19.218,13.374-18.038,7.3-48.325,21.971-65.07a34.783,34.783,0,0,1,33.715-9.384,143.684,143.684,0,0,1,33.715,14.5,250.166,250.166,0,0,0,46.133,17.813c13.374,3.652,28.883,12.418,33.434-5.619C619.543,253.747,612.856,213.738,597.516,192.554Z" transform="translate(2675.271 389.528)" fill="#2f2e41"/>
            <path id="Path_445" data-name="Path 445" d="M356.756,430.707l-2.248,86.255A380.469,380.469,0,0,0,454.7,530.279c5.619,0,11.519,0,17.251-.394a377.836,377.836,0,0,0,88.615-14.5h.562c5.338-1.573,10.621-3.2,15.846-5h.562l4.776-1.686a370.408,370.408,0,0,0,52.82-23.376l1.068-.562c1.854-1.011,3.709-2.023,5.619-3.091l-8.71-116.261,13.879-79.736-75.971-51.753a133.779,133.779,0,0,1-14.273,17.307,95.523,95.523,0,0,1-25.961,19.218c-54.507,26.86-116.542-15.846-147.392-42.256l-7.024-6.237c-7.979-7.249-12.531-12.194-12.531-12.194L325.85,268.424Z" transform="translate(2692.781 670.195)" opacity="0.1"/>
            <path id="Path_446" data-name="Path 446" d="M356.756,431.707l-2.248,86.255A380.466,380.466,0,0,0,454.7,531.279c5.619,0,11.519,0,17.251-.393a377.836,377.836,0,0,0,88.615-14.5h.562c5.338-1.573,10.621-3.2,15.846-5h.562l4.776-1.686a370.415,370.415,0,0,0,52.82-23.376l1.068-.562c1.854-1.011,3.709-2.023,5.619-3.091l-8.71-116.261,13.879-79.736-75.971-51.753a133.793,133.793,0,0,1-14.273,17.307,95.521,95.521,0,0,1-25.961,19.217c-54.507,26.86-116.542-15.846-147.392-42.256l-7.024-6.237c-7.979-7.249-12.531-12.194-12.531-12.194L325.85,269.424Z" transform="translate(2692.781 674.814)" fill="#fff"/>
            <path id="Path_447" data-name="Path 447" d="M294.36,414.77c5,6.687,10.227,13.149,15.678,19.5,2.922,3.428,5.956,6.8,9.047,10.115q2.3,2.585,4.72,5.057a374.915,374.915,0,0,0,40.8,37.03l1.012.731a373.51,373.51,0,0,0,72.488,44.5A376.517,376.517,0,0,0,478.782,548l5.113,1.63c3.147,1.068,6.406,2.023,9.609,2.922l1.292.394c1.63.449,3.259.955,4.945,1.348a380.476,380.476,0,0,0,100.19,13.318c5.619,0,11.519,0,17.251-.394,4.383-71.7,5.619-129.242-1.236-144.02a231.841,231.841,0,0,0-13.879-24.837c-27.759-44.616-78.669-111.709-75.916-120.194a87.982,87.982,0,0,0,2.3-12.643c2.978-22.14,5.956-62.654,5.956-62.654h0c-1.236,0-26.41.618-63.441,51.078C432.985,305.757,350.1,312.669,350.1,312.669S324.76,301.431,294.36,414.77Z" transform="translate(2547.323 638.369)" fill="#bd171b"/>
            <path id="Path_448" data-name="Path 448" d="M406.062,457.7s4.158,33.1,9.609,72.656h.562l4.776-1.686a370.438,370.438,0,0,0,52.82-23.376l1.068-.562c1.854-1.011,3.709-2.023,5.619-3.091a381.141,381.141,0,0,0,69.341-49.9L551.711,450a357.037,357.037,0,0,0,32.647-33.715l1.18-1.4c-20.061-69.622-61.811-91.537-61.811-91.537s-37.986-17.307-48.381-41.47S373.189,206.63,373.189,206.63v.393c0,4.327-1.461,43.942-3.652,83.782-1.4,25.9-3.147,51.921-5.17,68.442a79.957,79.957,0,0,1-2.922,15.846C354.309,392.12,406.062,457.7,406.062,457.7Z" transform="translate(2854.083 655.737)" fill="#bd171b"/>
          </g>
          <g id="Group_111" data-name="Group 111" transform="translate(4318.331 5196.617)">
            <g id="Group_109" data-name="Group 109" transform="translate(-1762.26 -3133.97)" opacity="0.5">
              <path id="Path_542" data-name="Path 542" d="M880.633,210.766H846.886V177.03h-19.4v33.736H793.74v19.41h33.747v33.736h19.4V230.176h33.747Z" transform="translate(-793.74 -177.03)" fill="url(#linear-gradient-3)"/>
            </g>
            <rect id="Rectangle_124" data-name="Rectangle 124" width="16.488" height="73.859" transform="translate(-1727.057 -3127.464)" fill="#bd171b"/>
            <rect id="Rectangle_125" data-name="Rectangle 125" width="16.488" height="73.859" transform="translate(-1681.884 -3098.767) rotate(90)" fill="#bd171b"/>
          </g>
          <g id="Group_112" data-name="Group 112" transform="translate(2411.342 5391)">
            <g id="Group_109-2" data-name="Group 109" transform="translate(-1762.26 -3133.97)" opacity="0.5">
              <path id="Path_542-2" data-name="Path 542" d="M864.235,204.4H836.857V177.03H821.119V204.4H793.74v15.747h27.379v27.37h15.738v-27.37h27.379Z" transform="translate(-793.74 -177.03)" fill="url(#linear-gradient-3)"/>
            </g>
            <rect id="Rectangle_124-2" data-name="Rectangle 124" width="13.376" height="59.921" transform="translate(-1733.701 -3128.692)" fill="#2f2e41"/>
            <rect id="Rectangle_125-2" data-name="Rectangle 125" width="13.376" height="59.921" transform="translate(-1697.052 -3105.411) rotate(90)" fill="#2f2e41"/>
          </g>
          <g id="Group_183" data-name="Group 183" transform="translate(2932.342 4995)">
            <g id="Group_109-3" data-name="Group 109" transform="translate(-1762.26 -3133.97)" opacity="0.5">
              <path id="Path_542-3" data-name="Path 542" d="M872.425,207.58H841.866V177.03H824.3v30.55H793.74v17.576H824.3v30.55h17.567v-30.55h30.559Z" transform="translate(-793.74 -177.03)" fill="url(#linear-gradient-3)"/>
            </g>
            <rect id="Rectangle_124-3" data-name="Rectangle 124" width="14.931" height="66.883" transform="translate(-1730.383 -3128.078)" fill="#bd171b"/>
            <rect id="Rectangle_125-3" data-name="Rectangle 125" width="14.931" height="66.883" transform="translate(-1689.476 -3102.093) rotate(90)" fill="#bd171b"/>
          </g>
          <g id="Group_146" data-name="Group 146" transform="translate(4945.342 4925.473)">
            <g id="Group_109-4" data-name="Group 109" transform="translate(-1762.26 -3133.97)" opacity="0.5">
              <path id="Path_542-4" data-name="Path 542" d="M863.276,204.027H836.27v-27H820.746v27H793.74V219.56h27.006v27H836.27v-27h27.006Z" transform="translate(-793.74 -177.03)" fill="url(#linear-gradient-3)"/>
            </g>
            <rect id="Rectangle_124-4" data-name="Rectangle 124" width="13.194" height="59.106" transform="translate(-1734.089 -3128.763)" fill="#2f2e41"/>
            <rect id="Rectangle_125-4" data-name="Rectangle 125" width="13.194" height="59.106" transform="translate(-1697.939 -3105.8) rotate(90)" fill="#2f2e41"/>
          </g>
          <g id="Group_145" data-name="Group 145" transform="translate(3611.547 5645.831)">
            <g id="Group_109-5" data-name="Group 109" transform="translate(-1762.26 -3133.97)" opacity="0.5">
              <path id="Path_542-5" data-name="Path 542" d="M960.084,241.613h-64.6V177.03H858.344v64.583h-64.6V278.77h64.6v64.583H895.48V278.77h64.6Z" transform="translate(-793.74 -177.03)" fill="url(#linear-gradient-3)"/>
            </g>
            <rect id="Rectangle_124-5" data-name="Rectangle 124" width="31.564" height="141.392" transform="translate(-1694.871 -3121.515)" fill="#2f2e41"/>
            <rect id="Rectangle_125-5" data-name="Rectangle 125" width="31.564" height="141.392" transform="translate(-1608.392 -3066.581) rotate(90)" fill="#2f2e41"/>
          </g>
          <g id="Group_139" data-name="Group 139" transform="translate(2781.49 1912.272)">
            <rect id="Rectangle_223" data-name="Rectangle 223" width="692.074" height="956.223" transform="translate(0 248.017) rotate(-21)" fill="#464555"/>
            <g id="Group_135" data-name="Group 135" transform="translate(16.72 258.918) rotate(-21)" opacity="0.5">
              <rect id="Rectangle_193" data-name="Rectangle 193" width="668.684" height="923.901" transform="translate(0 0)" fill="url(#linear-gradient-8)"/>
            </g>
            <rect id="Rectangle_224" data-name="Rectangle 224" width="651.66" height="903.488" transform="translate(27.099 262.228) rotate(-21)" fill="#fff"/>
            <rect id="Rectangle_225" data-name="Rectangle 225" width="323.281" height="78.31" transform="translate(167.142 166.504) rotate(-21)" fill="url(#linear-gradient-8)"/>
            <path id="Path_594" data-name="Path 594" d="M45.2,0C20.239,0,0,20.714,0,46.273S20.239,92.547,45.2,92.547s45.2-20.714,45.2-46.273S70.154,0,45.2,0Zm0,72.973a26.7,26.7,0,1,1,26.066-26.7A26.383,26.383,0,0,1,45.2,72.847Z" transform="translate(248.457 53.411) rotate(-21)" fill="url(#linear-gradient-10)"/>
            <rect id="Rectangle_226" data-name="Rectangle 226" width="316.471" height="74.858" transform="translate(169.118 162.15) rotate(-21)" fill="#bd171b"/>
            <path id="Path_595" data-name="Path 595" d="M44.231,0A44.231,44.231,0,1,0,88.461,44.231,44.231,44.231,0,0,0,44.231,0Zm0,69.759a25.578,25.578,0,1,0,0-.079Z" transform="translate(249.359 53.064) rotate(-21)" fill="#bd171b"/>
            <g id="Group_136" data-name="Group 136" transform="translate(118.712 344.675) rotate(-21)">
              <g id="Group_117" data-name="Group 117" transform="translate(0 0)">
                <path id="Path_543" data-name="Path 543" d="M180.073,90.036a89.731,89.731,0,0,1-7.251,35.455l-.3.687a90.185,90.185,0,0,1-98.111,52.543q-.811-.144-1.62-.3a89.238,89.238,0,0,1-16.287-4.8q-1.283-.515-2.547-1.068c-.575-.25-1.151-.509-1.721-.775A90.045,90.045,0,1,1,180.073,90.036Z" transform="translate(0)" fill="#f8e7e7"/>
                <path id="Union_1" data-name="Union 1" d="M44.759,148.9q-.812-.144-1.62-.3a89.253,89.253,0,0,1-16.287-4.8q-1.283-.516-2.546-1.068c-.575-.25-1.151-.509-1.721-.775a89.942,89.942,0,0,1-14.718-8.6s-4.144-3-7.847-6.365L0,127s11.763-24.372,31.379-25.065,28.1-17.88,13.793-26.309S24.738,67.449,24.738,38.841,39.553.27,53.6.015,84.254,2.569,87.064,32.2,71.993,59.786,84.509,79.71c7.159,11.4,17.662,11.176,26.87,10.955,6.89-.165,13.055-.33,16.554,4.371l8.052,14.1h-.006c-13.032,20.961-41.681,41.1-75.969,41.1A88.358,88.358,0,0,1,44.759,148.9Z" transform="translate(29.655 29.82)" fill="#eec3c4"/>
              </g>
              <rect id="Rectangle_220" data-name="Rectangle 220" width="152.028" height="25.338" transform="translate(226.458 35.226)" fill="#e0e0e0"/>
              <rect id="Rectangle_221" data-name="Rectangle 221" width="318.308" height="36.423" transform="translate(226.458 77.984)" fill="#e0e0e0"/>
              <rect id="Rectangle_222" data-name="Rectangle 222" width="318.308" height="14.253" transform="translate(226.458 131.827)" fill="#eec3c4"/>
            </g>
            <g id="Group_137" data-name="Group 137" transform="translate(208.38 578.268) rotate(-21)">
              <g id="Group_117-2" data-name="Group 117" transform="translate(0 0)">
                <path id="Path_543-2" data-name="Path 543" d="M180.073,90.036a89.731,89.731,0,0,1-7.251,35.455l-.3.687a90.185,90.185,0,0,1-98.111,52.543q-.811-.144-1.62-.3a89.238,89.238,0,0,1-16.287-4.8q-1.283-.515-2.547-1.068c-.575-.25-1.151-.509-1.721-.775A90.045,90.045,0,1,1,180.073,90.036Z" transform="translate(0)" fill="#f8e7e7"/>
                <path id="Union_1-2" data-name="Union 1" d="M44.759,148.9q-.812-.144-1.62-.3a89.253,89.253,0,0,1-16.287-4.8q-1.283-.516-2.546-1.068c-.575-.25-1.151-.509-1.721-.775a89.942,89.942,0,0,1-14.718-8.6s-4.144-3-7.847-6.365L0,127s11.763-24.372,31.379-25.065,28.1-17.88,13.793-26.309S24.738,67.449,24.738,38.841,39.553.27,53.6.015,84.254,2.569,87.064,32.2,71.993,59.786,84.509,79.71c7.159,11.4,17.662,11.176,26.87,10.955,6.89-.165,13.055-.33,16.554,4.371l8.052,14.1h-.006c-13.032,20.961-41.681,41.1-75.969,41.1A88.358,88.358,0,0,1,44.759,148.9Z" transform="translate(29.655 29.82)" fill="#eec5c6"/>
              </g>
              <rect id="Rectangle_220-2" data-name="Rectangle 220" width="152.028" height="25.338" transform="translate(226.458 35.226)" fill="#e0e0e0"/>
              <rect id="Rectangle_221-2" data-name="Rectangle 221" width="318.308" height="36.423" transform="translate(226.458 77.984)" fill="#e0e0e0"/>
              <rect id="Rectangle_222-2" data-name="Rectangle 222" width="318.308" height="14.253" transform="translate(226.458 131.827)" fill="#eec3c4"/>
            </g>
            <g id="Group_138" data-name="Group 138" transform="translate(298.048 811.862) rotate(-21)">
              <g id="Group_117-3" data-name="Group 117" transform="translate(0 0)">
                <path id="Path_543-3" data-name="Path 543" d="M180.073,90.036a89.731,89.731,0,0,1-7.251,35.455l-.3.687a90.185,90.185,0,0,1-98.111,52.543q-.811-.144-1.62-.3a89.238,89.238,0,0,1-16.287-4.8q-1.283-.515-2.547-1.068c-.575-.25-1.151-.509-1.721-.775A90.045,90.045,0,1,1,180.073,90.036Z" transform="translate(0)" fill="#f8e7e7"/>
                <path id="Union_1-3" data-name="Union 1" d="M44.759,148.9q-.812-.144-1.62-.3a89.253,89.253,0,0,1-16.287-4.8q-1.283-.516-2.546-1.068c-.575-.25-1.151-.509-1.721-.775a89.942,89.942,0,0,1-14.718-8.6s-4.144-3-7.847-6.365L0,127s11.763-24.372,31.379-25.065,28.1-17.88,13.793-26.309S24.738,67.449,24.738,38.841,39.553.27,53.6.015,84.254,2.569,87.064,32.2,71.993,59.786,84.509,79.71c7.159,11.4,17.662,11.176,26.87,10.955,6.89-.165,13.055-.33,16.554,4.371l8.052,14.1h-.006c-13.032,20.961-41.681,41.1-75.969,41.1A88.358,88.358,0,0,1,44.759,148.9Z" transform="translate(29.655 29.82)" fill="#eec3c4"/>
              </g>
              <rect id="Rectangle_220-3" data-name="Rectangle 220" width="152.028" height="25.338" transform="translate(226.458 35.226)" fill="#e0e0e0"/>
              <rect id="Rectangle_221-3" data-name="Rectangle 221" width="318.308" height="36.423" transform="translate(226.458 77.984)" fill="#e0e0e0"/>
              <rect id="Rectangle_222-3" data-name="Rectangle 222" width="318.308" height="14.253" transform="translate(226.458 131.827)" fill="#e0e0e0"/>
            </g>
          </g>
          <path id="Path_596" data-name="Path 596" d="M-1692.741-5025.245S-1929.776-4685.3-1564.635-4395.6" transform="translate(-601.245 3985.164) rotate(90)" fill="none" stroke="#bd171b" stroke-width="10" stroke-dasharray="30"/>
          <g id="Group_140" data-name="Group 140" transform="matrix(0.996, 0.087, -0.087, 0.996, 3576.173, 1696.36)">
            <rect id="Rectangle_192" data-name="Rectangle 192" width="790.153" height="1091.736" transform="translate(0 105.771)" fill="#464555"/>
            <g id="Group_129" data-name="Group 129" transform="translate(13.361 124.231)">
              <rect id="Rectangle_193-2" data-name="Rectangle 193" width="763.448" height="1054.833" transform="translate(0 0)" fill="url(#linear-gradient-8)"/>
            </g>
            <rect id="Rectangle_194" data-name="Rectangle 194" width="744.012" height="1031.527" transform="translate(23.071 132.006)" fill="#fff"/>
            <rect id="Rectangle_195" data-name="Rectangle 195" width="369.095" height="89.408" transform="translate(211.506 87.274)" fill="url(#linear-gradient-8)"/>
            <path id="Path_570" data-name="Path 570" d="M51.6,0C23.107,0,0,23.649,0,52.831s23.107,52.831,51.6,52.831,51.6-23.649,51.6-52.831S80.1,0,51.6,0Zm0,83.315a30.484,30.484,0,1,1,29.76-30.484A30.122,30.122,0,0,1,51.6,83.17Z" transform="translate(344.451 0)" fill="url(#linear-gradient-10)"/>
            <rect id="Rectangle_196" data-name="Rectangle 196" width="361.32" height="85.466" transform="translate(215.393 83.442)" fill="#bd171b"/>
            <path id="Path_571" data-name="Path 571" d="M50.5,0A50.5,50.5,0,1,0,101,50.5,50.5,50.5,0,0,0,50.5,0Zm0,79.645a29.2,29.2,0,1,0,0-.09Z" transform="translate(345.554 0)" fill="#bd171b"/>
            <g id="Group_132" data-name="Group 132" transform="translate(86.985 257.369)">
              <g id="Group_117-4" data-name="Group 117" transform="translate(0 0)">
                <path id="Path_543-4" data-name="Path 543" d="M205.593,102.8a102.448,102.448,0,0,1-8.278,40.48l-.341.785A102.966,102.966,0,0,1,84.959,204.05q-.926-.164-1.849-.341a101.884,101.884,0,0,1-18.595-5.483q-1.464-.588-2.908-1.22c-.657-.286-1.314-.581-1.965-.885A102.806,102.806,0,1,1,205.593,102.8Z" transform="translate(0 0)" fill="#f8e7e7"/>
                <path id="Union_1-4" data-name="Union 1" d="M51.1,170q-.927-.164-1.849-.341a101.9,101.9,0,0,1-18.595-5.483q-1.464-.589-2.907-1.22c-.657-.286-1.314-.581-1.965-.885a102.687,102.687,0,0,1-16.8-9.817s-4.731-3.427-8.959-7.267l-.024,0s13.43-27.826,35.826-28.617S67.906,95.964,51.574,86.34s-23.33-9.332-23.33-42S45.158.308,61.2.017s35,2.917,38.2,36.746S82.2,68.259,96.486,91.007c8.174,13.011,20.165,12.759,30.678,12.507,7.866-.189,14.905-.377,18.9,4.99l9.193,16.093h-.007c-14.879,23.932-47.588,46.926-86.735,46.926A100.88,100.88,0,0,1,51.1,170Z" transform="translate(33.857 34.046)" fill="#bd171b"/>
              </g>
              <rect id="Rectangle_220-4" data-name="Rectangle 220" width="173.573" height="28.929" transform="translate(258.551 40.218)" fill="#e0e0e0"/>
              <rect id="Rectangle_221-4" data-name="Rectangle 221" width="363.418" height="41.585" transform="translate(258.551 89.035)" fill="#e0e0e0"/>
              <rect id="Rectangle_222-4" data-name="Rectangle 222" width="363.418" height="16.272" transform="translate(258.551 150.509)" fill="#e0e0e0"/>
            </g>
            <g id="Group_133" data-name="Group 133" transform="translate(86.985 543.04)">
              <g id="Group_117-5" data-name="Group 117" transform="translate(0 0)">
                <path id="Path_543-5" data-name="Path 543" d="M205.593,102.8a102.448,102.448,0,0,1-8.278,40.48l-.341.785A102.966,102.966,0,0,1,84.959,204.05q-.926-.164-1.849-.341a101.884,101.884,0,0,1-18.595-5.483q-1.464-.588-2.908-1.22c-.657-.286-1.314-.581-1.965-.885A102.806,102.806,0,1,1,205.593,102.8Z" transform="translate(0 0)" fill="#f8e7e7"/>
                <path id="Union_1-5" data-name="Union 1" d="M51.1,170q-.927-.164-1.849-.341a101.9,101.9,0,0,1-18.595-5.483q-1.464-.589-2.907-1.22c-.657-.286-1.314-.581-1.965-.885a102.687,102.687,0,0,1-16.8-9.817s-4.731-3.427-8.959-7.267l-.024,0s13.43-27.826,35.826-28.617S67.906,95.964,51.574,86.34s-23.33-9.332-23.33-42S45.158.308,61.2.017s35,2.917,38.2,36.746S82.2,68.259,96.486,91.007c8.174,13.011,20.165,12.759,30.678,12.507,7.866-.189,14.905-.377,18.9,4.99l9.193,16.093h-.007c-14.879,23.932-47.588,46.926-86.735,46.926A100.88,100.88,0,0,1,51.1,170Z" transform="translate(33.857 34.046)" fill="#bd171b"/>
              </g>
              <rect id="Rectangle_220-5" data-name="Rectangle 220" width="173.573" height="28.929" transform="translate(258.551 40.218)" fill="#e0e0e0"/>
              <rect id="Rectangle_221-5" data-name="Rectangle 221" width="363.418" height="41.585" transform="translate(258.551 89.035)" fill="#e0e0e0"/>
              <rect id="Rectangle_222-5" data-name="Rectangle 222" width="363.418" height="16.272" transform="translate(258.551 150.509)" fill="#bd171b"/>
            </g>
            <g id="Group_134" data-name="Group 134" transform="translate(86.985 828.712)">
              <g id="Group_117-6" data-name="Group 117" transform="translate(0 0)">
                <path id="Path_543-6" data-name="Path 543" d="M205.593,102.8a102.448,102.448,0,0,1-8.278,40.48l-.341.785A102.966,102.966,0,0,1,84.959,204.05q-.926-.164-1.849-.341a101.884,101.884,0,0,1-18.595-5.483q-1.464-.588-2.908-1.22c-.657-.286-1.314-.581-1.965-.885A102.806,102.806,0,1,1,205.593,102.8Z" transform="translate(0 0)" fill="#f8e7e7"/>
                <path id="Union_1-6" data-name="Union 1" d="M51.1,170q-.927-.164-1.849-.341a101.9,101.9,0,0,1-18.595-5.483q-1.464-.589-2.907-1.22c-.657-.286-1.314-.581-1.965-.885a102.687,102.687,0,0,1-16.8-9.817s-4.731-3.427-8.959-7.267l-.024,0s13.43-27.826,35.826-28.617S67.906,95.964,51.574,86.34s-23.33-9.332-23.33-42S45.158.308,61.2.017s35,2.917,38.2,36.746S82.2,68.259,96.486,91.007c8.174,13.011,20.165,12.759,30.678,12.507,7.866-.189,14.905-.377,18.9,4.99l9.193,16.093h-.007c-14.879,23.932-47.588,46.926-86.735,46.926A100.88,100.88,0,0,1,51.1,170Z" transform="translate(33.857 34.046)" fill="#bd171b"/>
              </g>
              <rect id="Rectangle_220-6" data-name="Rectangle 220" width="173.573" height="28.929" transform="translate(258.551 40.218)" fill="#e0e0e0"/>
              <rect id="Rectangle_221-6" data-name="Rectangle 221" width="363.418" height="41.585" transform="translate(258.551 89.035)" fill="#e0e0e0"/>
              <rect id="Rectangle_222-6" data-name="Rectangle 222" width="363.418" height="16.272" transform="translate(258.551 150.509)" fill="#e0e0e0"/>
            </g>
          </g>
          <g id="Group_142" data-name="Group 142" transform="translate(1488.283 1106.422)">
            <path id="Path_527" data-name="Path 527" d="M849.682,895.906a280.771,280.771,0,0,1-67.912,183.573c-2.157,2.531-4.4,5.02-6.679,7.467q-1.7,1.909-3.485,3.734a276.81,276.81,0,0,1-30.118,27.339l-.747.539a275.7,275.7,0,0,1-53.516,32.857h0a277.824,277.824,0,0,1-30.035,12.031l-3.775,1.2c-2.323.788-4.729,1.493-7.094,2.157l-.954.291a283.476,283.476,0,0,1-155.778,0h-.414c-4.149-1.2-8.3-2.448-12.114-3.817l-3.526-1.245a273.533,273.533,0,0,1-39-17.258l-.788-.415a283.171,283.171,0,0,1-55.259-39.12l-1.369-1.287a263.512,263.512,0,0,1-24.1-24.892c-1-1.12-1.95-2.281-2.9-3.443-1.825-2.157-3.568-4.4-5.31-6.637A282.1,282.1,0,1,1,849.682,895.906Z" transform="translate(-52.2 -16.117)" fill="#e4d4d4"/>
            <path id="Path_397" data-name="Path 397" d="M849.682,895.906a280.771,280.771,0,0,1-67.912,183.573c-2.157,2.531-4.4,5.02-6.679,7.467q-1.7,1.909-3.485,3.734a276.81,276.81,0,0,1-30.118,27.339l-.747.539a275.7,275.7,0,0,1-53.516,32.857h0a277.824,277.824,0,0,1-30.035,12.031l-3.775,1.2c-2.323.788-4.729,1.493-7.094,2.157l-.954.291a283.476,283.476,0,0,1-155.778,0h-.414c-4.149-1.2-8.3-2.448-12.114-3.817l-3.526-1.245a273.533,273.533,0,0,1-39-17.258l-.788-.415a283.171,283.171,0,0,1-55.259-39.12l-1.369-1.287a263.512,263.512,0,0,1-24.1-24.892c-1-1.12-1.95-2.281-2.9-3.443-1.825-2.157-3.568-4.4-5.31-6.637A282.1,282.1,0,1,1,849.682,895.906Z" transform="translate(-28.97 -23.86)" fill="#de8b8d"/>
            <path id="Path_398" data-name="Path 398" d="M725.852,1036.664l-1.7-37.336c7.26-59.034-7.26-62.726-7.26-62.726L696.149,926.4l-.415-.208L626.121,891.88l-3.194-1.577-.415-1.7s1.369-4.149-5.518-4.854a25.265,25.265,0,0,1-1.742-10.579c.705-7.966,6.72-14.23,11.408-20.743a85.212,85.212,0,0,0,13.649-60.444,142.17,142.17,0,0,0-23.149-58.412l-1.328-1.95a70.291,70.291,0,0,0,2.448-18.337c0-47.749-48.289-86.455-107.862-86.455-53.931,0-98.86,31.9-106.659,73.512a37.762,37.762,0,0,0-3.277,5.144c-10.952,20.494,5.974,35.8,6.513,56.254.374,14.105-9.085,26.178-16.594,38.125s-13.068,27.837-5.352,39.618c2.53,3.9,6.347,6.845,8.629,10.911,8.007,14.147-5.31,30.368-10.164,45.883a43.907,43.907,0,0,0-1.328,5.517l-32.027,5.227s-10.579-2.157-25.265,36.259a13,13,0,0,0-.539,1.369,420.608,420.608,0,0,0-14.1,47.252q-4.294,17.55-7.841,34.309c-.5,2.2-.954,4.4-1.411,6.6.954,1.162,1.909,2.365,2.9,3.485a265.976,265.976,0,0,0,24.1,25.389l1.369,1.328a283.28,283.28,0,0,0,55.258,39.785l.789.414a271.277,271.277,0,0,0,39,17.549l3.526,1.244c4.148,1.411,8.048,2.656,12.114,3.9a15.13,15.13,0,0,1,.332,1.909v-1.825a279.047,279.047,0,0,0,155.778,0l.954-.291c2.365-.663,4.771-1.41,7.094-2.2l3.775-1.2a279.766,279.766,0,0,0,83.551-45.634l.747-.539a278.507,278.507,0,0,0,30.118-27.8q1.826-1.826,3.485-3.775Z" transform="translate(19.895 17.171)" fill="url(#linear-gradient-14)"/>
            <path id="Path_399" data-name="Path 399" d="M346.023,714.556c.373,13.9-9.085,25.762-16.594,37.337s-13.068,27.38-5.352,38.954c2.531,3.817,6.347,6.763,8.629,10.745,8.007,13.9-5.31,29.869-10.164,45.136-5.6,17.631.913,37.337,12.695,51.649s28.044,23.979,44.472,32.483a396.886,396.886,0,0,0,110.019,39.163c20.079,3.692,41.485,5.351,60.32-2.7A64.137,64.137,0,0,0,586.265,896.8c-4.771-21.821-20.743-39.37-29.04-59.988a28.082,28.082,0,0,1-2.738-12.985c.705-7.841,6.72-13.981,11.408-20.328a82.97,82.97,0,0,0,13.442-59.034,138.569,138.569,0,0,0-23.149-57.5,62.986,62.986,0,0,0-16.594-18.254c-9.043-6.1-20.245-7.84-31.031-9.375-45.053-6.306-91.724-13.192-137.151-15.515-14.354-.746-24.891,2.074-31.985,15.515C328.6,679.377,345.484,694.436,346.023,714.556Z" transform="translate(80.867 70.329)" fill="#444176"/>
            <path id="Path_400" data-name="Path 400" d="M542.164,778.8,456.662,900.4l-83.468-7.26s-2.738,29.04-36.3-76.208c-18.751-58.868,19.374-38.415,26.882-54.72s20.743-30.7,21.863-42.73c2.655-25.8-5.186-40.489-5.186-40.489l90.729-10.869A67.707,67.707,0,0,0,469.688,706C481.055,753.206,542.164,778.8,542.164,778.8Z" transform="translate(116.755 147.175)" fill="#fdc2cc"/>
            <ellipse id="Ellipse_31" data-name="Ellipse 31" cx="107.862" cy="85.045" rx="107.862" ry="85.045" transform="translate(422.451 652.215)" fill="#444176"/>
            <path id="Path_401" data-name="Path 401" d="M432.725,705.955a90.688,90.688,0,0,1-84.05,13.523c2.655-25.8-5.185-40.489-5.185-40.489l90.728-10.869a67.7,67.7,0,0,0-1.493,37.834Z" transform="translate(153.676 147.175)" opacity="0.1"/>
            <circle id="Ellipse_32" data-name="Ellipse 32" cx="90.729" cy="90.729" r="90.729" transform="translate(440.954 686.441)" fill="#fdc2cc"/>
            <path id="Path_402" data-name="Path 402" d="M566.4,724.574l-2.116-8.3-1.825-7.3-2.7-10.786-.5-1.991-.415-1.659s2.157-6.514-12.072-4.4l-2.655.456c-2.24.456-4.854,1.078-7.841,1.908l-2.7.83-3.567,1.12h0A77.793,77.793,0,0,0,499.9,712.626a67.811,67.811,0,0,0-10.081,12.2c-.291.415-.5.788-.747,1.12a39.131,39.131,0,0,0-2.614,4.813c0,32.691-32.691,72.6-32.691,72.6l-31.9-46.09-.622-.913-7.592-11.035-2.7-3.568-.913-1.245-16.594-22.278-4.148-5.559-1.369-1.866-2.033-2.7-4.771-6.347-18.668,10.911-24.892,14.52-14.52,94.38v2.614l.456,7.8,3.028,51.276v.7L321.22,905.2l.788.414a273.609,273.609,0,0,0,39,17.258l3.526,1.244c4.149,1.369,8.048,2.614,12.114,3.817a14.625,14.625,0,0,1,.332,1.867v-1.784a283.477,283.477,0,0,0,155.778,0l.954-.291c2.365-.664,4.771-1.369,7.094-2.157l3.775-1.2a277.878,277.878,0,0,0,30.035-12.031l3.485-74.258,2.489-53.557v-3.07Z" transform="translate(83.559 215.177)" opacity="0.1"/>
            <path id="Path_403" data-name="Path 403" d="M535.837,859.722a28.634,28.634,0,0,0-.291-4.979c-.29-1.659-.249-3.111-.457-4.688s-.373-3.152-.581-4.729-.5-3.153-.788-4.73-.581-3.153-.913-4.729a7.12,7.12,0,0,0-.332-1.577c-.456-2.075-.954-4.148-1.493-6.264s-.871-3.361-1.369-5.02a7.081,7.081,0,0,0-.664-2.2c-.249-.705-.705-2.406-1.079-3.609l-.747-2.323c-.332-1.037-.664-2.074-1.037-3.112-.622-1.867-1.286-3.692-1.95-5.558s-1.369-3.693-2.074-5.518c-1.411-3.734-2.945-7.426-4.48-11.118-6.015-14.355-12.778-28.5-19-42.523a235.075,235.075,0,0,1-8.878-22.526l-.789,1.12a47.909,47.909,0,0,0-3.36,5.974c0,32.649-32.69,72.6-32.69,72.6l-32.9-47.916-28.791,44.265c-4.149,2.2-8.3,9.749-11.533,20.494-.913,2.9-1.784,6.057-2.614,9.417-.581,2.24-1.12,4.6-1.618,6.969-.29,1.2-.54,2.406-.788,3.651l-.747,3.775v.581c-.5,2.572-1,5.227-1.452,7.923s-1,5.809-1.452,8.754q-.5,2.863-.871,5.725c-.581,3.692-1.078,7.426-1.576,11.118-.29,2.158-.58,4.148-.83,6.43l-1,8.3c2.116,6.8,4.48,13.524,6.928,20.12a33.45,33.45,0,0,1,2.7,11.408,283.467,283.467,0,0,0,155.778,0,1.591,1.591,0,0,1,0-.415,49.407,49.407,0,0,1-1-11.325h0a311.237,311.237,0,0,1,4.148-31.737,116.164,116.164,0,0,0,.788-15.6v-1.867C535.92,862.709,535.878,861.215,535.837,859.722Zm0,0a28.634,28.634,0,0,0-.291-4.979c-.29-1.659-.249-3.111-.457-4.688s-.373-3.152-.581-4.729-.5-3.153-.788-4.73-.581-3.153-.913-4.729a7.12,7.12,0,0,0-.332-1.577c-.456-2.075-.954-4.148-1.493-6.264s-.871-3.361-1.369-5.02a7.081,7.081,0,0,0-.664-2.2c-.249-.705-.705-2.406-1.079-3.609l-.747-2.323c-.332-1.037-.664-2.074-1.037-3.112-.622-1.867-1.286-3.692-1.95-5.558s-1.369-3.693-2.074-5.518c-1.411-3.734-2.945-7.426-4.48-11.118-6.015-14.355-12.778-28.5-19-42.523a235.075,235.075,0,0,1-8.878-22.526l-.789,1.12a47.909,47.909,0,0,0-3.36,5.974c0,32.649-32.69,72.6-32.69,72.6l-32.9-47.916-28.791,44.265c-4.149,2.2-8.3,9.749-11.533,20.494-.913,2.9-1.784,6.057-2.614,9.417-.581,2.24-1.12,4.6-1.618,6.969-.29,1.2-.54,2.406-.788,3.651l-.747,3.775v.581c-.5,2.572-1,5.227-1.452,7.923s-1,5.809-1.452,8.754q-.5,2.863-.871,5.725c-.581,3.692-1.078,7.426-1.576,11.118-.29,2.158-.58,4.148-.83,6.43l-1,8.3c2.116,6.8,4.48,13.524,6.928,20.12a33.45,33.45,0,0,1,2.7,11.408,283.467,283.467,0,0,0,155.778,0,1.591,1.591,0,0,1,0-.415,49.407,49.407,0,0,1-1-11.325h0a311.237,311.237,0,0,1,4.148-31.737,116.164,116.164,0,0,0,.788-15.6v-1.867C535.92,862.709,535.878,861.215,535.837,859.722Zm0,0a28.634,28.634,0,0,0-.291-4.979c-.29-1.659-.249-3.111-.457-4.688s-.373-3.152-.581-4.729-.5-3.153-.788-4.73-.581-3.153-.913-4.729a7.12,7.12,0,0,0-.332-1.577c-.456-2.075-.954-4.148-1.493-6.264s-.871-3.361-1.369-5.02a7.081,7.081,0,0,0-.664-2.2c-.249-.705-.705-2.406-1.079-3.609l-.747-2.323c-.332-1.037-.664-2.074-1.037-3.112-.622-1.867-1.286-3.692-1.95-5.558s-1.369-3.693-2.074-5.518c-1.411-3.734-2.945-7.426-4.48-11.118-6.015-14.355-12.778-28.5-19-42.523a235.075,235.075,0,0,1-8.878-22.526l-.789,1.12a47.909,47.909,0,0,0-3.36,5.974c0,32.649-32.69,72.6-32.69,72.6l-32.9-47.916-28.791,44.265c-4.149,2.2-8.3,9.749-11.533,20.494-.913,2.9-1.784,6.057-2.614,9.417-.581,2.24-1.12,4.6-1.618,6.969-.29,1.2-.54,2.406-.788,3.651l-.747,3.775v.581c-.5,2.572-1,5.227-1.452,7.923s-1,5.809-1.452,8.754q-.5,2.863-.871,5.725c-.581,3.692-1.078,7.426-1.576,11.118-.29,2.158-.58,4.148-.83,6.43l-1,8.3c2.116,6.8,4.48,13.524,6.928,20.12a33.45,33.45,0,0,1,2.7,11.408,283.467,283.467,0,0,0,155.778,0,1.591,1.591,0,0,1,0-.415,49.407,49.407,0,0,1-1-11.325h0a311.237,311.237,0,0,1,4.148-31.737,116.164,116.164,0,0,0,.788-15.6v-1.867C535.92,862.709,535.878,861.215,535.837,859.722Zm43.974-77.869L565,722.737l-2.53-10.123-.705-2.779h0L558.156,695.4a2.742,2.742,0,0,0,0-.373h0a3.322,3.322,0,0,0-.291-1.867c-.539-1.079-1.908-2.2-5.1-2.489a25.883,25.883,0,0,0-3.651,0h0a63.162,63.162,0,0,0-10.662,1.991c-1.7.456-3.526.954-5.476,1.577l-3.568,1.12h-.332a79.162,79.162,0,0,0-26.136,14.52,70.529,70.529,0,0,0-13.275,14.686l-.788,1.121a47.838,47.838,0,0,0-3.36,5.974c0,32.649-32.691,72.6-32.691,72.6l-32.9-47.915-1.867-2.7-.332-.456-4.771-7.011-3.609-4.812-.954-1.244-17.009-22.693h0l-5.393-7.344v-.248l-1.867-2.53-3.568-4.73-12.446,7.26L337,727.964l-14.354,93.384v1l.415,6.8,3.07,51.981v2.945l-4.688,18.71a273.634,273.634,0,0,0,39,17.258l3.527,1.244c4.148,1.368,8.048,2.613,12.114,3.816a14.731,14.731,0,0,1,.332,1.867v-1.783a283.483,283.483,0,0,0,155.778,0l.954-.29c2.365-.664,4.771-1.369,7.094-2.157l3.776-1.2A278.066,278.066,0,0,0,574.045,909.5h0l3.443-74.176,2.489-52.977ZM375.786,925.1a14.726,14.726,0,0,1,.332,1.867v-1.783Zm160.051-65.381a28.634,28.634,0,0,0-.291-4.979c-.29-1.659-.249-3.111-.457-4.688s-.373-3.152-.581-4.729-.5-3.153-.788-4.73-.581-3.153-.913-4.729a7.12,7.12,0,0,0-.332-1.577c-.456-2.075-.954-4.148-1.493-6.264s-.871-3.361-1.369-5.02a7.081,7.081,0,0,0-.664-2.2c-.249-.705-.705-2.406-1.079-3.609l-.747-2.323c-.332-1.037-.664-2.074-1.037-3.112-.622-1.867-1.286-3.692-1.95-5.558s-1.369-3.693-2.074-5.518c-1.411-3.734-2.945-7.426-4.48-11.118-6.015-14.355-12.778-28.5-19-42.523a235.075,235.075,0,0,1-8.878-22.526l-.789,1.12a47.909,47.909,0,0,0-3.36,5.974c0,32.649-32.69,72.6-32.69,72.6l-32.9-47.916-28.791,44.265c-4.149,2.2-8.3,9.749-11.533,20.494-.913,2.9-1.784,6.057-2.614,9.417-.581,2.24-1.12,4.6-1.618,6.969-.29,1.2-.54,2.406-.788,3.651l-.747,3.775v.581c-.5,2.572-1,5.227-1.452,7.923s-1,5.809-1.452,8.754q-.5,2.863-.871,5.725c-.581,3.692-1.078,7.426-1.576,11.118-.29,2.158-.58,4.148-.83,6.43l-1,8.3c2.116,6.8,4.48,13.524,6.928,20.12a33.45,33.45,0,0,1,2.7,11.408,283.467,283.467,0,0,0,155.778,0,1.591,1.591,0,0,1,0-.415,49.407,49.407,0,0,1-1-11.325h0a311.237,311.237,0,0,1,4.148-31.737,116.164,116.164,0,0,0,.788-15.6v-1.867C535.92,862.709,535.878,861.215,535.837,859.722Zm0,0a28.634,28.634,0,0,0-.291-4.979c-.29-1.659-.249-3.111-.457-4.688s-.373-3.152-.581-4.729-.5-3.153-.788-4.73-.581-3.153-.913-4.729a7.12,7.12,0,0,0-.332-1.577c-.456-2.075-.954-4.148-1.493-6.264s-.871-3.361-1.369-5.02a7.081,7.081,0,0,0-.664-2.2c-.249-.705-.705-2.406-1.079-3.609l-.747-2.323c-.332-1.037-.664-2.074-1.037-3.112-.622-1.867-1.286-3.692-1.95-5.558s-1.369-3.693-2.074-5.518c-1.411-3.734-2.945-7.426-4.48-11.118-6.015-14.355-12.778-28.5-19-42.523a235.075,235.075,0,0,1-8.878-22.526l-.789,1.12a47.909,47.909,0,0,0-3.36,5.974c0,32.649-32.69,72.6-32.69,72.6l-32.9-47.916-28.791,44.265c-4.149,2.2-8.3,9.749-11.533,20.494-.913,2.9-1.784,6.057-2.614,9.417-.581,2.24-1.12,4.6-1.618,6.969-.29,1.2-.54,2.406-.788,3.651l-.747,3.775v.581c-.5,2.572-1,5.227-1.452,7.923s-1,5.809-1.452,8.754q-.5,2.863-.871,5.725c-.581,3.692-1.078,7.426-1.576,11.118-.29,2.158-.58,4.148-.83,6.43l-1,8.3c2.116,6.8,4.48,13.524,6.928,20.12a33.45,33.45,0,0,1,2.7,11.408,283.467,283.467,0,0,0,155.778,0,1.591,1.591,0,0,1,0-.415,49.407,49.407,0,0,1-1-11.325h0a311.237,311.237,0,0,1,4.148-31.737,116.164,116.164,0,0,0,.788-15.6v-1.867C535.92,862.709,535.878,861.215,535.837,859.722Zm0,0a28.634,28.634,0,0,0-.291-4.979c-.29-1.659-.249-3.111-.457-4.688s-.373-3.152-.581-4.729-.5-3.153-.788-4.73-.581-3.153-.913-4.729a7.12,7.12,0,0,0-.332-1.577c-.456-2.075-.954-4.148-1.493-6.264s-.871-3.361-1.369-5.02a7.081,7.081,0,0,0-.664-2.2c-.249-.705-.705-2.406-1.079-3.609l-.747-2.323c-.332-1.037-.664-2.074-1.037-3.112-.622-1.867-1.286-3.692-1.95-5.558s-1.369-3.693-2.074-5.518c-1.411-3.734-2.945-7.426-4.48-11.118-6.015-14.355-12.778-28.5-19-42.523a235.075,235.075,0,0,1-8.878-22.526l-.789,1.12a47.909,47.909,0,0,0-3.36,5.974c0,32.649-32.69,72.6-32.69,72.6l-32.9-47.916-28.791,44.265c-4.149,2.2-8.3,9.749-11.533,20.494-.913,2.9-1.784,6.057-2.614,9.417-.581,2.24-1.12,4.6-1.618,6.969-.29,1.2-.54,2.406-.788,3.651l-.747,3.775v.581c-.5,2.572-1,5.227-1.452,7.923s-1,5.809-1.452,8.754q-.5,2.863-.871,5.725c-.581,3.692-1.078,7.426-1.576,11.118-.29,2.158-.58,4.148-.83,6.43l-1,8.3c2.116,6.8,4.48,13.524,6.928,20.12a33.45,33.45,0,0,1,2.7,11.408,283.467,283.467,0,0,0,155.778,0,1.591,1.591,0,0,1,0-.415,49.407,49.407,0,0,1-1-11.325h0a311.237,311.237,0,0,1,4.148-31.737,116.164,116.164,0,0,0,.788-15.6v-1.867C535.92,862.709,535.878,861.215,535.837,859.722Zm0,0a28.634,28.634,0,0,0-.291-4.979c-.29-1.659-.249-3.111-.457-4.688s-.373-3.152-.581-4.729-.5-3.153-.788-4.73-.581-3.153-.913-4.729a7.12,7.12,0,0,0-.332-1.577c-.456-2.075-.954-4.148-1.493-6.264s-.871-3.361-1.369-5.02a7.081,7.081,0,0,0-.664-2.2c-.249-.705-.705-2.406-1.079-3.609l-.747-2.323c-.332-1.037-.664-2.074-1.037-3.112-.622-1.867-1.286-3.692-1.95-5.558s-1.369-3.693-2.074-5.518c-1.411-3.734-2.945-7.426-4.48-11.118-6.015-14.355-12.778-28.5-19-42.523a235.075,235.075,0,0,1-8.878-22.526l-.789,1.12a47.909,47.909,0,0,0-3.36,5.974c0,32.649-32.69,72.6-32.69,72.6l-32.9-47.916-28.791,44.265c-4.149,2.2-8.3,9.749-11.533,20.494-.913,2.9-1.784,6.057-2.614,9.417-.581,2.24-1.12,4.6-1.618,6.969-.29,1.2-.54,2.406-.788,3.651l-.747,3.775v.581c-.5,2.572-1,5.227-1.452,7.923s-1,5.809-1.452,8.754q-.5,2.863-.871,5.725c-.581,3.692-1.078,7.426-1.576,11.118-.29,2.158-.58,4.148-.83,6.43l-1,8.3c2.116,6.8,4.48,13.524,6.928,20.12a33.45,33.45,0,0,1,2.7,11.408,283.467,283.467,0,0,0,155.778,0,1.591,1.591,0,0,1,0-.415,49.407,49.407,0,0,1-1-11.325h0a311.237,311.237,0,0,1,4.148-31.737,116.164,116.164,0,0,0,.788-15.6v-1.867C535.92,862.709,535.878,861.215,535.837,859.722Zm0,0a28.634,28.634,0,0,0-.291-4.979c-.29-1.659-.249-3.111-.457-4.688s-.373-3.152-.581-4.729-.5-3.153-.788-4.73-.581-3.153-.913-4.729a7.12,7.12,0,0,0-.332-1.577c-.456-2.075-.954-4.148-1.493-6.264s-.871-3.361-1.369-5.02a7.081,7.081,0,0,0-.664-2.2c-.249-.705-.705-2.406-1.079-3.609l-.747-2.323c-.332-1.037-.664-2.074-1.037-3.112-.622-1.867-1.286-3.692-1.95-5.558s-1.369-3.693-2.074-5.518c-1.411-3.734-2.945-7.426-4.48-11.118-6.015-14.355-12.778-28.5-19-42.523a235.075,235.075,0,0,1-8.878-22.526l-.789,1.12a47.909,47.909,0,0,0-3.36,5.974c0,32.649-32.69,72.6-32.69,72.6l-32.9-47.916-28.791,44.265c-4.149,2.2-8.3,9.749-11.533,20.494-.913,2.9-1.784,6.057-2.614,9.417-.581,2.24-1.12,4.6-1.618,6.969-.29,1.2-.54,2.406-.788,3.651l-.747,3.775v.581c-.5,2.572-1,5.227-1.452,7.923s-1,5.809-1.452,8.754q-.5,2.863-.871,5.725c-.581,3.692-1.078,7.426-1.576,11.118-.29,2.158-.58,4.148-.83,6.43l-1,8.3c2.116,6.8,4.48,13.524,6.928,20.12a33.45,33.45,0,0,1,2.7,11.408,283.467,283.467,0,0,0,155.778,0,1.591,1.591,0,0,1,0-.415,49.407,49.407,0,0,1-1-11.325h0a311.237,311.237,0,0,1,4.148-31.737,116.164,116.164,0,0,0,.788-15.6v-1.867C535.92,862.709,535.878,861.215,535.837,859.722Zm0,0a28.634,28.634,0,0,0-.291-4.979c-.29-1.659-.249-3.111-.457-4.688s-.373-3.152-.581-4.729-.5-3.153-.788-4.73-.581-3.153-.913-4.729a7.12,7.12,0,0,0-.332-1.577c-.456-2.075-.954-4.148-1.493-6.264s-.871-3.361-1.369-5.02a7.081,7.081,0,0,0-.664-2.2c-.249-.705-.705-2.406-1.079-3.609l-.747-2.323c-.332-1.037-.664-2.074-1.037-3.112-.622-1.867-1.286-3.692-1.95-5.558s-1.369-3.693-2.074-5.518c-1.411-3.734-2.945-7.426-4.48-11.118-6.015-14.355-12.778-28.5-19-42.523a235.075,235.075,0,0,1-8.878-22.526l-.789,1.12a47.909,47.909,0,0,0-3.36,5.974c0,32.649-32.69,72.6-32.69,72.6l-32.9-47.916-28.791,44.265c-4.149,2.2-8.3,9.749-11.533,20.494-.913,2.9-1.784,6.057-2.614,9.417-.581,2.24-1.12,4.6-1.618,6.969-.29,1.2-.54,2.406-.788,3.651l-.747,3.775v.581c-.5,2.572-1,5.227-1.452,7.923s-1,5.809-1.452,8.754q-.5,2.863-.871,5.725c-.581,3.692-1.078,7.426-1.576,11.118-.29,2.158-.58,4.148-.83,6.43l-1,8.3c2.116,6.8,4.48,13.524,6.928,20.12a33.45,33.45,0,0,1,2.7,11.408,283.467,283.467,0,0,0,155.778,0,1.591,1.591,0,0,1,0-.415,49.407,49.407,0,0,1-1-11.325h0a311.237,311.237,0,0,1,4.148-31.737,116.164,116.164,0,0,0,.788-15.6v-1.867C535.92,862.709,535.878,861.215,535.837,859.722Zm0,0a28.634,28.634,0,0,0-.291-4.979c-.29-1.659-.249-3.111-.457-4.688s-.373-3.152-.581-4.729-.5-3.153-.788-4.73-.581-3.153-.913-4.729a7.12,7.12,0,0,0-.332-1.577c-.456-2.075-.954-4.148-1.493-6.264s-.871-3.361-1.369-5.02a7.081,7.081,0,0,0-.664-2.2c-.249-.705-.705-2.406-1.079-3.609l-.747-2.323c-.332-1.037-.664-2.074-1.037-3.112-.622-1.867-1.286-3.692-1.95-5.558s-1.369-3.693-2.074-5.518c-1.411-3.734-2.945-7.426-4.48-11.118-6.015-14.355-12.778-28.5-19-42.523a235.075,235.075,0,0,1-8.878-22.526l-.789,1.12a47.909,47.909,0,0,0-3.36,5.974c0,32.649-32.69,72.6-32.69,72.6l-32.9-47.916-28.791,44.265c-4.149,2.2-8.3,9.749-11.533,20.494-.913,2.9-1.784,6.057-2.614,9.417-.581,2.24-1.12,4.6-1.618,6.969-.29,1.2-.54,2.406-.788,3.651l-.747,3.775v.581c-.5,2.572-1,5.227-1.452,7.923s-1,5.809-1.452,8.754q-.5,2.863-.871,5.725c-.581,3.692-1.078,7.426-1.576,11.118-.29,2.158-.58,4.148-.83,6.43l-1,8.3c2.116,6.8,4.48,13.524,6.928,20.12a33.45,33.45,0,0,1,2.7,11.408,283.467,283.467,0,0,0,155.778,0,1.591,1.591,0,0,1,0-.415,49.407,49.407,0,0,1-1-11.325h0a311.237,311.237,0,0,1,4.148-31.737,116.164,116.164,0,0,0,.788-15.6v-1.867C535.92,862.709,535.878,861.215,535.837,859.722Zm0,0a28.634,28.634,0,0,0-.291-4.979c-.29-1.659-.249-3.111-.457-4.688s-.373-3.152-.581-4.729-.5-3.153-.788-4.73-.581-3.153-.913-4.729a7.12,7.12,0,0,0-.332-1.577c-.456-2.075-.954-4.148-1.493-6.264s-.871-3.361-1.369-5.02a7.081,7.081,0,0,0-.664-2.2c-.249-.705-.705-2.406-1.079-3.609l-.747-2.323c-.332-1.037-.664-2.074-1.037-3.112-.622-1.867-1.286-3.692-1.95-5.558s-1.369-3.693-2.074-5.518c-1.411-3.734-2.945-7.426-4.48-11.118-6.015-14.355-12.778-28.5-19-42.523a235.075,235.075,0,0,1-8.878-22.526l-.789,1.12a47.909,47.909,0,0,0-3.36,5.974c0,32.649-32.69,72.6-32.69,72.6l-32.9-47.916-28.791,44.265c-4.149,2.2-8.3,9.749-11.533,20.494-.913,2.9-1.784,6.057-2.614,9.417-.581,2.24-1.12,4.6-1.618,6.969-.29,1.2-.54,2.406-.788,3.651l-.747,3.775v.581c-.5,2.572-1,5.227-1.452,7.923s-1,5.809-1.452,8.754q-.5,2.863-.871,5.725c-.581,3.692-1.078,7.426-1.576,11.118-.29,2.158-.58,4.148-.83,6.43l-1,8.3c2.116,6.8,4.48,13.524,6.928,20.12a33.45,33.45,0,0,1,2.7,11.408,283.467,283.467,0,0,0,155.778,0,1.591,1.591,0,0,1,0-.415,49.407,49.407,0,0,1-1-11.325h0a311.237,311.237,0,0,1,4.148-31.737,116.164,116.164,0,0,0,.788-15.6v-1.867C535.92,862.709,535.878,861.215,535.837,859.722Z" transform="translate(84.251 217.968)" fill="#bd171b"/>
            <path id="Path_404" data-name="Path 404" d="M482.638,752.715l-2.78-.374a101.086,101.086,0,0,1-12.446-2.489l-1.535-.415c-10.123-2.863-21.2-8.007-23.688-17.05a16.145,16.145,0,0,1,.249-8.837,75.769,75.769,0,0,1,5.642-14.271v-.249a19.7,19.7,0,0,1,1.037-1.867,41.484,41.484,0,0,1,14.976-16.3l-4.979.788-42.149,6.845-65.34,10.537s-11.616-2.324-27.422,41.236a6.713,6.713,0,0,1-.539,1.618c-3.817,10.661-7.841,23.979-11.989,40.614-2.862,11.533-5.476,22.858-7.882,33.852-.705,3.319-1.411,6.6-2.074,9.832a263.714,263.714,0,0,0,24.1,24.891l1.369,1.286a283.165,283.165,0,0,0,55.259,39.121l.788.415a273.482,273.482,0,0,0,39,17.258l3.526,1.245c.747-7.675,1.576-16.18,2.572-24.891a7.091,7.091,0,0,1,.332-2.614l1-8.3c.249-2.116.54-4.148.83-6.43.5-3.693,1-7.426,1.576-11.118q.374-2.863.871-5.725c.456-2.945.954-5.892,1.452-8.753s.954-5.352,1.452-7.924v-.581l.747-3.775c.249-1.245.5-2.448.788-3.651.5-2.365,1.037-4.729,1.618-6.97.83-3.36,1.7-6.512,2.614-9.417,3.319-10.746,7.177-18.3,11.533-20.494l28.791-44.265,1.2-1.867.539-.83Z" transform="translate(22.162 218.772)" opacity="0.1"/>
            <path id="Path_405" data-name="Path 405" d="M482.394,752.734,451.82,799.7c-4.149,2.116-8.048,9.459-11.326,19.871-.954,3.07-1.908,6.431-2.821,9.957a496.047,496.047,0,0,0-9.376,54.3,6.457,6.457,0,0,1-.332,2.49c-1.41,11.532-2.572,22.858-3.526,32.856a273.576,273.576,0,0,1-39-17.258l-.788-.415a283.138,283.138,0,0,1-55.259-39.12l-1.369-1.287a263.618,263.618,0,0,1-24.1-24.891c-1-1.12-1.95-2.282-2.9-3.443.456-2.158.913-4.149,1.411-6.472,2.365-10.995,4.978-22.278,7.841-33.77a408.774,408.774,0,0,1,14.105-46.463,12.673,12.673,0,0,1,.539-1.328c14.686-37.794,25.265-35.677,25.265-35.677l68.99-11.119,43.56-7.052-1.369.788a44.194,44.194,0,0,0-11.989,12.777l-1.2,2.033c-.5.788-.954,1.659-1.452,2.53a73.516,73.516,0,0,0-5.725,14.52,15.266,15.266,0,0,0,1,11.865c4.148,8.049,15.931,12.446,25.6,14.852l1.618.414A104.125,104.125,0,0,0,482.394,752.734Z" transform="translate(19.958 218.835)" fill="#fff"/>
            <path id="Path_406" data-name="Path 406" d="M500.2,844.606l-1.7-36.839c7.26-58.08-7.26-61.689-7.26-61.689l-17.258-8.3h-.456l-69.4-33.645-2.7-1.328-.829-.373h0l-9.044-4.4h0l-5.725-2.779-10.7-5.186-3.609-1.742v14.395c0,4.149.373,9,.706,14.645.746,14.188,2.115,33.189,4.563,55.59,1.369,12.985,3.112,27.173,5.269,42.4,1.286,9,2.2,17.964,2.779,26.717a470.177,470.177,0,0,1-2.738,88.364l3.775-1.2A278.11,278.11,0,0,0,415.9,917.2h0a275.767,275.767,0,0,0,53.516-32.857l.746-.539a276.867,276.867,0,0,0,30.118-27.339Z" transform="translate(241.899 210.807)" opacity="0.1"/>
            <path id="Path_407" data-name="Path 407" d="M501.141,844.763l-1.7-36.922c7.26-58.079-7.26-61.689-7.26-61.689l-20.743-10.039h-.415L401.41,702.343l-3.194-1.535-.622-.29-5.1-2.489-6.762-3.278L372.37,688.28v5.89h0v7.3c0,4.149.373,9.584.747,15.765.705,13.234,1.95,30.575,4.148,51.193,1.494,14.147,3.36,29.87,5.808,46.8q1.908,13.565,2.738,26.841a469.557,469.557,0,0,1-2.572,87.119A280.919,280.919,0,0,0,466.79,884.3l.747-.54a276.822,276.822,0,0,0,30.119-27.339q1.825-1.825,3.485-3.733Z" transform="translate(244.606 210.649)" fill="#fff"/>
            <path id="Path_408" data-name="Path 408" d="M401.706,709.9c12.943-2.2,25.97-6.928,38.83-4.148,10.786,2.24,19.788,9.417,29.662,14.4a76.791,76.791,0,0,0,30.616,8.09,18.005,18.005,0,0,0,11.243-2.2c5.144-3.568,5.891-10.869,5.02-17.092-2.489-17.673-13.524-32.856-24.891-46.629a91.281,91.281,0,0,0-15.6-15.806c-14.893-10.994-34.6-12.86-53.06-12.031-21.075.954-42.481,5.02-60.776,15.6-12.446,7.135-40.988,29.621-31.073,45.883C342.092,712.972,385.4,712.681,401.706,709.9Z" transform="translate(110.022 40.717)" opacity="0.1"/>
            <path id="Path_409" data-name="Path 409" d="M401.706,708.9c12.943-2.2,25.97-6.928,38.83-4.148,10.786,2.24,19.788,9.417,29.662,14.4a76.784,76.784,0,0,0,30.616,8.089,18,18,0,0,0,11.242-2.2c5.144-3.568,5.891-10.869,5.02-17.091-2.489-17.673-13.524-32.856-24.891-46.63a91.278,91.278,0,0,0-15.6-15.806c-14.893-10.994-34.6-12.861-53.06-12.031-21.075.954-42.481,5.02-60.776,15.6-12.446,7.135-40.988,29.621-31.073,45.883C342.092,711.972,385.4,711.681,401.706,708.9Z" transform="translate(110.022 37.569)" fill="#444176"/>
          </g>
          <g id="Group_144" data-name="Group 144" transform="translate(2177.071 2079.498) rotate(-2)">
            <path id="Path_353" data-name="Path 353" d="M1123.811,349.408A306.635,306.635,0,0,0,684.9,346.1c-116.06,117-118.024,307.5-4.509,426.883a306.635,306.635,0,0,0,393.254,43.47l221.659,230.477a14.911,14.911,0,0,0,21.1.421l55.214-53.09a14.91,14.91,0,0,0,.421-21.1L1150.386,742.681A306.634,306.634,0,0,0,1123.811,349.408Zm-69.043,370.607c-87.292,83.969-226.127,81.277-310.1-6.015s-81.278-226.126,6.012-310.1,226.125-81.28,310.1,6.01,81.282,226.13-6.012,310.1Z" transform="translate(570.71 62.397)" fill="url(#linear-gradient-15)"/>
            <path id="Path_354" data-name="Path 354" d="M677.568,377.85c-24.671,0-24.711,38.319,0,38.319S702.26,377.85,677.568,377.85Z" transform="translate(633.479 185.488)" fill="url(#linear-gradient-16)"/>
            <path id="Path_355" data-name="Path 355" d="M834.793,316.615c-66.378-1.5-126.8,31.806-158.909,82.17-10.481,16.394,19.28,30.884,29.7,14.57,26.595-41.626,77.14-68.141,131.752-66.678,57.279,1.443,109.407,34.211,137,79.685,10.482,17.256,37.9,1.563,27.5-15.592C968.349,355.515,903.375,318.158,834.793,316.615Z" transform="translate(648.17 123.949)" fill="url(#linear-gradient-17)"/>
            <path id="Path_356" data-name="Path 356" d="M1135.811,343.588A306.634,306.634,0,0,0,696.9,340.281c-116.06,117-118.024,307.5-4.51,426.883a306.635,306.635,0,0,0,393.254,43.47l212.274,220.719,9.384,9.758a14.91,14.91,0,0,0,21.1.421l24.658-23.91,30.576-29.2a14.91,14.91,0,0,0,.421-21.1L1162.406,736.841A306.635,306.635,0,0,0,1135.811,343.588Zm-69.043,370.606c-87.292,83.97-226.127,81.277-310.1-6.015s-81.278-226.126,6.012-310.1,226.126-81.28,310.1,6.01,81.281,226.13-6.012,310.1Z" transform="translate(582.76 56.553)" fill="#2f2e41"/>
            <path id="Path_357" data-name="Path 357" d="M689.568,372c-24.671,0-24.711,38.319,0,38.319S714.259,372,689.568,372Z" transform="translate(645.529 179.613)" fill="#2f2e41"/>
            <path id="Path_358" data-name="Path 358" d="M846.792,310.795c-66.377-1.5-126.8,31.806-158.909,82.17-10.481,16.394,19.28,30.884,29.7,14.57,26.6-41.626,77.14-68.141,131.753-66.678,57.278,1.443,109.406,34.211,137,79.685,10.482,17.256,37.9,1.563,27.5-15.592C980.349,349.735,915.374,312.358,846.792,310.795Z" transform="translate(660.22 118.105)" fill="#2f2e41"/>
          </g>
        </g>
      </g>
    </g>
  </g>
</svg>
