<svg xmlns="http://www.w3.org/2000/svg" xmlns:xlink="http://www.w3.org/1999/xlink" width="689.651" height="477.409" viewBox="0 0 689.651 477.409">
  <defs>
    <linearGradient id="linear-gradient" x1="0.5" y1="1" x2="0.5" gradientUnits="objectBoundingBox">
      <stop offset="0" stop-color="#b3b3b3" stop-opacity="0.251"/>
      <stop offset="0.54" stop-color="#b3b3b3" stop-opacity="0.102"/>
      <stop offset="1" stop-color="#b3b3b3" stop-opacity="0.051"/>
    </linearGradient>
    <linearGradient id="linear-gradient-2" x1="0.5" y1="1.001" x2="0.5" gradientUnits="objectBoundingBox">
      <stop offset="0" stop-opacity="0.122"/>
      <stop offset="0.55" stop-opacity="0.09"/>
      <stop offset="1" stop-opacity="0.02"/>
    </linearGradient>
    <linearGradient id="linear-gradient-3" x1="0.5" y1="0.999" x2="0.5" y2="0" xlink:href="#linear-gradient-2"/>
  </defs>
  <g id="Group_118" data-name="Group 118" transform="translate(-290.452 -449.572)">
    <g id="Group_117" data-name="Group 117" transform="translate(290.452 479.499)">
      <path id="Path_543" data-name="Path 543" d="M709.465,335.732a222.975,222.975,0,0,1-18.018,88.1l-.741,1.708a224.1,224.1,0,0,1-243.8,130.566q-2.016-.357-4.025-.741a221.734,221.734,0,0,1-40.47-11.935q-3.187-1.281-6.328-2.654c-1.43-.622-2.86-1.264-4.276-1.926A224.006,224.006,0,0,1,262,335.732C262,212.17,362.17,112,485.733,112S709.465,212.17,709.465,335.732Z" transform="translate(-262 -112)" fill="#f8e7e7"/>
      <path id="Union_1" data-name="Union 1" d="M111.222,370.009q-2.017-.358-4.025-.742a221.785,221.785,0,0,1-40.471-11.934q-3.187-1.282-6.328-2.655c-1.429-.622-2.86-1.265-4.276-1.927A223.489,223.489,0,0,1,19.55,331.385s-10.3-7.458-19.5-15.816L0,315.576s29.231-60.562,77.974-62.283,69.82-44.43,34.275-65.377-50.777-20.311-50.777-91.4S98.286.671,133.2.036s76.168,6.348,83.15,79.976S178.9,148.563,210,198.073c17.79,28.318,43.889,27.771,66.77,27.221,17.12-.411,32.441-.821,41.134,10.861l20.008,35.026-.015,0C305.512,323.27,234.323,373.316,149.121,373.317A219.57,219.57,0,0,1,111.222,370.009Z" transform="translate(73.689 74.1)" fill="#eec3c4"/>
    </g>
    <g id="Group_100" data-name="Group 100" transform="translate(644.063 445.712) rotate(21)">
      <path id="Path_353" data-name="Path 353" d="M236.132,42.159a137.323,137.323,0,0,0-196.56-1.481c-51.976,52.4-52.856,137.709-2.019,191.175a137.323,137.323,0,0,0,176.114,19.467l99.267,103.216a6.677,6.677,0,0,0,9.451.188l24.727-23.776a6.677,6.677,0,0,0,.188-9.451L248.033,218.282A137.323,137.323,0,0,0,236.132,42.159Zm-30.92,165.972A98.217,98.217,0,1,1,207.9,69.256a98.217,98.217,0,0,1-2.693,138.875Z" transform="translate(0 5.224)" fill="url(#linear-gradient)"/>
      <path id="Path_354" data-name="Path 354" d="M8.293,0c-11.049,0-11.067,17.161,0,17.161S19.351,0,8.293,0Z" transform="translate(56.105 115.246)" fill="url(#linear-gradient-2)"/>
      <path id="Path_355" data-name="Path 355" d="M72.152.022C42.426-.651,15.365,14.266.987,36.821c-4.694,7.342,8.634,13.831,13.3,6.525C26.2,24.7,48.834,12.83,73.292,13.485c25.652.646,49,15.321,61.355,35.686,4.694,7.728,16.972.7,12.314-6.983C131.964,17.443,102.866.713,72.152.022Z" transform="translate(69.236 60.241)" fill="url(#linear-gradient-3)"/>
      <path id="Path_356" data-name="Path 356" d="M236.132,42.16a137.322,137.322,0,0,0-196.56-1.481c-51.976,52.4-52.856,137.708-2.02,191.175a137.323,137.323,0,0,0,176.114,19.468l95.065,98.846,4.2,4.37a6.678,6.678,0,0,0,9.451.189l11.043-10.708,13.693-13.077a6.677,6.677,0,0,0,.189-9.451L248.042,218.273A137.322,137.322,0,0,0,236.132,42.16Zm-30.92,165.972A98.217,98.217,0,1,1,207.9,69.256a98.217,98.217,0,0,1-2.693,138.875Z" transform="translate(10.77 0)" fill="#2f2e41"/>
      <path id="Path_357" data-name="Path 357" d="M8.293,0c-11.049,0-11.066,17.161,0,17.161S19.351,0,8.293,0Z" transform="translate(66.875 109.995)" fill="#2f2e41"/>
      <path id="Path_358" data-name="Path 358" d="M72.152.022C42.426-.651,15.365,14.266.987,36.821c-4.694,7.342,8.634,13.831,13.3,6.525C26.2,24.7,48.834,12.83,73.292,13.485c25.651.646,49,15.321,61.355,35.686,4.694,7.728,16.973.7,12.314-6.983C131.964,17.461,102.866.722,72.152.022Z" transform="translate(80.007 55.017)" fill="#2f2e41"/>
    </g>
  </g>
</svg>
