<svg xmlns="http://www.w3.org/2000/svg" xmlns:xlink="http://www.w3.org/1999/xlink" width="2395.72" height="1040.502" viewBox="0 0 2395.72 1040.502">
  <defs>
    <linearGradient id="linear-gradient" x1="0.5" y1="1" x2="0.5" gradientUnits="objectBoundingBox">
      <stop offset="0" stop-color="gray" stop-opacity="0.251"/>
      <stop offset="0.54" stop-color="gray" stop-opacity="0.122"/>
      <stop offset="1" stop-color="gray" stop-opacity="0.102"/>
    </linearGradient>
    <linearGradient id="linear-gradient-2" x1="0" y1="0.5" x2="1" y2="0.5" xlink:href="#linear-gradient"/>
    <linearGradient id="linear-gradient-3" x1="-25.357" y1="1.001" x2="-25.357" y2="0" xlink:href="#linear-gradient"/>
    <linearGradient id="linear-gradient-4" x1="0.5" y1="1" x2="0.5" gradientUnits="objectBoundingBox">
      <stop offset="0" stop-color="#b3b3b3" stop-opacity="0.251"/>
      <stop offset="0.54" stop-color="#b3b3b3" stop-opacity="0.102"/>
      <stop offset="1" stop-color="#b3b3b3" stop-opacity="0.051"/>
    </linearGradient>
    <linearGradient id="linear-gradient-5" x1="0.5" y1="1.001" x2="0.5" gradientUnits="objectBoundingBox">
      <stop offset="0" stop-opacity="0.122"/>
      <stop offset="0.55" stop-opacity="0.09"/>
      <stop offset="1" stop-opacity="0.02"/>
    </linearGradient>
    <linearGradient id="linear-gradient-6" x1="0.5" y1="0.999" x2="0.5" y2="0" xlink:href="#linear-gradient-5"/>
    <linearGradient id="linear-gradient-7" x1="0.5" y1="1" x2="0.5" y2="0" xlink:href="#linear-gradient"/>
  </defs>
  <g id="Group_116" data-name="Group 116" transform="translate(-229.28 -981)">
    <g id="Group_104" data-name="Group 104">
      <path id="Path_449" data-name="Path 449" d="M-1010-5037v1039H-3135.125s113.058-342.576,396.823-335.862,683.719,228.311,576.469-219.357S-1837.849-5037-1837.849-5037Z" transform="translate(3635 6018)" fill="#f8e7e7"/>
      <path id="Path_525" data-name="Path 525" d="M-1691.762-5025.245S-1931.865-4680.9-1562-4387.452" transform="translate(3635 6018)" fill="none" stroke="#bd171b" stroke-width="10" stroke-dasharray="30" opacity="0.4"/>
      <path id="Path_524" data-name="Path 524" d="M-3240.032-3998s99.433-315.725,482.654-333.391,428.917,225.828,428.917,225.828" transform="translate(3525.675 6018)" fill="none" stroke="#bd171b" stroke-width="10" stroke-dasharray="30" opacity="0.4"/>
      <g id="Group_103" data-name="Group 103" transform="translate(70 2)">
        <path id="Path_526" data-name="Path 526" d="M706.7,583.416A209.622,209.622,0,0,1,656,720.469c-1.611,1.889-3.283,3.747-4.987,5.575q-1.27,1.425-2.6,2.787a206.647,206.647,0,0,1-22.486,20.411l-.558.4a205.828,205.828,0,0,1-39.954,24.53h0a207.574,207.574,0,0,1-22.424,8.982l-2.818.9c-1.734.588-3.531,1.115-5.3,1.611l-.712.217a211.635,211.635,0,0,1-116.3,0h-.31c-3.1-.9-6.195-1.828-9.044-2.85l-2.633-.929a204.2,204.2,0,0,1-29.114-12.885l-.589-.31A211.421,211.421,0,0,1,354.92,739.7l-1.022-.96A196.84,196.84,0,0,1,335.9,720.159c-.743-.836-1.456-1.7-2.168-2.571-1.363-1.61-2.664-3.283-3.965-4.956A210.612,210.612,0,1,1,706.7,583.416Z" transform="translate(-126.2 665.624)" fill="#f8f8f8"/>
        <path id="Path_385" data-name="Path 385" d="M706.7,583.416A209.622,209.622,0,0,1,656,720.469c-1.611,1.889-3.283,3.747-4.987,5.575q-1.27,1.425-2.6,2.787a206.647,206.647,0,0,1-22.486,20.411l-.558.4a205.828,205.828,0,0,1-39.954,24.53h0a207.574,207.574,0,0,1-22.424,8.982l-2.818.9c-1.734.588-3.531,1.115-5.3,1.611l-.712.217a211.635,211.635,0,0,1-116.3,0h-.31c-3.1-.9-6.195-1.828-9.044-2.85l-2.633-.929a204.2,204.2,0,0,1-29.114-12.885l-.589-.31A211.421,211.421,0,0,1,354.92,739.7l-1.022-.96A196.84,196.84,0,0,1,335.9,720.159c-.743-.836-1.456-1.7-2.168-2.571-1.363-1.61-2.664-3.283-3.965-4.956A210.612,210.612,0,1,1,706.7,583.416Z" transform="translate(-111.52 653.202)" fill="#de8b8d"/>
        <path id="Path_386" data-name="Path 386" d="M619.074,623.05l-15.982-7.185a63.373,63.373,0,0,0,.31-7.309,57.509,57.509,0,0,0,0-6.195c-1.58-16.291-11.955-30.476-19.3-45.374A128.872,128.872,0,0,1,571.5,513.625c-1.951-18.583,0-37.848-6.814-55.317-5.544-14.092-16.508-25.862-28.247-36.269a143.371,143.371,0,0,0-45.374-28.773c-17.159-6.194-36.888-7.774-54.047-1.456-15.486,5.7-27.41,17.066-38.932,28.123a130.864,130.864,0,0,0-21.99,25.026c-7.031,11.522-10.035,24.778-12.389,37.848a579,579,0,0,0-7.619,63.245c-1.208,17.685-3.1,37.755-18.212,48.6-7.371,5.3-17.747,8.27-21.123,16.292a16.661,16.661,0,0,0-1.115,7.588,27.869,27.869,0,0,0,.465,6.411c.217,1.239.465,2.447.774,3.686a271.735,271.735,0,0,0-10.9,33.078c-2.261,8.362-4.336,16.57-6.195,24.53h7.681l28.866.681h.4l30.972.712h.155l28.866.681h.712l8.332.588h2.726l115.434,2.664h.62l7.681.186h2.695l23.105.527h0l34.07.774h.248l25.645.62h7.991l-1.363-26.884C630.255,625.621,619.074,623.05,619.074,623.05Zm-129.681-3.283c0,22.8-24.406,50.7-24.406,50.7l-24.561-33.45.9-1.3,23.663,32.211s24.406-27.875,24.406-50.7a26.814,26.814,0,0,1,1.951-3.345l.558,1.734A32.884,32.884,0,0,0,489.393,619.767Zm37.538,89.448a18.656,18.656,0,0,0-.217-3.469c-.217-1.146-.186-2.168-.341-3.283s-.279-2.2-.434-3.314-.372-2.2-.588-3.314-.434-2.2-.681-3.314a5.183,5.183,0,0,0-.248-1.115q-.511-2.183-1.115-4.367c-.4-1.456-.65-2.354-1.022-3.5a4.761,4.761,0,0,0-.5-1.549c-.186-.5-.527-1.672-.805-2.509l-.557-1.611c-.248-.712-.5-1.456-.774-2.168-.465-1.3-.96-2.571-1.456-3.872s-1.022-2.571-1.548-3.84c-1.053-2.6-2.2-5.173-3.345-7.774-4.491-10.035-9.539-19.915-14.185-29.7a157.926,157.926,0,0,1-6.628-15.734l-.589.774a32.894,32.894,0,0,0-2.509,4.181c0,22.8-24.406,50.7-24.406,50.7l-24.561-33.45L418.931,667.96c-3.1,1.549-6.194,6.814-8.61,14.309-.681,2.013-1.332,4.243-1.951,6.566-.434,1.58-.836,3.1-1.208,4.863-.217.836-.4,1.673-.588,2.54l-.557,2.633v.4c-.372,1.8-.743,3.655-1.084,5.544s-.743,4.057-1.084,6.195q-.372,2.013-.65,4c-.434,2.571-.805,5.172-1.177,7.774-.217,1.518-.434,3.1-.619,4.491l-.743,5.761c1.58,4.739,3.345,9.292,5.172,14.062a22.116,22.116,0,0,1,2.013,7.96,225.729,225.729,0,0,0,116.3,0,1.04,1.04,0,0,1,0-.279,32.334,32.334,0,0,1-.743-7.9h0a204.085,204.085,0,0,1,3.1-22.176,75.813,75.813,0,0,0,.589-10.9v-1.3c-.093-1.177-.124-2.23-.155-3.252Zm0,0a18.656,18.656,0,0,0-.217-3.469c-.217-1.146-.186-2.168-.341-3.283s-.279-2.2-.434-3.314-.372-2.2-.588-3.314-.434-2.2-.681-3.314a5.183,5.183,0,0,0-.248-1.115q-.511-2.183-1.115-4.367c-.4-1.456-.65-2.354-1.022-3.5a4.761,4.761,0,0,0-.5-1.549c-.186-.5-.527-1.672-.805-2.509l-.557-1.611c-.248-.712-.5-1.456-.774-2.168-.465-1.3-.96-2.571-1.456-3.872s-1.022-2.571-1.548-3.84c-1.053-2.6-2.2-5.173-3.345-7.774-4.491-10.035-9.539-19.915-14.185-29.7a157.926,157.926,0,0,1-6.628-15.734l-.589.774a32.894,32.894,0,0,0-2.509,4.181c0,22.8-24.406,50.7-24.406,50.7l-24.561-33.45L418.931,667.96c-3.1,1.549-6.194,6.814-8.61,14.309-.681,2.013-1.332,4.243-1.951,6.566-.434,1.58-.836,3.1-1.208,4.863-.217.836-.4,1.673-.588,2.54l-.557,2.633v.4c-.372,1.8-.743,3.655-1.084,5.544s-.743,4.057-1.084,6.195q-.372,2.013-.65,4c-.434,2.571-.805,5.172-1.177,7.774-.217,1.518-.434,3.1-.619,4.491l-.743,5.761c1.58,4.739,3.345,9.292,5.172,14.062a22.116,22.116,0,0,1,2.013,7.96,225.729,225.729,0,0,0,116.3,0,1.04,1.04,0,0,1,0-.279,32.334,32.334,0,0,1-.743-7.9h0a204.085,204.085,0,0,1,3.1-22.176,75.813,75.813,0,0,0,.589-10.9v-1.3c-.093-1.177-.124-2.23-.155-3.252Zm0,0a18.656,18.656,0,0,0-.217-3.469c-.217-1.146-.186-2.168-.341-3.283s-.279-2.2-.434-3.314-.372-2.2-.588-3.314-.434-2.2-.681-3.314a5.183,5.183,0,0,0-.248-1.115q-.511-2.183-1.115-4.367c-.4-1.456-.65-2.354-1.022-3.5a4.761,4.761,0,0,0-.5-1.549c-.186-.5-.527-1.672-.805-2.509l-.557-1.611c-.248-.712-.5-1.456-.774-2.168-.465-1.3-.96-2.571-1.456-3.872s-1.022-2.571-1.548-3.84c-1.053-2.6-2.2-5.173-3.345-7.774-4.491-10.035-9.539-19.915-14.185-29.7a157.926,157.926,0,0,1-6.628-15.734l-.589.774a32.894,32.894,0,0,0-2.509,4.181c0,22.8-24.406,50.7-24.406,50.7l-24.561-33.45L418.931,667.96c-3.1,1.549-6.194,6.814-8.61,14.309-.681,2.013-1.332,4.243-1.951,6.566-.434,1.58-.836,3.1-1.208,4.863-.217.836-.4,1.673-.588,2.54l-.557,2.633v.4c-.372,1.8-.743,3.655-1.084,5.544s-.743,4.057-1.084,6.195q-.372,2.013-.65,4c-.434,2.571-.805,5.172-1.177,7.774-.217,1.518-.434,3.1-.619,4.491l-.743,5.761c1.58,4.739,3.345,9.292,5.172,14.062a22.116,22.116,0,0,1,2.013,7.96,225.729,225.729,0,0,0,116.3,0,1.04,1.04,0,0,1,0-.279,32.334,32.334,0,0,1-.743-7.9h0a204.085,204.085,0,0,1,3.1-22.176,75.813,75.813,0,0,0,.589-10.9v-1.3c-.093-1.177-.124-2.23-.155-3.252Zm0,0a18.656,18.656,0,0,0-.217-3.469c-.217-1.146-.186-2.168-.341-3.283s-.279-2.2-.434-3.314-.372-2.2-.588-3.314-.434-2.2-.681-3.314a5.183,5.183,0,0,0-.248-1.115q-.511-2.183-1.115-4.367c-.4-1.456-.65-2.354-1.022-3.5a4.761,4.761,0,0,0-.5-1.549c-.186-.5-.527-1.672-.805-2.509l-.557-1.611c-.248-.712-.5-1.456-.774-2.168-.465-1.3-.96-2.571-1.456-3.872s-1.022-2.571-1.548-3.84c-1.053-2.6-2.2-5.173-3.345-7.774-4.491-10.035-9.539-19.915-14.185-29.7a157.926,157.926,0,0,1-6.628-15.734l-.589.774a32.894,32.894,0,0,0-2.509,4.181c0,22.8-24.406,50.7-24.406,50.7l-24.561-33.45L418.931,667.96c-3.1,1.549-6.194,6.814-8.61,14.309-.681,2.013-1.332,4.243-1.951,6.566-.434,1.58-.836,3.1-1.208,4.863-.217.836-.4,1.673-.588,2.54l-.557,2.633v.4c-.372,1.8-.743,3.655-1.084,5.544s-.743,4.057-1.084,6.195q-.372,2.013-.65,4c-.434,2.571-.805,5.172-1.177,7.774-.217,1.518-.434,3.1-.619,4.491l-.743,5.761c1.58,4.739,3.345,9.292,5.172,14.062a22.116,22.116,0,0,1,2.013,7.96,225.729,225.729,0,0,0,116.3,0,1.04,1.04,0,0,1,0-.279,32.334,32.334,0,0,1-.743-7.9h0a204.085,204.085,0,0,1,3.1-22.176,75.813,75.813,0,0,0,.589-10.9v-1.3c-.093-1.177-.124-2.23-.155-3.252Z" transform="translate(-81.529 684.618)" fill="url(#linear-gradient)"/>
        <rect id="Rectangle_113" data-name="Rectangle 113" width="142.473" height="96.014" transform="translate(304.044 1177.802)" fill="#2f2e41"/>
        <path id="Path_387" data-name="Path 387" d="M494.655,516.526l-59.622,84-62.316-5.42s-81.3,5.389-27.1-56.9c26.048-29.95,34.565-54.914,36.392-72.723,1.982-19.265-3.872-30.229-3.872-30.229l67.737-8.115a50.546,50.546,0,0,0-1.115,28.278C453.245,490.6,494.655,516.526,494.655,516.526Z" transform="translate(-24.475 767.17)" fill="#fdc2cc"/>
        <path id="Path_388" data-name="Path 388" d="M410.111,455.367a67.705,67.705,0,0,1-62.75,10.1c1.982-19.265-3.871-30.229-3.871-30.229l67.737-8.115a50.545,50.545,0,0,0-1.115,28.247Z" transform="translate(10.141 767.128)" opacity="0.1"/>
        <circle id="Ellipse_30" data-name="Ellipse 30" cx="67.736" cy="67.736" r="67.736" transform="translate(311.663 1098.048)" fill="#fdc2cc"/>
        <path id="Path_389" data-name="Path 389" d="M504.266,474.741l-1.58-6.194-1.363-5.451-2.013-8.053-.372-1.487-.31-1.239s1.611-4.863-9.013-3.283l-1.982.341c-1.672.34-3.624.805-5.854,1.425l-2.013.62-2.664.836h0a58.074,58.074,0,0,0-22.486,13.566,50.625,50.625,0,0,0-7.526,9.106c-.217.31-.372.589-.558.836a29.243,29.243,0,0,0-1.951,3.593c0,24.406-24.406,54.2-24.406,54.2l-23.818-34.41-.465-.681-5.668-8.239-2.013-2.663-.681-.929L375.143,470l-3.1-4.15-1.022-1.394-1.518-2.013-3.562-4.739-13.937,8.146-18.583,10.84-10.84,70.462v1.951l.341,5.823,2.261,38.282v.526l-3.964,15.858.589.31a204.237,204.237,0,0,0,29.114,12.884l2.633.929c3.1,1.022,6.009,1.951,9.044,2.849a11.013,11.013,0,0,1,.248,1.394c0-.434,0-.9,0-1.332a211.637,211.637,0,0,0,116.3,0l.712-.217c1.765-.5,3.562-1.022,5.3-1.61l2.818-.9a207.475,207.475,0,0,0,22.424-8.982l2.6-55.441,1.858-39.985V517.2Z" transform="translate(-36.564 812.424)" opacity="0.1"/>
        <path id="Path_390" data-name="Path 390" d="M481.5,575.865a21.4,21.4,0,0,0-.217-3.717c-.217-1.239-.186-2.323-.341-3.5s-.279-2.354-.434-3.531-.372-2.354-.589-3.531-.434-2.354-.681-3.531a5.314,5.314,0,0,0-.248-1.177c-.341-1.549-.712-3.1-1.115-4.677s-.65-2.509-1.022-3.748a5.284,5.284,0,0,0-.5-1.642c-.186-.527-.527-1.8-.805-2.695L475,542.384c-.248-.774-.5-1.549-.774-2.323-.465-1.394-.96-2.757-1.456-4.15s-1.022-2.757-1.549-4.119c-1.053-2.788-2.2-5.544-3.345-8.3-4.491-10.716-9.539-21.278-14.185-31.747a175.543,175.543,0,0,1-6.628-16.818l-.589.836a35.787,35.787,0,0,0-2.509,4.46c0,24.375-24.406,54.2-24.406,54.2L395,498.651,373.5,531.7c-3.1,1.642-6.194,7.279-8.61,15.3-.681,2.168-1.332,4.522-1.951,7.031-.434,1.673-.836,3.438-1.208,5.2-.217.9-.4,1.8-.589,2.725l-.557,2.819v.434c-.372,1.92-.743,3.9-1.084,5.916s-.743,4.336-1.084,6.535q-.372,2.137-.65,4.274c-.434,2.756-.805,5.544-1.177,8.3-.217,1.611-.434,3.1-.619,4.8l-.743,6.195c1.58,5.079,3.345,10.1,5.172,15.022a24.964,24.964,0,0,1,2.013,8.518,211.635,211.635,0,0,0,116.3,0,1.181,1.181,0,0,1,0-.31,36.883,36.883,0,0,1-.743-8.455h0a232.327,232.327,0,0,1,3.1-23.694,86.7,86.7,0,0,0,.589-11.646v-1.394C481.567,578.095,481.536,576.98,481.5,575.865Zm0,0a21.4,21.4,0,0,0-.217-3.717c-.217-1.239-.186-2.323-.341-3.5s-.279-2.354-.434-3.531-.372-2.354-.589-3.531-.434-2.354-.681-3.531a5.314,5.314,0,0,0-.248-1.177c-.341-1.549-.712-3.1-1.115-4.677s-.65-2.509-1.022-3.748a5.284,5.284,0,0,0-.5-1.642c-.186-.527-.527-1.8-.805-2.695L475,542.384c-.248-.774-.5-1.549-.774-2.323-.465-1.394-.96-2.757-1.456-4.15s-1.022-2.757-1.549-4.119c-1.053-2.788-2.2-5.544-3.345-8.3-4.491-10.716-9.539-21.278-14.185-31.747a175.543,175.543,0,0,1-6.628-16.818l-.589.836a35.787,35.787,0,0,0-2.509,4.46c0,24.375-24.406,54.2-24.406,54.2L395,498.651,373.5,531.7c-3.1,1.642-6.194,7.279-8.61,15.3-.681,2.168-1.332,4.522-1.951,7.031-.434,1.673-.836,3.438-1.208,5.2-.217.9-.4,1.8-.589,2.725l-.557,2.819v.434c-.372,1.92-.743,3.9-1.084,5.916s-.743,4.336-1.084,6.535q-.372,2.137-.65,4.274c-.434,2.756-.805,5.544-1.177,8.3-.217,1.611-.434,3.1-.619,4.8l-.743,6.195c1.58,5.079,3.345,10.1,5.172,15.022a24.964,24.964,0,0,1,2.013,8.518,211.635,211.635,0,0,0,116.3,0,1.181,1.181,0,0,1,0-.31,36.883,36.883,0,0,1-.743-8.455h0a232.327,232.327,0,0,1,3.1-23.694,86.7,86.7,0,0,0,.589-11.646v-1.394C481.567,578.095,481.536,576.98,481.5,575.865Zm0,0a21.4,21.4,0,0,0-.217-3.717c-.217-1.239-.186-2.323-.341-3.5s-.279-2.354-.434-3.531-.372-2.354-.589-3.531-.434-2.354-.681-3.531a5.314,5.314,0,0,0-.248-1.177c-.341-1.549-.712-3.1-1.115-4.677s-.65-2.509-1.022-3.748a5.284,5.284,0,0,0-.5-1.642c-.186-.527-.527-1.8-.805-2.695L475,542.384c-.248-.774-.5-1.549-.774-2.323-.465-1.394-.96-2.757-1.456-4.15s-1.022-2.757-1.549-4.119c-1.053-2.788-2.2-5.544-3.345-8.3-4.491-10.716-9.539-21.278-14.185-31.747a175.543,175.543,0,0,1-6.628-16.818l-.589.836a35.787,35.787,0,0,0-2.509,4.46c0,24.375-24.406,54.2-24.406,54.2L395,498.651,373.5,531.7c-3.1,1.642-6.194,7.279-8.61,15.3-.681,2.168-1.332,4.522-1.951,7.031-.434,1.673-.836,3.438-1.208,5.2-.217.9-.4,1.8-.589,2.725l-.557,2.819v.434c-.372,1.92-.743,3.9-1.084,5.916s-.743,4.336-1.084,6.535q-.372,2.137-.65,4.274c-.434,2.756-.805,5.544-1.177,8.3-.217,1.611-.434,3.1-.619,4.8l-.743,6.195c1.58,5.079,3.345,10.1,5.172,15.022a24.964,24.964,0,0,1,2.013,8.518,211.635,211.635,0,0,0,116.3,0,1.181,1.181,0,0,1,0-.31,36.883,36.883,0,0,1-.743-8.455h0a232.327,232.327,0,0,1,3.1-23.694,86.7,86.7,0,0,0,.589-11.646v-1.394C481.567,578.095,481.536,576.98,481.5,575.865Zm32.831-58.135-11.057-44.136-1.889-7.557-.527-2.075h0l-2.695-10.778a2.043,2.043,0,0,0,0-.279h0a2.477,2.477,0,0,0-.217-1.394c-.4-.805-1.425-1.642-3.81-1.858a19.271,19.271,0,0,0-2.726,0h0a47.165,47.165,0,0,0-7.96,1.487c-1.27.341-2.633.713-4.088,1.177l-2.664.836h-.248a59.094,59.094,0,0,0-19.513,10.84,52.647,52.647,0,0,0-9.911,10.964l-.589.836a35.791,35.791,0,0,0-2.509,4.46c0,24.375-24.406,54.2-24.406,54.2l-24.561-35.773-1.394-2.013-.248-.341-3.562-5.234L387.07,487.5l-.712-.929-12.7-16.942h0l-4.026-5.482v-.186l-1.394-1.889-2.664-3.531-9.292,5.42L333.055,477.5l-10.716,69.719v.743l.31,5.08,2.292,38.808v2.2l-3.5,13.969A204.27,204.27,0,0,0,350.554,620.9l2.633.929c3.1,1.022,6.009,1.951,9.044,2.849a10.939,10.939,0,0,1,.248,1.394v-1.332a211.637,211.637,0,0,0,116.3,0l.712-.217c1.765-.5,3.562-1.022,5.3-1.611l2.818-.9a207.5,207.5,0,0,0,22.424-8.982h0l2.571-55.378,1.858-39.551ZM362.014,624.677a10.982,10.982,0,0,1,.248,1.394c0-.434,0-.9,0-1.332ZM481.5,575.865a21.4,21.4,0,0,0-.217-3.717c-.217-1.239-.186-2.323-.341-3.5s-.279-2.354-.434-3.531-.372-2.354-.589-3.531-.434-2.354-.681-3.531a5.314,5.314,0,0,0-.248-1.177c-.341-1.549-.712-3.1-1.115-4.677s-.65-2.509-1.022-3.748a5.284,5.284,0,0,0-.5-1.642c-.186-.527-.527-1.8-.805-2.695L475,542.384c-.248-.774-.5-1.549-.774-2.323-.465-1.394-.96-2.757-1.456-4.15s-1.022-2.757-1.549-4.119c-1.053-2.788-2.2-5.544-3.345-8.3-4.491-10.716-9.539-21.278-14.185-31.747a175.543,175.543,0,0,1-6.628-16.818l-.589.836a35.787,35.787,0,0,0-2.509,4.46c0,24.375-24.406,54.2-24.406,54.2L395,498.651,373.5,531.7c-3.1,1.642-6.194,7.279-8.61,15.3-.681,2.168-1.332,4.522-1.951,7.031-.434,1.673-.836,3.438-1.208,5.2-.217.9-.4,1.8-.589,2.725l-.557,2.819v.434c-.372,1.92-.743,3.9-1.084,5.916s-.743,4.336-1.084,6.535q-.372,2.137-.65,4.274c-.434,2.756-.805,5.544-1.177,8.3-.217,1.611-.434,3.1-.619,4.8l-.743,6.195c1.58,5.079,3.345,10.1,5.172,15.022a24.964,24.964,0,0,1,2.013,8.518,211.635,211.635,0,0,0,116.3,0,1.181,1.181,0,0,1,0-.31,36.883,36.883,0,0,1-.743-8.455h0a232.327,232.327,0,0,1,3.1-23.694,86.7,86.7,0,0,0,.589-11.646v-1.394C481.567,578.095,481.536,576.98,481.5,575.865Zm0,0a21.4,21.4,0,0,0-.217-3.717c-.217-1.239-.186-2.323-.341-3.5s-.279-2.354-.434-3.531-.372-2.354-.589-3.531-.434-2.354-.681-3.531a5.314,5.314,0,0,0-.248-1.177c-.341-1.549-.712-3.1-1.115-4.677s-.65-2.509-1.022-3.748a5.284,5.284,0,0,0-.5-1.642c-.186-.527-.527-1.8-.805-2.695L475,542.384c-.248-.774-.5-1.549-.774-2.323-.465-1.394-.96-2.757-1.456-4.15s-1.022-2.757-1.549-4.119c-1.053-2.788-2.2-5.544-3.345-8.3-4.491-10.716-9.539-21.278-14.185-31.747a175.543,175.543,0,0,1-6.628-16.818l-.589.836a35.787,35.787,0,0,0-2.509,4.46c0,24.375-24.406,54.2-24.406,54.2L395,498.651,373.5,531.7c-3.1,1.642-6.194,7.279-8.61,15.3-.681,2.168-1.332,4.522-1.951,7.031-.434,1.673-.836,3.438-1.208,5.2-.217.9-.4,1.8-.589,2.725l-.557,2.819v.434c-.372,1.92-.743,3.9-1.084,5.916s-.743,4.336-1.084,6.535q-.372,2.137-.65,4.274c-.434,2.756-.805,5.544-1.177,8.3-.217,1.611-.434,3.1-.619,4.8l-.743,6.195c1.58,5.079,3.345,10.1,5.172,15.022a24.964,24.964,0,0,1,2.013,8.518,211.635,211.635,0,0,0,116.3,0,1.181,1.181,0,0,1,0-.31,36.883,36.883,0,0,1-.743-8.455h0a232.327,232.327,0,0,1,3.1-23.694,86.7,86.7,0,0,0,.589-11.646v-1.394C481.567,578.095,481.536,576.98,481.5,575.865Zm0,0a21.4,21.4,0,0,0-.217-3.717c-.217-1.239-.186-2.323-.341-3.5s-.279-2.354-.434-3.531-.372-2.354-.589-3.531-.434-2.354-.681-3.531a5.314,5.314,0,0,0-.248-1.177c-.341-1.549-.712-3.1-1.115-4.677s-.65-2.509-1.022-3.748a5.284,5.284,0,0,0-.5-1.642c-.186-.527-.527-1.8-.805-2.695L475,542.384c-.248-.774-.5-1.549-.774-2.323-.465-1.394-.96-2.757-1.456-4.15s-1.022-2.757-1.549-4.119c-1.053-2.788-2.2-5.544-3.345-8.3-4.491-10.716-9.539-21.278-14.185-31.747a175.543,175.543,0,0,1-6.628-16.818l-.589.836a35.787,35.787,0,0,0-2.509,4.46c0,24.375-24.406,54.2-24.406,54.2L395,498.651,373.5,531.7c-3.1,1.642-6.194,7.279-8.61,15.3-.681,2.168-1.332,4.522-1.951,7.031-.434,1.673-.836,3.438-1.208,5.2-.217.9-.4,1.8-.589,2.725l-.557,2.819v.434c-.372,1.92-.743,3.9-1.084,5.916s-.743,4.336-1.084,6.535q-.372,2.137-.65,4.274c-.434,2.756-.805,5.544-1.177,8.3-.217,1.611-.434,3.1-.619,4.8l-.743,6.195c1.58,5.079,3.345,10.1,5.172,15.022a24.964,24.964,0,0,1,2.013,8.518,211.635,211.635,0,0,0,116.3,0,1.181,1.181,0,0,1,0-.31,36.883,36.883,0,0,1-.743-8.455h0a232.327,232.327,0,0,1,3.1-23.694,86.7,86.7,0,0,0,.589-11.646v-1.394C481.567,578.095,481.536,576.98,481.5,575.865Zm0,0a21.4,21.4,0,0,0-.217-3.717c-.217-1.239-.186-2.323-.341-3.5s-.279-2.354-.434-3.531-.372-2.354-.589-3.531-.434-2.354-.681-3.531a5.314,5.314,0,0,0-.248-1.177c-.341-1.549-.712-3.1-1.115-4.677s-.65-2.509-1.022-3.748a5.284,5.284,0,0,0-.5-1.642c-.186-.527-.527-1.8-.805-2.695L475,542.384c-.248-.774-.5-1.549-.774-2.323-.465-1.394-.96-2.757-1.456-4.15s-1.022-2.757-1.549-4.119c-1.053-2.788-2.2-5.544-3.345-8.3-4.491-10.716-9.539-21.278-14.185-31.747a175.543,175.543,0,0,1-6.628-16.818l-.589.836a35.787,35.787,0,0,0-2.509,4.46c0,24.375-24.406,54.2-24.406,54.2L395,498.651,373.5,531.7c-3.1,1.642-6.194,7.279-8.61,15.3-.681,2.168-1.332,4.522-1.951,7.031-.434,1.673-.836,3.438-1.208,5.2-.217.9-.4,1.8-.589,2.725l-.557,2.819v.434c-.372,1.92-.743,3.9-1.084,5.916s-.743,4.336-1.084,6.535q-.372,2.137-.65,4.274c-.434,2.756-.805,5.544-1.177,8.3-.217,1.611-.434,3.1-.619,4.8l-.743,6.195c1.58,5.079,3.345,10.1,5.172,15.022a24.964,24.964,0,0,1,2.013,8.518,211.635,211.635,0,0,0,116.3,0,1.181,1.181,0,0,1,0-.31,36.883,36.883,0,0,1-.743-8.455h0a232.327,232.327,0,0,1,3.1-23.694,86.7,86.7,0,0,0,.589-11.646v-1.394C481.567,578.095,481.536,576.98,481.5,575.865Zm0,0a21.4,21.4,0,0,0-.217-3.717c-.217-1.239-.186-2.323-.341-3.5s-.279-2.354-.434-3.531-.372-2.354-.589-3.531-.434-2.354-.681-3.531a5.314,5.314,0,0,0-.248-1.177c-.341-1.549-.712-3.1-1.115-4.677s-.65-2.509-1.022-3.748a5.284,5.284,0,0,0-.5-1.642c-.186-.527-.527-1.8-.805-2.695L475,542.384c-.248-.774-.5-1.549-.774-2.323-.465-1.394-.96-2.757-1.456-4.15s-1.022-2.757-1.549-4.119c-1.053-2.788-2.2-5.544-3.345-8.3-4.491-10.716-9.539-21.278-14.185-31.747a175.543,175.543,0,0,1-6.628-16.818l-.589.836a35.787,35.787,0,0,0-2.509,4.46c0,24.375-24.406,54.2-24.406,54.2L395,498.651,373.5,531.7c-3.1,1.642-6.194,7.279-8.61,15.3-.681,2.168-1.332,4.522-1.951,7.031-.434,1.673-.836,3.438-1.208,5.2-.217.9-.4,1.8-.589,2.725l-.557,2.819v.434c-.372,1.92-.743,3.9-1.084,5.916s-.743,4.336-1.084,6.535q-.372,2.137-.65,4.274c-.434,2.756-.805,5.544-1.177,8.3-.217,1.611-.434,3.1-.619,4.8l-.743,6.195c1.58,5.079,3.345,10.1,5.172,15.022a24.964,24.964,0,0,1,2.013,8.518,211.635,211.635,0,0,0,116.3,0,1.181,1.181,0,0,1,0-.31,36.883,36.883,0,0,1-.743-8.455h0a232.327,232.327,0,0,1,3.1-23.694,86.7,86.7,0,0,0,.589-11.646v-1.394C481.567,578.095,481.536,576.98,481.5,575.865Zm0,0a21.4,21.4,0,0,0-.217-3.717c-.217-1.239-.186-2.323-.341-3.5s-.279-2.354-.434-3.531-.372-2.354-.589-3.531-.434-2.354-.681-3.531a5.314,5.314,0,0,0-.248-1.177c-.341-1.549-.712-3.1-1.115-4.677s-.65-2.509-1.022-3.748a5.284,5.284,0,0,0-.5-1.642c-.186-.527-.527-1.8-.805-2.695L475,542.384c-.248-.774-.5-1.549-.774-2.323-.465-1.394-.96-2.757-1.456-4.15s-1.022-2.757-1.549-4.119c-1.053-2.788-2.2-5.544-3.345-8.3-4.491-10.716-9.539-21.278-14.185-31.747a175.543,175.543,0,0,1-6.628-16.818l-.589.836a35.787,35.787,0,0,0-2.509,4.46c0,24.375-24.406,54.2-24.406,54.2L395,498.651,373.5,531.7c-3.1,1.642-6.194,7.279-8.61,15.3-.681,2.168-1.332,4.522-1.951,7.031-.434,1.673-.836,3.438-1.208,5.2-.217.9-.4,1.8-.589,2.725l-.557,2.819v.434c-.372,1.92-.743,3.9-1.084,5.916s-.743,4.336-1.084,6.535q-.372,2.137-.65,4.274c-.434,2.756-.805,5.544-1.177,8.3-.217,1.611-.434,3.1-.619,4.8l-.743,6.195c1.58,5.079,3.345,10.1,5.172,15.022a24.964,24.964,0,0,1,2.013,8.518,211.635,211.635,0,0,0,116.3,0,1.181,1.181,0,0,1,0-.31,36.883,36.883,0,0,1-.743-8.455h0a232.327,232.327,0,0,1,3.1-23.694,86.7,86.7,0,0,0,.589-11.646v-1.394C481.567,578.095,481.536,576.98,481.5,575.865Zm0,0a21.4,21.4,0,0,0-.217-3.717c-.217-1.239-.186-2.323-.341-3.5s-.279-2.354-.434-3.531-.372-2.354-.589-3.531-.434-2.354-.681-3.531a5.314,5.314,0,0,0-.248-1.177c-.341-1.549-.712-3.1-1.115-4.677s-.65-2.509-1.022-3.748a5.284,5.284,0,0,0-.5-1.642c-.186-.527-.527-1.8-.805-2.695L475,542.384c-.248-.774-.5-1.549-.774-2.323-.465-1.394-.96-2.757-1.456-4.15s-1.022-2.757-1.549-4.119c-1.053-2.788-2.2-5.544-3.345-8.3-4.491-10.716-9.539-21.278-14.185-31.747a175.543,175.543,0,0,1-6.628-16.818l-.589.836a35.787,35.787,0,0,0-2.509,4.46c0,24.375-24.406,54.2-24.406,54.2L395,498.651,373.5,531.7c-3.1,1.642-6.194,7.279-8.61,15.3-.681,2.168-1.332,4.522-1.951,7.031-.434,1.673-.836,3.438-1.208,5.2-.217.9-.4,1.8-.589,2.725l-.557,2.819v.434c-.372,1.92-.743,3.9-1.084,5.916s-.743,4.336-1.084,6.535q-.372,2.137-.65,4.274c-.434,2.756-.805,5.544-1.177,8.3-.217,1.611-.434,3.1-.619,4.8l-.743,6.195c1.58,5.079,3.345,10.1,5.172,15.022a24.964,24.964,0,0,1,2.013,8.518,211.635,211.635,0,0,0,116.3,0,1.181,1.181,0,0,1,0-.31,36.883,36.883,0,0,1-.743-8.455h0a232.327,232.327,0,0,1,3.1-23.694,86.7,86.7,0,0,0,.589-11.646v-1.394C481.567,578.095,481.536,576.98,481.5,575.865Zm0,0a21.4,21.4,0,0,0-.217-3.717c-.217-1.239-.186-2.323-.341-3.5s-.279-2.354-.434-3.531-.372-2.354-.589-3.531-.434-2.354-.681-3.531a5.314,5.314,0,0,0-.248-1.177c-.341-1.549-.712-3.1-1.115-4.677s-.65-2.509-1.022-3.748a5.284,5.284,0,0,0-.5-1.642c-.186-.527-.527-1.8-.805-2.695L475,542.384c-.248-.774-.5-1.549-.774-2.323-.465-1.394-.96-2.757-1.456-4.15s-1.022-2.757-1.549-4.119c-1.053-2.788-2.2-5.544-3.345-8.3-4.491-10.716-9.539-21.278-14.185-31.747a175.543,175.543,0,0,1-6.628-16.818l-.589.836a35.787,35.787,0,0,0-2.509,4.46c0,24.375-24.406,54.2-24.406,54.2L395,498.651,373.5,531.7c-3.1,1.642-6.194,7.279-8.61,15.3-.681,2.168-1.332,4.522-1.951,7.031-.434,1.673-.836,3.438-1.208,5.2-.217.9-.4,1.8-.589,2.725l-.557,2.819v.434c-.372,1.92-.743,3.9-1.084,5.916s-.743,4.336-1.084,6.535q-.372,2.137-.65,4.274c-.434,2.756-.805,5.544-1.177,8.3-.217,1.611-.434,3.1-.619,4.8l-.743,6.195c1.58,5.079,3.345,10.1,5.172,15.022a24.964,24.964,0,0,1,2.013,8.518,211.635,211.635,0,0,0,116.3,0,1.181,1.181,0,0,1,0-.31,36.883,36.883,0,0,1-.743-8.455h0a232.327,232.327,0,0,1,3.1-23.694,86.7,86.7,0,0,0,.589-11.646v-1.394C481.567,578.095,481.536,576.98,481.5,575.865Z" transform="translate(-36.103 814.283)" fill="#fff"/>
        <path id="Path_391" data-name="Path 391" d="M436.79,496.04l-2.075-.279a75.475,75.475,0,0,1-9.292-1.858l-1.146-.31c-7.557-2.137-15.827-5.978-17.685-12.73a12.049,12.049,0,0,1,.186-6.6,56.572,56.572,0,0,1,4.212-10.655v-.186a14.767,14.767,0,0,1,.774-1.394,30.975,30.975,0,0,1,11.181-12.172l-3.717.588-31.468,5.11-48.781,7.867s-8.672-1.734-20.473,30.786a5.026,5.026,0,0,1-.4,1.208c-2.85,7.96-5.854,17.9-8.951,30.322-2.137,8.61-4.088,17.066-5.885,25.274-.527,2.478-1.053,4.924-1.549,7.34a196.82,196.82,0,0,0,17.995,18.583l1.022.96a211.427,211.427,0,0,0,41.255,29.207l.588.31A204.239,204.239,0,0,0,391.695,620.3l2.633.929c.557-5.73,1.177-12.079,1.92-18.583a5.294,5.294,0,0,1,.248-1.951l.743-6.195c.186-1.579.4-3.1.619-4.8.372-2.757.743-5.544,1.177-8.3q.279-2.137.65-4.274c.341-2.2.712-4.4,1.084-6.535s.712-4,1.084-5.916v-.434l.557-2.818c.186-.929.372-1.828.588-2.726.372-1.766.774-3.531,1.208-5.2.62-2.509,1.27-4.863,1.951-7.031,2.478-8.022,5.358-13.659,8.61-15.3l21.495-33.048.9-1.394.4-.619Z" transform="translate(-77.461 814.819)" opacity="0.1"/>
        <path id="Path_392" data-name="Path 392" d="M436.431,496.06,413.6,531.121c-3.1,1.58-6.009,7.061-8.456,14.836-.712,2.292-1.425,4.8-2.106,7.433a370.335,370.335,0,0,0-7,40.543,4.809,4.809,0,0,1-.248,1.858c-1.053,8.61-1.92,17.066-2.633,24.53a204.229,204.229,0,0,1-29.114-12.884l-.588-.31a211.435,211.435,0,0,1-41.255-29.207l-1.022-.96a196.812,196.812,0,0,1-17.995-18.583c-.743-.836-1.456-1.7-2.168-2.571.341-1.611.681-3.1,1.053-4.832,1.765-8.208,3.717-16.632,5.854-25.211a305.185,305.185,0,0,1,10.531-34.689,9.484,9.484,0,0,1,.4-.991c10.964-28.216,18.862-26.636,18.862-26.636l51.507-8.3,32.521-5.265-1.022.588a32.982,32.982,0,0,0-8.951,9.54l-.9,1.518c-.372.588-.712,1.239-1.084,1.889a54.873,54.873,0,0,0-4.274,10.84,11.4,11.4,0,0,0,.743,8.858c3.1,6.009,11.893,9.292,19.11,11.088l1.208.31A77.669,77.669,0,0,0,436.431,496.06Z" transform="translate(-78.929 814.861)" fill="#bd171b"/>
        <path id="Path_393" data-name="Path 393" d="M467.586,564l-1.27-27.5c5.42-43.361-5.42-46.056-5.42-46.056l-12.885-6.195h-.341l-51.817-25.118-2.013-.991-.62-.279h0l-6.752-3.283h0L382.2,452.5l-7.991-3.871-2.695-1.3v10.747c0,3.1.279,6.721.527,10.933.557,10.593,1.58,24.778,3.407,41.5,1.022,9.694,2.323,20.287,3.933,31.654.96,6.721,1.641,13.411,2.075,19.946a351.009,351.009,0,0,1-2.044,65.971l2.819-.9A207.552,207.552,0,0,0,404.65,618.2h0a205.81,205.81,0,0,0,39.954-24.53l.557-.4a206.635,206.635,0,0,0,22.486-20.411Z" transform="translate(68.905 809.513)" opacity="0.1"/>
        <path id="Path_394" data-name="Path 394" d="M468.508,564.108l-1.27-27.565c5.42-43.361-5.42-46.056-5.42-46.056l-15.486-7.5h-.31L394.051,457.78l-2.385-1.146-.465-.217-3.81-1.858-5.048-2.447-9.973-4.832v4.4h0v5.451c0,3.1.279,7.155.557,11.769.527,9.88,1.456,22.827,3.1,38.22,1.115,10.562,2.509,22.3,4.336,34.937q1.425,10.128,2.044,20.039a350.538,350.538,0,0,1-1.92,65.042,207.5,207.5,0,0,0,22.424-8.982h0a205.83,205.83,0,0,0,39.954-24.53l.557-.4a206.666,206.666,0,0,0,22.486-20.411q1.363-1.363,2.6-2.787Z" transform="translate(70.709 809.408)" fill="#bd171b"/>
        <path id="Path_395" data-name="Path 395" d="M367.872,401.284c-3.1,4.274-2.849,10.159-4.243,15.486-3.314,12.11-16.446,19.7-19.451,31.9-1.765,7.124.279,14.681-.929,21.928-2.2,13.349-14.4,22.393-21.216,34.069a45.963,45.963,0,0,0-2.818,39.954,64.045,64.045,0,0,1,3.933,10.1,36.888,36.888,0,0,1-.96,15.486c-2.323,11.026-4.708,23.167.619,33.109,4.491,8.394,13.814,13.318,23.2,14.867a90.157,90.157,0,0,0,28.4-1.3c10.252-1.58,20.751-3.407,29.671-8.672l-33.543-80.961c-3.376-8.177-6.845-16.632-6.814-25.49a56.03,56.03,0,0,1,4.181-19.017,164.771,164.771,0,0,1,27.875-48.162c4.863,5.637,4.491,14.216,8.548,20.473a32.3,32.3,0,0,0,13.814,10.314,457.651,457.651,0,0,0,48.905,20.442,6.411,6.411,0,0,1,4.77,9.539L459.179,547.5c-2.787,11.491-5.235,24.778,1.92,34.069s23.291,13.69,23.384,25.676a41.063,41.063,0,0,0,0,5.7c.836,5.606,7.5,8.3,13.163,8.579a39.242,39.242,0,0,0,39.366-32.118c3.1-20.5-10.469-39.4-16.137-59.374-9.54-33.6,3.1-73.033-15.641-102.549-15.176-23.942-42.835-30.446-69.1-33.419C417.707,391.9,380.85,384.156,367.872,401.284Z" transform="translate(-47.661 690.198)" opacity="0.1"/>
        <path id="Path_396" data-name="Path 396" d="M367.872,400.284c-3.1,4.274-2.849,10.159-4.243,15.486-3.314,12.11-16.446,19.7-19.451,31.9-1.765,7.124.279,14.681-.929,21.928-2.2,13.349-14.4,22.393-21.216,34.07a45.963,45.963,0,0,0-2.818,39.954,64.038,64.038,0,0,1,3.933,10.1,36.889,36.889,0,0,1-.96,15.486c-2.323,11.026-4.708,23.167.619,33.109,4.491,8.394,13.814,13.318,23.2,14.867a90.16,90.16,0,0,0,28.4-1.3c10.252-1.579,20.752-3.407,29.671-8.672l-33.543-80.961c-3.376-8.177-6.845-16.632-6.814-25.49a56.029,56.029,0,0,1,4.181-19.017,164.772,164.772,0,0,1,27.875-48.162c4.863,5.637,4.491,14.216,8.548,20.473a32.3,32.3,0,0,0,13.814,10.314,457.609,457.609,0,0,0,48.905,20.442,6.411,6.411,0,0,1,4.77,9.539L459.179,546.5c-2.788,11.491-5.234,24.778,1.92,34.07s23.291,13.69,23.384,25.676a41.066,41.066,0,0,0,0,5.7c.836,5.606,7.5,8.3,13.163,8.579a39.242,39.242,0,0,0,39.366-32.118c3.1-20.5-10.469-39.4-16.137-59.374-9.54-33.6,3.1-73.033-15.641-102.549-15.176-23.942-42.835-30.446-69.1-33.419C417.707,390.9,380.85,383.156,367.872,400.284Z" transform="translate(-47.661 688.101)" fill="#2f2e41"/>
      </g>
      <g id="Group_99" data-name="Group 99" transform="translate(1517 545.006)">
        <path id="Path_527" data-name="Path 527" d="M504.073,723.1a108.781,108.781,0,0,1-26.311,71.123c-.836.981-1.7,1.945-2.588,2.893q-.659.74-1.35,1.447a107.244,107.244,0,0,1-11.669,10.592l-.289.209a106.826,106.826,0,0,1-20.734,12.73h0a107.666,107.666,0,0,1-11.637,4.661l-1.463.466c-.9.305-1.832.579-2.748.836l-.37.113a109.828,109.828,0,0,1-60.354,0H364.4c-1.607-.466-3.215-.948-4.693-1.479l-1.366-.482a105.974,105.974,0,0,1-15.109-6.686l-.305-.161A109.7,109.7,0,0,1,321.516,804.2l-.53-.5a102.114,102.114,0,0,1-9.338-9.644c-.386-.434-.755-.884-1.125-1.334-.707-.836-1.382-1.7-2.057-2.572A109.3,109.3,0,1,1,504.073,723.1Z" transform="translate(-52.2 -20.86)" fill="#e4d4d4"/>
        <path id="Path_397" data-name="Path 397" d="M504.073,723.1a108.781,108.781,0,0,1-26.311,71.123c-.836.981-1.7,1.945-2.588,2.893q-.659.74-1.35,1.447a107.244,107.244,0,0,1-11.669,10.592l-.289.209a106.826,106.826,0,0,1-20.734,12.73h0a107.666,107.666,0,0,1-11.637,4.661l-1.463.466c-.9.305-1.832.579-2.748.836l-.37.113a109.828,109.828,0,0,1-60.354,0H364.4c-1.607-.466-3.215-.948-4.693-1.479l-1.366-.482a105.974,105.974,0,0,1-15.109-6.686l-.305-.161A109.7,109.7,0,0,1,321.516,804.2l-.53-.5a102.114,102.114,0,0,1-9.338-9.644c-.386-.434-.755-.884-1.125-1.334-.707-.836-1.382-1.7-2.057-2.572A109.3,109.3,0,1,1,504.073,723.1Z" transform="translate(-43.2 -23.86)" fill="#de8b8d"/>
        <path id="Path_398" data-name="Path 398" d="M465.6,785.615l-.659-14.466c2.813-22.872-2.813-24.3-2.813-24.3l-8.036-3.954-.161-.08-26.97-13.292-1.238-.611-.161-.659s.53-1.607-2.138-1.88a9.789,9.789,0,0,1-.675-4.1c.273-3.086,2.6-5.513,4.42-8.037a33.014,33.014,0,0,0,5.288-23.418,55.083,55.083,0,0,0-8.969-22.631l-.514-.755a27.234,27.234,0,0,0,.948-7.1c0-18.5-18.709-33.5-41.79-33.5-20.895,0-38.3,12.36-41.324,28.481a14.651,14.651,0,0,0-1.27,1.993c-4.243,7.94,2.315,13.871,2.523,21.8.145,5.465-3.52,10.142-6.429,14.771s-5.063,10.785-2.073,15.35c.98,1.511,2.459,2.652,3.343,4.227,3.1,5.481-2.057,11.765-3.938,17.777a17,17,0,0,0-.514,2.138l-12.408,2.025s-4.1-.836-9.788,14.048a5.056,5.056,0,0,0-.209.53,162.932,162.932,0,0,0-5.465,18.307q-1.664,6.8-3.038,13.293c-.193.852-.37,1.7-.547,2.556.37.45.739.916,1.125,1.35a103.05,103.05,0,0,0,9.338,9.837l.53.514A109.748,109.748,0,0,0,333.4,811.236l.305.161a105.135,105.135,0,0,0,15.109,6.8l1.366.482c1.607.547,3.118,1.029,4.693,1.511a5.857,5.857,0,0,1,.129.74v-.707a108.11,108.11,0,0,0,60.354,0l.37-.113c.916-.257,1.848-.546,2.748-.852l1.463-.466a108.391,108.391,0,0,0,32.371-17.68l.289-.209a107.891,107.891,0,0,0,11.669-10.769q.707-.707,1.35-1.463Z" transform="translate(-33.775 -15.946)" fill="url(#linear-gradient-2)"/>
        <path id="Path_399" data-name="Path 399" d="M330.306,671.161c.145,5.384-3.52,9.981-6.429,14.466s-5.063,10.608-2.073,15.093c.98,1.479,2.459,2.62,3.343,4.163,3.1,5.384-2.057,11.573-3.938,17.487-2.17,6.831.354,14.466,4.918,20.011s10.865,9.29,17.23,12.585a153.769,153.769,0,0,0,42.626,15.173c7.779,1.43,16.073,2.073,23.37-1.045a24.849,24.849,0,0,0,14.032-27.324c-1.848-8.454-8.036-15.253-11.251-23.242a10.88,10.88,0,0,1-1.061-5.031c.273-3.038,2.6-5.417,4.42-7.876a32.146,32.146,0,0,0,5.208-22.872,53.686,53.686,0,0,0-8.969-22.277A24.4,24.4,0,0,0,405.3,653.4c-3.5-2.362-7.844-3.038-12.023-3.632-17.455-2.443-35.538-5.111-53.137-6.011-5.561-.289-9.644.8-12.392,6.011C323.555,657.531,330.1,663.365,330.306,671.161Z" transform="translate(-22.014 -5.692)" fill="#444176"/>
        <path id="Path_400" data-name="Path 400" d="M413.28,711l-33.127,47.11L347.815,755.3s-1.061,11.251-14.064-29.526c-7.265-22.808,7.506-14.884,10.415-21.2s8.037-11.894,8.47-16.555c1.029-10-2.009-15.687-2.009-15.687l35.152-4.211a26.231,26.231,0,0,0-.579,14.675C389.6,701.086,413.28,711,413.28,711Z" transform="translate(-15.092 9.13)" fill="#fdc2cc"/>
        <ellipse id="Ellipse_31" data-name="Ellipse 31" cx="41.79" cy="32.95" rx="41.79" ry="32.95" transform="translate(306.572 614.067)" fill="#444176"/>
        <path id="Path_401" data-name="Path 401" d="M378.063,682.779a35.136,35.136,0,0,1-32.564,5.24c1.029-10-2.009-15.687-2.009-15.687l35.152-4.211a26.231,26.231,0,0,0-.579,14.658Z" transform="translate(-7.971 9.13)" opacity="0.1"/>
        <circle id="Ellipse_32" data-name="Ellipse 32" cx="35.152" cy="35.152" r="35.152" transform="translate(313.74 627.327)" fill="#fdc2cc"/>
        <path id="Path_402" data-name="Path 402" d="M416.211,703.223l-.82-3.215-.707-2.829L413.64,693l-.193-.771-.161-.643s.836-2.523-4.677-1.7l-1.029.177c-.868.177-1.881.418-3.038.739l-1.045.322-1.382.434h0a30.138,30.138,0,0,0-11.669,7.04,26.272,26.272,0,0,0-3.906,4.725c-.113.161-.193.306-.289.434a15.17,15.17,0,0,0-1.013,1.864c0,12.666-12.666,28.128-12.666,28.128l-12.36-17.857-.241-.354-2.941-4.275-1.045-1.382-.354-.482-6.429-8.631-1.607-2.154-.53-.723-.788-1.045-1.848-2.459-7.233,4.227-9.644,5.626L321.927,740.8v1.013l.177,3.022,1.173,19.866v.273L321.22,773.2l.305.161a106,106,0,0,0,15.109,6.686l1.366.482c1.607.53,3.118,1.013,4.693,1.479a5.672,5.672,0,0,1,.129.723v-.691a109.828,109.828,0,0,0,60.354,0l.37-.113c.916-.257,1.848-.531,2.748-.836l1.463-.466a107.7,107.7,0,0,0,11.637-4.661l1.35-28.771.964-20.75v-1.189Z" transform="translate(-21.495 22.246)" opacity="0.1"/>
        <path id="Path_403" data-name="Path 403" d="M404.505,756.127a11.092,11.092,0,0,0-.113-1.929c-.112-.643-.1-1.206-.177-1.816s-.145-1.221-.225-1.832-.193-1.222-.305-1.832-.225-1.222-.354-1.832a2.761,2.761,0,0,0-.129-.611c-.177-.8-.37-1.607-.579-2.427s-.338-1.3-.53-1.945a2.743,2.743,0,0,0-.257-.852c-.1-.273-.273-.932-.418-1.4l-.289-.9c-.129-.4-.257-.8-.4-1.206-.241-.723-.5-1.43-.755-2.154s-.53-1.431-.8-2.138c-.547-1.447-1.141-2.877-1.736-4.308-2.331-5.561-4.95-11.042-7.361-16.475a91.067,91.067,0,0,1-3.44-8.727l-.305.434a18.566,18.566,0,0,0-1.3,2.314c0,12.65-12.666,28.128-12.666,28.128l-12.746-18.564-11.155,17.15c-1.607.852-3.215,3.777-4.468,7.94-.354,1.125-.691,2.347-1.013,3.649-.225.868-.434,1.784-.627,2.7-.112.466-.209.932-.305,1.414l-.289,1.463v.225c-.193,1-.386,2.025-.562,3.07s-.386,2.25-.563,3.391q-.193,1.109-.337,2.218c-.225,1.431-.418,2.877-.611,4.308-.112.836-.225,1.607-.321,2.491l-.386,3.215c.82,2.636,1.736,5.24,2.684,7.8a12.956,12.956,0,0,1,1.045,4.42,109.825,109.825,0,0,0,60.354,0,.613.613,0,0,1,0-.161,19.141,19.141,0,0,1-.386-4.388h0a120.565,120.565,0,0,1,1.607-12.3,45,45,0,0,0,.305-6.043v-.724C404.537,757.284,404.521,756.705,404.505,756.127Zm0,0a11.092,11.092,0,0,0-.113-1.929c-.112-.643-.1-1.206-.177-1.816s-.145-1.221-.225-1.832-.193-1.222-.305-1.832-.225-1.222-.354-1.832a2.761,2.761,0,0,0-.129-.611c-.177-.8-.37-1.607-.579-2.427s-.338-1.3-.53-1.945a2.743,2.743,0,0,0-.257-.852c-.1-.273-.273-.932-.418-1.4l-.289-.9c-.129-.4-.257-.8-.4-1.206-.241-.723-.5-1.43-.755-2.154s-.53-1.431-.8-2.138c-.547-1.447-1.141-2.877-1.736-4.308-2.331-5.561-4.95-11.042-7.361-16.475a91.067,91.067,0,0,1-3.44-8.727l-.305.434a18.566,18.566,0,0,0-1.3,2.314c0,12.65-12.666,28.128-12.666,28.128l-12.746-18.564-11.155,17.15c-1.607.852-3.215,3.777-4.468,7.94-.354,1.125-.691,2.347-1.013,3.649-.225.868-.434,1.784-.627,2.7-.112.466-.209.932-.305,1.414l-.289,1.463v.225c-.193,1-.386,2.025-.562,3.07s-.386,2.25-.563,3.391q-.193,1.109-.337,2.218c-.225,1.431-.418,2.877-.611,4.308-.112.836-.225,1.607-.321,2.491l-.386,3.215c.82,2.636,1.736,5.24,2.684,7.8a12.956,12.956,0,0,1,1.045,4.42,109.825,109.825,0,0,0,60.354,0,.613.613,0,0,1,0-.161,19.141,19.141,0,0,1-.386-4.388h0a120.565,120.565,0,0,1,1.607-12.3,45,45,0,0,0,.305-6.043v-.724C404.537,757.284,404.521,756.705,404.505,756.127Zm0,0a11.092,11.092,0,0,0-.113-1.929c-.112-.643-.1-1.206-.177-1.816s-.145-1.221-.225-1.832-.193-1.222-.305-1.832-.225-1.222-.354-1.832a2.761,2.761,0,0,0-.129-.611c-.177-.8-.37-1.607-.579-2.427s-.338-1.3-.53-1.945a2.743,2.743,0,0,0-.257-.852c-.1-.273-.273-.932-.418-1.4l-.289-.9c-.129-.4-.257-.8-.4-1.206-.241-.723-.5-1.43-.755-2.154s-.53-1.431-.8-2.138c-.547-1.447-1.141-2.877-1.736-4.308-2.331-5.561-4.95-11.042-7.361-16.475a91.067,91.067,0,0,1-3.44-8.727l-.305.434a18.566,18.566,0,0,0-1.3,2.314c0,12.65-12.666,28.128-12.666,28.128l-12.746-18.564-11.155,17.15c-1.607.852-3.215,3.777-4.468,7.94-.354,1.125-.691,2.347-1.013,3.649-.225.868-.434,1.784-.627,2.7-.112.466-.209.932-.305,1.414l-.289,1.463v.225c-.193,1-.386,2.025-.562,3.07s-.386,2.25-.563,3.391q-.193,1.109-.337,2.218c-.225,1.431-.418,2.877-.611,4.308-.112.836-.225,1.607-.321,2.491l-.386,3.215c.82,2.636,1.736,5.24,2.684,7.8a12.956,12.956,0,0,1,1.045,4.42,109.825,109.825,0,0,0,60.354,0,.613.613,0,0,1,0-.161,19.141,19.141,0,0,1-.386-4.388h0a120.565,120.565,0,0,1,1.607-12.3,45,45,0,0,0,.305-6.043v-.724C404.537,757.284,404.521,756.705,404.505,756.127Zm17.037-30.169-5.738-22.9-.98-3.922-.273-1.077h0l-1.4-5.593a1.059,1.059,0,0,0,0-.145h0a1.285,1.285,0,0,0-.113-.723c-.209-.418-.739-.852-1.977-.964a9.982,9.982,0,0,0-1.414,0h0a24.491,24.491,0,0,0-4.131.771c-.659.177-1.366.37-2.122.611l-1.382.434h-.129a30.67,30.67,0,0,0-10.126,5.626,27.321,27.321,0,0,0-5.143,5.69l-.305.434a18.528,18.528,0,0,0-1.3,2.314c0,12.65-12.666,28.128-12.666,28.128L359.6,716.073l-.723-1.045-.129-.177-1.848-2.716-1.4-1.864-.37-.482L348.539,701h0l-2.089-2.845v-.1l-.723-.98-1.382-1.832-4.822,2.813-12.055,7.024-5.561,36.18v.386l.161,2.636,1.189,20.14v1.141l-1.816,7.249a105.994,105.994,0,0,0,15.109,6.686l1.366.482c1.607.53,3.118,1.013,4.693,1.479a5.7,5.7,0,0,1,.129.723v-.691a109.829,109.829,0,0,0,60.354,0l.37-.112c.916-.257,1.848-.531,2.748-.836l1.463-.466a107.714,107.714,0,0,0,11.637-4.661h0l1.334-28.739.964-20.525Zm-79.047,55.5a5.709,5.709,0,0,1,.129.723v-.691Zm62.01-25.331a11.092,11.092,0,0,0-.113-1.929c-.112-.643-.1-1.206-.177-1.816s-.145-1.221-.225-1.832-.193-1.222-.305-1.832-.225-1.222-.354-1.832a2.761,2.761,0,0,0-.129-.611c-.177-.8-.37-1.607-.579-2.427s-.338-1.3-.53-1.945a2.743,2.743,0,0,0-.257-.852c-.1-.273-.273-.932-.418-1.4l-.289-.9c-.129-.4-.257-.8-.4-1.206-.241-.723-.5-1.43-.755-2.154s-.53-1.431-.8-2.138c-.547-1.447-1.141-2.877-1.736-4.308-2.331-5.561-4.95-11.042-7.361-16.475a91.067,91.067,0,0,1-3.44-8.727l-.305.434a18.566,18.566,0,0,0-1.3,2.314c0,12.65-12.666,28.128-12.666,28.128l-12.746-18.564-11.155,17.15c-1.607.852-3.215,3.777-4.468,7.94-.354,1.125-.691,2.347-1.013,3.649-.225.868-.434,1.784-.627,2.7-.112.466-.209.932-.305,1.414l-.289,1.463v.225c-.193,1-.386,2.025-.562,3.07s-.386,2.25-.563,3.391q-.193,1.109-.337,2.218c-.225,1.431-.418,2.877-.611,4.308-.112.836-.225,1.607-.321,2.491l-.386,3.215c.82,2.636,1.736,5.24,2.684,7.8a12.956,12.956,0,0,1,1.045,4.42,109.825,109.825,0,0,0,60.354,0,.613.613,0,0,1,0-.161,19.141,19.141,0,0,1-.386-4.388h0a120.565,120.565,0,0,1,1.607-12.3,45,45,0,0,0,.305-6.043v-.724C404.537,757.284,404.521,756.705,404.505,756.127Zm0,0a11.092,11.092,0,0,0-.113-1.929c-.112-.643-.1-1.206-.177-1.816s-.145-1.221-.225-1.832-.193-1.222-.305-1.832-.225-1.222-.354-1.832a2.761,2.761,0,0,0-.129-.611c-.177-.8-.37-1.607-.579-2.427s-.338-1.3-.53-1.945a2.743,2.743,0,0,0-.257-.852c-.1-.273-.273-.932-.418-1.4l-.289-.9c-.129-.4-.257-.8-.4-1.206-.241-.723-.5-1.43-.755-2.154s-.53-1.431-.8-2.138c-.547-1.447-1.141-2.877-1.736-4.308-2.331-5.561-4.95-11.042-7.361-16.475a91.067,91.067,0,0,1-3.44-8.727l-.305.434a18.566,18.566,0,0,0-1.3,2.314c0,12.65-12.666,28.128-12.666,28.128l-12.746-18.564-11.155,17.15c-1.607.852-3.215,3.777-4.468,7.94-.354,1.125-.691,2.347-1.013,3.649-.225.868-.434,1.784-.627,2.7-.112.466-.209.932-.305,1.414l-.289,1.463v.225c-.193,1-.386,2.025-.562,3.07s-.386,2.25-.563,3.391q-.193,1.109-.337,2.218c-.225,1.431-.418,2.877-.611,4.308-.112.836-.225,1.607-.321,2.491l-.386,3.215c.82,2.636,1.736,5.24,2.684,7.8a12.956,12.956,0,0,1,1.045,4.42,109.825,109.825,0,0,0,60.354,0,.613.613,0,0,1,0-.161,19.141,19.141,0,0,1-.386-4.388h0a120.565,120.565,0,0,1,1.607-12.3,45,45,0,0,0,.305-6.043v-.724C404.537,757.284,404.521,756.705,404.505,756.127Zm0,0a11.092,11.092,0,0,0-.113-1.929c-.112-.643-.1-1.206-.177-1.816s-.145-1.221-.225-1.832-.193-1.222-.305-1.832-.225-1.222-.354-1.832a2.761,2.761,0,0,0-.129-.611c-.177-.8-.37-1.607-.579-2.427s-.338-1.3-.53-1.945a2.743,2.743,0,0,0-.257-.852c-.1-.273-.273-.932-.418-1.4l-.289-.9c-.129-.4-.257-.8-.4-1.206-.241-.723-.5-1.43-.755-2.154s-.53-1.431-.8-2.138c-.547-1.447-1.141-2.877-1.736-4.308-2.331-5.561-4.95-11.042-7.361-16.475a91.067,91.067,0,0,1-3.44-8.727l-.305.434a18.566,18.566,0,0,0-1.3,2.314c0,12.65-12.666,28.128-12.666,28.128l-12.746-18.564-11.155,17.15c-1.607.852-3.215,3.777-4.468,7.94-.354,1.125-.691,2.347-1.013,3.649-.225.868-.434,1.784-.627,2.7-.112.466-.209.932-.305,1.414l-.289,1.463v.225c-.193,1-.386,2.025-.562,3.07s-.386,2.25-.563,3.391q-.193,1.109-.337,2.218c-.225,1.431-.418,2.877-.611,4.308-.112.836-.225,1.607-.321,2.491l-.386,3.215c.82,2.636,1.736,5.24,2.684,7.8a12.956,12.956,0,0,1,1.045,4.42,109.825,109.825,0,0,0,60.354,0,.613.613,0,0,1,0-.161,19.141,19.141,0,0,1-.386-4.388h0a120.565,120.565,0,0,1,1.607-12.3,45,45,0,0,0,.305-6.043v-.724C404.537,757.284,404.521,756.705,404.505,756.127Zm0,0a11.092,11.092,0,0,0-.113-1.929c-.112-.643-.1-1.206-.177-1.816s-.145-1.221-.225-1.832-.193-1.222-.305-1.832-.225-1.222-.354-1.832a2.761,2.761,0,0,0-.129-.611c-.177-.8-.37-1.607-.579-2.427s-.338-1.3-.53-1.945a2.743,2.743,0,0,0-.257-.852c-.1-.273-.273-.932-.418-1.4l-.289-.9c-.129-.4-.257-.8-.4-1.206-.241-.723-.5-1.43-.755-2.154s-.53-1.431-.8-2.138c-.547-1.447-1.141-2.877-1.736-4.308-2.331-5.561-4.95-11.042-7.361-16.475a91.067,91.067,0,0,1-3.44-8.727l-.305.434a18.566,18.566,0,0,0-1.3,2.314c0,12.65-12.666,28.128-12.666,28.128l-12.746-18.564-11.155,17.15c-1.607.852-3.215,3.777-4.468,7.94-.354,1.125-.691,2.347-1.013,3.649-.225.868-.434,1.784-.627,2.7-.112.466-.209.932-.305,1.414l-.289,1.463v.225c-.193,1-.386,2.025-.562,3.07s-.386,2.25-.563,3.391q-.193,1.109-.337,2.218c-.225,1.431-.418,2.877-.611,4.308-.112.836-.225,1.607-.321,2.491l-.386,3.215c.82,2.636,1.736,5.24,2.684,7.8a12.956,12.956,0,0,1,1.045,4.42,109.825,109.825,0,0,0,60.354,0,.613.613,0,0,1,0-.161,19.141,19.141,0,0,1-.386-4.388h0a120.565,120.565,0,0,1,1.607-12.3,45,45,0,0,0,.305-6.043v-.724C404.537,757.284,404.521,756.705,404.505,756.127Zm0,0a11.092,11.092,0,0,0-.113-1.929c-.112-.643-.1-1.206-.177-1.816s-.145-1.221-.225-1.832-.193-1.222-.305-1.832-.225-1.222-.354-1.832a2.761,2.761,0,0,0-.129-.611c-.177-.8-.37-1.607-.579-2.427s-.338-1.3-.53-1.945a2.743,2.743,0,0,0-.257-.852c-.1-.273-.273-.932-.418-1.4l-.289-.9c-.129-.4-.257-.8-.4-1.206-.241-.723-.5-1.43-.755-2.154s-.53-1.431-.8-2.138c-.547-1.447-1.141-2.877-1.736-4.308-2.331-5.561-4.95-11.042-7.361-16.475a91.067,91.067,0,0,1-3.44-8.727l-.305.434a18.566,18.566,0,0,0-1.3,2.314c0,12.65-12.666,28.128-12.666,28.128l-12.746-18.564-11.155,17.15c-1.607.852-3.215,3.777-4.468,7.94-.354,1.125-.691,2.347-1.013,3.649-.225.868-.434,1.784-.627,2.7-.112.466-.209.932-.305,1.414l-.289,1.463v.225c-.193,1-.386,2.025-.562,3.07s-.386,2.25-.563,3.391q-.193,1.109-.337,2.218c-.225,1.431-.418,2.877-.611,4.308-.112.836-.225,1.607-.321,2.491l-.386,3.215c.82,2.636,1.736,5.24,2.684,7.8a12.956,12.956,0,0,1,1.045,4.42,109.825,109.825,0,0,0,60.354,0,.613.613,0,0,1,0-.161,19.141,19.141,0,0,1-.386-4.388h0a120.565,120.565,0,0,1,1.607-12.3,45,45,0,0,0,.305-6.043v-.724C404.537,757.284,404.521,756.705,404.505,756.127Zm0,0a11.092,11.092,0,0,0-.113-1.929c-.112-.643-.1-1.206-.177-1.816s-.145-1.221-.225-1.832-.193-1.222-.305-1.832-.225-1.222-.354-1.832a2.761,2.761,0,0,0-.129-.611c-.177-.8-.37-1.607-.579-2.427s-.338-1.3-.53-1.945a2.743,2.743,0,0,0-.257-.852c-.1-.273-.273-.932-.418-1.4l-.289-.9c-.129-.4-.257-.8-.4-1.206-.241-.723-.5-1.43-.755-2.154s-.53-1.431-.8-2.138c-.547-1.447-1.141-2.877-1.736-4.308-2.331-5.561-4.95-11.042-7.361-16.475a91.067,91.067,0,0,1-3.44-8.727l-.305.434a18.566,18.566,0,0,0-1.3,2.314c0,12.65-12.666,28.128-12.666,28.128l-12.746-18.564-11.155,17.15c-1.607.852-3.215,3.777-4.468,7.94-.354,1.125-.691,2.347-1.013,3.649-.225.868-.434,1.784-.627,2.7-.112.466-.209.932-.305,1.414l-.289,1.463v.225c-.193,1-.386,2.025-.562,3.07s-.386,2.25-.563,3.391q-.193,1.109-.337,2.218c-.225,1.431-.418,2.877-.611,4.308-.112.836-.225,1.607-.321,2.491l-.386,3.215c.82,2.636,1.736,5.24,2.684,7.8a12.956,12.956,0,0,1,1.045,4.42,109.825,109.825,0,0,0,60.354,0,.613.613,0,0,1,0-.161,19.141,19.141,0,0,1-.386-4.388h0a120.565,120.565,0,0,1,1.607-12.3,45,45,0,0,0,.305-6.043v-.724C404.537,757.284,404.521,756.705,404.505,756.127Zm0,0a11.092,11.092,0,0,0-.113-1.929c-.112-.643-.1-1.206-.177-1.816s-.145-1.221-.225-1.832-.193-1.222-.305-1.832-.225-1.222-.354-1.832a2.761,2.761,0,0,0-.129-.611c-.177-.8-.37-1.607-.579-2.427s-.338-1.3-.53-1.945a2.743,2.743,0,0,0-.257-.852c-.1-.273-.273-.932-.418-1.4l-.289-.9c-.129-.4-.257-.8-.4-1.206-.241-.723-.5-1.43-.755-2.154s-.53-1.431-.8-2.138c-.547-1.447-1.141-2.877-1.736-4.308-2.331-5.561-4.95-11.042-7.361-16.475a91.067,91.067,0,0,1-3.44-8.727l-.305.434a18.566,18.566,0,0,0-1.3,2.314c0,12.65-12.666,28.128-12.666,28.128l-12.746-18.564-11.155,17.15c-1.607.852-3.215,3.777-4.468,7.94-.354,1.125-.691,2.347-1.013,3.649-.225.868-.434,1.784-.627,2.7-.112.466-.209.932-.305,1.414l-.289,1.463v.225c-.193,1-.386,2.025-.562,3.07s-.386,2.25-.563,3.391q-.193,1.109-.337,2.218c-.225,1.431-.418,2.877-.611,4.308-.112.836-.225,1.607-.321,2.491l-.386,3.215c.82,2.636,1.736,5.24,2.684,7.8a12.956,12.956,0,0,1,1.045,4.42,109.825,109.825,0,0,0,60.354,0,.613.613,0,0,1,0-.161,19.141,19.141,0,0,1-.386-4.388h0a120.565,120.565,0,0,1,1.607-12.3,45,45,0,0,0,.305-6.043v-.724C404.537,757.284,404.521,756.705,404.505,756.127Zm0,0a11.092,11.092,0,0,0-.113-1.929c-.112-.643-.1-1.206-.177-1.816s-.145-1.221-.225-1.832-.193-1.222-.305-1.832-.225-1.222-.354-1.832a2.761,2.761,0,0,0-.129-.611c-.177-.8-.37-1.607-.579-2.427s-.338-1.3-.53-1.945a2.743,2.743,0,0,0-.257-.852c-.1-.273-.273-.932-.418-1.4l-.289-.9c-.129-.4-.257-.8-.4-1.206-.241-.723-.5-1.43-.755-2.154s-.53-1.431-.8-2.138c-.547-1.447-1.141-2.877-1.736-4.308-2.331-5.561-4.95-11.042-7.361-16.475a91.067,91.067,0,0,1-3.44-8.727l-.305.434a18.566,18.566,0,0,0-1.3,2.314c0,12.65-12.666,28.128-12.666,28.128l-12.746-18.564-11.155,17.15c-1.607.852-3.215,3.777-4.468,7.94-.354,1.125-.691,2.347-1.013,3.649-.225.868-.434,1.784-.627,2.7-.112.466-.209.932-.305,1.414l-.289,1.463v.225c-.193,1-.386,2.025-.562,3.07s-.386,2.25-.563,3.391q-.193,1.109-.337,2.218c-.225,1.431-.418,2.877-.611,4.308-.112.836-.225,1.607-.321,2.491l-.386,3.215c.82,2.636,1.736,5.24,2.684,7.8a12.956,12.956,0,0,1,1.045,4.42,109.825,109.825,0,0,0,60.354,0,.613.613,0,0,1,0-.161,19.141,19.141,0,0,1-.386-4.388h0a120.565,120.565,0,0,1,1.607-12.3,45,45,0,0,0,.305-6.043v-.724C404.537,757.284,404.521,756.705,404.505,756.127Z" transform="translate(-21.362 22.784)" fill="#bd171b"/>
        <path id="Path_404" data-name="Path 404" d="M371.814,714.825l-1.077-.145a39.151,39.151,0,0,1-4.822-.964l-.595-.161c-3.922-1.109-8.213-3.1-9.178-6.606a6.253,6.253,0,0,1,.1-3.424A29.36,29.36,0,0,1,358.425,698v-.1a7.65,7.65,0,0,1,.4-.723,16.073,16.073,0,0,1,5.8-6.317l-1.929.305-16.33,2.652L321.056,697.9s-4.5-.9-10.624,15.977a2.607,2.607,0,0,1-.209.627c-1.479,4.131-3.038,9.29-4.645,15.735-1.109,4.468-2.122,8.856-3.054,13.115-.273,1.286-.546,2.556-.8,3.809a102.136,102.136,0,0,0,9.338,9.644l.53.5A109.7,109.7,0,0,0,333,772.462l.305.161a105.976,105.976,0,0,0,15.109,6.686l1.366.482c.289-2.974.611-6.269,1-9.644a2.746,2.746,0,0,1,.129-1.013l.386-3.215c.1-.82.209-1.607.321-2.491.193-1.431.386-2.877.611-4.308q.145-1.109.338-2.218c.177-1.141.37-2.283.563-3.391s.37-2.073.563-3.07v-.225l.289-1.463c.1-.482.193-.948.305-1.414.193-.916.4-1.832.627-2.7.321-1.3.659-2.523,1.013-3.648,1.286-4.163,2.781-7.088,4.468-7.94l11.155-17.15.466-.723.209-.322Z" transform="translate(-33.337 22.94)" opacity="0.1"/>
        <path id="Path_405" data-name="Path 405" d="M371.291,714.845l-11.846,18.195c-1.607.82-3.118,3.665-4.388,7.7-.37,1.189-.739,2.491-1.093,3.858a192.187,192.187,0,0,0-3.633,21.039,2.5,2.5,0,0,1-.129.965c-.546,4.468-1,8.856-1.366,12.73a105.983,105.983,0,0,1-15.109-6.686l-.305-.161a109.7,109.7,0,0,1-21.409-15.157l-.53-.5a102.126,102.126,0,0,1-9.338-9.644c-.386-.434-.755-.884-1.125-1.334.177-.836.354-1.607.547-2.507.916-4.26,1.929-8.631,3.038-13.083a158.377,158.377,0,0,1,5.465-18,4.928,4.928,0,0,1,.209-.514c5.69-14.643,9.788-13.823,9.788-13.823l26.729-4.308,16.877-2.732-.53.305a17.121,17.121,0,0,0-4.645,4.951l-.466.788c-.193.305-.37.643-.563.98a28.485,28.485,0,0,0-2.218,5.626,5.915,5.915,0,0,0,.386,4.6c1.607,3.118,6.172,4.822,9.917,5.754l.627.161A40.357,40.357,0,0,0,371.291,714.845Z" transform="translate(-33.763 22.952)" fill="#fff"/>
        <path id="Path_406" data-name="Path 406" d="M421.368,748.877l-.659-14.273c2.813-22.5-2.813-23.9-2.813-23.9l-6.686-3.215h-.177l-26.89-13.035-1.045-.514-.321-.145h0l-3.5-1.7h0l-2.218-1.077-4.147-2.009-1.4-.675v5.577c0,1.607.145,3.488.273,5.674.289,5.5.82,12.858,1.768,21.538.53,5.031,1.206,10.528,2.041,16.427.5,3.488.852,6.96,1.077,10.351a182.162,182.162,0,0,1-1.061,34.235l1.463-.466A107.727,107.727,0,0,0,388.708,777h0a106.824,106.824,0,0,0,20.734-12.73l.289-.209A107.276,107.276,0,0,0,421.4,753.474Z" transform="translate(9.046 21.403)" opacity="0.1"/>
        <path id="Path_407" data-name="Path 407" d="M422.261,748.907l-.659-14.3c2.813-22.5-2.813-23.9-2.813-23.9l-8.036-3.89h-.161l-26.97-13.083-1.238-.595-.241-.113-1.977-.964-2.62-1.27-5.176-2.507v2.282h0v2.829c0,1.607.145,3.713.289,6.108.273,5.127.755,11.846,1.607,19.834.579,5.481,1.3,11.573,2.25,18.131q.739,5.256,1.061,10.4a181.924,181.924,0,0,1-1,33.753,108.841,108.841,0,0,0,32.371-17.391l.289-.209a107.233,107.233,0,0,0,11.669-10.592q.707-.707,1.35-1.447Z" transform="translate(9.568 21.373)" fill="#fff"/>
        <path id="Path_408" data-name="Path 408" d="M357.552,663.6c5.015-.852,10.062-2.684,15.044-1.607,4.179.868,7.667,3.648,11.492,5.577A29.75,29.75,0,0,0,395.95,670.7a6.974,6.974,0,0,0,4.356-.852c1.993-1.382,2.282-4.211,1.945-6.622-.964-6.847-5.24-12.73-9.644-18.066a35.362,35.362,0,0,0-6.043-6.124c-5.77-4.259-13.4-4.983-20.557-4.661-8.165.37-16.459,1.945-23.547,6.043-4.822,2.765-15.88,11.476-12.039,17.777C334.455,664.785,351.235,664.673,357.552,663.6Z" transform="translate(-16.391 -11.404)" opacity="0.1"/>
        <path id="Path_409" data-name="Path 409" d="M357.552,662.6c5.015-.852,10.062-2.684,15.044-1.607,4.179.868,7.667,3.648,11.492,5.577A29.752,29.752,0,0,0,395.95,669.7a6.976,6.976,0,0,0,4.356-.852c1.993-1.382,2.282-4.211,1.945-6.622-.964-6.847-5.24-12.73-9.644-18.066a35.367,35.367,0,0,0-6.043-6.124c-5.77-4.259-13.4-4.983-20.557-4.661-8.165.37-16.459,1.945-23.547,6.043-4.822,2.764-15.88,11.476-12.039,17.777C334.455,663.785,351.235,663.673,357.552,662.6Z" transform="translate(-16.391 -12.011)" fill="#444176"/>
      </g>
      <g id="Group_102" data-name="Group 102" transform="translate(-1955 943)">
        <path id="Path_528" data-name="Path 528" d="M280.78,420.2a287.084,287.084,0,0,0,57.6,172.98c3.775,5.048,7.72,9.926,11.835,14.719,2.206,2.588,4.5,5.133,6.829,7.635q1.739,1.951,3.563,3.818a283.022,283.022,0,0,0,30.8,27.953l.764.551a287.206,287.206,0,0,0,85.429,45.9l3.86,1.23c2.375.806,4.836,1.527,7.253,2.206l.976.3c1.23.339,2.46.721,3.733,1.018a287.212,287.212,0,0,0,75.631,10.053c4.242,0,8.7,0,13.022-.3a285.215,285.215,0,0,0,66.893-10.944h.424c4.03-1.188,8.017-2.418,11.962-3.775h.424l3.606-1.272a279.648,279.648,0,0,0,39.873-17.646l.806-.424c1.4-.763,2.8-1.527,4.242-2.333a287.725,287.725,0,0,0,52.344-37.667l1.4-1.315a269.519,269.519,0,0,0,24.645-25.451l.891-1.06c.721-.806,1.4-1.612,2.078-2.46,1.866-2.206,3.648-4.5,5.429-6.787A288.441,288.441,0,1,0,280.78,420.2Z" transform="translate(2452.8 323.447)" fill="#e3e3e3" opacity="0.4"/>
        <path id="Path_439" data-name="Path 439" d="M280.78,420.2a287.084,287.084,0,0,0,57.6,172.98c3.775,5.048,7.72,9.926,11.835,14.719,2.206,2.588,4.5,5.133,6.829,7.635q1.739,1.951,3.563,3.818a283.022,283.022,0,0,0,30.8,27.953l.764.551a287.206,287.206,0,0,0,85.429,45.9l3.86,1.23c2.375.806,4.836,1.527,7.253,2.206l.976.3c1.23.339,2.46.721,3.733,1.018a287.212,287.212,0,0,0,75.631,10.053c4.242,0,8.7,0,13.022-.3a285.215,285.215,0,0,0,66.893-10.944h.424c4.03-1.188,8.017-2.418,11.962-3.775h.424l3.606-1.272a279.648,279.648,0,0,0,39.873-17.646l.806-.424c1.4-.763,2.8-1.527,4.242-2.333a287.725,287.725,0,0,0,52.344-37.667l1.4-1.315a269.519,269.519,0,0,0,24.645-25.451l.891-1.06c.721-.806,1.4-1.612,2.078-2.46,1.866-2.206,3.648-4.5,5.429-6.787A288.441,288.441,0,1,0,280.78,420.2Z" transform="translate(2476.8 310.146)" fill="#de8b8d"/>
        <path id="Path_440" data-name="Path 440" d="M336.371,463.766s62.566-5.3,91.241-45.09c27.953-38.727,46.957-39.194,47.89-39.194h0c.721-5.175,1.23-10.1,1.57-14.677v-.636a8.486,8.486,0,0,1-3.945,1.739c-5.6.848-10.52-4.454-13.319-10.1a78.769,78.769,0,0,0-8.484-16.713c-6.914-7.974-18.24-8.017-26.469-14.083a36.4,36.4,0,0,1-12.725-24.263,66.776,66.776,0,0,1-.509-10.6,117.406,117.406,0,0,1,1.782-22.609c2.206-14.04,5.472-28.42,13.319-39.491s23.2-13.446,30.838-23.924c35.758-49.035,61.251-33.468,92-49.926a49.287,49.287,0,0,1,19.682-7.169c12.344-.721,23.372,8.1,33.3,16.5A95.1,95.1,0,0,1,619.51,180.5c8.865,12.428,13.828,33.256,13.4,51.5a77.114,77.114,0,0,1-1.951,20.149c-2.46,9.756-9.12,9.12-16.416,6.914A88.144,88.144,0,0,1,584.6,369.683v4.454a7.73,7.73,0,0,0,0,.976,200.848,200.848,0,0,0,.679,20.276c.721.382,69.311,39.279,77.073,57.731s36.522,31.813,36.522,31.813,31.6,16.967,46.66,70.244l-.891,1.06A272.065,272.065,0,0,1,720,582.2l-1.4,1.357a287.889,287.889,0,0,1-52.343,38.176c-1.358.806-2.757,1.612-4.242,2.375l-.806.424a277.338,277.338,0,0,1-39.873,17.943l-3.606,1.315H617.3c-3.945,1.4-7.932,2.63-11.962,3.818h-.424a280.887,280.887,0,0,1-66.893,11.113c-4.242.212-8.484.3-13.022.3a282.716,282.716,0,0,1-75.419-9.8c-1.273-.3-2.5-.679-3.733-1.018l-.976-.3c-2.418-.679-4.878-1.442-7.253-2.248l-3.86-1.23a285.993,285.993,0,0,1-85.557-46.7l-.763-.551a284.748,284.748,0,0,1-30.8-28.42q-1.824-1.866-3.563-3.9c-2.333-2.545-4.623-5.133-6.829-7.763-4.242-4.878-8.059-9.841-11.835-14.973C317.113,455.027,336.371,463.766,336.371,463.766Z" transform="translate(2521.019 359.345)" fill="url(#linear-gradient-3)"/>
        <path id="Path_441" data-name="Path 441" d="M437.1,427.454l91.241-70.371S467.212,370.19,468.952,272.5a7.509,7.509,0,0,1,0-.976,249.945,249.945,0,0,1,2.121-29.141c15.652-130.35-109.48-15.652-109.48-15.652a186.62,186.62,0,0,1,0,34.7v.933a242.373,242.373,0,0,1-26.045,92.089C301.571,419.606,437.1,427.454,437.1,427.454Z" transform="translate(2636.625 466.664)" fill="#fdc2cc"/>
        <path id="Path_442" data-name="Path 442" d="M349.24,243.318c15.482,15.058,24.942,42.418,48.229,42.418a85.473,85.473,0,0,0,47.381-14.21,249.946,249.946,0,0,1,2.121-29.141c15.652-130.35-109.48-15.652-109.48-15.652S350.894,222.109,349.24,243.318Z" transform="translate(2660.642 466.664)" opacity="0.1"/>
        <circle id="Ellipse_34" data-name="Ellipse 34" cx="86.023" cy="86.023" r="86.023" transform="translate(2972.087 576.111)" fill="#fdc2cc"/>
        <path id="Path_443" data-name="Path 443" d="M529.994,182.877a94.382,94.382,0,0,0-16.967-16.628c-9.926-8.271-20.954-16.967-33.3-16.2a49.839,49.839,0,0,0-19.682,7.041c-30.753,16.2-56.246.891-92,49.077-7.635,10.308-22.948,12.725-30.838,23.542s-11.071,25.026-13.319,38.855a95.272,95.272,0,0,0-1.315,28.42A35.589,35.589,0,0,0,335.3,320.82c8.229,5.981,19.554,6.023,26.468,13.871a76.983,76.983,0,0,1,8.484,16.416c2.8,5.514,7.72,10.732,13.319,9.926s8.95-6.872,9.756-12.725a78.231,78.231,0,0,0-1.061-18.112c-1.06-10.732.3-22.439,6.617-30.541,4.242-5.557,10.6-8.865,14.8-14.507,10.1-13.616,5.514-36.479,16.585-49.12a26.257,26.257,0,0,1,25.451-7.084,108.463,108.463,0,0,1,25.451,10.944A188.83,188.83,0,0,0,516,253.333c10.1,2.757,21.8,9.374,25.239-4.242C546.622,229.07,541.574,198.869,529.994,182.877Z" transform="translate(2610.619 369.098)" opacity="0.1"/>
        <path id="Path_444" data-name="Path 444" d="M529.994,181.877a94.386,94.386,0,0,0-16.967-16.628c-9.926-8.271-20.954-16.967-33.3-16.2a49.841,49.841,0,0,0-19.682,7.041c-30.753,16.2-56.246.891-92,49.077-7.635,10.308-22.948,12.725-30.838,23.542s-11.071,25.026-13.319,38.855a95.272,95.272,0,0,0-1.315,28.42A35.588,35.588,0,0,0,335.3,319.82c8.229,5.981,19.554,6.023,26.468,13.871a76.987,76.987,0,0,1,8.484,16.416c2.8,5.514,7.72,10.732,13.319,9.926s8.95-6.872,9.756-12.725a78.231,78.231,0,0,0-1.061-18.112c-1.06-10.732.3-22.439,6.617-30.541,4.242-5.557,10.6-8.865,14.8-14.507,10.1-13.616,5.514-36.479,16.585-49.12a26.257,26.257,0,0,1,25.451-7.084,108.462,108.462,0,0,1,25.451,10.944A188.837,188.837,0,0,0,516,252.333c10.1,2.757,21.8,9.374,25.239-4.242C546.622,228.07,541.574,197.869,529.994,181.877Z" transform="translate(2610.619 365.857)" fill="#2f2e41"/>
        <path id="Path_445" data-name="Path 445" d="M349.18,376.547l-1.7,65.111a287.207,287.207,0,0,0,75.631,10.053c4.242,0,8.7,0,13.022-.3a285.216,285.216,0,0,0,66.893-10.944h.424c4.03-1.188,8.017-2.418,11.962-3.775h.424l3.606-1.273a279.619,279.619,0,0,0,39.873-17.646l.806-.424c1.4-.763,2.8-1.527,4.242-2.333l-6.575-87.762,10.477-60.191L510.919,228a100.98,100.98,0,0,1-10.774,13.065,72.11,72.11,0,0,1-19.6,14.507c-41.145,20.276-87.975-11.962-111.262-31.9l-5.3-4.708c-6.023-5.472-9.459-9.2-9.459-9.2L325.85,254.044Z" transform="translate(2622.907 562.83)" opacity="0.1"/>
        <path id="Path_446" data-name="Path 446" d="M349.18,377.547l-1.7,65.111a287.2,287.2,0,0,0,75.631,10.053c4.242,0,8.7,0,13.022-.3a285.219,285.219,0,0,0,66.893-10.944h.424c4.03-1.188,8.017-2.418,11.962-3.775h.424l3.606-1.272a279.629,279.629,0,0,0,39.873-17.646l.806-.424c1.4-.764,2.8-1.527,4.242-2.333l-6.575-87.762,10.477-60.191L510.919,229a101,101,0,0,1-10.774,13.065,72.107,72.107,0,0,1-19.6,14.507c-41.145,20.276-87.975-11.962-111.262-31.9l-5.3-4.708c-6.023-5.472-9.459-9.2-9.459-9.2L325.85,255.044Z" transform="translate(2622.907 566.072)" fill="#fff"/>
        <path id="Path_447" data-name="Path 447" d="M294.36,362.828c3.775,5.048,7.72,9.926,11.835,14.719,2.206,2.588,4.5,5.133,6.829,7.635q1.739,1.951,3.563,3.818a283.019,283.019,0,0,0,30.8,27.953l.764.551a287.208,287.208,0,0,0,85.429,45.9l3.86,1.23c2.375.806,4.836,1.527,7.253,2.206l.976.3c1.23.339,2.46.721,3.733,1.018A287.212,287.212,0,0,0,525.028,478.2c4.242,0,8.7,0,13.022-.3,3.309-54.125,4.242-97.561-.933-108.717a174.981,174.981,0,0,0-10.477-18.749c-20.954-33.68-59.385-84.326-57.307-90.732a66.413,66.413,0,0,0,1.739-9.544c2.248-16.713,4.5-47.3,4.5-47.3h0c-.933,0-19.936.467-47.89,38.558-28.674,39.109-91.241,44.327-91.241,44.327S317.308,277.271,294.36,362.828Z" transform="translate(2520.824 540.495)" fill="#bd171b"/>
        <path id="Path_448" data-name="Path 448" d="M394.959,396.153S398.1,421.137,402.213,451h.424l3.605-1.272a279.626,279.626,0,0,0,39.873-17.646l.806-.424c1.4-.764,2.8-1.527,4.242-2.333a287.712,287.712,0,0,0,52.344-37.667l1.4-1.315a269.513,269.513,0,0,0,24.645-25.451l.891-1.06c-15.143-52.556-46.66-69.1-46.66-69.1s-28.674-13.065-36.522-31.3-77.116-56.8-77.116-56.8v.3c0,3.266-1.1,33.171-2.757,63.245-1.061,19.555-2.375,39.194-3.9,51.665A60.362,60.362,0,0,1,361.28,333.8C355.893,346.651,394.959,396.153,394.959,396.153Z" transform="translate(2736.109 552.684)" fill="#bd171b"/>
      </g>
      <path id="Path_26" data-name="Path 26" d="M695.55,400.785s23.687-124.262,99.943-124.895l55.7,114.667-37.146,25.619S733.329,418.74,695.55,400.785Z" transform="translate(1059.923 1510.525)" fill="#d0cde1"/>
      <path id="Path_27" data-name="Path 27" d="M851.194,390.457l-37.146,25.65s-56.635,1.8-97.411-8.2a112.347,112.347,0,0,1-21.088-7.2,7.356,7.356,0,0,1,.433-2,3.967,3.967,0,0,1,0-.468,281.21,281.21,0,0,1,14.423-45.642c2.333-5.565,5-11.325,7.863-17.057,11.161-21.486,26.852-42.543,48.307-52.97A65.968,65.968,0,0,1,792,275.919h3.4l1.2,2.533,18.863,38.743Z" transform="translate(1059.921 1510.594)" opacity="0.502"/>
      <path id="Path_30" data-name="Path 30" d="M848.472,357.45s-6.365,78.156-55.07,79.421c0,0-13.791-8.328-32.347-22.188-42.774-32.015-110.671-93.547-91.912-150.779C696.061,181.918,826.72,333.1,826.72,333.1l9.994,11.258Z" transform="translate(990.889 1425.769)" fill="#fbbebe"/>
      <path id="Path_31" data-name="Path 31" d="M784.82,284.087s-6.365,78.156-55.07,79.421c0,0-13.791-8.328-32.347-22.189l-4.164-5.331a63.6,63.6,0,0,0,26.653,7.161c12.226.265,25.986-4.265,34.813-21.92a279.126,279.126,0,0,0,13.326-31.016A91.475,91.475,0,0,0,772.961,271Z" transform="translate(1054.537 1499.128)" opacity="0.1"/>
      <path id="Path_32" data-name="Path 32" d="M761.089,430.211l-10.962-14.091-36.979-47.472-18.79-24.253a63.292,63.292,0,0,0,26.653,7.2c12.226.265,25.986-4.265,34.848-21.955a277.849,277.849,0,0,0,13.326-31.016c6.1-17.291,5.963-26.2,3.843-29.182s13.592,11.625,21.155,18.79l.265.266c2.166,2,3.563,3.333,3.563,3.333l1.3,2.6,18.556,37.111.2,1.565C819.757,344.894,826.02,419.616,761.089,430.211Z" transform="translate(1057.146 1494.558)" fill="#e6e6e6"/>
      <path id="Path_38" data-name="Path 38" d="M1078.389,238.209,983.543,339.452s-121.664-48.705-108.871-65.361c4.964-6.462,4.164-26.653,1.3-49.254-4.5-35.445-14.091-76.322-14.091-76.322s212.643-34.582,194.688,1.264c-6.662,13.127-5.4,28.417-1.331,42.543a159.907,159.907,0,0,0,23.153,45.872Z" transform="translate(1447.705 1178.587)" fill="#fbbebe"/>
      <path id="Path_39" data-name="Path 39" d="M1056.568,149.784c-6.661,13.127-9.662,14.392-5.565,28.518-27.816,29.982-63.3,62.465-107.139,62.465a151.681,151.681,0,0,1-67.893-15.925c-4.5-35.445-14.091-76.322-14.091-76.322S1074.523,113.937,1056.568,149.784Z" transform="translate(1447.707 1178.597)" opacity="0.1"/>
      <path id="Path_40" data-name="Path 40" d="M1145.664,226.247a152.477,152.477,0,0,1-304.953,0v-2.2a152.449,152.449,0,0,1,304.891,2.2Z" transform="translate(1398.352 1036.808)" fill="#fbbebe"/>
      <path id="Path_44" data-name="Path 44" d="M1020.311,191.48l-117.866,55.1L835.164,760.1h406.757l-10.26-493.057-20.488-65.322L1156.1,168.39l-56.436,44.873-26.653,3.8Z" transform="translate(1330.251 1259.899)" fill="#e6e6e6"/>
      <path id="Path_45" data-name="Path 45" d="M937.7,192.386s33.947,40.343,33.314,48.67-1.9,28.183-1.9,28.183l-25.65,51.9s-14.091,64.7-14.091,78.156-22.419,129.925-22.419,129.925l-30.326,199.1h76.344c13.608-104.739,23.164-178.624,23.164-178.624l11.527-82.62s12.16-148.613,12.16-163.973-7.028-55.734-7.028-55.734,8.328-38.446,42.91-47.406-2.564-1.932-2.564-1.932l-19.988-16.023-17.291,7.063S947.957,174.462,937.7,192.386Z" transform="translate(1410.932 1291.671)" opacity="0.1"/>
      <path id="Path_46" data-name="Path 46" d="M936.448,191.226s33.947,40.343,33.314,48.67-1.932,28.183-1.932,28.183l-25.619,51.9s-13.924,64.624-13.924,78.055-22.419,129.925-22.419,129.925L875.282,730.934h76.344l23.291-182.347,11.527-82.62s12.16-148.613,12.16-164-7.028-55.733-7.028-55.733,8.327-38.425,42.91-47.406-2.564-1.9-2.564-1.9L1011.935,180.9l-17.022,6.986S946.707,173.215,936.448,191.226Z" transform="translate(1408.35 1289.066)" fill="#2f2e41"/>
      <path id="Path_47" data-name="Path 47" d="M883.641,163.79s-5.131,3.842-6.4,29.451-19.213,83.284-19.213,83.284,66.629-46.141,99.943-41.01Z" transform="translate(1438.737 1249.174)" opacity="0.1"/>
      <path id="Path_48" data-name="Path 48" d="M883.641,161.48s-5.131,3.842-6.4,29.482-19.213,83.284-19.213,83.284,66.629-46.11,99.943-40.975Z" transform="translate(1438.737 1243.789)" fill="#e6e6e6"/>
      <path id="Path_49" data-name="Path 49" d="M993.861,157.63,888.79,249.877s88.415,52.537,99.943,65.361,23.051-125.576,23.051-125.576Z" transform="translate(1510.445 1234.815)" opacity="0.1"/>
      <path id="Path_50" data-name="Path 50" d="M994.872,155.33,890,247.511s88.377,52.5,99.943,65.322,23.086-125.562,23.086-125.562Z" transform="translate(1513.267 1229.451)" fill="#e6e6e6"/>
      <path id="Path_51" data-name="Path 51" d="M1080.883,164.465s-11.527-5.764-22.419,10.9-31.383,24.319-31.383,24.319-116.6,18.591-121.063,33.947l-54.434,3.332s-19.213,2.533-21.155,42.91-12.292,44.108-12.292,44.108-22.419,39.71-20.522,60.2-17.291,30.74-17.291,30.74l79.955,208.193s2.564,85.852-12.191,117.231c-.93,1.977-9.741,31.16-9.741,31.16h175.771l3.518-22.123,9.6-105.04L1042.623,411.8l22.419-153.745S1089.878,175.374,1080.883,164.465Z" transform="translate(1245.328 1248.502)" opacity="0.1"/>
      <path id="Path_52" data-name="Path 52" d="M1079.558,162.155s-11.527-5.764-22.419,10.9-31.383,24.351-31.383,24.351-116.6,18.556-121.063,33.947l-54.469,3.332s-19.212,2.564-21.12,42.91S816.914,321.8,816.914,321.8s-22.419,39.71-20.487,60.2-17.291,30.74-17.291,30.74L859.09,620.927s2.564,85.852-12.16,117.231c-2.621,5.585-9.778,27.54-13.033,38.726H1009.2l6.956-30.031,9.627-105.04,15.37-232.533,22.419-153.745S1088.518,173.047,1079.558,162.155Z" transform="translate(1242.821 1243.117)" fill="#2f2e41"/>
      <path id="Path_53" data-name="Path 53" d="M853.806,393.219,816.66,418.883s-56.635,1.8-97.411-8.2l-20.655-9.194-4.164-1.8,4.265,1.331c21.42,6.365,38.177,6.228,51.269,1.834C802.533,385.17,796.605,298.355,794.7,278.7c-.2-1.967-.349-3.333-.433-3.731a1.071,1.071,0,0,1,0-.234l.3.5a23.556,23.556,0,0,0,2.445,3.333c.734.831,1.5,1.7,2.334,2.5h0l18.556,37.111.2,1.565Z" transform="translate(1057.312 1507.832)" opacity="0.1"/>
      <path id="Path_54" data-name="Path 54" d="M979.953,235.12l-17.923,5.131L959.466,276.9s-21.155-3.332-26.918,21.787-15.992,36.647-15.992,36.647-35.246,29.482-37.178,54.434l-21.755,13.326s-50.651-11.793-62.129-32.137c0,0,23.055,165.272-99.943,124.895,0,0,137.722,60.233,144.118,68.56s48.705,32.647,87.116,12.16,46.774-52,46.774-52,37.146-51.9,38.446-59.6,29.982-16.655,29.982-16.655l55.1-133.268Z" transform="translate(1059.923 1415.474)" fill="#2f2e41"/>
      <path id="Path_55" data-name="Path 55" d="M924.98,239.87l18.556-84.535s8.328,27.551,16.659,33.947l27.551,21.12s27.551,12.827,37.146,12.827c4.769,0,23.407,7.033,35.506,10.345V790.536H953.21c0-7.032-12.993-44.109-12.993-44.109l-28.2-124.912Z" transform="translate(1564.603 1229.464)" opacity="0.1"/>
      <path id="Path_56" data-name="Path 56" d="M954.973,790.7c-5.069-18.924-12.424-44.224-12.424-44.224L914.366,621.545,927.158,239.8l10.9-84.535s16.023,27.551,24.351,33.915,27.519,21.155,27.519,21.155,27.551,12.827,37.178,12.827a125.921,125.921,0,0,1,27.824,4.11V790.7Z" transform="translate(1570.075 1229.304)" fill="#2f2e41"/>
      <path id="Path_67" data-name="Path 67" d="M795.73,207.63s28.183,12.792,34.583,30.74S795.73,207.63,795.73,207.63Z" transform="translate(1293.484 1351.383)" opacity="0.1"/>
      <path id="Path_68" data-name="Path 68" d="M789.407,265.31S748.4,315.28,765.056,334.5,789.407,265.31,789.407,265.31Z" transform="translate(1212.69 1485.859)" opacity="0.1"/>
      <path id="Path_70" data-name="Path 70" d="M953.487,367.878c16.785-18.618,34.819-34.511,41.888-30.534L967.4,367.878Z" transform="translate(1496.105 1652.122)" opacity="0.1"/>
      <path id="Path_71" data-name="Path 71" d="M1145.611,226.342a151.92,151.92,0,0,1-18.021,71.959l-1.131-.2c-9.662-2.033-14.692-13.326-22.087-20.323a29.982,29.982,0,0,0-34.583-4.862A35.179,35.179,0,0,0,1052.8,305.8c-4.863-20.522-3.333-42.341-8.1-62.9s-19.122-41.342-38.743-41.708c-8.46,0-18.357,3.144-24.452-3.332-3.7-3.842-4.464-9.994-7.231-14.493-14.025-22.706-56.635-11.227-74.156.4-16.858,11.178-37.726,30.251-59.384,40.245a152.449,152.449,0,0,1,304.891,2.2Z" transform="translate(1398.406 1036.709)" opacity="0.1"/>
      <path id="Path_72" data-name="Path 72" d="M1001.38,225.383c2.794,4.632,3.532,10.693,7.231,14.493,6.1,6.33,15.992,3.1,24.452,3.333,19.621.349,33.982,21.155,38.743,41.708s3.333,42.341,8.094,62.877a35.114,35.114,0,0,1,17.022-32.836,29.982,29.982,0,0,1,34.547,4.831c7.395,7.028,12.425,18.29,22.087,20.323s18.989-7.231,22.454-17.424,3.333-21.354,5.53-31.914c4.363-19.988,17.389-36.329,24.62-55.335a100.344,100.344,0,0,0-.667-71.558c-4.8-12.027-11.961-22.852-16.656-34.879-7.4-18.255-48.4-42.84-57.368-60.233-15.09-29.116-5.362-10.962-34.547,0-13.924,5.24-32.182-13.393-46.305-8.761-18.958,6.064-39.176,1.5-58.8-1.233s-41.244-3-57,9.994c-18.123,14.825-23.086,42.707-39.976,59-7.161,6.829-16.069,11.178-23.621,17.522s-14.06,15.719-13.326,26.017c1.132,13.326,14.126,25.318,9.327,37.611a30.443,30.443,0,0,1-7.095,9.362,133.436,133.436,0,0,0-31.016,52.768c34.278,10.693,71.393-27.086,98.21-44.94C944.683,214.187,987.355,202.828,1001.38,225.383Z" transform="translate(1371.3 990.965)" fill="#2f2e41"/>
      <path id="Path_82" data-name="Path 82" d="M814.9,249.93s0,146.049-12.491,160.473S814.9,249.93,814.9,249.93Z" transform="translate(1300.9 1450.001)" opacity="0.1"/>
      <g id="Group_1" data-name="Group 1" transform="translate(2200.286 1150.484)" opacity="0.1">
        <path id="Path_84" data-name="Path 84" d="M849.011,121.647c4.7-12.027-7.594-23.785-9.194-36.647a24.1,24.1,0,0,0-2.065,11.594c.832,9.694,8,18.79,9.994,27.75a15.158,15.158,0,0,0,1.264-2.7Z" transform="translate(-808.969 -85)"/>
        <path id="Path_85" data-name="Path 85" d="M1081.728,231.435c-4.6-20.222-3.333-41.611-7.929-61.8s-19.09-41.377-38.711-41.708c-8.46,0-18.357,3.1-24.487-3.332-3.664-3.8-4.429-9.994-7.2-14.493-14.025-22.706-56.635-11.178-74.191.433-26.22,17.424-62.2,53.837-95.779,45.572a121.774,121.774,0,0,0-4.363,11.877c34.279,10.693,71.393-27.086,98.21-44.94,17.49-11.625,60.166-23.32,74.191-.433,2.795,4.632,3.532,10.693,7.231,14.493,6.1,6.33,15.992,3.1,24.452,3.332,19.621.349,33.981,21.155,38.743,41.708s3.333,42.341,8.094,62.877a34.582,34.582,0,0,1,1.746-13.561Z" transform="translate(-829.071 -56.836)"/>
        <path id="Path_86" data-name="Path 86" d="M1001.093,138c-3.332,10.193-12.628,19.523-22.485,17.424S963.915,142.1,956.555,135.1a29.982,29.982,0,0,0-34.583-4.831,34.914,34.914,0,0,0-16.991,31.047,33.313,33.313,0,0,1,15.09-18.556,29.983,29.983,0,0,1,34.548,4.831c7.395,7.028,12.425,18.29,22.087,20.323s18.989-7.231,22.454-17.424a87.153,87.153,0,0,0,3.532-18.388A51.312,51.312,0,0,1,1001.093,138Z" transform="translate(-652.133 12.546)"/>
        <path id="Path_87" data-name="Path 87" d="M961.37,113.907c-7.2,18.989-20.26,35.379-24.585,55.367-.866,4.031-1.366,8.164-1.865,12.292,4.4-19.988,17.358-36.245,24.553-55.168a98.926,98.926,0,0,0,5.938-26.653,97.418,97.418,0,0,1-4.031,14.158Z" transform="translate(-582.295 -50.622)"/>
      </g>
      <g id="Group_100" data-name="Group 100" transform="translate(379.671 304.732) rotate(21)">
        <path id="Path_353" data-name="Path 353" d="M1108.126,346.607A297.514,297.514,0,0,0,682.274,343.4C569.666,456.92,567.761,641.748,677.9,757.584a297.514,297.514,0,0,0,381.556,42.177l215.065,223.621a14.467,14.467,0,0,0,20.476.408l53.572-51.511a14.467,14.467,0,0,0,.408-20.476L1133.911,728.182A297.513,297.513,0,0,0,1108.126,346.607ZM1041.137,706.19c-84.7,81.472-219.4,78.859-300.873-5.836S661.4,480.954,746.1,399.481s219.4-78.862,300.873,5.831,78.864,219.4-5.833,300.877Z" transform="translate(570.71 62.05)" fill="url(#linear-gradient-4)"/>
        <path id="Path_354" data-name="Path 354" d="M677.017,377.85c-23.937,0-23.976,37.179,0,37.179S700.974,377.85,677.017,377.85Z" transform="translate(629.753 177.833)" fill="url(#linear-gradient-5)"/>
        <path id="Path_355" data-name="Path 355" d="M830,316.613c-64.4-1.458-123.031,30.86-154.182,79.726-10.17,15.906,18.707,29.965,28.818,14.137,25.8-40.388,74.845-66.114,127.833-64.695,55.575,1.4,106.152,33.193,132.928,77.315,10.17,16.742,36.771,1.517,26.679-15.128C959.584,354.356,896.542,318.11,830,316.613Z" transform="translate(643.572 119.948)" fill="url(#linear-gradient-6)"/>
        <path id="Path_356" data-name="Path 356" d="M1120.127,340.787a297.513,297.513,0,0,0-425.852-3.209C581.667,451.1,579.761,635.928,689.9,751.764a297.513,297.513,0,0,0,381.556,42.177l205.96,214.153,9.105,9.467a14.467,14.467,0,0,0,20.476.408l23.925-23.2,29.666-28.331a14.467,14.467,0,0,0,.408-20.476L1145.93,722.343A297.513,297.513,0,0,0,1120.127,340.787Zm-66.99,359.582c-84.7,81.472-219.4,78.859-300.872-5.836S673.4,475.134,758.1,393.661s219.4-78.862,300.873,5.831,78.864,219.4-5.833,300.877Z" transform="translate(582.044 56.553)" fill="#2f2e41"/>
        <path id="Path_357" data-name="Path 357" d="M689.017,372c-23.937,0-23.976,37.179,0,37.179S712.974,372,689.017,372Z" transform="translate(641.087 172.307)" fill="#2f2e41"/>
        <path id="Path_358" data-name="Path 358" d="M842,310.793c-64.4-1.458-123.03,30.86-154.182,79.726-10.17,15.906,18.706,29.965,28.818,14.137,25.8-40.388,74.845-66.114,127.834-64.695,55.575,1.4,106.152,33.193,132.928,77.315,10.17,16.742,36.771,1.517,26.679-15.128C971.584,348.575,908.542,312.31,842,310.793Z" transform="translate(654.906 114.451)" fill="#2f2e41"/>
      </g>
      <ellipse id="Ellipse_35" data-name="Ellipse 35" cx="19.5" cy="54.5" rx="19.5" ry="54.5" transform="matrix(0.391, -0.921, 0.921, 0.391, 1684.22, 1735.539)" fill="#fbbebe"/>
    </g>
    <g id="Group_110" data-name="Group 110" transform="translate(3259 4977)">
      <g id="Group_109" data-name="Group 109" transform="translate(-2556 -3311)" opacity="0.5">
        <path id="Path_542" data-name="Path 542" d="M873.74,208.09H842.67V177.03H824.81v31.06H793.74v17.87h31.07v31.06h17.86V225.96h31.07Z" fill="url(#linear-gradient-7)"/>
      </g>
      <rect id="Rectangle_124" data-name="Rectangle 124" width="15.18" height="68" transform="translate(-1729.85 -3127.98)" fill="#2f2e41"/>
      <rect id="Rectangle_125" data-name="Rectangle 125" width="15.18" height="68" transform="translate(-1688.26 -3101.56) rotate(90)" fill="#2f2e41"/>
    </g>
    <g id="Group_115" data-name="Group 115" transform="translate(3847 4325)">
      <g id="Group_109-2" data-name="Group 109" transform="translate(-1762.26 -3133.97)" opacity="0.5">
        <path id="Path_542-2" data-name="Path 542" d="M833.715,192.55H818.19V177.03h-8.924v15.52H793.74v8.929h15.525V217h8.924V201.48h15.525Z" transform="translate(-793.74 -177.03)" fill="url(#linear-gradient-7)"/>
      </g>
      <rect id="Rectangle_124-2" data-name="Rectangle 124" width="7.585" height="33.979" transform="translate(-1746.065 -3130.977)" fill="#2f2e41"/>
      <rect id="Rectangle_125-2" data-name="Rectangle 125" width="7.585" height="33.979" transform="translate(-1725.283 -3117.775) rotate(90)" fill="#2f2e41"/>
    </g>
    <g id="Group_111" data-name="Group 111" transform="translate(2150 4707)">
      <g id="Group_109-3" data-name="Group 109" transform="translate(-1762.26 -3133.97)" opacity="0.5">
        <path id="Path_542-3" data-name="Path 542" d="M904,219.837h-42.82V177.03H836.56v42.807H793.74v24.628h42.82v42.807h24.615V244.465H904Z" transform="translate(-793.74 -177.03)" fill="url(#linear-gradient-7)"/>
      </g>
      <rect id="Rectangle_124-3" data-name="Rectangle 124" width="20.921" height="93.717" transform="translate(-1717.593 -3125.715)" fill="#2f2e41"/>
      <rect id="Rectangle_125-3" data-name="Rectangle 125" width="20.921" height="93.717" transform="translate(-1660.274 -3089.303) rotate(90)" fill="#2f2e41"/>
    </g>
    <g id="Group_112" data-name="Group 112" transform="translate(2703 4213)">
      <g id="Group_109-4" data-name="Group 109" transform="translate(-1762.26 -3133.97)" opacity="0.5">
        <path id="Path_542-4" data-name="Path 542" d="M854.074,200.454H830.642V177.03H817.172v23.424H793.74v13.477h23.432v23.424h13.469V213.931h23.432Z" transform="translate(-793.74 -177.03)" fill="url(#linear-gradient-7)"/>
      </g>
      <rect id="Rectangle_124-4" data-name="Rectangle 124" width="11.448" height="51.283" transform="translate(-1737.817 -3129.452)" fill="#2f2e41"/>
      <rect id="Rectangle_125-4" data-name="Rectangle 125" width="11.448" height="51.283" transform="translate(-1706.452 -3109.528) rotate(90)" fill="#2f2e41"/>
    </g>
  </g>
</svg>
