<svg xmlns="http://www.w3.org/2000/svg" xmlns:xlink="http://www.w3.org/1999/xlink" width="1486.196" height="1028.816" viewBox="0 0 1486.196 1028.816">
  <defs>
    <linearGradient id="linear-gradient" x1="0.5" y1="1" x2="0.5" gradientUnits="objectBoundingBox">
      <stop offset="0" stop-color="#b3b3b3" stop-opacity="0.251"/>
      <stop offset="0.54" stop-color="#b3b3b3" stop-opacity="0.102"/>
      <stop offset="1" stop-color="#b3b3b3" stop-opacity="0.051"/>
    </linearGradient>
    <linearGradient id="linear-gradient-2" x1="0.5" y1="1.001" x2="0.5" gradientUnits="objectBoundingBox">
      <stop offset="0" stop-opacity="0.122"/>
      <stop offset="0.55" stop-opacity="0.09"/>
      <stop offset="1" stop-opacity="0.02"/>
    </linearGradient>
    <linearGradient id="linear-gradient-3" x1="0.5" y1="0.999" x2="0.5" y2="0" xlink:href="#linear-gradient-2"/>
  </defs>
  <g id="Group_153" data-name="Group 153" transform="translate(-290.452 -454.03)">
    <g id="Group_117" data-name="Group 117" transform="translate(290.452 518.523)">
      <path id="Path_543" data-name="Path 543" d="M1226.287,594.143A480.5,480.5,0,0,1,1187.458,784l-1.6,3.68a482.941,482.941,0,0,1-525.379,281.369q-4.344-.77-8.673-1.6a477.855,477.855,0,0,1-87.214-25.719q-6.869-2.76-13.637-5.72c-3.081-1.341-6.162-2.724-9.215-4.151A482.734,482.734,0,0,1,262,594.143C262,327.866,477.866,112,744.143,112S1226.287,327.866,1226.287,594.143Z" transform="translate(-262 -112)" fill="#e6e6e6"/>
      <path id="Union_1" data-name="Union 1" d="M239.684,797.369q-4.346-.771-8.673-1.6A477.946,477.946,0,0,1,143.8,770.052q-6.868-2.762-13.636-5.721c-3.08-1.341-6.163-2.726-9.215-4.153a481.616,481.616,0,0,1-78.813-46.043S19.941,698.063.111,680.052L0,680.067s62.992-130.51,168.035-134.22S318.5,450.1,241.9,404.959,132.473,361.189,132.473,207.99,211.806,1.446,287.038.078,451.18,13.758,466.226,172.426s-80.7,147.727-13.681,254.42c38.338,61.026,94.581,59.846,143.889,58.662,36.894-.885,69.91-1.769,88.644,23.4L728.2,584.394l-.033,0c-69.787,112.248-223.2,220.1-406.81,220.1A473.179,473.179,0,0,1,239.684,797.369Z" transform="translate(158.799 159.686)" fill="#b8bec2"/>
    </g>
    <g id="Group_100" data-name="Group 100" transform="translate(1052.484 445.712) rotate(21)">
      <path id="Path_353" data-name="Path 353" d="M508.864,90.854A295.93,295.93,0,0,0,85.278,87.662C-26.731,200.58-28.626,384.424,80.926,499.643A295.93,295.93,0,0,0,460.451,541.6L674.372,764.027a14.39,14.39,0,0,0,20.367.406L748.026,713.2a14.39,14.39,0,0,0,.406-20.367L534.511,470.4A295.93,295.93,0,0,0,508.864,90.854ZM442.231,448.523c-84.245,81.038-218.233,78.439-299.272-5.8s-78.441-218.232,5.8-299.272S366.993,65,448.034,149.247s78.444,218.236-5.8,299.276Z" transform="translate(0 11.257)" fill="url(#linear-gradient)"/>
      <path id="Path_354" data-name="Path 354" d="M17.872,0c-23.81,0-23.848,36.981,0,36.981S41.7,0,17.872,0Z" transform="translate(120.905 248.354)" fill="url(#linear-gradient-2)"/>
      <path id="Path_355" data-name="Path 355" d="M155.488.047C91.427-1.4,33.112,30.743,2.126,79.349-7.99,95.17,20.733,109.154,30.791,93.41c25.666-40.173,74.446-65.762,127.153-64.35,55.279,1.393,105.587,33.017,132.221,76.9,10.116,16.653,36.575,1.509,26.537-15.048C284.381,37.59,221.675,1.536,155.488.047Z" transform="translate(149.204 129.819)" fill="url(#linear-gradient-3)"/>
      <path id="Path_356" data-name="Path 356" d="M508.864,90.854A295.93,295.93,0,0,0,85.278,87.662C-26.731,200.58-28.626,384.424,80.926,499.643A295.93,295.93,0,0,0,460.451,541.6L665.315,754.61l9.057,9.417a14.39,14.39,0,0,0,20.367.406l23.8-23.076,29.508-28.18a14.39,14.39,0,0,0,.406-20.367L534.53,470.379A295.93,295.93,0,0,0,508.864,90.854ZM442.231,448.523c-84.244,81.038-218.233,78.439-299.271-5.8s-78.441-218.232,5.8-299.272S366.993,65,448.033,149.247s78.444,218.236-5.8,299.276Z" transform="translate(23.21 0)" fill="#b8bec2"/>
      <path id="Path_357" data-name="Path 357" d="M17.872,0c-23.81,0-23.848,36.982,0,36.982S41.7,0,17.872,0Z" transform="translate(144.116 237.039)" fill="#b8bec2"/>
      <path id="Path_358" data-name="Path 358" d="M155.487.047C91.427-1.4,33.111,30.743,2.126,79.349-7.99,95.17,20.733,109.154,30.791,93.41c25.667-40.173,74.446-65.762,127.153-64.35,55.279,1.393,105.587,33.017,132.221,76.9,10.116,16.653,36.576,1.509,26.537-15.048C284.381,37.628,221.675,1.556,155.487.047Z" transform="translate(172.414 118.562)" fill="#b8bec2"/>
    </g>
  </g>
</svg>
