<svg xmlns="http://www.w3.org/2000/svg" xmlns:xlink="http://www.w3.org/1999/xlink" width="931.533" height="644.851" viewBox="0 0 931.533 644.851">
  <defs>
    <linearGradient id="linear-gradient" x1="0.5" y1="1" x2="0.5" gradientUnits="objectBoundingBox">
      <stop offset="0" stop-color="#b3b3b3" stop-opacity="0.251"/>
      <stop offset="0.54" stop-color="#b3b3b3" stop-opacity="0.102"/>
      <stop offset="1" stop-color="#b3b3b3" stop-opacity="0.051"/>
    </linearGradient>
    <linearGradient id="linear-gradient-2" x1="0.5" y1="1.001" x2="0.5" gradientUnits="objectBoundingBox">
      <stop offset="0" stop-opacity="0.122"/>
      <stop offset="0.55" stop-opacity="0.09"/>
      <stop offset="1" stop-opacity="0.02"/>
    </linearGradient>
    <linearGradient id="linear-gradient-3" x1="0.5" y1="0.999" x2="0.5" y2="0" xlink:href="#linear-gradient-2"/>
  </defs>
  <g id="Group_153" data-name="Group 153" transform="translate(-290.452 -450.926)">
    <g id="Group_117" data-name="Group 117" transform="translate(290.452 491.35)">
      <path id="Path_543" data-name="Path 543" d="M866.4,414.2a301.175,301.175,0,0,1-24.337,119l-1,2.307a302.7,302.7,0,0,1-329.3,176.359q-2.723-.483-5.436-1a299.512,299.512,0,0,1-54.665-16.121q-4.305-1.73-8.547-3.585c-1.931-.84-3.863-1.708-5.776-2.6A302.572,302.572,0,0,1,262,414.2C262,247.3,397.3,112,564.2,112S866.4,247.3,866.4,414.2Z" transform="translate(-262 -112)" fill="#e6e6e6"/>
      <path id="Union_1" data-name="Union 1" d="M150.231,499.783q-2.724-.483-5.436-1a299.573,299.573,0,0,1-54.665-16.12q-4.3-1.731-8.547-3.586c-1.931-.84-3.863-1.709-5.776-2.6a301.871,301.871,0,0,1-49.4-28.86S12.5,437.539.07,426.25l-.07.009s39.483-81.8,105.323-84.128,94.308-60.013,46.3-88.306S83.033,226.389,83.033,130.366,132.758.907,179.912.049,282.795,8.624,292.226,108.075s-50.584,92.594-8.575,159.468c24.03,38.251,59.282,37.511,90.188,36.769,23.125-.555,43.819-1.109,55.561,14.67l27.026,47.311-.02,0c-43.742,70.356-139.9,137.955-254.985,137.956A296.583,296.583,0,0,1,150.231,499.783Z" transform="translate(99.534 100.09)" fill="#b8bec2"/>
    </g>
    <g id="Group_100" data-name="Group 100" transform="translate(768.086 445.712) rotate(21)">
      <path id="Path_353" data-name="Path 353" d="M318.951,56.946a185.486,185.486,0,0,0-265.5-2c-70.206,70.776-71.394,186.007-2.728,258.226a185.486,185.486,0,0,0,237.883,26.3L422.689,478.884a9.02,9.02,0,0,0,12.766.255l33.4-32.114a9.019,9.019,0,0,0,.255-12.766L335.026,294.841A185.486,185.486,0,0,0,318.951,56.946ZM277.186,281.129a132.665,132.665,0,1,1,3.637-187.583,132.665,132.665,0,0,1-3.637,187.583Z" transform="translate(0 7.056)" fill="url(#linear-gradient)"/>
      <path id="Path_354" data-name="Path 354" d="M11.2,0c-14.924,0-14.948,23.18,0,23.18S26.138,0,11.2,0Z" transform="translate(75.782 155.666)" fill="url(#linear-gradient-2)"/>
      <path id="Path_355" data-name="Path 355" d="M97.458.03C57.306-.88,20.754,19.269,1.333,49.735-5.008,59.652,13,68.417,19.3,58.549,35.387,33.368,65.962,17.329,99,18.214c34.648.873,66.181,20.694,82.875,48.2,6.34,10.438,22.925.946,16.633-9.432C178.247,23.561,138.944.963,97.458.03Z" transform="translate(93.52 81.369)" fill="url(#linear-gradient-3)"/>
      <path id="Path_356" data-name="Path 356" d="M318.951,56.946a185.486,185.486,0,0,0-265.5-2c-70.206,70.776-71.394,186.007-2.728,258.225a185.486,185.486,0,0,0,237.883,26.3L417.013,472.982l5.677,5.9a9.02,9.02,0,0,0,12.766.255l14.916-14.464,18.5-17.663a9.019,9.019,0,0,0,.255-12.766L335.038,294.829A185.486,185.486,0,0,0,318.951,56.946ZM277.186,281.129a132.665,132.665,0,1,1,3.637-187.583,132.665,132.665,0,0,1-3.637,187.583Z" transform="translate(14.548 0)" fill="#b8bec2"/>
      <path id="Path_357" data-name="Path 357" d="M11.2,0c-14.924,0-14.948,23.18,0,23.18S26.138,0,11.2,0Z" transform="translate(90.33 148.574)" fill="#b8bec2"/>
      <path id="Path_358" data-name="Path 358" d="M97.458.03C57.306-.88,20.754,19.269,1.333,49.735-5.008,59.652,13,68.417,19.3,58.549,35.387,33.369,65.962,17.329,99,18.214c34.648.873,66.181,20.694,82.875,48.2,6.34,10.438,22.925.946,16.633-9.432C178.247,23.585,138.944.975,97.458.03Z" transform="translate(108.067 74.313)" fill="#b8bec2"/>
    </g>
  </g>
</svg>
